<svg width="105" height="275" viewBox="0 0 105 275" fill="none" xmlns="http://www.w3.org/2000/svg">
<path d="M40.4772 38.2429L65.0424 38.2429L69.0755 54.3753L80.4416 61.7083L94.0078 82.2404L100.608 104.422V149.703L88.1421 264.463L51.4776 271.796L17.7461 264.463L4.54689 149.703L2.34595 126.605L4.54689 102.039L14.079 75.2741L24.7114 61.7083L35.3441 54.3753L40.4772 38.2429Z" fill="#0835D5"/>
<path d="M40.4772 38.2429L65.0424 38.2429L69.0755 54.3753L80.4416 61.7083L94.0078 82.2404L100.608 104.422V149.703L88.1421 264.463L51.4776 271.796L17.7461 264.463L4.54689 149.703L2.34595 126.605L4.54689 102.039L14.079 75.2741L24.7114 61.7083L35.3441 54.3753L40.4772 38.2429Z" fill="url(#paint0_linear)"/>
<path fill-rule="evenodd" clip-rule="evenodd" d="M67.0929 4.96848C67.0943 4.9686 67.0858 4.97956 67.0633 5.00099C67.0803 4.97907 67.0915 4.96835 67.0929 4.96848ZM65.7354 5.75986C65.2661 5.55898 64.6831 5.3497 63.9781 5.14532C61.1847 4.3356 57.1461 3.79277 52.5576 3.79277C47.9691 3.79277 43.9304 4.3356 41.1371 5.14532C40.432 5.3497 39.8491 5.55898 39.3797 5.75986C39.8491 5.96075 40.432 6.17002 41.1371 6.3744C43.9304 7.18412 47.9691 7.72695 52.5576 7.72695C57.1461 7.72695 61.1847 7.18412 63.9781 6.3744C64.6831 6.17002 65.2661 5.96075 65.7354 5.75986ZM38.0222 4.96848C38.0236 4.96835 38.0349 4.97907 38.0519 5.00099C38.0293 4.97956 38.0208 4.9686 38.0222 4.96848ZM38.0222 6.55125C38.0208 6.55113 38.0293 6.54017 38.0519 6.51873C38.0349 6.54065 38.0236 6.55137 38.0222 6.55125ZM67.0633 6.51874C67.0858 6.54017 67.0943 6.55113 67.0929 6.55125C67.0915 6.55137 67.0803 6.54066 67.0633 6.51874ZM52.5576 10.7915C62.1439 10.7915 69.9152 8.53873 69.9152 5.75986C69.9152 2.98099 62.1439 0.728271 52.5576 0.728271C42.9712 0.728271 35.2 2.98099 35.2 5.75986C35.2 8.53873 42.9712 10.7915 52.5576 10.7915Z" fill="white"/>
<path fill-rule="evenodd" clip-rule="evenodd" d="M14.0731 261.241C14.0086 261.533 13.9758 261.828 13.9758 262.125C13.9758 268.917 31.1239 274.422 52.2772 274.422C73.307 274.422 90.3783 268.981 90.5767 262.243C86.8686 263.857 82.4322 265.226 77.46 266.279C71.1549 268.239 62.2745 269.519 52.2772 269.519C42.0658 269.519 33.0198 268.183 26.693 266.152C25.0865 265.636 23.7245 265.097 22.5989 264.561C19.4042 263.593 16.538 262.477 14.0731 261.241Z" fill="white"/>
<path d="M0.396973 137.723L4.7925 137.24L18.4192 263.299L13.9758 261.241L0.396973 137.723Z" fill="white"/>
<path d="M104.156 138.805L99.76 138.322L86.426 264.192L90.5767 262.324L104.156 138.805Z" fill="white"/>
<path d="M26.7485 69.8611C27.1778 69.117 28.198 68.9867 28.8006 69.599C29.2024 70.0072 29.2896 70.6303 29.0153 71.1331L25.5457 77.4939C25.3126 77.9212 25.1312 78.3748 25.0054 78.845L23.0324 86.2205C22.8747 86.8099 22.2976 87.1854 21.6948 87.0906C21.0036 86.982 20.5539 86.3046 20.722 85.6254L22.8217 77.1461C22.9598 76.5888 23.1754 76.0536 23.4624 75.5562L26.7485 69.8611Z" fill="white"/>
<path d="M29.601 77.968C29.936 77.1705 30.9365 76.9081 31.6196 77.4386C32.0801 77.7961 32.2501 78.4141 32.0375 78.9568L29.4027 85.6814C29.2231 86.1399 29.0993 86.6185 29.0342 87.1066L28.0275 94.6506C27.9457 95.2638 27.4136 95.716 26.7953 95.6978C26.0886 95.677 25.5509 95.0562 25.6312 94.3539L26.6205 85.697C26.6865 85.1199 26.8342 84.555 27.0591 84.0194L29.601 77.968Z" fill="white"/>
<path fill-rule="evenodd" clip-rule="evenodd" d="M41.111 8.65814C40.7589 9.09821 39.1664 12.7319 43.8644 19.4434C45.6764 22.032 46.3105 24.4407 46.0186 26.9584C45.7477 29.2946 44.6796 31.5682 43.5986 33.8383C43.533 33.9761 43.4667 34.1151 43.3998 34.2552C41.2256 38.8125 38.4314 44.669 38.0178 54.5967L37.9588 56.0111L36.6353 56.5131C22.1101 62.0227 13.6695 76.5029 9.12863 93.0384C4.60687 109.504 4.11959 127.45 5.06893 138.915L0.793258 139.269C-0.186591 127.436 0.305444 108.966 4.99149 91.9023C9.53318 75.364 18.1746 59.6128 33.8051 53.0254C34.4508 43.048 37.3784 36.9122 39.5222 32.4193C39.5906 32.2758 39.6583 32.134 39.7251 31.9938C40.8699 29.5896 41.5825 27.9678 41.7568 26.4643C41.9101 25.1423 41.6539 23.7669 40.3496 21.9037C35.0756 14.3693 35.7386 8.50584 37.7608 5.97803L41.111 8.65814Z" fill="white"/>
<path fill-rule="evenodd" clip-rule="evenodd" d="M63.745 8.65814C64.097 9.09821 65.6896 12.7319 60.9916 19.4434C59.1796 22.032 58.5455 24.4407 58.8374 26.9584C59.1082 29.2946 60.1763 31.5682 61.2574 33.8383C61.323 33.9761 61.3892 34.1151 61.4561 34.2552C63.6304 38.8125 66.4245 44.669 66.8382 54.5967L66.8971 56.0111L68.2207 56.5131C82.7459 62.0227 91.1864 76.5029 95.7273 93.0384C100.249 109.504 100.736 127.45 99.787 138.915L104.063 139.269C105.043 127.436 104.551 108.966 99.8645 91.9023C95.3228 75.364 86.6814 59.6128 71.0508 53.0254C70.4052 43.048 67.4775 36.9122 65.3338 32.4193C65.2653 32.2758 65.1977 32.134 65.1309 31.9938C63.986 29.5896 63.2734 27.9678 63.0991 26.4643C62.9459 25.1423 63.2021 23.7669 64.5064 21.9037C69.7804 14.3693 69.1174 8.50584 67.0952 5.97803L63.745 8.65814Z" fill="white"/>
<defs>
<linearGradient id="paint0_linear" x1="51.477" y1="38.2429" x2="51.477" y2="271.796" gradientUnits="userSpaceOnUse">
<stop stop-color="#0B0336"/>
<stop offset="1" stop-color="white" stop-opacity="0"/>
</linearGradient>
</defs>
</svg>
