<svg width="137" height="118" viewBox="0 0 137 118" fill="none" xmlns="http://www.w3.org/2000/svg">
<path d="M69.4715 57.2991C69.4715 75.3755 54.9733 93.4228 35.8658 93.4228C16.6842 93.4228 1.31238 76.4634 1.31238 58.4672C1.31238 49.4987 4.81206 42.494 10.6635 37.7115C16.5378 32.9104 24.8628 30.2868 34.5809 30.2868C44.3256 30.2868 53.0748 32.6317 59.3582 37.165C65.6062 41.6728 69.4715 48.3774 69.4715 57.2991Z" fill="#A70000" stroke="#680000" stroke-width="2.04567"/>
<path d="M61.916 54.803C61.916 68.8444 49.9861 82.9624 34.0865 82.9624C18.1868 82.9624 5.49536 69.7299 5.49536 55.6885C5.49536 41.6471 17.1542 33.5505 33.0538 33.5505C48.9535 33.5505 61.916 40.7615 61.916 54.803Z" fill="#AF3030"/>
<path d="M31.3819 61.7139C29.8466 65.7194 23.9495 68.078 18.1474 65.854C12.3454 63.63 9.16095 58.08 10.6963 54.0746C12.2316 50.0691 17.3714 49.3903 23.1735 51.6142C28.9755 53.8382 32.9173 57.7084 31.3819 61.7139Z" fill="#D84E4E"/>
<path d="M25.6092 59.3802C24.9007 61.2286 21.9796 62.2404 19.0358 61.112C16.092 59.9836 14.4098 57.341 15.1183 55.4926C15.8268 53.6443 18.394 53.4059 21.3378 54.5343C24.2816 55.6627 26.3177 57.5319 25.6092 59.3802Z" fill="#E78C8C"/>
<path d="M22.1153 42.5841C20.6303 41.2751 21.0553 39.9499 23.14 37.5849C25.2248 35.22 35.0898 34.9892 36.5747 36.2982C38.0596 37.6072 26.4356 35.6944 24.3509 38.0593C22.2661 40.4243 23.6002 43.8931 22.1153 42.5841Z" fill="#E78C8C"/>
<path d="M40.2029 38.514C43.4487 37.8905 49.8881 40.516 48.8307 42.5327C47.7733 44.5493 38.8273 46.1742 37.1363 45.2875C35.4453 44.4008 46.5929 44.1028 47.6503 42.0861C48.7077 40.0694 39.0793 38.911 40.2029 38.514Z" fill="#E78C8C"/>
<path d="M23.0635 58.1487C22.7185 59.0488 21.2015 59.5054 19.6422 58.9076C18.0828 58.3099 17.1632 56.9845 17.5083 56.0844C17.8533 55.1843 19.1957 55.1036 20.7551 55.7013C22.3144 56.299 23.4085 57.2486 23.0635 58.1487Z" fill="white"/>
<path d="M51.8502 44.4777C51.8502 45.2598 44.1097 48.6997 35.682 48.6997C27.2544 48.6997 20.2119 44.7789 20.2119 43.9967C20.2119 43.2145 27.2544 46.6688 35.682 46.6688C44.1097 46.6688 51.8502 43.6955 51.8502 44.4777Z" fill="#680000"/>
<mask id="path-9-inside-1" fill="white">
<path fill-rule="evenodd" clip-rule="evenodd" d="M44.7239 16.1001C45.0022 17.4936 43.5387 18.9606 41.455 19.3767C40.5331 19.5608 39.6442 19.5083 38.9155 19.2718C38.3385 19.3421 37.8297 19.3685 37.4026 19.3907L37.2727 19.3975C36.4259 19.4424 36.0764 19.4893 35.7785 19.6182C35.2677 19.8391 34.2527 20.6236 32.426 25.1686C31.1556 28.3292 31.3502 30.4765 31.974 32.2038C32.3045 33.1188 32.7802 33.9813 33.3482 34.8839C33.5467 35.1995 33.8014 35.5859 34.0692 35.9923C34.3591 36.4322 34.6645 36.8954 34.9305 37.3172C34.9905 37.3445 35.0477 37.3793 35.1007 37.4214L40.8249 41.9699C41.4678 42.4808 41.0416 43.5144 40.2255 43.4238L27.9187 42.0573C27.1026 41.9667 26.9136 40.8647 27.6529 40.5073L31.0602 38.8603C30.96 38.7077 30.8592 38.5562 30.7558 38.4006L30.7558 38.4006L30.7557 38.4005L30.7557 38.4004C30.4946 38.0076 30.2163 37.5889 29.8852 37.0627C29.2498 36.0527 28.6002 34.9066 28.126 33.5936C27.1405 30.865 27.0075 27.6791 28.6298 23.6428C30.4188 19.1916 31.9377 16.8217 34.1544 15.863C35.2023 15.4098 36.2471 15.3546 37.0168 15.314L37.0563 15.3119L37.1299 15.308C37.5594 15.2853 37.9633 15.264 38.378 15.2158C38.9327 14.8074 39.6439 14.4908 40.4473 14.3303C42.5309 13.9142 44.4456 14.7066 44.7239 16.1001Z"/>
</mask>
<path fill-rule="evenodd" clip-rule="evenodd" d="M44.7239 16.1001C45.0022 17.4936 43.5387 18.9606 41.455 19.3767C40.5331 19.5608 39.6442 19.5083 38.9155 19.2718C38.3385 19.3421 37.8297 19.3685 37.4026 19.3907L37.2727 19.3975C36.4259 19.4424 36.0764 19.4893 35.7785 19.6182C35.2677 19.8391 34.2527 20.6236 32.426 25.1686C31.1556 28.3292 31.3502 30.4765 31.974 32.2038C32.3045 33.1188 32.7802 33.9813 33.3482 34.8839C33.5467 35.1995 33.8014 35.5859 34.0692 35.9923C34.3591 36.4322 34.6645 36.8954 34.9305 37.3172C34.9905 37.3445 35.0477 37.3793 35.1007 37.4214L40.8249 41.9699C41.4678 42.4808 41.0416 43.5144 40.2255 43.4238L27.9187 42.0573C27.1026 41.9667 26.9136 40.8647 27.6529 40.5073L31.0602 38.8603C30.96 38.7077 30.8592 38.5562 30.7558 38.4006L30.7558 38.4006L30.7557 38.4005L30.7557 38.4004C30.4946 38.0076 30.2163 37.5889 29.8852 37.0627C29.2498 36.0527 28.6002 34.9066 28.126 33.5936C27.1405 30.865 27.0075 27.6791 28.6298 23.6428C30.4188 19.1916 31.9377 16.8217 34.1544 15.863C35.2023 15.4098 36.2471 15.3546 37.0168 15.314L37.0563 15.3119L37.1299 15.308C37.5594 15.2853 37.9633 15.264 38.378 15.2158C38.9327 14.8074 39.6439 14.4908 40.4473 14.3303C42.5309 13.9142 44.4456 14.7066 44.7239 16.1001Z" fill="#22AB00"/>
<path fill-rule="evenodd" clip-rule="evenodd" d="M44.7239 16.1001C45.0022 17.4936 43.5387 18.9606 41.455 19.3767C40.5331 19.5608 39.6442 19.5083 38.9155 19.2718C38.3385 19.3421 37.8297 19.3685 37.4026 19.3907L37.2727 19.3975C36.4259 19.4424 36.0764 19.4893 35.7785 19.6182C35.2677 19.8391 34.2527 20.6236 32.426 25.1686C31.1556 28.3292 31.3502 30.4765 31.974 32.2038C32.3045 33.1188 32.7802 33.9813 33.3482 34.8839C33.5467 35.1995 33.8014 35.5859 34.0692 35.9923C34.3591 36.4322 34.6645 36.8954 34.9305 37.3172C34.9905 37.3445 35.0477 37.3793 35.1007 37.4214L40.8249 41.9699C41.4678 42.4808 41.0416 43.5144 40.2255 43.4238L27.9187 42.0573C27.1026 41.9667 26.9136 40.8647 27.6529 40.5073L31.0602 38.8603C30.96 38.7077 30.8592 38.5562 30.7558 38.4006L30.7558 38.4006L30.7557 38.4005L30.7557 38.4004C30.4946 38.0076 30.2163 37.5889 29.8852 37.0627C29.2498 36.0527 28.6002 34.9066 28.126 33.5936C27.1405 30.865 27.0075 27.6791 28.6298 23.6428C30.4188 19.1916 31.9377 16.8217 34.1544 15.863C35.2023 15.4098 36.2471 15.3546 37.0168 15.314L37.0563 15.3119L37.1299 15.308C37.5594 15.2853 37.9633 15.264 38.378 15.2158C38.9327 14.8074 39.6439 14.4908 40.4473 14.3303C42.5309 13.9142 44.4456 14.7066 44.7239 16.1001Z" fill="url(#paint0_linear)"/>
<path d="M41.455 19.3767L41.5752 19.9785H41.5752L41.455 19.3767ZM44.7239 16.1001L44.1221 16.2203V16.2203L44.7239 16.1001ZM38.9155 19.2718L39.1049 18.6881L38.9759 18.6463L38.8413 18.6627L38.9155 19.2718ZM37.4026 19.3907L37.3707 18.7778L37.3705 18.7778L37.4026 19.3907ZM37.2727 19.3975L37.2407 18.7846L37.2403 18.7847L37.2727 19.3975ZM35.7785 19.6182L36.0221 20.1814L36.0221 20.1814L35.7785 19.6182ZM32.426 25.1686L32.9954 25.3974V25.3974L32.426 25.1686ZM31.974 32.2038L31.3968 32.4122V32.4122L31.974 32.2038ZM33.3482 34.8839L32.8287 35.2108L33.3482 34.8839ZM34.0692 35.9923L34.5816 35.6545H34.5816L34.0692 35.9923ZM34.9305 37.3172L34.4114 37.6446L34.5093 37.7998L34.6764 37.8758L34.9305 37.3172ZM35.1007 37.4214L34.7189 37.9019L34.7189 37.9019L35.1007 37.4214ZM40.8249 41.9699L40.4431 42.4504L40.8249 41.9699ZM40.2255 43.4238L40.2933 42.8139H40.2933L40.2255 43.4238ZM27.9187 42.0573L27.9865 41.4474L27.9187 42.0573ZM27.6529 40.5073L27.92 41.0599H27.92L27.6529 40.5073ZM31.0602 38.8603L31.3273 39.4128L31.9574 39.1082L31.5731 38.5233L31.0602 38.8603ZM30.7558 38.4006L30.2412 38.7351L30.2447 38.7403L30.7558 38.4006ZM30.7558 38.4006L31.2704 38.066L31.2644 38.0572L30.7558 38.4006ZM30.7557 38.4005L31.2644 38.0571L31.2633 38.0555L30.7557 38.4005ZM30.7557 38.4004L30.2445 38.7401L30.2481 38.7454L30.7557 38.4004ZM29.8852 37.0627L29.3658 37.3896L29.3658 37.3896L29.8852 37.0627ZM28.126 33.5936L28.7032 33.3851L28.126 33.5936ZM28.6298 23.6428L28.0603 23.4139L28.6298 23.6428ZM34.1544 15.863L33.9108 15.2997L34.1544 15.863ZM37.0168 15.314L37.0492 15.9268L37.0492 15.9268L37.0168 15.314ZM37.0563 15.3119L37.024 14.699L37.0239 14.699L37.0563 15.3119ZM37.1299 15.308L37.0975 14.6952L37.0975 14.6952L37.1299 15.308ZM38.378 15.2158L38.4488 15.8254L38.6107 15.8066L38.7419 15.71L38.378 15.2158ZM40.4473 14.3303L40.3271 13.7285L40.4473 14.3303ZM41.5752 19.9785C42.7197 19.75 43.7212 19.2285 44.4097 18.5384C45.0947 17.8517 45.5174 16.9396 45.3257 15.9799L44.1221 16.2203C44.2087 16.6541 44.0388 17.1722 43.5407 17.6715C43.0461 18.1673 42.274 18.5873 41.3348 18.7749L41.5752 19.9785ZM38.726 19.8556C39.5645 20.1277 40.5608 20.1811 41.5752 19.9785L41.3348 18.7749C40.5053 18.9405 39.7238 18.889 39.1049 18.6881L38.726 19.8556ZM37.4344 20.0036C37.861 19.9814 38.3892 19.9542 38.9897 19.881L38.8413 18.6627C38.2878 18.7301 37.7984 18.7556 37.3707 18.7778L37.4344 20.0036ZM37.3048 20.0104L37.4346 20.0036L37.3705 18.7778L37.2407 18.7846L37.3048 20.0104ZM36.0221 20.1814C36.2031 20.1031 36.4422 20.056 37.3052 20.0103L37.2403 18.7847C36.4095 18.8287 35.9497 18.8755 35.5349 19.0549L36.0221 20.1814ZM32.9954 25.3974C33.9011 23.1438 34.5918 21.8586 35.1009 21.1202C35.6045 20.3898 35.9042 20.2325 36.0221 20.1814L35.5349 19.0549C35.142 19.2248 34.6788 19.5702 34.0904 20.4235C33.5076 21.2688 32.7775 22.6483 31.8565 24.9397L32.9954 25.3974ZM32.5512 31.9953C31.9816 30.4181 31.7779 28.4266 32.9954 25.3974L31.8565 24.9397C30.5334 28.2318 30.7188 30.5348 31.3968 32.4122L32.5512 31.9953ZM33.8676 34.5571C33.3097 33.6705 32.8602 32.8506 32.5512 31.9953L31.3968 32.4122C31.7489 33.387 32.2507 34.2921 32.8287 35.2108L33.8676 34.5571ZM34.5816 35.6545C34.3126 35.2464 34.0619 34.866 33.8676 34.5571L32.8287 35.2108C33.0315 35.533 33.2902 35.9255 33.5568 36.33L34.5816 35.6545ZM35.4496 36.9899C35.1796 36.5618 34.8708 36.0933 34.5816 35.6545L33.5568 36.33C33.8475 36.7711 34.1493 37.229 34.4114 37.6446L35.4496 36.9899ZM34.6764 37.8758C34.6912 37.8826 34.7055 37.8912 34.7189 37.9019L35.4825 36.9409C35.3899 36.8674 35.2897 36.8065 35.1847 36.7587L34.6764 37.8758ZM34.7189 37.9019L40.4431 42.4504L41.2067 41.4894L35.4825 36.9409L34.7189 37.9019ZM40.4431 42.4504C40.494 42.4909 40.5115 42.5292 40.5185 42.5602C40.5267 42.5966 40.524 42.6422 40.505 42.6885C40.4859 42.7348 40.4556 42.7691 40.4242 42.7891C40.3974 42.8062 40.3579 42.8211 40.2933 42.8139L40.1578 44.0338C41.586 44.1924 42.3317 42.3834 41.2067 41.4894L40.4431 42.4504ZM40.2933 42.8139L27.9865 41.4474L27.851 42.6673L40.1578 44.0338L40.2933 42.8139ZM27.9865 41.4474C27.9218 41.4402 27.8866 41.417 27.8641 41.3945C27.8379 41.3681 27.8159 41.328 27.8074 41.2786C27.7989 41.2293 27.8063 41.1841 27.8223 41.1505C27.8359 41.1217 27.8614 41.0882 27.92 41.0599L27.3858 39.9548C26.092 40.5802 26.4228 42.5087 27.851 42.6673L27.9865 41.4474ZM27.92 41.0599L31.3273 39.4128L30.7931 38.3078L27.3858 39.9548L27.92 41.0599ZM30.2447 38.7403C30.3483 38.8962 30.4481 39.0463 30.5473 39.1973L31.5731 38.5233C31.4718 38.3692 31.3702 38.2163 31.2669 38.0609L30.2447 38.7403ZM30.2412 38.735L30.2413 38.7351L31.2704 38.0662L31.2703 38.0661L30.2412 38.735ZM30.2471 38.7438L30.2471 38.7439L31.2644 38.0572L31.2644 38.0572L30.2471 38.7438ZM30.2481 38.7454L30.2482 38.7455L31.2633 38.0555L31.2632 38.0554L30.2481 38.7454ZM29.3658 37.3896C29.7013 37.9229 29.9834 38.3472 30.2446 38.7401L31.2668 38.0607C31.0057 37.668 30.7312 37.2549 30.4047 36.7359L29.3658 37.3896ZM27.5488 33.8021C28.0446 35.1747 28.7201 36.3634 29.3658 37.3896L30.4047 36.7359C29.7794 35.7421 29.1559 34.6384 28.7032 33.3851L27.5488 33.8021ZM28.0603 23.4139C26.3853 27.5815 26.509 30.9232 27.5488 33.8021L28.7032 33.3851C27.7719 30.8068 27.6297 27.7767 29.1992 23.8717L28.0603 23.4139ZM33.9108 15.2997C31.4387 16.3688 29.8443 18.9754 28.0603 23.4139L29.1992 23.8717C30.9933 19.4077 32.4366 17.2745 34.3981 16.4263L33.9108 15.2997ZM36.9844 14.7011C36.2196 14.7415 35.0717 14.7976 33.9108 15.2997L34.3981 16.4263C35.3328 16.022 36.2747 15.9677 37.0492 15.9268L36.9844 14.7011ZM37.0239 14.699L36.9844 14.7011L37.0492 15.9268L37.0887 15.9247L37.0239 14.699ZM37.0975 14.6952L37.024 14.699L37.0887 15.9247L37.1622 15.9209L37.0975 14.6952ZM38.3072 14.6062C37.9148 14.6518 37.5302 14.6723 37.0975 14.6952L37.1622 15.9209C37.5887 15.8983 38.0118 15.8762 38.4488 15.8254L38.3072 14.6062ZM40.3271 13.7285C39.4421 13.9052 38.6464 14.2561 38.0141 14.7216L38.7419 15.71C39.219 15.3587 39.8457 15.0763 40.5675 14.9321L40.3271 13.7285ZM45.3257 15.9799C45.1341 15.0202 44.3934 14.3404 43.4973 13.9695C42.5965 13.5968 41.4715 13.5 40.3271 13.7285L40.5675 14.9321C41.5066 14.7446 42.3808 14.8359 43.0279 15.1037C43.6796 15.3733 44.0355 15.7864 44.1221 16.2203L45.3257 15.9799Z" fill="#0C3D00" mask="url(#path-9-inside-1)"/>
<path d="M49.7522 16.4592C50.089 16.8786 50.4468 17.3205 50.8187 17.7798C52.7275 20.1372 55.0062 22.9514 56.6968 25.5049C57.7089 27.0337 58.4844 28.4317 58.8492 29.557C59.2273 30.7235 59.0956 31.3555 58.706 31.6684C58.4837 31.8469 58.1235 31.9797 57.595 32.0257C57.0719 32.0713 56.4281 32.0279 55.687 31.8972C54.2055 31.6358 52.4052 31.038 50.5416 30.2079C46.8014 28.5421 42.9287 25.9966 40.9477 23.5298C39.9054 22.2319 38.903 21.1758 38.0332 20.293C37.808 20.0645 37.5937 19.8494 37.3908 19.6458C36.8004 19.0534 36.3069 18.5582 35.9253 18.1112C35.4022 17.4984 35.1943 17.0899 35.1821 16.7746C35.1718 16.5083 35.3023 16.1648 35.9131 15.6742C37.1437 14.686 39.6499 13.6536 42.3547 13.5013C45.0441 13.35 47.8344 14.0711 49.7522 16.4592Z" fill="#1B8800" stroke="#0C3D00" stroke-width="1.02283"/>
<path d="M35.6454 16.2771C38.5274 15.9081 45.2921 16.6054 49.294 22.3468C53.2959 28.0882 53.9655 28.742 53.8492 29.1787" stroke="#0C3D00" stroke-width="0.818266"/>
<path d="M50.1377 59.8461C44.1016 76.885 51.7413 98.7376 69.752 105.118C87.8326 111.523 107.985 100.67 113.995 83.7069C116.989 75.2532 116.03 67.4819 112.111 61.0201C108.177 54.533 101.206 49.2801 92.0456 46.035C82.8603 42.7811 73.8302 42.0698 66.3937 44.2447C58.9991 46.4074 53.1168 51.4365 50.1377 59.8461Z" fill="#A70000" stroke="#680000" stroke-width="2.04567"/>
<path d="M58.0931 60.0162C53.4044 73.2516 59.9351 90.543 74.9222 95.8522C89.9092 101.161 106.291 92.9264 110.98 79.6909C115.668 66.4555 107.382 54.9305 92.3952 49.6213C77.4082 44.3121 62.7818 46.7808 58.0931 60.0162Z" fill="#AF3030"/>
<path d="M63.6439 78.3058C67.8602 79.0954 72.9578 75.3068 74.1016 69.1993C75.2454 63.0918 72.185 57.4725 67.9686 56.6829C63.7523 55.8932 60.4823 59.9164 59.3385 66.0239C58.1947 72.1314 59.4275 77.5162 63.6439 78.3058Z" fill="#D84E4E"/>
<path d="M64.6787 72.166C66.6244 72.5304 69.0161 70.5716 69.5965 67.4729C70.1768 64.3741 68.8065 61.5572 66.8608 61.1928C64.9151 60.8284 63.3677 62.8906 62.7873 65.9893C62.207 69.0881 62.7331 71.8016 64.6787 72.166Z" fill="#E78C8C"/>
<path d="M99.6892 61.7891C101.526 61.0511 101.568 59.66 100.393 56.7346C99.2172 53.8093 89.9955 50.2977 88.1587 51.0357C86.322 51.7737 97.9175 53.8521 99.0929 56.7775C100.268 59.7028 97.8524 62.5271 99.6892 61.7891Z" fill="#E78C8C"/>
<path d="M83.999 51.9127C81.1477 50.2412 74.2012 50.5657 74.5245 52.8197C74.8478 55.0737 82.7378 59.5925 84.6278 59.3214C86.5179 59.0503 76.1096 55.0469 75.7863 52.7929C75.463 50.5389 84.9256 52.6621 83.999 51.9127Z" fill="#E78C8C"/>
<path d="M64.9631 69.3522C65.9106 69.5297 67.094 68.4765 67.4014 66.835C67.7088 65.1935 67.0612 63.7161 66.1137 63.5386C65.1662 63.3612 64.3945 64.4625 64.087 66.104C63.7796 67.7454 64.0156 69.1748 64.9631 69.3522Z" fill="white"/>
<path d="M71.0289 53.6448C70.7678 54.382 76.9153 60.2091 84.8592 63.0233C92.8031 65.8375 100.751 64.4933 101.012 63.7561C101.273 63.0188 93.4813 63.9232 85.5374 61.109C77.5934 58.2949 71.2901 52.9075 71.0289 53.6448Z" fill="#680000"/>
<mask id="path-21-inside-2" fill="white">
<path fill-rule="evenodd" clip-rule="evenodd" d="M87.2218 29.2757C86.4942 30.4963 87.3839 32.3677 89.209 33.4557C90.0165 33.9372 90.872 34.1845 91.6378 34.2049C92.1581 34.4638 92.6288 34.6585 93.024 34.8221L93.1441 34.8718C93.9274 35.1969 94.2411 35.3578 94.4789 35.5788C94.8866 35.9576 95.5814 37.036 95.7856 41.93C95.9276 45.3335 95.0272 47.2925 93.8624 48.7124C93.2453 49.4645 92.5089 50.1187 91.6722 50.7798C91.3797 51.011 91.0105 51.2902 90.6224 51.5838C90.2021 51.9017 89.7596 52.2365 89.3678 52.5453C89.3024 52.551 89.237 52.5647 89.1732 52.5866L82.2587 54.9626C81.4821 55.2295 81.5386 56.3461 82.3381 56.5332L94.3949 59.3546C95.1944 59.5417 95.7405 58.5661 95.163 57.9824L92.5011 55.2919C92.6465 55.1816 92.792 55.0724 92.9414 54.9603L92.9415 54.9603L92.9415 54.9602L92.9416 54.9602C93.3189 54.6771 93.721 54.3753 94.2088 53.9899C95.145 53.2501 96.14 52.3866 97.0254 51.3074C98.8656 49.0644 100.055 46.1058 99.8734 41.7595C99.6734 36.9664 99.0331 34.2253 97.2637 32.5814C96.4273 31.8044 95.4608 31.4035 94.7489 31.1081L94.7123 31.093L94.6443 31.0648C94.247 30.9 93.8735 30.745 93.4987 30.5611C93.1122 29.9909 92.5476 29.455 91.844 29.0355C90.0189 27.9475 87.9495 28.0551 87.2218 29.2757Z"/>
</mask>
<path fill-rule="evenodd" clip-rule="evenodd" d="M87.2218 29.2757C86.4942 30.4963 87.3839 32.3677 89.209 33.4557C90.0165 33.9372 90.872 34.1845 91.6378 34.2049C92.1581 34.4638 92.6288 34.6585 93.024 34.8221L93.1441 34.8718C93.9274 35.1969 94.2411 35.3578 94.4789 35.5788C94.8866 35.9576 95.5814 37.036 95.7856 41.93C95.9276 45.3335 95.0272 47.2925 93.8624 48.7124C93.2453 49.4645 92.5089 50.1187 91.6722 50.7798C91.3797 51.011 91.0105 51.2902 90.6224 51.5838C90.2021 51.9017 89.7596 52.2365 89.3678 52.5453C89.3024 52.551 89.237 52.5647 89.1732 52.5866L82.2587 54.9626C81.4821 55.2295 81.5386 56.3461 82.3381 56.5332L94.3949 59.3546C95.1944 59.5417 95.7405 58.5661 95.163 57.9824L92.5011 55.2919C92.6465 55.1816 92.792 55.0724 92.9414 54.9603L92.9415 54.9603L92.9415 54.9602L92.9416 54.9602C93.3189 54.6771 93.721 54.3753 94.2088 53.9899C95.145 53.2501 96.14 52.3866 97.0254 51.3074C98.8656 49.0644 100.055 46.1058 99.8734 41.7595C99.6734 36.9664 99.0331 34.2253 97.2637 32.5814C96.4273 31.8044 95.4608 31.4035 94.7489 31.1081L94.7123 31.093L94.6443 31.0648C94.247 30.9 93.8735 30.745 93.4987 30.5611C93.1122 29.9909 92.5476 29.455 91.844 29.0355C90.0189 27.9475 87.9495 28.0551 87.2218 29.2757Z" fill="#22AB00"/>
<path fill-rule="evenodd" clip-rule="evenodd" d="M87.2218 29.2757C86.4942 30.4963 87.3839 32.3677 89.209 33.4557C90.0165 33.9372 90.872 34.1845 91.6378 34.2049C92.1581 34.4638 92.6288 34.6585 93.024 34.8221L93.1441 34.8718C93.9274 35.1969 94.2411 35.3578 94.4789 35.5788C94.8866 35.9576 95.5814 37.036 95.7856 41.93C95.9276 45.3335 95.0272 47.2925 93.8624 48.7124C93.2453 49.4645 92.5089 50.1187 91.6722 50.7798C91.3797 51.011 91.0105 51.2902 90.6224 51.5838C90.2021 51.9017 89.7596 52.2365 89.3678 52.5453C89.3024 52.551 89.237 52.5647 89.1732 52.5866L82.2587 54.9626C81.4821 55.2295 81.5386 56.3461 82.3381 56.5332L94.3949 59.3546C95.1944 59.5417 95.7405 58.5661 95.163 57.9824L92.5011 55.2919C92.6465 55.1816 92.792 55.0724 92.9414 54.9603L92.9415 54.9603L92.9415 54.9602L92.9416 54.9602C93.3189 54.6771 93.721 54.3753 94.2088 53.9899C95.145 53.2501 96.14 52.3866 97.0254 51.3074C98.8656 49.0644 100.055 46.1058 99.8734 41.7595C99.6734 36.9664 99.0331 34.2253 97.2637 32.5814C96.4273 31.8044 95.4608 31.4035 94.7489 31.1081L94.7123 31.093L94.6443 31.0648C94.247 30.9 93.8735 30.745 93.4987 30.5611C93.1122 29.9909 92.5476 29.455 91.844 29.0355C90.0189 27.9475 87.9495 28.0551 87.2218 29.2757Z" fill="url(#paint1_linear)"/>
<path d="M89.209 33.4557L89.5232 32.9286L89.209 33.4557ZM87.2218 29.2757L86.6947 28.9614L86.6947 28.9614L87.2218 29.2757ZM91.6378 34.2049L91.6542 33.5914L91.7897 33.5951L91.9112 33.6555L91.6378 34.2049ZM93.024 34.8221L93.2586 34.255L93.2588 34.2551L93.024 34.8221ZM93.1441 34.8718L93.3789 34.3048L93.3793 34.305L93.1441 34.8718ZM94.4789 35.5788L94.0612 36.0284L94.0612 36.0284L94.4789 35.5788ZM95.7856 41.93L95.1724 41.9556L95.7856 41.93ZM93.8624 48.7124L94.3368 49.1016L93.8624 48.7124ZM91.6722 50.7798L91.2917 50.2983L91.6722 50.7798ZM90.6224 51.5838L90.2522 51.0943L90.2522 51.0943L90.6224 51.5838ZM89.3678 52.5453L89.7478 53.0272L89.6039 53.1407L89.4213 53.1567L89.3678 52.5453ZM89.1732 52.5866L89.3726 53.167L89.3726 53.167L89.1732 52.5866ZM82.2587 54.9626L82.0592 54.3822L82.0592 54.3822L82.2587 54.9626ZM82.3381 56.5332L82.1983 57.1308L82.3381 56.5332ZM94.3949 59.3546L94.5347 58.7571L94.5347 58.7571L94.3949 59.3546ZM95.163 57.9824L94.7267 58.414L94.7267 58.414L95.163 57.9824ZM92.5011 55.2919L92.0648 55.7235L91.5726 55.226L92.1302 54.803L92.5011 55.2919ZM92.9414 54.9603L93.3148 55.4474L93.3097 55.4512L92.9414 54.9603ZM92.9415 54.9603L92.5681 54.4731L92.5767 54.4668L92.9415 54.9603ZM92.9415 54.9602L92.5767 54.4667L92.5783 54.4656L92.9415 54.9602ZM92.9416 54.9602L93.31 55.4511L93.3048 55.4548L92.9416 54.9602ZM94.2088 53.9899L94.5893 54.4714L94.5893 54.4714L94.2088 53.9899ZM97.0254 51.3074L96.551 50.9181L97.0254 51.3074ZM99.8734 41.7595L100.487 41.7339L99.8734 41.7595ZM97.2637 32.5814L96.8459 33.031L97.2637 32.5814ZM94.7489 31.1081L94.5138 31.675L94.5137 31.675L94.7489 31.1081ZM94.7123 31.093L94.9475 30.5261L94.9475 30.5261L94.7123 31.093ZM94.6443 31.0648L94.8795 30.4979L94.8795 30.4979L94.6443 31.0648ZM93.4987 30.5611L93.2284 31.1121L93.0821 31.0403L92.9907 30.9055L93.4987 30.5611ZM91.844 29.0355L91.5297 29.5627L91.5297 29.5627L91.844 29.0355ZM88.8947 33.9829C87.8923 33.3853 87.1224 32.5593 86.7039 31.6789C86.2874 30.803 86.1936 29.802 86.6947 28.9614L87.749 29.5899C87.5224 29.9699 87.5096 30.515 87.8124 31.1519C88.113 31.7844 88.7005 32.4382 89.5232 32.9286L88.8947 33.9829ZM91.6215 34.8184C90.7403 34.7949 89.7833 34.5126 88.8947 33.9829L89.5232 32.9286C90.2498 33.3617 91.0037 33.5741 91.6542 33.5914L91.6215 34.8184ZM92.7894 35.3891C92.3946 35.2258 91.906 35.0238 91.3645 34.7544L91.9112 33.6555C92.4102 33.9038 92.863 34.0913 93.2586 34.255L92.7894 35.3891ZM92.9093 35.4388L92.7892 35.3891L93.2588 34.2551L93.3789 34.3048L92.9093 35.4388ZM94.0612 36.0284C93.9167 35.8941 93.7071 35.7699 92.9089 35.4386L93.3793 34.305C94.1477 34.6239 94.5655 34.8216 94.8966 35.1292L94.0612 36.0284ZM95.1724 41.9556C95.0712 39.529 94.8493 38.0869 94.616 37.2208C94.3852 36.3642 94.1553 36.1158 94.0612 36.0284L94.8966 35.1292C95.2102 35.4205 95.5315 35.9008 95.8011 36.9016C96.0682 37.8929 96.2958 39.4371 96.3988 41.9045L95.1724 41.9556ZM93.3879 48.3231C94.4515 47.0267 95.3085 45.2175 95.1724 41.9556L96.3988 41.9045C96.5467 45.4494 95.6029 47.5584 94.3368 49.1016L93.3879 48.3231ZM91.2917 50.2983C92.1136 49.6489 92.8111 49.0261 93.3879 48.3231L94.3368 49.1016C93.6795 49.9029 92.9042 50.5884 92.0526 51.2614L91.2917 50.2983ZM90.2522 51.0943C90.642 50.7994 91.0054 50.5246 91.2917 50.2983L92.0526 51.2614C91.754 51.4974 91.379 51.781 90.9926 52.0732L90.2522 51.0943ZM88.9879 52.0634C89.3853 51.75 89.833 51.4114 90.2522 51.0943L90.9926 52.0732C90.5712 52.392 90.1338 52.7229 89.7478 53.0272L88.9879 52.0634ZM89.4213 53.1567C89.4051 53.1581 89.3888 53.1615 89.3726 53.167L88.9737 52.0062C89.0853 51.9679 89.1997 51.9439 89.3144 51.9339L89.4213 53.1567ZM89.3726 53.167L82.4581 55.543L82.0592 54.3822L88.9737 52.0062L89.3726 53.167ZM82.4581 55.543C82.3966 55.5641 82.3673 55.5944 82.3503 55.6214C82.3305 55.6528 82.3178 55.6968 82.3203 55.7468C82.3228 55.7968 82.3399 55.8392 82.3628 55.8686C82.3824 55.8936 82.4147 55.9208 82.478 55.9356L82.1983 57.1308C80.7991 56.8033 80.7002 54.8492 82.0592 54.3822L82.4581 55.543ZM82.478 55.9356L94.5347 58.7571L94.255 59.9522L82.1983 57.1308L82.478 55.9356ZM94.5347 58.7571C94.598 58.7719 94.639 58.7618 94.6676 58.748C94.7012 58.7319 94.7353 58.7015 94.7598 58.6578C94.7843 58.6141 94.7924 58.5691 94.7886 58.5321C94.7853 58.5004 94.7725 58.4602 94.7267 58.414L95.5992 57.5507C96.6099 58.5723 95.6542 60.2796 94.255 59.9522L94.5347 58.7571ZM94.7267 58.414L92.0648 55.7235L92.9373 54.8603L95.5992 57.5507L94.7267 58.414ZM93.3097 55.4512C93.1601 55.5635 93.0159 55.6717 92.872 55.7808L92.1302 54.803C92.2771 54.6915 92.4239 54.5814 92.5731 54.4694L93.3097 55.4512ZM93.3148 55.4473L93.3148 55.4474L92.5681 54.4732L92.5681 54.4732L93.3148 55.4473ZM93.3063 55.4537L93.3063 55.4538L92.5767 54.4668L92.5767 54.4667L93.3063 55.4537ZM93.3048 55.4548L93.3048 55.4549L92.5783 54.4656L92.5784 54.4655L93.3048 55.4548ZM94.5893 54.4714C94.0949 54.8621 93.6873 55.1679 93.3099 55.451L92.5733 54.4693C92.9505 54.1863 93.3472 53.8886 93.8283 53.5084L94.5893 54.4714ZM97.4999 51.6966C96.5742 52.8249 95.5405 53.7197 94.5893 54.4714L93.8283 53.5084C94.7496 52.7804 95.7058 51.9483 96.551 50.9181L97.4999 51.6966ZM100.487 41.7339C100.674 46.2216 99.4414 49.3302 97.4999 51.6966L96.551 50.9181C98.2898 48.7987 99.4357 45.99 99.2602 41.7851L100.487 41.7339ZM97.6814 32.1318C99.6546 33.9651 100.287 36.9545 100.487 41.7339L99.2602 41.7851C99.0596 36.9783 98.4115 34.4856 96.8459 33.031L97.6814 32.1318ZM94.9841 30.5413C95.6915 30.8348 96.7548 31.2709 97.6814 32.1318L96.8459 33.031C96.0998 32.3378 95.2302 31.9722 94.5138 31.675L94.9841 30.5413ZM94.9475 30.5261L94.9841 30.5413L94.5137 31.675L94.4772 31.6598L94.9475 30.5261ZM94.8795 30.4979L94.9475 30.5261L94.4772 31.6598L94.4092 31.6316L94.8795 30.4979ZM93.769 30.0102C94.1236 30.1842 94.4793 30.3319 94.8795 30.4979L94.4092 31.6316C94.0147 31.468 93.6234 31.3059 93.2284 31.1121L93.769 30.0102ZM92.1582 28.5084C92.9333 28.9705 93.5662 29.5669 94.0067 30.2168L92.9907 30.9055C92.6583 30.415 92.1619 29.9395 91.5297 29.5627L92.1582 28.5084ZM86.6947 28.9614C87.1958 28.1208 88.1209 27.7273 89.0895 27.677C90.063 27.6264 91.1558 27.9108 92.1582 28.5084L91.5297 29.5627C90.7071 29.0723 89.8525 28.8664 89.1532 28.9027C88.4489 28.9393 87.9755 29.2099 87.749 29.5899L86.6947 28.9614Z" fill="#0C3D00" mask="url(#path-21-inside-2)"/>
<path d="M92.9338 21.6465C92.5058 21.3209 92.0546 20.9748 91.5857 20.615C89.179 18.7688 86.306 16.5648 83.709 14.9418C82.1541 13.9702 80.7363 13.2316 79.6018 12.8965C78.4258 12.5492 77.7974 12.6974 77.4949 13.0951C77.3223 13.322 77.199 13.6856 77.1668 14.215C77.135 14.7392 77.1953 15.3817 77.3454 16.1191C77.6456 17.5931 78.2905 19.3772 79.1691 21.2183C80.9326 24.9135 83.5789 28.7181 86.0968 30.6336C87.4217 31.6415 88.5037 32.6158 89.409 33.4622C89.6434 33.6813 89.864 33.8899 90.0728 34.0873C90.6806 34.662 91.1886 35.1423 91.6454 35.5121C92.2717 36.0189 92.6856 36.216 93.0011 36.2199C93.2675 36.2232 93.6075 36.0837 94.0819 35.4602C95.0374 34.2042 96.0038 31.6717 96.0849 28.9638C96.1656 26.2714 95.3715 23.501 92.9338 21.6465Z" fill="#1B8800" stroke="#0C3D00" stroke-width="1.02283"/>
<path d="M93.4862 35.7439C93.7795 32.8531 92.9048 26.1091 87.0603 22.2593C81.2158 18.4095 80.5447 17.7573 80.1112 17.885" stroke="#0C3D00" stroke-width="0.818266"/>
<defs>
<linearGradient id="paint0_linear" x1="35.974" y1="14.2195" x2="35.974" y2="43.4294" gradientUnits="userSpaceOnUse">
<stop offset="0.0604165" stop-color="#0C3D00"/>
<stop offset="0.482292" stop-color="white" stop-opacity="0"/>
</linearGradient>
<linearGradient id="paint1_linear" x1="96.0975" y1="30.4249" x2="86.3437" y2="57.9581" gradientUnits="userSpaceOnUse">
<stop offset="0.0604165" stop-color="#0C3D00"/>
<stop offset="0.482292" stop-color="white" stop-opacity="0"/>
</linearGradient>
</defs>
</svg>
