<svg width="266" height="306" viewBox="0 0 266 306" fill="none" xmlns="http://www.w3.org/2000/svg">
<path d="M36.2359 150.576C20.1957 195.854 40.4973 253.925 88.3587 270.88C136.406 287.901 189.959 259.061 205.928 213.983C213.886 191.518 211.336 170.867 200.922 153.696C190.469 136.457 171.944 122.498 147.601 113.874C123.192 105.227 99.196 103.337 79.4343 109.117C59.784 114.864 44.1526 128.228 36.2359 150.576Z" fill="#780000" stroke="#680000" stroke-width="5.43611"/>
<path d="M57.3762 151.028C44.9165 186.2 62.2713 232.149 102.097 246.258C141.924 260.366 185.456 238.483 197.916 203.311C210.375 168.139 188.356 137.513 148.53 123.405C108.704 109.296 69.836 115.856 57.3762 151.028Z" fill="#8E2A2A"/>
<path d="M72.1277 199.63C83.3322 201.729 96.8784 191.661 99.9179 175.431C102.957 159.201 94.8247 144.268 83.6202 142.17C72.4158 140.072 63.7263 150.763 60.6867 166.993C57.6472 183.223 60.9233 197.532 72.1277 199.63Z" fill="#AC3F3F"/>
<path d="M74.8776 183.315C80.048 184.283 86.4037 179.078 87.9459 170.843C89.488 162.608 85.8465 155.123 80.6761 154.155C75.5057 153.186 71.3936 158.666 69.8514 166.901C68.3092 175.136 69.7072 182.346 74.8776 183.315Z" fill="#CB6A6A"/>
<path d="M167.914 155.739C172.795 153.778 172.906 150.081 169.783 142.308C166.659 134.534 142.154 125.202 137.273 127.163C132.392 129.124 163.205 134.648 166.329 142.421C169.452 150.195 163.033 157.7 167.914 155.739Z" fill="#E78C8C"/>
<path d="M126.218 129.494C118.641 125.052 100.182 125.914 101.041 131.904C101.9 137.894 122.867 149.902 127.889 149.182C132.912 148.461 105.253 137.823 104.394 131.833C103.535 125.843 128.681 131.486 126.218 129.494Z" fill="#E78C8C"/>
<path d="M75.6323 175.837C78.1502 176.309 81.2948 173.51 82.1117 169.148C82.9286 164.786 81.2078 160.86 78.69 160.388C76.1721 159.917 74.1212 162.844 73.3043 167.206C72.4874 171.568 73.1145 175.366 75.6323 175.837Z" fill="#FFD6D6"/>
<path d="M91.7516 134.096C91.0575 136.056 107.394 151.54 128.504 159.019C149.614 166.497 170.733 162.925 171.427 160.966C172.122 159.007 151.416 161.41 130.306 153.932C109.196 146.454 92.4457 132.137 91.7516 134.096Z" fill="#680000"/>
<mask id="path-9-inside-1" fill="white">
<path fill-rule="evenodd" clip-rule="evenodd" d="M134.783 69.3388C132.849 72.5824 135.213 77.5557 140.063 80.4469C142.209 81.726 144.482 82.3833 146.517 82.4377C147.899 83.1257 149.15 83.6433 150.201 84.0779L150.201 84.078L150.52 84.2101C152.601 85.074 153.435 85.5017 154.067 86.0888C155.15 87.0955 156.997 89.9612 157.539 102.967C157.917 112.011 155.524 117.217 152.429 120.99C150.789 122.989 148.832 124.727 146.608 126.484C145.831 127.098 144.85 127.84 143.819 128.62C142.702 129.465 141.526 130.354 140.486 131.175C140.312 131.19 140.138 131.226 139.968 131.285L121.594 137.599C119.53 138.308 119.68 141.275 121.805 141.772L153.844 149.27C155.969 149.767 157.42 147.174 155.885 145.623L148.812 138.474C149.198 138.181 149.584 137.891 149.981 137.593L149.981 137.593L149.982 137.593C150.984 136.84 152.053 136.039 153.349 135.014C155.837 133.048 158.481 130.754 160.834 127.886C165.724 121.925 168.884 114.063 168.402 102.513C167.871 89.7763 166.169 82.4923 161.467 78.1237C159.245 76.0588 156.676 74.9935 154.785 74.2086L154.687 74.1683L154.507 74.0934C153.451 73.6556 152.459 73.2439 151.463 72.7555C150.436 71.24 148.935 69.8155 147.065 68.7007C142.215 65.8095 136.716 66.0952 134.783 69.3388Z"/>
</mask>
<path fill-rule="evenodd" clip-rule="evenodd" d="M134.783 69.3388C132.849 72.5824 135.213 77.5557 140.063 80.4469C142.209 81.726 144.482 82.3833 146.517 82.4377C147.899 83.1257 149.15 83.6433 150.201 84.0779L150.201 84.078L150.52 84.2101C152.601 85.074 153.435 85.5017 154.067 86.0888C155.15 87.0955 156.997 89.9612 157.539 102.967C157.917 112.011 155.524 117.217 152.429 120.99C150.789 122.989 148.832 124.727 146.608 126.484C145.831 127.098 144.85 127.84 143.819 128.62C142.702 129.465 141.526 130.354 140.486 131.175C140.312 131.19 140.138 131.226 139.968 131.285L121.594 137.599C119.53 138.308 119.68 141.275 121.805 141.772L153.844 149.27C155.969 149.767 157.42 147.174 155.885 145.623L148.812 138.474C149.198 138.181 149.584 137.891 149.981 137.593L149.981 137.593L149.982 137.593C150.984 136.84 152.053 136.039 153.349 135.014C155.837 133.048 158.481 130.754 160.834 127.886C165.724 121.925 168.884 114.063 168.402 102.513C167.871 89.7763 166.169 82.4923 161.467 78.1237C159.245 76.0588 156.676 74.9935 154.785 74.2086L154.687 74.1683L154.507 74.0934C153.451 73.6556 152.459 73.2439 151.463 72.7555C150.436 71.24 148.935 69.8155 147.065 68.7007C142.215 65.8095 136.716 66.0952 134.783 69.3388Z" fill="#22AB00"/>
<path fill-rule="evenodd" clip-rule="evenodd" d="M134.783 69.3388C132.849 72.5824 135.213 77.5557 140.063 80.4469C142.209 81.726 144.482 82.3833 146.517 82.4377C147.899 83.1257 149.15 83.6433 150.201 84.0779L150.201 84.078L150.52 84.2101C152.601 85.074 153.435 85.5017 154.067 86.0888C155.15 87.0955 156.997 89.9612 157.539 102.967C157.917 112.011 155.524 117.217 152.429 120.99C150.789 122.989 148.832 124.727 146.608 126.484C145.831 127.098 144.85 127.84 143.819 128.62C142.702 129.465 141.526 130.354 140.486 131.175C140.312 131.19 140.138 131.226 139.968 131.285L121.594 137.599C119.53 138.308 119.68 141.275 121.805 141.772L153.844 149.27C155.969 149.767 157.42 147.174 155.885 145.623L148.812 138.474C149.198 138.181 149.584 137.891 149.981 137.593L149.981 137.593L149.982 137.593C150.984 136.84 152.053 136.039 153.349 135.014C155.837 133.048 158.481 130.754 160.834 127.886C165.724 121.925 168.884 114.063 168.402 102.513C167.871 89.7763 166.169 82.4923 161.467 78.1237C159.245 76.0588 156.676 74.9935 154.785 74.2086L154.687 74.1683L154.507 74.0934C153.451 73.6556 152.459 73.2439 151.463 72.7555C150.436 71.24 148.935 69.8155 147.065 68.7007C142.215 65.8095 136.716 66.0952 134.783 69.3388Z" fill="url(#paint0_linear)"/>
<path d="M140.063 80.4469L139.228 81.8477L140.063 80.4469ZM134.783 69.3388L136.183 70.1739L136.183 70.1739L134.783 69.3388ZM146.517 82.4377L146.56 80.8075L146.92 80.8171L147.243 80.9776L146.517 82.4377ZM150.201 84.0779L149.656 85.6152L149.616 85.601L149.577 85.5849L150.201 84.0779ZM150.201 84.078L150.745 82.5407L150.785 82.5549L150.825 82.5712L150.201 84.078ZM150.52 84.2101L151.144 82.7034L151.145 82.7039L150.52 84.2101ZM154.067 86.0888L155.177 84.894L155.177 84.8941L154.067 86.0888ZM157.539 102.967L159.169 102.899L159.169 102.899L157.539 102.967ZM152.429 120.99L151.168 119.955L151.168 119.955L152.429 120.99ZM146.608 126.484L145.597 125.204L145.597 125.204L146.608 126.484ZM143.819 128.62L142.835 127.32L142.835 127.32L143.819 128.62ZM140.486 131.175L141.495 132.456L141.113 132.757L140.628 132.8L140.486 131.175ZM139.968 131.285L139.438 129.742L139.438 129.742L139.968 131.285ZM121.594 137.599L121.064 136.056L121.064 136.056L121.594 137.599ZM121.805 141.772L122.177 140.184L121.805 141.772ZM153.844 149.27L153.473 150.858L153.473 150.858L153.844 149.27ZM155.885 145.623L157.045 144.476L157.045 144.476L155.885 145.623ZM148.812 138.474L147.652 139.621L146.344 138.299L147.826 137.174L148.812 138.474ZM149.981 137.593L150.996 138.87L150.978 138.884L150.96 138.897L149.981 137.593ZM149.981 137.593L148.967 136.316L149.008 136.284L149.051 136.253L149.981 137.593ZM149.982 137.593L150.96 138.897L150.936 138.915L150.912 138.932L149.982 137.593ZM153.349 135.014L154.36 136.294L154.36 136.294L153.349 135.014ZM160.834 127.886L159.573 126.851L160.834 127.886ZM168.402 102.513L170.032 102.445L168.402 102.513ZM161.467 78.1237L160.357 79.3185L160.357 79.3185L161.467 78.1237ZM154.785 74.2086L154.16 75.715L154.16 75.715L154.785 74.2086ZM154.687 74.1683L155.312 72.662L155.312 72.662L154.687 74.1683ZM154.507 74.0934L155.131 72.587L155.132 72.587L154.507 74.0934ZM151.463 72.7555L150.745 74.2196L150.356 74.0289L150.113 73.6704L151.463 72.7555ZM147.065 68.7007L146.23 70.1015L147.065 68.7007ZM139.228 81.8477C136.564 80.2597 134.518 78.0648 133.406 75.7252C132.3 73.3975 132.05 70.7376 133.382 68.5037L136.183 70.1739C135.581 71.1837 135.547 72.6322 136.352 74.3248C137.151 76.0056 138.712 77.7429 140.898 79.0461L139.228 81.8477ZM146.473 84.068C144.132 84.0054 141.589 83.2551 139.228 81.8477L140.898 79.0461C142.829 80.1969 144.832 80.7612 146.56 80.8075L146.473 84.068ZM149.577 85.5849C148.528 85.1508 147.229 84.6139 145.79 83.8978L147.243 80.9776C148.569 81.6375 149.773 82.1359 150.824 82.571L149.577 85.5849ZM149.656 85.6152L149.656 85.6152L150.745 82.5407L150.745 82.5407L149.656 85.6152ZM149.896 85.7169L149.577 85.5847L150.825 82.5712L151.144 82.7034L149.896 85.7169ZM152.957 87.2836C152.573 86.9268 152.016 86.5967 149.895 85.7164L151.145 82.7039C153.187 83.5513 154.297 84.0767 155.177 84.894L152.957 87.2836ZM155.91 103.035C155.641 96.586 155.051 92.7538 154.431 90.4524C153.818 88.176 153.207 87.516 152.957 87.2836L155.177 84.8941C156.01 85.6683 156.864 86.9445 157.581 89.604C158.29 92.2385 158.895 96.3419 159.169 102.899L155.91 103.035ZM151.168 119.955C153.994 116.51 156.272 111.703 155.91 103.035L159.169 102.899C159.562 112.319 157.054 117.923 153.689 122.024L151.168 119.955ZM145.597 125.204C147.781 123.478 149.635 121.824 151.168 119.955L153.689 122.024C151.943 124.153 149.883 125.975 147.62 127.763L145.597 125.204ZM142.835 127.32C143.871 126.536 144.837 125.806 145.597 125.204L147.62 127.763C146.826 128.391 145.829 129.144 144.803 129.921L142.835 127.32ZM139.476 129.894C140.532 129.062 141.721 128.162 142.835 127.32L144.803 129.921C143.683 130.768 142.521 131.647 141.495 132.456L139.476 129.894ZM140.628 132.8C140.584 132.803 140.541 132.812 140.498 132.827L139.438 129.742C139.735 129.641 140.039 129.577 140.344 129.55L140.628 132.8ZM140.498 132.827L122.124 139.141L121.064 136.056L139.438 129.742L140.498 132.827ZM122.124 139.141C121.96 139.197 121.882 139.278 121.837 139.349C121.785 139.433 121.751 139.55 121.758 139.683C121.764 139.815 121.81 139.928 121.871 140.006C121.923 140.073 122.008 140.145 122.177 140.184L121.433 143.36C117.715 142.49 117.453 137.297 121.064 136.056L122.124 139.141ZM122.177 140.184L154.216 147.682L153.473 150.858L121.433 143.36L122.177 140.184ZM154.216 147.682C154.384 147.721 154.493 147.695 154.569 147.658C154.658 147.615 154.749 147.534 154.814 147.418C154.879 147.302 154.901 147.182 154.89 147.084C154.882 147 154.848 146.893 154.726 146.77L157.045 144.476C159.731 147.191 157.191 151.728 153.473 150.858L154.216 147.682ZM154.726 146.77L147.652 139.621L149.971 137.327L157.045 144.476L154.726 146.77ZM150.96 138.897C150.563 139.196 150.18 139.483 149.797 139.773L147.826 137.174C148.216 136.878 148.606 136.586 149.003 136.289L150.96 138.897ZM150.996 138.869L150.996 138.87L148.966 136.316L148.967 136.316L150.996 138.869ZM150.912 138.932L150.912 138.932L149.051 136.253L149.051 136.253L150.912 138.932ZM154.36 136.294C153.046 137.332 151.963 138.145 150.96 138.897L149.003 136.288C150.005 135.536 151.059 134.745 152.338 133.735L154.36 136.294ZM162.095 128.92C159.635 131.918 156.888 134.296 154.36 136.294L152.338 133.735C154.786 131.8 157.327 129.589 159.573 126.851L162.095 128.92ZM170.032 102.445C170.529 114.371 167.254 122.632 162.095 128.92L159.573 126.851C164.194 121.219 167.239 113.755 166.773 102.581L170.032 102.445ZM162.577 76.929C167.821 81.8007 169.502 89.7447 170.032 102.445L166.773 102.581C166.24 89.8078 164.518 83.1838 160.357 79.3185L162.577 76.929ZM155.409 72.7023C157.289 73.4822 160.115 74.6413 162.577 76.929L160.357 79.3185C158.374 77.4763 156.063 76.5047 154.16 75.715L155.409 72.7023ZM155.312 72.662L155.41 72.7023L154.16 75.715L154.062 75.6747L155.312 72.662ZM155.132 72.587L155.312 72.662L154.062 75.6747L153.882 75.5997L155.132 72.587ZM152.181 71.2913C153.123 71.7535 154.068 72.146 155.131 72.587L153.882 75.5998C152.834 75.1651 151.794 74.7344 150.745 74.2196L152.181 71.2913ZM147.9 67.2999C149.961 68.528 151.642 70.1132 152.813 71.8405L150.113 73.6704C149.23 72.3668 147.91 71.1031 146.23 70.1015L147.9 67.2999ZM133.382 68.5037C134.713 66.2699 137.172 65.2243 139.746 65.0906C142.333 64.9562 145.236 65.7119 147.9 67.2999L146.23 70.1015C144.044 68.7983 141.773 68.2513 139.915 68.3478C138.043 68.4451 136.785 69.1641 136.183 70.1739L133.382 68.5037Z" fill="#0C3D00" mask="url(#path-9-inside-1)"/>
<path d="M149.961 49.0645C148.824 48.1992 147.625 47.2794 146.379 46.3235C139.984 41.4173 132.349 35.5604 125.447 31.2476C121.316 28.6656 117.548 26.703 114.533 25.8125C111.408 24.8894 109.738 25.2834 108.934 26.3402C108.476 26.9432 108.148 27.9093 108.063 29.3163C107.978 30.7091 108.138 32.4164 108.537 34.376C109.335 38.2931 111.048 43.034 113.383 47.9267C118.07 57.7461 125.102 67.8564 131.793 72.9467C135.313 75.6251 138.189 78.2142 140.595 80.4632C141.217 81.0454 141.804 81.5998 142.359 82.1245C143.974 83.6517 145.324 84.9281 146.538 85.9106C148.202 87.2575 149.302 87.7812 150.14 87.7916C150.848 87.8003 151.752 87.4298 153.012 85.7728C155.551 82.435 158.119 75.7053 158.335 68.5094C158.55 61.3546 156.439 53.9926 149.961 49.0645Z" fill="#1B8800" stroke="#0C3D00" stroke-width="2.71806"/>
<path d="M151.429 86.5268C152.208 78.8449 149.884 60.9236 134.353 50.6931C118.822 40.4627 117.038 38.7295 115.887 39.0689" stroke="#0C3D00" stroke-width="2.17445"/>
<defs>
<linearGradient id="paint0_linear" x1="158.369" y1="72.3927" x2="132.449" y2="145.559" gradientUnits="userSpaceOnUse">
<stop offset="0.0604165" stop-color="#0C3D00"/>
<stop offset="0.482292" stop-color="white" stop-opacity="0"/>
</linearGradient>
</defs>
</svg>
