<svg xmlns="http://www.w3.org/2000/svg" fill="none" viewBox="0 0 188 232">
  <defs/>
  <path fill="#A70000" stroke="#680000" stroke-width="5.436" d="M184.337 133.022c0 48.036-38.527 95.995-89.303 95.995-50.973 0-91.822-45.068-91.822-92.891 0-23.832 9.3-42.447 24.85-55.155 15.61-12.759 37.733-19.73 63.557-19.73 25.896 0 49.146 6.23 65.843 18.277 16.603 11.98 26.875 29.796 26.875 53.504z"/>
  <path fill="#AF3030" d="M164.259 126.389c0 37.313-31.702 74.83-73.953 74.83-42.252 0-75.978-35.164-75.978-72.477S45.31 69.913 87.561 69.913c42.252 0 76.698 19.163 76.698 56.476z"/>
  <path fill="#D84E4E" d="M83.119 144.754c-4.08 10.644-19.751 16.912-35.17 11.002-15.418-5.91-23.88-20.659-19.8-31.303 4.08-10.644 17.738-12.448 33.157-6.538 15.418 5.91 25.893 16.195 21.813 26.839z"/>
  <path fill="#E78C8C" d="M67.778 138.553c-1.883 4.912-9.645 7.6-17.468 4.602-7.823-2.999-12.293-10.021-10.41-14.933 1.883-4.912 8.705-5.545 16.527-2.547 7.823 2.999 13.234 7.966 11.351 12.878zM58.493 93.92c-3.945-3.48-2.816-7.001 2.724-13.286 5.54-6.284 31.755-6.897 35.7-3.419 3.947 3.479-26.942-1.605-32.483 4.68-5.54 6.285-1.994 15.503-5.94 12.024zM106.559 83.103c8.625-1.657 25.737 5.32 22.927 10.68-2.81 5.358-26.582 9.676-31.076 7.32s25.13-3.148 27.94-8.507c2.81-5.36-22.777-8.438-19.791-9.493z"/>
  <path fill="#fff" d="M61.013 135.28c-.917 2.392-4.948 3.605-9.092 2.017-4.143-1.589-6.587-5.111-5.67-7.503.917-2.392 4.484-2.606 8.628-1.018 4.144 1.589 7.051 4.112 6.134 6.504z"/>
  <path fill="#680000" d="M137.51 98.95c0 2.079-20.569 11.22-42.964 11.22-22.396 0-41.11-10.419-41.11-12.498 0-2.078 18.714 7.101 41.11 7.101 22.395 0 42.964-7.9 42.964-5.822z"/>
  <mask id="a" fill="#fff">
    <path fill-rule="evenodd" d="M118.572 23.541c.739 3.703-3.15 7.602-8.687 8.707-2.45.49-4.812.35-6.748-.278-1.533.186-2.885.257-4.02.316l-.345.018c-2.25.119-3.18.244-3.97.586-1.358.587-4.056 2.672-8.91 14.75-3.376 8.398-2.859 14.105-1.2 18.695.878 2.431 2.142 4.723 3.65 7.122.528.839 1.205 1.865 1.917 2.945.77 1.17 1.582 2.4 2.29 3.522.158.072.31.164.45.276l15.212 12.087c1.708 1.358.576 4.104-1.593 3.864l-32.704-3.632c-2.169-.24-2.67-3.169-.706-4.119l9.055-4.377c-.267-.405-.534-.808-.81-1.221a159.8 159.8 0 01-2.313-3.555c-1.688-2.684-3.414-5.73-4.674-9.219-2.62-7.251-2.973-15.717 1.338-26.443 4.754-11.829 8.79-18.126 14.681-20.674 2.785-1.204 5.561-1.35 7.607-1.459l.105-.006.195-.01c1.142-.06 2.215-.117 3.316-.245 1.474-1.085 3.364-1.926 5.499-2.353 5.537-1.105 10.625 1 11.365 4.703z" clip-rule="evenodd"/>
  </mask>
  <path fill="#22AB00" fill-rule="evenodd" d="M118.572 23.541c.739 3.703-3.15 7.602-8.687 8.707-2.45.49-4.812.35-6.748-.278-1.533.186-2.885.257-4.02.316l-.345.018c-2.25.119-3.18.244-3.97.586-1.358.587-4.056 2.672-8.91 14.75-3.376 8.398-2.859 14.105-1.2 18.695.878 2.431 2.142 4.723 3.65 7.122.528.839 1.205 1.865 1.917 2.945.77 1.17 1.582 2.4 2.29 3.522.158.072.31.164.45.276l15.212 12.087c1.708 1.358.576 4.104-1.593 3.864l-32.704-3.632c-2.169-.24-2.67-3.169-.706-4.119l9.055-4.377c-.267-.405-.534-.808-.81-1.221a159.8 159.8 0 01-2.313-3.555c-1.688-2.684-3.414-5.73-4.674-9.219-2.62-7.251-2.973-15.717 1.338-26.443 4.754-11.829 8.79-18.126 14.681-20.674 2.785-1.204 5.561-1.35 7.607-1.459l.105-.006.195-.01c1.142-.06 2.215-.117 3.316-.245 1.474-1.085 3.364-1.926 5.499-2.353 5.537-1.105 10.625 1 11.365 4.703z" clip-rule="evenodd"/>
  <path fill="url(#paint0_linear)" fill-rule="evenodd" d="M118.572 23.541c.739 3.703-3.15 7.602-8.687 8.707-2.45.49-4.812.35-6.748-.278-1.533.186-2.885.257-4.02.316l-.345.018c-2.25.119-3.18.244-3.97.586-1.358.587-4.056 2.672-8.91 14.75-3.376 8.398-2.859 14.105-1.2 18.695.878 2.431 2.142 4.723 3.65 7.122.528.839 1.205 1.865 1.917 2.945.77 1.17 1.582 2.4 2.29 3.522.158.072.31.164.45.276l15.212 12.087c1.708 1.358.576 4.104-1.593 3.864l-32.704-3.632c-2.169-.24-2.67-3.169-.706-4.119l9.055-4.377c-.267-.405-.534-.808-.81-1.221a159.8 159.8 0 01-2.313-3.555c-1.688-2.684-3.414-5.73-4.674-9.219-2.62-7.251-2.973-15.717 1.338-26.443 4.754-11.829 8.79-18.126 14.681-20.674 2.785-1.204 5.561-1.35 7.607-1.459l.105-.006.195-.01c1.142-.06 2.215-.117 3.316-.245 1.474-1.085 3.364-1.926 5.499-2.353 5.537-1.105 10.625 1 11.365 4.703z" clip-rule="evenodd"/>
  <path fill="#0C3D00" d="M109.885 32.248l.319 1.6-.319-1.6zm8.687-8.707l-1.599.32 1.599-.32zm-15.435 8.429l.503-1.551-.343-.112-.358.044.198 1.619zm-4.02.316l.068 1.629h.017l-.085-1.63zm0 0v1.63h.034l.034-.001-.068-1.63zm0 0v-1.631h-.043l-.042.002.085 1.628zm-.345.018l-.085-1.63-.001.001.086 1.629zm-3.97.586l-.648-1.497.647 1.497zm-8.91 14.75l-1.513-.609 1.513.608zm-1.2 18.695l1.533-.554-1.534.554zm3.65 7.122l1.381-.868-1.38.868zm1.917 2.945l1.362-.897-1.362.897zm2.29 3.522l-1.38.87.26.412.443.202.676-1.484zm.45.276l-1.014 1.277 1.014-1.277zm15.212 12.087l-1.015 1.277 1.015-1.277zm-1.593 3.864l.18-1.621-.18 1.62zm-32.704-3.632l.18-1.62-.18 1.62zm-.706-4.119l.71 1.469-.71-1.469zm9.055-4.377l.71 1.469 1.674-.81-1.021-1.554-1.363.895zm-.81-1.221l-1.357.903 1.358-.903zm-2.313-3.555l1.38-.869-1.38.869zm-4.674-9.219L76 69.474l-1.534.554zm1.338-26.443l-1.513-.608 1.513.608zM90.485 22.91l.648 1.497-.648-1.497zm7.607-1.459l.086 1.629-.086-1.629zm.105-.006l-.086-1.628.086 1.628zm.195-.01l-.086-1.628.086 1.628zm3.316-.245l.188 1.62.431-.05.348-.256-.967-1.314zm5.499-2.353l.319 1.6-.319-1.6zm2.997 15.01c3.042-.608 5.703-1.993 7.533-3.827 1.82-1.825 2.943-4.249 2.434-6.8l-3.198.64c.23 1.152-.222 2.53-1.545 3.856-1.315 1.317-3.366 2.434-5.862 2.932l.638 3.199zm-7.571-.327c2.228.723 4.876.865 7.571.327l-.638-3.199c-2.205.44-4.281.303-5.926-.23l-1.007 3.102zm-3.431.393c1.133-.059 2.536-.131 4.132-.325l-.395-3.238c-1.47.179-2.77.247-3.907.306l.17 3.257zm-.017 0l-.136-3.258.136 3.259zm-.068.002v-3.261 3.261zm-.26.016l.345-.018-.17-3.257-.345.018.17 3.257zm-3.409.455c.482-.208 1.117-.333 3.41-.455l-.172-3.257c-2.208.117-3.43.241-4.532.718l1.294 2.994zm-8.043 13.86c2.407-5.988 4.243-9.403 5.596-11.366 1.338-1.94 2.134-2.359 2.447-2.494l-1.294-2.994c-1.044.452-2.275 1.37-3.839 3.637-1.548 2.246-3.489 5.912-5.936 12.001l3.026 1.217zm-1.18 17.534c-1.514-4.192-2.055-9.484 1.18-17.533L84.38 47.03C80.863 55.78 81.356 61.9 83.157 66.89l3.068-1.108zm3.498 6.807c-1.482-2.356-2.677-4.534-3.498-6.807l-3.068 1.108c.936 2.59 2.27 4.995 3.806 7.436l2.76-1.737zm1.898 2.917a179.142 179.142 0 01-1.898-2.916l-2.76 1.736c.538.857 1.226 1.9 1.934 2.975l2.724-1.795zm2.306 3.549a218.457 218.457 0 00-2.306-3.55L88.897 77.3c.773 1.172 1.575 2.389 2.272 3.494l2.758-1.74zm-2.055 2.354c.04.018.077.04.113.069l2.029-2.554a3.807 3.807 0 00-.79-.483l-1.352 2.968zm.113.069l15.211 12.087 2.029-2.554-15.211-12.087-2.03 2.554zm15.211 12.087c.135.107.182.21.201.292a.58.58 0 01-.037.34.573.573 0 01-.214.268.508.508 0 01-.348.066l-.36 3.242c3.795.421 5.777-4.386 2.787-6.762l-2.029 2.554zm-.398.966l-32.704-3.632-.36 3.242 32.704 3.632.36-3.242zm-32.704-3.632a.509.509 0 01-.325-.14.575.575 0 01-.15-.308.575.575 0 01.039-.34.509.509 0 01.26-.241l-1.42-2.937c-3.438 1.662-2.56 6.787 1.236 7.208l.36-3.242zm-.177-1.03l9.055-4.376-1.42-2.937-9.054 4.377 1.42 2.937zm6.179-6.163c.275.414.54.813.804 1.214l2.726-1.791c-.27-.41-.54-.816-.814-1.229l-2.716 1.806zm-2.336-3.59a160.856 160.856 0 002.336 3.59l2.716-1.806a157.49 157.49 0 01-2.291-3.52l-2.76 1.736zm-4.828-9.533c1.317 3.648 3.112 6.806 4.828 9.533l2.76-1.737c-1.66-2.64-3.318-5.573-4.52-8.904l-3.068 1.108zm1.36-27.605c-4.452 11.075-4.124 19.955-1.36 27.605l3.067-1.108c-2.474-6.852-2.852-14.904 1.319-25.28l-3.027-1.217zm15.546-21.563c-6.57 2.841-10.806 9.768-15.547 21.563l3.026 1.216c4.768-11.862 8.604-17.53 13.816-19.785l-1.295-2.994zm8.168-1.59c-2.033.107-5.083.256-8.168 1.59l1.295 2.994c2.484-1.075 4.987-1.219 7.045-1.327l-.172-3.258zm.105-.006l-.105.005.172 3.258.105-.006-.172-3.257zm.195-.01l-.195.01.172 3.257.195-.01-.172-3.257zm3.214-.237c-1.042.121-2.064.176-3.214.237l.172 3.257c1.133-.06 2.257-.119 3.418-.254l-.376-3.24zm5.368-2.332c-2.352.47-4.467 1.402-6.147 2.64l1.934 2.626c1.268-.934 2.933-1.684 4.851-2.067l-.638-3.2zm13.283 5.983c-.509-2.55-2.477-4.357-4.859-5.343-2.394-.99-5.383-1.247-8.424-.64l.638 3.198c2.496-.498 4.819-.255 6.539.456 1.732.717 2.677 1.815 2.908 2.967l3.198-.638z" mask="url(#a)"/>
  <path fill="#1B8800" stroke="#0C3D00" stroke-width="2.718" d="M131.934 24.495c.895 1.115 1.846 2.29 2.835 3.51 5.072 6.264 11.127 13.743 15.62 20.528 2.689 4.063 4.75 7.778 5.72 10.768 1.004 3.1.654 4.78-.381 5.61-.591.475-1.548.828-2.952.95-1.39.122-3.101.006-5.071-.341-3.936-.695-8.721-2.283-13.673-4.489-9.939-4.427-20.23-11.191-25.495-17.746-2.769-3.45-5.433-6.256-7.745-8.602a394.01 394.01 0 00-1.707-1.72c-1.569-1.574-2.88-2.89-3.894-4.078-1.39-1.628-1.943-2.714-1.975-3.552-.027-.707.32-1.62 1.943-2.924 3.27-2.626 9.93-5.37 17.117-5.774 7.147-.402 14.562 1.514 19.658 7.86z"/>
  <path stroke="#0C3D00" stroke-width="2.174" d="M94.447 24.011c7.658-.98 25.635.873 36.269 16.13 10.635 15.257 12.414 16.994 12.105 18.155"/>
  <defs>
    <linearGradient id="paint0_linear" x1="95.32" x2="95.32" y1="18.544" y2="96.165" gradientUnits="userSpaceOnUse">
      <stop offset=".06" stop-color="#0C3D00"/>
      <stop offset=".482" stop-color="#fff" stop-opacity="0"/>
    </linearGradient>
  </defs>
</svg>
