<svg width="86" height="196" fill="none" xmlns="http://www.w3.org/2000/svg">
    <path d="M5.675 86.992h77.694l-6.205 21.218-13.157 12.371-19.44 5.302-20.423-5.302-11.782-12.371-6.687-21.218z" fill="#0835D4"/>
    <path d="M5.675 86.992h77.694l-6.205 21.218-13.157 12.371-19.44 5.302-20.423-5.302-11.782-12.371-6.687-21.218z" fill="url(#paint0_linear)"/>
    <path fill="#08D410" d="M5.675 57.827h77.694v29.165H5.675z"/>
    <path fill="url(#paint1_linear)" d="M5.675 57.827h77.694v29.165H5.675z"/>
    <path d="M5.675 28.662l7.187-5.322 9.561-2.332 10.494-1.632h22.852l11.193 1.632 8.861 2.332 7.546 5.322v29.165H5.674V28.662z" fill="#D40808"/>
    <path d="M5.675 28.662l7.187-5.322 9.561-2.332 10.494-1.632h22.852l11.193 1.632 8.861 2.332 7.546 5.322v29.165H5.674V28.662z" fill="url(#paint2_linear)"/>
    <path d="M85.412 86.992a40.892 40.892 0 01-40.89 40.89 40.889 40.889 0 01-40.89-40.89H7.72a36.801 36.801 0 1073.602 0h4.089zM3.632 28.662h4.087v58.33H3.632z" fill="#fff"/>
    <path fill="#fff" d="M42.478 126.213h4.087v58.33h-4.087zM81.325 28.662h4.087v58.33h-4.087z"/>
    <path d="M43.882 181.467a1.09 1.09 0 011.278 0l11.557 8.359c.857.619.419 1.974-.639 1.974H32.964c-1.057 0-1.495-1.355-.639-1.974l11.557-8.359z" fill="#fff"/>
    <path d="M83.23 28.662c0 .7-.468 1.785-2.313 3.125-1.798 1.306-4.539 2.572-8.122 3.673-7.14 2.194-17.137 3.583-28.273 3.583-11.137 0-21.133-1.39-28.273-3.583-3.584-1.1-6.325-2.367-8.122-3.673-1.846-1.34-2.314-2.424-2.314-3.125 0-.701.468-1.785 2.314-3.125 1.797-1.306 4.538-2.572 8.121-3.673 7.14-2.194 17.137-3.584 28.274-3.584 11.136 0 21.133 1.39 28.273 3.584 3.583 1.1 6.324 2.367 8.122 3.672 1.845 1.341 2.314 2.425 2.314 3.126z" stroke="#fff" stroke-width="4.362"/>
    <path fill="#fff" d="M11.421 42.626h3.133v22.343h-3.133zM17.143 49.165h3.133v22.343h-3.133z"/>
    <path d="M25.596 18.455c0 6.688-5.364 13.365-12.434 13.365C6.066 31.82.378 25.546.378 18.887c0-3.318 1.295-5.91 3.46-7.679 2.174-1.776 5.254-2.747 8.85-2.747 3.604 0 6.841.868 9.166 2.545 2.312 1.668 3.742 4.148 3.742 7.45z" fill="#A70000" stroke="#680000" stroke-width=".757"/>
    <path d="M22.8 17.532c0 5.195-4.413 10.418-10.296 10.418-5.882 0-10.578-4.896-10.578-10.09 0-5.196 4.314-8.191 10.196-8.191 5.883 0 10.679 2.668 10.679 7.863z" fill="#AF3030"/>
    <path d="M11.504 20.089c-.569 1.482-2.75 2.354-4.897 1.531-2.147-.822-3.325-2.876-2.757-4.358.568-1.482 2.47-1.733 4.617-.91 2.146.823 3.605 2.255 3.037 3.737z" fill="#D84E4E"/>
    <path d="M9.368 19.225c-.262.684-1.343 1.058-2.432.641-1.09-.418-1.712-1.395-1.45-2.08.263-.683 1.212-.771 2.301-.354 1.09.418 1.843 1.11 1.58 1.793zM8.075 13.011c-.55-.484-.392-.975.38-1.85.77-.875 4.42-.96 4.97-.476.55.485-3.751-.223-4.523.652-.77.875-.277 2.158-.827 1.674zM14.767 11.505c1.2-.23 3.583.74 3.192 1.487-.391.746-3.7 1.347-4.327 1.02-.625-.329 3.5-.44 3.89-1.185.392-.746-3.17-1.175-2.755-1.322z" fill="#E78C8C"/>
    <path d="M8.426 18.77c-.128.333-.689.502-1.266.28-.577-.22-.917-.711-.79-1.044.128-.333.625-.363 1.202-.142s.981.573.854.906z" fill="#fff"/>
    <path d="M19.076 13.712c0 .289-2.863 1.562-5.982 1.562-3.118 0-5.723-1.451-5.723-1.74 0-.29 2.605.988 5.723.988 3.119 0 5.982-1.1 5.982-.81z" fill="#680000"/>
    <mask id="a" fill="#fff">
        <path fill-rule="evenodd" clip-rule="evenodd" d="M16.44 3.212c.103.516-.439 1.059-1.21 1.213a1.885 1.885 0 01-.941-.04c-.213.026-.4.036-.559.044l-.048.002c-.313.017-.442.034-.553.082-.188.082-.564.372-1.24 2.054-.47 1.169-.398 1.963-.167 2.603.122.338.298.657.508.991.074.117.168.26.267.41.107.163.22.335.32.491.021.01.043.023.063.039l2.117 1.683c.238.189.08.571-.221.538l-4.554-.506c-.302-.034-.371-.441-.098-.573l1.26-.61a35.699 35.699 0 00-.113-.17c-.096-.146-.2-.301-.322-.496a6.659 6.659 0 01-.65-1.283c-.365-1.01-.415-2.189.186-3.682.662-1.647 1.224-2.524 2.044-2.878.387-.168.774-.188 1.059-.203l.014-.001.027-.002c.16-.008.31-.016.465-.034.205-.15.467-.267.764-.326.77-.154 1.479.139 1.582.654z"/>
    </mask>
    <path fill-rule="evenodd" clip-rule="evenodd" d="M16.44 3.212c.103.516-.439 1.059-1.21 1.213a1.885 1.885 0 01-.941-.04c-.213.026-.4.036-.559.044l-.048.002c-.313.017-.442.034-.553.082-.188.082-.564.372-1.24 2.054-.47 1.169-.398 1.963-.167 2.603.122.338.298.657.508.991.074.117.168.26.267.41.107.163.22.335.32.491.021.01.043.023.063.039l2.117 1.683c.238.189.08.571-.221.538l-4.554-.506c-.302-.034-.371-.441-.098-.573l1.26-.61a35.699 35.699 0 00-.113-.17c-.096-.146-.2-.301-.322-.496a6.659 6.659 0 01-.65-1.283c-.365-1.01-.415-2.189.186-3.682.662-1.647 1.224-2.524 2.044-2.878.387-.168.774-.188 1.059-.203l.014-.001.027-.002c.16-.008.31-.016.465-.034.205-.15.467-.267.764-.326.77-.154 1.479.139 1.582.654z" fill="#22AB00"/>
    <path fill-rule="evenodd" clip-rule="evenodd" d="M16.44 3.212c.103.516-.439 1.059-1.21 1.213a1.885 1.885 0 01-.941-.04c-.213.026-.4.036-.559.044l-.048.002c-.313.017-.442.034-.553.082-.188.082-.564.372-1.24 2.054-.47 1.169-.398 1.963-.167 2.603.122.338.298.657.508.991.074.117.168.26.267.41.107.163.22.335.32.491.021.01.043.023.063.039l2.117 1.683c.238.189.08.571-.221.538l-4.554-.506c-.302-.034-.371-.441-.098-.573l1.26-.61a35.699 35.699 0 00-.113-.17c-.096-.146-.2-.301-.322-.496a6.659 6.659 0 01-.65-1.283c-.365-1.01-.415-2.189.186-3.682.662-1.647 1.224-2.524 2.044-2.878.387-.168.774-.188 1.059-.203l.014-.001.027-.002c.16-.008.31-.016.465-.034.205-.15.467-.267.764-.326.77-.154 1.479.139 1.582.654z" fill="url(#paint3_linear)"/>
    <path d="M15.23 4.425l.045.222-.045-.222zm1.21-1.213l.223-.044-.223.044zm-2.151 1.173l.07-.216-.048-.015-.05.006.028.225zm-.559.044l-.011-.227.011.227zm-.048.002l-.011-.226.011.226zm-.553.082l.09.208-.09-.208zm-1.24 2.054l.21.084-.21-.084zm-.167 2.603l-.214.077.214-.077zm.508.991l.192-.12-.192.12zm.267.41l-.19.125.003.004.187-.129zm0 0l.19-.125-.003-.003-.187.128zm.32.491l-.193.121.037.058.062.028.093-.207zm.063.039l.14-.178-.14.178zm2.117 1.683l-.14.177.14-.177zm-.221.538l.025-.226-.025.226zm-4.554-.506l.026-.226-.026.226zm-.098-.573l-.099-.205.1.205zm1.26-.61l.1.205.232-.113-.142-.216-.19.124zm-.113-.17l-.189.125.19-.126zm-.322-.496l.192-.12-.192.12zm-.65-1.283l-.214.077.213-.077zm.186-3.682l.21.085-.21-.085zm2.044-2.878l.09.208-.09-.208zm1.059-.203l.012.226-.012-.226zm.014-.001l-.012-.227.012.227zm.027-.002l-.011-.226.011.226zm.465-.034l.026.226.06-.007.048-.036-.134-.183zm.764-.326l-.045-.223.044.223zm.417 2.09c.423-.085.794-.278 1.048-.534.254-.254.41-.591.34-.946l-.446.089c.032.16-.03.352-.215.537a1.605 1.605 0 01-.816.408l.089.445zM14.218 4.6c.311.101.68.121 1.057.046l-.09-.445a1.658 1.658 0 01-.826-.033l-.14.432zm-.476.055c.158-.008.352-.019.574-.045l-.055-.451a7.591 7.591 0 01-.542.042l.023.454zm-.048.002l.048-.002-.024-.454-.047.003.023.453zm-.474.063c.067-.028.155-.046.474-.063l-.024-.453c-.307.016-.477.033-.63.1l.18.417zm-1.12 1.93c.335-.833.59-1.309.779-1.582.186-.27.297-.329.34-.348l-.18-.416c-.145.063-.316.19-.534.506-.216.313-.486.823-.827 1.671l.422.17zm-.165 2.441c-.21-.583-.286-1.32.165-2.44l-.422-.17c-.49 1.218-.42 2.07-.17 2.765l.428-.155zm.487.948a4.947 4.947 0 01-.487-.948l-.427.155c.13.36.316.695.53 1.035l.384-.242zm.265.406c-.1-.15-.193-.291-.264-.406l-.385.242c.075.12.17.264.27.414l.379-.25zm-.003-.003l-.374.257.374-.257zm.324.498c-.1-.159-.214-.332-.321-.495l-.38.25c.108.164.22.333.317.487l.384-.242zm-.285.328a.08.08 0 01.015.01l.283-.356a.53.53 0 00-.111-.068l-.188.414zm.015.01l2.118 1.682.283-.355-2.118-1.683-.283.356zm2.118 1.682c.019.015.026.03.028.041a.08.08 0 01-.005.048.08.08 0 01-.03.037.071.071 0 01-.048.009l-.05.451c.528.059.804-.61.388-.941l-.283.355zm-.055.135l-4.553-.506-.05.452 4.553.505.05-.451zm-4.553-.506a.071.071 0 01-.046-.02.08.08 0 01-.02-.042.08.08 0 01.005-.048.07.07 0 01.036-.033l-.198-.409c-.478.232-.356.945.172 1.004l.05-.452zm-.025-.143l1.26-.61-.197-.408-1.26.61.197.408zm.86-.86l.112.171.38-.25-.115-.171-.378.25zm-.326-.499c.124.198.229.355.325.5l.378-.252c-.096-.145-.198-.298-.319-.49l-.384.242zm-.672-1.327c.183.508.433.948.672 1.327l.384-.242a6.429 6.429 0 01-.63-1.24l-.426.155zm.189-3.844c-.62 1.542-.574 2.779-.19 3.844l.428-.154c-.345-.954-.397-2.075.183-3.52l-.421-.17zm2.165-3.002c-.915.396-1.505 1.36-2.165 3.002l.421.17c.664-1.652 1.198-2.441 1.924-2.755l-.18-.417zm1.137-.221c-.283.015-.708.036-1.138.221l.18.417c.347-.15.695-.17.982-.185l-.024-.453zm.014 0h-.014l.024.453h.014l-.024-.454zm.027-.002l-.027.001.024.454.027-.002-.024-.453zm.45-.033a7.03 7.03 0 01-.45.033l.024.453c.159-.008.316-.016.479-.035l-.053-.451zm.746-.324c-.327.065-.62.194-.854.366l.269.366a1.71 1.71 0 01.674-.287l-.089-.445zm1.85.833c-.071-.355-.346-.607-.677-.744-.333-.138-.75-.174-1.173-.09l.089.446c.348-.07.67-.035.91.064.241.1.373.252.405.413l.446-.09z" fill="#0C3D00" mask="url(#a)"/>
    <path d="M18.3 3.345l.395.489c.706.872 1.549 1.913 2.174 2.858.375.566.662 1.083.797 1.5.14.43.091.665-.053.78-.082.066-.216.116-.411.133-.194.016-.432 0-.706-.048-.548-.097-1.214-.318-1.904-.625-1.384-.616-2.816-1.558-3.55-2.47-.385-.481-.756-.872-1.078-1.198a54.917 54.917 0 00-.237-.24c-.219-.219-.401-.402-.543-.568-.193-.226-.27-.377-.275-.494-.003-.099.045-.226.27-.407.456-.366 1.383-.748 2.384-.804.995-.056 2.027.21 2.737 1.094z" fill="#1B8800" stroke="#0C3D00" stroke-width=".378"/>
    <path d="M13.08 3.278c1.067-.137 3.57.121 5.05 2.246 1.481 2.124 1.729 2.366 1.686 2.527" stroke="#0C3D00" stroke-width=".303"/>
    <defs>
        <linearGradient id="paint0_linear" x1="44.522" y1="86.992" x2="44.522" y2="125.883" gradientUnits="userSpaceOnUse">
            <stop stop-color="#20C96E"/><stop offset="1" stop-color="#fff" stop-opacity="0"/>
        </linearGradient>
        <linearGradient id="paint1_linear" x1="44.522" y1="57.827" x2="44.522" y2="86.992" gradientUnits="userSpaceOnUse">
            <stop stop-color="#fff" stop-opacity="0"/><stop offset="1" stop-color="#20C96E"/>
        </linearGradient>
        <linearGradient id="paint2_linear" x1="44.522" y1="19.376" x2="44.522" y2="57.827" gradientUnits="userSpaceOnUse">
            <stop offset=".524" stop-color="#D40808"/><stop offset="1" stop-color="#19E607" stop-opacity=".91"/>
        </linearGradient>
        <linearGradient id="paint3_linear" x1="13.203" y1="2.517" x2="13.203" y2="13.324" gradientUnits="userSpaceOnUse">
            <stop offset=".06" stop-color="#0C3D00"/><stop offset=".482" stop-color="#fff" stop-opacity="0"/>
        </linearGradient>
    </defs>
</svg>