<svg width="179" height="179" viewBox="0 0 179 179" fill="none" xmlns="http://www.w3.org/2000/svg">
<circle cx="89.7026" cy="89.3534" r="87.2973" fill="#FFD600" stroke="black" stroke-width="4"/>
<circle cx="89.7028" cy="89.3534" r="68.734" fill="#FFF963" stroke="black" stroke-width="4"/>
<mask id="path-3-inside-1" fill="white">
<path d="M73.4941 100.916C73.4941 106.504 75.1511 111.966 78.2557 116.613C81.3602 121.259 85.7728 124.88 90.9354 127.019C96.0981 129.157 101.779 129.716 107.26 128.626C112.74 127.536 117.774 124.845 121.726 120.894C125.677 116.943 128.368 111.908 129.458 106.428C130.548 100.947 129.989 95.2663 127.85 90.1036C125.712 84.941 122.091 80.5284 117.444 77.4239C112.798 74.3194 107.336 72.6623 101.748 72.6623V93.8343C103.148 93.8343 104.517 94.2497 105.682 95.0278C106.846 95.8059 107.754 96.9119 108.29 98.2058C108.826 99.4998 108.966 100.924 108.693 102.297C108.42 103.671 107.745 104.933 106.755 105.923C105.765 106.913 104.503 107.588 103.129 107.861C101.755 108.134 100.332 107.994 99.0376 107.458C97.7436 106.922 96.6377 106.015 95.8596 104.85C95.0815 103.685 94.6661 102.316 94.6661 100.916H73.4941Z"/>
</mask>
<path d="M73.4941 100.916C73.4941 106.504 75.1511 111.966 78.2557 116.613C81.3602 121.259 85.7728 124.88 90.9354 127.019C96.0981 129.157 101.779 129.716 107.26 128.626C112.74 127.536 117.774 124.845 121.726 120.894C125.677 116.943 128.368 111.908 129.458 106.428C130.548 100.947 129.989 95.2663 127.85 90.1036C125.712 84.941 122.091 80.5284 117.444 77.4239C112.798 74.3194 107.336 72.6623 101.748 72.6623V93.8343C103.148 93.8343 104.517 94.2497 105.682 95.0278C106.846 95.8059 107.754 96.9119 108.29 98.2058C108.826 99.4998 108.966 100.924 108.693 102.297C108.42 103.671 107.745 104.933 106.755 105.923C105.765 106.913 104.503 107.588 103.129 107.861C101.755 108.134 100.332 107.994 99.0376 107.458C97.7436 106.922 96.6377 106.015 95.8596 104.85C95.0815 103.685 94.6661 102.316 94.6661 100.916H73.4941Z" fill="#FFFDCC" stroke="black" stroke-width="8" mask="url(#path-3-inside-1)"/>
<mask id="path-4-inside-2" fill="white">
<path d="M105.911 77.7912C105.911 72.2032 104.254 66.7406 101.149 62.0944C98.0448 57.4481 93.6322 53.8268 88.4696 51.6884C83.307 49.5499 77.6261 48.9904 72.1455 50.0806C66.6649 51.1708 61.6306 53.8616 57.6793 57.813C53.728 61.7643 51.0371 66.7986 49.9469 72.2792C48.8568 77.7598 49.4163 83.4406 51.5547 88.6033C53.6932 93.7659 57.3145 98.1785 61.9607 101.283C66.607 104.388 72.0695 106.045 77.6575 106.045V84.4195C76.3465 84.4195 75.065 84.0308 73.975 83.3024C72.8849 82.5741 72.0354 81.5389 71.5337 80.3277C71.032 79.1165 70.9007 77.7838 71.1565 76.498C71.4122 75.2122 72.0435 74.0312 72.9705 73.1042C73.8975 72.1772 75.0786 71.5459 76.3644 71.2902C77.6501 71.0344 78.9829 71.1657 80.1941 71.6673C81.4052 72.169 82.4404 73.0186 83.1688 74.1086C83.8971 75.1987 84.2858 76.4802 84.2858 77.7912H105.911Z"/>
</mask>
<path d="M105.911 77.7912C105.911 72.2032 104.254 66.7406 101.149 62.0944C98.0448 57.4481 93.6322 53.8268 88.4696 51.6884C83.307 49.5499 77.6261 48.9904 72.1455 50.0806C66.6649 51.1708 61.6306 53.8616 57.6793 57.813C53.728 61.7643 51.0371 66.7986 49.9469 72.2792C48.8568 77.7598 49.4163 83.4406 51.5547 88.6033C53.6932 93.7659 57.3145 98.1785 61.9607 101.283C66.607 104.388 72.0695 106.045 77.6575 106.045V84.4195C76.3465 84.4195 75.065 84.0308 73.975 83.3024C72.8849 82.5741 72.0354 81.5389 71.5337 80.3277C71.032 79.1165 70.9007 77.7838 71.1565 76.498C71.4122 75.2122 72.0435 74.0312 72.9705 73.1042C73.8975 72.1772 75.0786 71.5459 76.3644 71.2902C77.6501 71.0344 78.9829 71.1657 80.1941 71.6673C81.4052 72.169 82.4404 73.0186 83.1688 74.1086C83.8971 75.1987 84.2858 76.4802 84.2858 77.7912H105.911Z" fill="#FFFDCC" stroke="black" stroke-width="8" mask="url(#path-4-inside-2)"/>
<path d="M31.8572 11.7451L40.352 34.7021L63.3091 43.197L40.352 51.6919L31.8572 74.6489L23.3623 51.6919L0.405273 43.197L23.3623 34.7021L31.8572 11.7451Z" fill="#FFFEF6"/>
<path d="M12.2595 57.5105L15.4613 66.163L24.1138 69.3648L15.4613 72.5665L12.2595 81.219L9.0578 72.5665L0.405273 69.3648L9.0578 66.163L12.2595 57.5105Z" fill="#FFFEF6"/>
</svg>
