<svg xmlns="http://www.w3.org/2000/svg" fill="none" viewBox="0 0 412 407">
  <defs/>
  <circle cx="204.232" cy="199.435" r="173.351" fill="#D1E975" stroke="#2F4500" stroke-width="7.968"/>
  <mask id="a" fill="#fff">
    <path d="M203.35 349.499a143.9 143.9 0 00116.111-54.197l-101.299-80.693a14.381 14.381 0 01-11.611 5.42l-3.201 129.47z"/>
  </mask>
  <path fill="#BDFF7B" d="M203.35 349.499a143.9 143.9 0 00116.111-54.197l-101.299-80.693a14.381 14.381 0 01-11.611 5.42l-3.201 129.47z"/>
  <path fill="url(#paint0_linear)" d="M203.35 349.499a143.9 143.9 0 00116.111-54.197l-101.299-80.693a14.381 14.381 0 01-11.611 5.42l-3.201 129.47z"/>
  <path stroke="#114100" stroke-width="7.968" d="M203.35 349.499a143.9 143.9 0 00116.111-54.197l-101.299-80.693a14.381 14.381 0 01-11.611 5.42l-3.201 129.47z" mask="url(#a)"/>
  <mask id="b" fill="#fff">
    <path d="M60.889 159.514a143.896 143.896 0 0020.42 126.499l105.294-75.405a14.394 14.394 0 01-2.042-12.65L60.889 159.514z"/>
  </mask>
  <path fill="#BDFF7B" d="M60.889 159.514a143.896 143.896 0 0020.42 126.499l105.294-75.405a14.394 14.394 0 01-2.042-12.65L60.889 159.514z"/>
  <path fill="url(#paint1_linear)" d="M60.889 159.514a143.896 143.896 0 0020.42 126.499l105.294-75.405a14.394 14.394 0 01-2.042-12.65L60.889 159.514z"/>
  <path stroke="#114100" stroke-width="7.968" d="M60.889 159.514a143.896 143.896 0 0020.42 126.499l105.294-75.405a14.394 14.394 0 01-2.042-12.65L60.889 159.514z" mask="url(#b)"/>
  <mask id="c" fill="#fff">
    <path d="M347.716 161.06a143.89 143.89 0 00-84.809-96.053l-48.766 119.978a14.387 14.387 0 018.481 9.605l125.094-33.53z"/>
  </mask>
  <path fill="#BDFF7B" d="M347.716 161.06a143.89 143.89 0 00-84.809-96.053l-48.766 119.978a14.387 14.387 0 018.481 9.605l125.094-33.53z"/>
  <path fill="url(#paint2_linear)" d="M347.716 161.06a143.89 143.89 0 00-84.809-96.053l-48.766 119.978a14.387 14.387 0 018.481 9.605l125.094-33.53z"/>
  <path stroke="#114100" stroke-width="7.968" d="M347.716 161.06a143.89 143.89 0 00-84.809-96.053l-48.766 119.978a14.387 14.387 0 018.481 9.605l125.094-33.53z" mask="url(#c)"/>
  <mask id="d" fill="#fff">
    <path d="M83.526 288.907a143.9 143.9 0 00112.918 60.567l4.001-129.447a14.404 14.404 0 01-6.357-1.702 14.403 14.403 0 01-4.935-4.355L83.526 288.907z"/>
  </mask>
  <path fill="#BDFF7B" d="M83.526 288.907a143.9 143.9 0 00112.918 60.567l4.001-129.447a14.404 14.404 0 01-6.357-1.702 14.403 14.403 0 01-4.935-4.355L83.526 288.907z"/>
  <path fill="url(#paint3_linear)" d="M83.526 288.907a143.9 143.9 0 00112.918 60.567l4.001-129.447a14.404 14.404 0 01-6.357-1.702 14.403 14.403 0 01-4.935-4.355L83.526 288.907z"/>
  <path stroke="#114100" stroke-width="7.968" d="M83.526 288.907a143.9 143.9 0 00112.918 60.567l4.001-129.447a14.404 14.404 0 01-6.357-1.702 14.403 14.403 0 01-4.935-4.355L83.526 288.907z" mask="url(#d)"/>
  <mask id="e" fill="#fff">
    <path d="M151.268 62.671a143.903 143.903 0 00-89.108 92.08l123.432 39.208a14.393 14.393 0 018.911-9.208l-43.235-122.08z"/>
  </mask>
  <path fill="#BDFF7B" d="M151.268 62.671a143.903 143.903 0 00-89.108 92.08l123.432 39.208a14.393 14.393 0 018.911-9.208l-43.235-122.08z"/>
  <path fill="url(#paint4_linear)" d="M151.268 62.671a143.903 143.903 0 00-89.108 92.08l123.432 39.208a14.393 14.393 0 018.911-9.208l-43.235-122.08z"/>
  <path stroke="#114100" stroke-width="7.968" d="M151.268 62.671a143.903 143.903 0 00-89.108 92.08l123.432 39.208a14.393 14.393 0 018.911-9.208l-43.235-122.08z" mask="url(#e)"/>
  <mask id="f" fill="#fff">
    <path d="M322.334 291.269a143.895 143.895 0 0026.176-125.434L223.212 198.59a14.4 14.4 0 01-2.618 12.544l101.74 80.135z"/>
  </mask>
  <path fill="#BDFF7B" d="M322.334 291.269a143.895 143.895 0 0026.176-125.434L223.212 198.59a14.4 14.4 0 01-2.618 12.544l101.74 80.135z"/>
  <path fill="url(#paint5_linear)" d="M322.334 291.269a143.895 143.895 0 0026.176-125.434L223.212 198.59a14.4 14.4 0 01-2.618 12.544l101.74 80.135z"/>
  <path stroke="#114100" stroke-width="7.968" d="M322.334 291.269a143.895 143.895 0 0026.176-125.434L223.212 198.59a14.4 14.4 0 01-2.618 12.544l101.74 80.135z" mask="url(#f)"/>
  <mask id="g" fill="#fff">
    <path d="M252.454 61.887a143.898 143.898 0 00-92.442-1.358l39.798 123.243a14.397 14.397 0 019.245.136l43.399-122.021z"/>
  </mask>
  <path fill="#BDFF7B" d="M252.454 61.887a143.898 143.898 0 00-92.442-1.358l39.798 123.243a14.397 14.397 0 019.245.136l43.399-122.021z"/>
  <path fill="url(#paint6_linear)" d="M252.454 61.887a143.898 143.898 0 00-92.442-1.358l39.798 123.243a14.397 14.397 0 019.245.136l43.399-122.021z"/>
  <path stroke="#114100" stroke-width="7.968" d="M252.454 61.887a143.898 143.898 0 00-92.442-1.358l39.798 123.243a14.397 14.397 0 019.245.136l43.399-122.021z" mask="url(#g)"/>
  <circle cx="204.232" cy="200.659" r="13.806" fill="#EEFFC9"/>
  <circle cx="203.451" cy="199.877" r="169.233" stroke="#fff" stroke-width="2.656"/>
  <defs>
    <linearGradient id="paint0_linear" x1="350.763" x2="63.051" y1="209.2" y2="202.087" gradientUnits="userSpaceOnUse">
      <stop offset=".3" stop-color="#279600"/>
      <stop offset=".935" stop-color="#A1FF80" stop-opacity="0"/>
    </linearGradient>
    <linearGradient id="paint1_linear" x1="155.586" x2="241.018" y1="339.643" y2="64.817" gradientUnits="userSpaceOnUse">
      <stop offset=".3" stop-color="#279600"/>
      <stop offset=".935" stop-color="#A1FF80" stop-opacity="0"/>
    </linearGradient>
    <linearGradient id="paint2_linear" x1="171.468" x2="245.978" y1="59.322" y2="337.309" gradientUnits="userSpaceOnUse">
      <stop offset=".3" stop-color="#279600"/>
      <stop offset=".935" stop-color="#A1FF80" stop-opacity="0"/>
    </linearGradient>
    <linearGradient id="paint3_linear" x1="284.153" x2="117.627" y1="323.008" y2="88.28" gradientUnits="userSpaceOnUse">
      <stop offset=".3" stop-color="#279600"/>
      <stop offset=".935" stop-color="#A1FF80" stop-opacity="0"/>
    </linearGradient>
    <linearGradient id="paint4_linear" x1="63.662" x2="334.951" y1="246.354" y2="150.277" gradientUnits="userSpaceOnUse">
      <stop offset=".3" stop-color="#279600"/>
      <stop offset=".935" stop-color="#A1FF80" stop-opacity="0"/>
    </linearGradient>
    <linearGradient id="paint5_linear" x1="298.328" x2="120.25" y1="89.185" y2="315.275" gradientUnits="userSpaceOnUse">
      <stop offset=".3" stop-color="#279600"/>
      <stop offset=".935" stop-color="#A1FF80" stop-opacity="0"/>
    </linearGradient>
    <linearGradient id="paint6_linear" x1="68.653" x2="339.812" y1="149.244" y2="245.688" gradientUnits="userSpaceOnUse">
      <stop offset=".3" stop-color="#279600"/>
      <stop offset=".935" stop-color="#A1FF80" stop-opacity="0"/>
    </linearGradient>
  </defs>
</svg>
