<svg width="139" height="111" viewBox="0 0 139 111" fill="none" xmlns="http://www.w3.org/2000/svg">
<path d="M15.3063 37.4847L14.9867 36.8795L107.784 72.3575L106.796 74.837L15.3063 37.4847Z" fill="#443500"/>
<ellipse cx="45.887" cy="49.0462" rx="27.4216" ry="20.4548" transform="rotate(-60.3976 45.887 49.0462)" fill="#5F5F00"/>
<ellipse cx="46.7937" cy="47.4097" rx="23.7407" ry="18.3154" transform="rotate(-60.3976 46.7937 47.4097)" fill="#808000"/>
<ellipse cx="39.0243" cy="37.6962" rx="8.66206" ry="4.31652" transform="rotate(-50.2825 39.0243 37.6962)" fill="#B3B300"/>
<ellipse cx="38.9704" cy="35.9456" rx="4.08557" ry="1.69857" transform="rotate(-45.5602 38.9704 35.9456)" fill="#FFFFA2"/>
<ellipse cx="55.4117" cy="29.815" rx="7.01477" ry="2.77445" transform="rotate(22.7045 55.4117 29.815)" fill="#2C2C00" fill-opacity="0.9"/>
<ellipse cx="61.3626" cy="55.3744" rx="0.738086" ry="0.284334" transform="rotate(116.173 61.3626 55.3744)" fill="#2C2C00"/>
<ellipse cx="28.1011" cy="42.3127" rx="0.481042" ry="0.222308" transform="rotate(116.173 28.1011 42.3127)" fill="#2C2C00"/>
<path d="M61.2296 55.413L61.331 55.1546L65.2398 56.0881L64.5187 57.5877L61.2296 55.413Z" fill="#443500"/>
<path d="M28.1476 42.2665L28.0998 42.387L26.5159 42.0596L26.8201 41.4045L28.1476 42.2665Z" fill="#443500"/>
<path d="M128.48 14.8692L129.164 14.8418L57.1421 83.2733L55.3307 81.3134L128.48 14.8692Z" fill="#443500"/>
<ellipse cx="104.863" cy="37.4765" rx="27.4216" ry="20.4548" transform="rotate(55.1438 104.863 37.4765)" fill="#5F5F00"/>
<ellipse cx="105.948" cy="39.0001" rx="23.7407" ry="18.3154" transform="rotate(55.1438 105.948 39.0001)" fill="#808000"/>
<ellipse cx="118.063" cy="36.1781" rx="8.66206" ry="4.31652" transform="rotate(65.2589 118.063 36.1781)" fill="#B3B300"/>
<ellipse cx="119.665" cy="36.8844" rx="4.08557" ry="1.69856" transform="rotate(69.9812 119.665 36.8844)" fill="#FFFFA2"/>
<ellipse cx="118.108" cy="54.3621" rx="7.01477" ry="2.77445" transform="rotate(138.246 118.108 54.3621)" fill="#2C2C00" fill-opacity="0.9"/>
<ellipse cx="92.4806" cy="48.7113" rx="0.738086" ry="0.284334" transform="rotate(-128.285 92.4806 48.7113)" fill="#2C2C00"/>
<ellipse cx="118.607" cy="24.332" rx="0.481042" ry="0.222308" transform="rotate(-128.285 118.607 24.332)" fill="#2C2C00"/>
<path d="M92.5031 48.5745L92.6925 48.7775L90.1649 51.9018L89.1228 50.6046L92.5031 48.5745Z" fill="#443500"/>
<path d="M118.629 24.3939L118.54 24.2988L119.519 23.0109L119.979 23.5678L118.629 24.3939Z" fill="#443500"/>
</svg>
