<svg xmlns="http://www.w3.org/2000/svg" fill="none" viewBox="0 0 343 365">
  <defs/>
  <path fill="#443500" d="M55.426 32.95v-2.995l286.585 326.847-8.885 7.577-277.7-331.43z"/>
  <ellipse cx="150.135" cy="140.157" fill="#5F5F00" rx="119.983" ry="89.5" transform="rotate(-32.565 150.135 140.157)"/>
  <ellipse cx="156.986" cy="135.677" fill="olive" rx="103.877" ry="80.139" transform="rotate(-32.565 156.986 135.677)"/>
  <ellipse cx="146.768" cy="82.221" fill="#B3B300" rx="37.901" ry="18.887" transform="rotate(-22.45 146.768 82.221)"/>
  <ellipse cx="150.135" cy="75.337" fill="#FFFFA2" rx="17.876" ry="7.432" transform="rotate(-17.728 150.135 75.337)"/>
  <ellipse cx="226.276" cy="85.203" fill="#2C2C00" fill-opacity=".9" rx="30.693" ry="12.14" transform="rotate(50.537 226.276 85.203)"/>
  <ellipse cx="197.088" cy="196.258" fill="#2C2C00" rx="3.229" ry="1.244" transform="rotate(144.006 197.088 196.258)"/>
  <ellipse cx="95.071" cy="77.769" fill="#2C2C00" rx="2.105" ry=".973" transform="rotate(144.006 95.071 77.769)"/>
  <path fill="#443500" d="M196.494 196.135l.92-.793 13.218 11.597-5.854 4.33-8.284-15.134zM95.346 77.685l-.431.369-5.46-4.503 2.516-1.913 3.375 6.047z"/>
</svg>
