<svg width="72" height="131" viewBox="0 0 72 131" fill="none" xmlns="http://www.w3.org/2000/svg">
<path d="M71.8857 35.7341C71.8857 40.4243 70.9619 45.0687 69.1671 49.4019C67.3722 53.7351 64.7414 57.6724 61.4249 60.9889C58.1084 64.3054 54.1711 66.9362 49.8379 68.7311C45.5046 70.526 40.8603 71.4498 36.17 71.4498C31.4798 71.4498 26.8355 70.526 22.5022 68.7311C18.169 66.9362 14.2317 64.3054 10.9152 60.9889C7.59872 57.6724 4.96792 53.7351 3.17304 49.4019C1.37816 45.0686 0.454345 40.4243 0.454346 35.7341H4.02592C4.02592 39.9553 4.85735 44.1352 6.47274 48.0351C8.08814 51.935 10.4559 55.4785 13.4407 58.4634C16.4256 61.4483 19.9691 63.816 23.869 65.4314C27.7689 67.0468 31.9488 67.8782 36.17 67.8782C40.3913 67.8782 44.5712 67.0468 48.4711 65.4314C52.371 63.816 55.9145 61.4483 58.8994 58.4634C61.8842 55.4785 64.252 51.935 65.8674 48.0351C67.4827 44.1352 68.3142 39.9553 68.3142 35.7341H71.8857Z" fill="white"/>
<rect x="0.454346" y="26.5115" width="3.56952" height="9.22252" fill="white"/>
<rect x="68.3163" y="26.5115" width="3.56952" height="9.22252" fill="white"/>
<rect x="34.3853" y="69.9922" width="3.56952" height="50.9487" fill="white"/>
<path d="M35.6118 118.254C35.9449 118.013 36.395 118.013 36.7282 118.254L46.8226 125.555C47.5711 126.096 47.1882 127.279 46.2644 127.279H26.0755C25.1518 127.279 24.7688 126.096 25.5173 125.555L35.6118 118.254Z" fill="white"/>
<path d="M69.9808 27.4704C69.9808 28.0826 69.5715 29.0293 67.9595 30.2002C66.3896 31.3405 63.9954 32.4468 60.8654 33.4084C54.6288 35.3244 45.8973 36.5382 36.17 36.5382C26.4428 36.5382 17.7113 35.3244 11.4747 33.4084C8.34471 32.4468 5.95048 31.3405 4.38059 30.2002C2.76855 29.0293 2.35931 28.0826 2.35931 27.4704C2.35931 26.8582 2.76855 25.9115 4.38059 24.7406C5.95048 23.6003 8.34471 22.494 11.4747 21.5324C17.7113 19.6164 26.4428 18.4026 36.17 18.4026C45.8973 18.4026 54.6288 19.6164 60.8654 21.5324C63.9954 22.494 66.3896 23.6003 67.9595 24.7406C69.5715 25.9115 69.9808 26.8582 69.9808 27.4704Z" stroke="white" stroke-width="3.80993"/>
<rect x="7.79016" y="38.4432" width="1.52246" height="6.8175" rx="0.76123" transform="rotate(-1.26232 7.79016 38.4432)" fill="white"/>
<rect x="9.99487" y="41.8344" width="1.52246" height="6.8175" rx="0.76123" transform="rotate(-1.26232 9.99487 41.8344)" fill="white"/>
</svg>
