<svg width="265" height="300" viewBox="0 0 265 300" fill="none" xmlns="http://www.w3.org/2000/svg">
<path d="M72.6407 114.924L72.6467 114.826L72.6607 114.728C75.0635 97.8874 88.637 82.1777 106.731 71.4884C124.891 60.7597 148.074 54.7881 170.454 57.7811C215.346 63.7849 238.918 100.524 237.792 134.675L237.788 134.808L237.769 134.939C235.459 151.133 225.459 180.014 210.577 204.143C203.128 216.22 194.363 227.261 184.585 234.935C174.795 242.619 163.784 247.077 152.008 245.502C142.25 244.197 132.37 237.034 123.224 227.184C113.997 217.246 105.162 204.185 97.5442 190.354C89.9203 176.512 83.4681 161.814 79.0364 148.55C74.6302 135.362 72.1319 123.332 72.6407 114.924Z" fill="#FC0000"/>
<path d="M72.6407 114.924L72.6467 114.826L72.6607 114.728C75.0635 97.8874 88.637 82.1777 106.731 71.4884C124.891 60.7597 148.074 54.7881 170.454 57.7811C215.346 63.7849 238.918 100.524 237.792 134.675L237.788 134.808L237.769 134.939C235.459 151.133 225.459 180.014 210.577 204.143C203.128 216.22 194.363 227.261 184.585 234.935C174.795 242.619 163.784 247.077 152.008 245.502C142.25 244.197 132.37 237.034 123.224 227.184C113.997 217.246 105.162 204.185 97.5442 190.354C89.9203 176.512 83.4681 161.814 79.0364 148.55C74.6302 135.362 72.1319 123.332 72.6407 114.924Z" fill="url(#paint0_linear)"/>
<path d="M72.6407 114.924L72.6467 114.826L72.6607 114.728C75.0635 97.8874 88.637 82.1777 106.731 71.4884C124.891 60.7597 148.074 54.7881 170.454 57.7811C215.346 63.7849 238.918 100.524 237.792 134.675L237.788 134.808L237.769 134.939C235.459 151.133 225.459 180.014 210.577 204.143C203.128 216.22 194.363 227.261 184.585 234.935C174.795 242.619 163.784 247.077 152.008 245.502C142.25 244.197 132.37 237.034 123.224 227.184C113.997 217.246 105.162 204.185 97.5442 190.354C89.9203 176.512 83.4681 161.814 79.0364 148.55C74.6302 135.362 72.1319 123.332 72.6407 114.924Z" stroke="#C50000" stroke-width="5"/>
<ellipse rx="4.00243" ry="7.56462" transform="matrix(-0.983711 -0.214497 -0.224976 0.96709 195.15 125.585)" fill="#FF6B7D"/>
<path d="M194.495 123.814C194.077 125.142 193.571 126.607 194.073 126.755C194.574 126.903 195.151 125.384 195.569 124.056C195.986 122.728 196.655 121.823 195.746 121.556C194.837 121.288 194.912 122.486 194.495 123.814Z" fill="white"/>
<path d="M195.032 126.931C194.669 127.302 194.291 127.826 193.834 128.417C194.683 128.272 195.277 127.743 195.553 127.46C196.079 127.231 196.837 123.626 196.624 122.329C196.334 123.399 195.285 126.671 195.032 126.931Z" fill="#771824"/>
<path d="M194.546 130.182C193.948 130.286 192.423 129.951 192.152 129.548C192.058 130.284 193.238 131.106 193.87 131.4C194.833 131.847 195.707 131.043 195.873 130.872C196.4 130.643 197.632 124.671 197.419 123.374C197.129 124.443 195.945 130.255 194.546 130.182Z" fill="white"/>
<ellipse rx="2.60003" ry="4.91445" transform="matrix(-0.971631 -0.261189 -0.273928 0.955143 179.867 131.92)" fill="#FF6B7D"/>
<path d="M179.501 130.751C179.186 131.6 178.809 132.535 179.13 132.646C179.45 132.758 179.875 131.79 180.19 130.941C180.504 130.092 180.968 129.526 180.387 129.324C179.806 129.122 179.815 129.902 179.501 130.751Z" fill="white"/>
<path d="M179.746 132.79C179.498 133.019 179.235 133.348 178.919 133.717C179.475 133.649 179.878 133.325 180.067 133.15C180.416 133.017 181.027 130.702 180.931 129.854C180.708 130.539 179.918 132.629 179.746 132.79Z" fill="#771824"/>
<path d="M179.323 134.884C178.931 134.933 177.953 134.669 177.79 134.399C177.705 134.874 178.444 135.444 178.844 135.654C179.454 135.974 180.048 135.479 180.161 135.373C180.51 135.241 181.507 131.404 181.412 130.556C181.188 131.241 180.228 134.975 179.323 134.884Z" fill="white"/>
<ellipse rx="2.95625" ry="5.58776" transform="matrix(-0.971631 -0.261189 -0.273928 0.955143 192.568 149.193)" fill="#FF6B7D"/>
<path d="M192.151 147.863C191.794 148.828 191.365 149.892 191.73 150.019C192.094 150.145 192.577 149.045 192.935 148.08C193.293 147.115 193.82 146.471 193.16 146.242C192.499 146.012 192.509 146.898 192.151 147.863Z" fill="white"/>
<path d="M192.43 150.182C192.149 150.443 191.85 150.817 191.491 151.236C192.123 151.159 192.581 150.79 192.795 150.591C193.192 150.441 193.887 147.808 193.778 146.844C193.524 147.622 192.627 150 192.43 150.182Z" fill="#771824"/>
<path d="M191.949 152.563C191.505 152.619 190.392 152.318 190.207 152.011C190.111 152.551 190.95 153.199 191.405 153.438C192.099 153.802 192.774 153.239 192.903 153.119C193.3 152.968 194.434 148.606 194.325 147.642C194.071 148.421 192.979 152.667 191.949 152.563Z" fill="white"/>
<ellipse rx="3.90741" ry="7.40492" transform="matrix(-1.00653 0.0772815 0.0808392 0.986865 178.863 153.182)" fill="#FF6B7D"/>
<path d="M177.721 151.712C177.728 153.069 177.694 154.579 178.207 154.576C178.719 154.574 178.804 152.994 178.796 151.637C178.789 150.279 179.143 149.248 178.214 149.252C177.285 149.257 177.714 150.354 177.721 151.712Z" fill="white"/>
<path d="M179.155 154.472C178.928 154.92 178.731 155.515 178.481 156.195C179.231 155.822 179.627 155.162 179.8 154.82C180.223 154.458 179.853 150.88 179.266 149.729C179.315 150.809 179.314 154.159 179.155 154.472Z" fill="#771824"/>
<path d="M179.673 157.644C179.146 157.908 177.622 158.023 177.248 157.723C177.381 158.436 178.728 158.873 179.407 158.97C180.44 159.118 181.015 158.122 181.119 157.915C181.542 157.554 180.907 151.633 180.32 150.482C180.369 151.561 181.001 157.32 179.673 157.644Z" fill="white"/>
<ellipse rx="2.99615" ry="5.66281" transform="matrix(-0.979533 -0.231747 -0.243066 0.962973 190.634 169.539)" fill="#FF6B7D"/>
<path d="M190.168 168.204C189.836 169.192 189.437 170.283 189.81 170.4C190.184 170.517 190.637 169.388 190.968 168.399C191.299 167.41 191.812 166.742 191.136 166.53C190.459 166.318 190.499 167.215 190.168 168.204Z" fill="white"/>
<path d="M190.526 170.544C190.249 170.817 189.959 171.205 189.609 171.641C190.246 171.544 190.698 171.156 190.909 170.948C191.306 170.783 191.924 168.095 191.783 167.121C191.55 167.918 190.719 170.354 190.526 170.544Z" fill="#771824"/>
<path d="M190.117 172.971C189.668 173.041 188.531 172.77 188.334 172.465C188.253 173.015 189.125 173.646 189.594 173.874C190.308 174.221 190.974 173.631 191.101 173.505C191.498 173.34 192.504 168.887 192.363 167.913C192.13 168.71 191.163 173.045 190.117 172.971Z" fill="white"/>
<ellipse rx="2.99615" ry="5.66281" transform="matrix(-0.979533 -0.231747 -0.243066 0.962973 202.302 175.478)" fill="#FF6B7D"/>
<path d="M201.836 174.143C201.504 175.132 201.105 176.222 201.478 176.339C201.852 176.457 202.305 175.327 202.636 174.339C202.967 173.35 203.48 172.682 202.804 172.47C202.127 172.257 202.167 173.155 201.836 174.143Z" fill="white"/>
<path d="M202.194 176.484C201.917 176.757 201.627 177.144 201.277 177.58C201.914 177.483 202.366 177.095 202.577 176.887C202.974 176.722 203.592 174.034 203.451 173.061C203.218 173.857 202.387 176.293 202.194 176.484Z" fill="#771824"/>
<path d="M201.784 178.911C201.335 178.98 200.199 178.71 200.001 178.405C199.921 178.954 200.792 179.585 201.262 179.813C201.976 180.161 202.641 179.57 202.769 179.444C203.166 179.28 204.172 174.826 204.03 173.853C203.798 174.649 202.831 178.984 201.784 178.911Z" fill="white"/>
<ellipse rx="4.03724" ry="7.64486" transform="matrix(-1.00885 0.0288053 0.0301554 0.989934 202.408 156.745)" fill="#FF6B7D"/>
<path d="M201.307 155.171C201.243 156.572 201.128 158.128 201.656 158.15C202.185 158.173 202.356 156.548 202.42 155.147C202.485 153.747 202.904 152.7 201.946 152.659C200.988 152.618 201.371 153.771 201.307 155.171Z" fill="white"/>
<path d="M202.64 158.089C202.382 158.541 202.148 159.145 201.854 159.834C202.647 159.486 203.091 158.825 203.287 158.481C203.743 158.129 203.55 154.419 203.006 153.203C202.999 154.319 202.82 157.775 202.64 158.089Z" fill="#771824"/>
<path d="M203.007 161.387C202.449 161.634 200.871 161.677 200.501 161.349C200.601 162.091 201.967 162.609 202.662 162.742C203.72 162.946 204.366 161.947 204.484 161.739C204.94 161.388 204.598 155.248 204.054 154.031C204.047 155.148 204.394 161.119 203.007 161.387Z" fill="white"/>
<ellipse rx="3.09831" ry="5.85622" transform="matrix(-0.972243 -0.25903 -0.271666 0.955752 213.179 149.088)" fill="#FF6B7D"/>
<path d="M212.738 147.695C212.365 148.707 211.919 149.823 212.301 149.955C212.683 150.087 213.187 148.932 213.559 147.92C213.932 146.908 214.483 146.232 213.791 145.993C213.098 145.754 213.111 146.683 212.738 147.695Z" fill="white"/>
<path d="M213.037 150.124C212.742 150.399 212.43 150.791 212.054 151.232C212.717 151.149 213.196 150.761 213.42 150.552C213.835 150.394 214.557 147.633 214.441 146.623C214.177 147.439 213.242 149.933 213.037 150.124Z" fill="#771824"/>
<path d="M212.538 152.621C212.072 152.68 210.906 152.368 210.711 152.047C210.611 152.613 211.492 153.29 211.97 153.539C212.698 153.919 213.404 153.328 213.539 153.202C213.955 153.043 215.132 148.468 215.016 147.458C214.751 148.275 213.618 152.727 212.538 152.621Z" fill="white"/>
<ellipse rx="2.75727" ry="5.21314" transform="matrix(-0.953989 -0.31675 -0.332103 0.937531 225.283 150.669)" fill="#FF6B7D"/>
<path d="M224.971 149.408C224.582 150.287 224.122 151.254 224.454 151.392C224.786 151.529 225.299 150.531 225.688 149.651C226.076 148.772 226.604 148.201 226.002 147.952C225.4 147.703 225.359 148.528 224.971 149.408Z" fill="white"/>
<path d="M225.098 151.582C224.821 151.81 224.521 152.141 224.162 152.513C224.755 152.475 225.203 152.156 225.414 151.982C225.792 151.863 226.59 149.449 226.544 148.546C226.263 149.257 225.291 151.422 225.098 151.582Z" fill="#771824"/>
<path d="M224.514 153.773C224.096 153.801 223.078 153.461 222.923 153.166C222.802 153.663 223.546 154.312 223.957 154.559C224.582 154.935 225.242 154.447 225.37 154.342C225.748 154.223 227.053 150.222 227.008 149.318C226.726 150.03 225.466 153.925 224.514 153.773Z" fill="white"/>
<ellipse rx="1.95844" ry="3.70151" transform="matrix(-0.979495 -0.231897 -0.243224 0.962936 228.508 140.213)" fill="#FF6B7D"/>
<path d="M228.204 139.341C227.987 139.987 227.726 140.7 227.97 140.776C228.214 140.853 228.51 140.115 228.727 139.469C228.943 138.823 229.279 138.386 228.837 138.247C228.395 138.108 228.42 138.695 228.204 139.341Z" fill="white"/>
<path d="M228.438 140.87C228.257 141.049 228.067 141.302 227.838 141.587C228.255 141.524 228.551 141.27 228.688 141.134C228.948 141.026 229.352 139.269 229.26 138.633C229.108 139.154 228.564 140.746 228.438 140.87Z" fill="#771824"/>
<path d="M228.17 142.457C227.876 142.502 227.133 142.325 227.004 142.126C226.952 142.485 227.521 142.898 227.828 143.047C228.295 143.274 228.73 142.888 228.813 142.806C229.073 142.698 229.731 139.787 229.638 139.151C229.487 139.672 228.854 142.505 228.17 142.457Z" fill="white"/>
<ellipse rx="1.49777" ry="2.83181" transform="matrix(-0.953989 -0.31675 -0.332103 0.937531 221.621 165.041)" fill="#FF6B7D"/>
<path d="M221.452 164.356C221.241 164.834 220.991 165.359 221.171 165.434C221.352 165.509 221.63 164.966 221.841 164.489C222.052 164.011 222.339 163.701 222.012 163.565C221.685 163.43 221.663 163.879 221.452 164.356Z" fill="white"/>
<path d="M221.521 165.537C221.37 165.661 221.208 165.841 221.013 166.043C221.335 166.023 221.578 165.849 221.693 165.755C221.898 165.69 222.331 164.379 222.307 163.888C222.154 164.275 221.626 165.451 221.521 165.537Z" fill="#771824"/>
<path d="M221.203 166.728C220.976 166.743 220.423 166.558 220.339 166.398C220.273 166.668 220.677 167.02 220.9 167.154C221.24 167.358 221.599 167.094 221.668 167.037C221.873 166.972 222.583 164.799 222.558 164.308C222.405 164.694 221.72 166.81 221.203 166.728Z" fill="white"/>
<ellipse rx="1.49777" ry="2.83181" transform="matrix(-0.953989 -0.31675 -0.332103 0.937531 212.358 177.354)" fill="#FF6B7D"/>
<path d="M212.189 176.669C211.978 177.147 211.728 177.672 211.908 177.747C212.089 177.822 212.367 177.279 212.578 176.801C212.79 176.324 213.076 176.014 212.749 175.878C212.422 175.743 212.4 176.191 212.189 176.669Z" fill="white"/>
<path d="M212.258 177.85C212.107 177.974 211.945 178.154 211.75 178.356C212.072 178.335 212.315 178.162 212.43 178.068C212.635 178.003 213.069 176.692 213.044 176.201C212.891 176.587 212.363 177.764 212.258 177.85Z" fill="#771824"/>
<path d="M211.94 179.041C211.713 179.055 211.16 178.871 211.076 178.71C211.01 178.981 211.415 179.333 211.638 179.467C211.977 179.671 212.336 179.406 212.405 179.349C212.611 179.285 213.32 177.111 213.295 176.621C213.142 177.007 212.458 179.123 211.94 179.041Z" fill="white"/>
<ellipse rx="1.68343" ry="3.18284" transform="matrix(-0.953989 -0.31675 -0.332103 0.937531 207.899 190.065)" fill="#FF6B7D"/>
<path d="M207.708 189.296C207.47 189.833 207.19 190.423 207.392 190.507C207.595 190.591 207.908 189.981 208.145 189.444C208.383 188.907 208.705 188.559 208.338 188.407C207.97 188.254 207.945 188.759 207.708 189.296Z" fill="white"/>
<path d="M207.786 190.623C207.617 190.762 207.434 190.965 207.215 191.192C207.577 191.169 207.85 190.974 207.979 190.868C208.21 190.795 208.697 189.321 208.669 188.769C208.497 189.204 207.904 190.526 207.786 190.623Z" fill="#771824"/>
<path d="M207.429 191.961C207.174 191.978 206.552 191.77 206.457 191.59C206.384 191.894 206.838 192.29 207.089 192.44C207.47 192.67 207.874 192.372 207.951 192.308C208.182 192.236 208.979 189.793 208.952 189.241C208.78 189.675 208.01 192.054 207.429 191.961Z" fill="white"/>
<ellipse rx="2.63597" ry="4.98234" transform="matrix(-0.972243 -0.25903 -0.271666 0.955752 214.119 161.846)" fill="#FF6B7D"/>
<path d="M213.744 160.661C213.426 161.523 213.047 162.472 213.372 162.584C213.697 162.696 214.125 161.714 214.442 160.853C214.76 159.992 215.229 159.417 214.639 159.213C214.05 159.01 214.061 159.8 213.744 160.661Z" fill="white"/>
<path d="M213.998 162.728C213.747 162.962 213.482 163.295 213.162 163.67C213.726 163.6 214.133 163.27 214.324 163.092C214.677 162.957 215.291 160.608 215.193 159.749C214.968 160.444 214.173 162.565 213.998 162.728Z" fill="#771824"/>
<path d="M213.574 164.853C213.177 164.903 212.185 164.637 212.019 164.364C211.934 164.845 212.684 165.421 213.091 165.634C213.71 165.957 214.311 165.454 214.426 165.346C214.779 165.211 215.781 161.319 215.682 160.46C215.457 161.155 214.492 164.943 213.574 164.853Z" fill="white"/>
<ellipse rx="2.87277" ry="5.43024" transform="matrix(-0.995887 -0.153403 -0.160877 0.978939 221.21 136.992)" fill="#FF6B7D"/>
<path d="M220.656 135.753C220.42 136.723 220.126 137.795 220.493 137.878C220.859 137.962 221.2 136.848 221.437 135.879C221.673 134.909 222.109 134.231 221.446 134.08C220.782 133.928 220.892 134.783 220.656 135.753Z" fill="white"/>
<path d="M221.189 137.962C220.946 138.244 220.7 138.636 220.401 139.08C221.002 138.938 221.403 138.533 221.587 138.318C221.953 138.131 222.326 135.515 222.112 134.595C221.955 135.374 221.358 137.765 221.189 137.962Z" fill="#771824"/>
<path d="M220.994 140.312C220.57 140.413 219.462 140.241 219.249 139.964C219.217 140.496 220.1 141.032 220.568 141.215C221.278 141.492 221.866 140.877 221.977 140.748C222.344 140.56 222.944 136.228 222.73 135.308C222.573 136.087 221.999 140.303 220.994 140.312Z" fill="white"/>
<ellipse rx="2.8729" ry="5.42999" transform="matrix(-0.975709 -0.246452 -0.258483 0.95919 214.829 126.421)" fill="#FF6B7D"/>
<path d="M214.402 125.135C214.069 126.078 213.669 127.117 214.025 127.235C214.382 127.353 214.833 126.277 215.166 125.334C215.499 124.39 216.001 123.757 215.356 123.544C214.71 123.331 214.734 124.192 214.402 125.135Z" fill="white"/>
<path d="M214.71 127.384C214.44 127.642 214.156 128.009 213.813 128.422C214.426 128.338 214.866 127.972 215.071 127.776C215.454 127.624 216.088 125.055 215.967 124.12C215.732 124.88 214.898 127.204 214.71 127.384Z" fill="#771824"/>
<path d="M214.28 129.705C213.849 129.765 212.763 129.489 212.579 129.194C212.493 129.72 213.319 130.337 213.765 130.563C214.445 130.906 215.092 130.349 215.216 130.231C215.599 130.079 216.632 125.823 216.511 124.888C216.277 125.648 215.282 129.79 214.28 129.705Z" fill="white"/>
<ellipse rx="2.8675" ry="5.4405" transform="matrix(-1.00028 0.137225 0.143376 0.979596 227.248 123.426)" fill="#FF6B7D"/>
<path d="M226.341 122.398C226.41 123.393 226.456 124.501 226.831 124.477C227.207 124.452 227.195 123.291 227.126 122.296C227.057 121.302 227.269 120.53 226.588 120.574C225.908 120.619 226.273 121.404 226.341 122.398Z" fill="white"/>
<path d="M227.522 124.358C227.376 124.697 227.26 125.142 227.108 125.651C227.64 125.344 227.9 124.843 228.011 124.585C228.304 124.302 227.865 121.696 227.382 120.878C227.468 121.667 227.623 124.122 227.522 124.358Z" fill="#771824"/>
<path d="M228.05 126.66C227.676 126.877 226.565 127.028 226.277 126.825C226.407 127.342 227.415 127.603 227.917 127.644C228.681 127.707 229.056 126.952 229.123 126.796C229.416 126.513 228.673 122.201 228.19 121.383C228.276 122.172 229.008 126.365 228.05 126.66Z" fill="white"/>
<ellipse rx="3.89871" ry="7.38853" transform="matrix(-1.00648 0.078019 0.0816096 0.986799 212.068 109.705)" fill="#FF6B7D"/>
<path d="M210.927 108.239C210.936 109.594 210.903 111.1 211.414 111.098C211.925 111.095 212.008 109.518 212 108.164C211.991 106.81 212.344 105.78 211.417 105.785C210.491 105.791 210.919 106.885 210.927 108.239Z" fill="white"/>
<path d="M212.36 110.992C212.134 111.44 211.938 112.034 211.689 112.712C212.437 112.339 212.832 111.68 213.004 111.339C213.426 110.978 213.054 107.408 212.467 106.26C212.517 107.337 212.518 110.68 212.36 110.992Z" fill="#771824"/>
<path d="M212.88 114.157C212.354 114.421 210.834 114.537 210.46 114.238C210.594 114.949 211.938 115.384 212.615 115.481C213.646 115.627 214.219 114.633 214.323 114.427C214.744 114.066 214.106 108.158 213.52 107.01C213.569 108.087 214.205 113.833 212.88 114.157Z" fill="white"/>
<ellipse rx="2.96271" ry="5.63466" transform="matrix(-0.980768 0.239442 0.249574 0.958187 223.565 105.148)" fill="#FF6B7D"/>
<path d="M222.516 104.187C222.699 105.203 222.872 106.338 223.255 106.273C223.639 106.208 223.495 105.014 223.311 103.999C223.128 102.984 223.258 102.167 222.563 102.285C221.868 102.403 222.333 103.172 222.516 104.187Z" fill="white"/>
<path d="M223.952 106.078C223.84 106.442 223.771 106.912 223.673 107.451C224.185 107.08 224.396 106.537 224.481 106.259C224.75 105.937 224.003 103.303 223.413 102.513C223.591 103.315 224.029 105.824 223.952 106.078Z" fill="#771824"/>
<path d="M224.756 108.39C224.396 108.652 223.27 108.926 222.951 108.747C223.144 109.265 224.21 109.426 224.731 109.416C225.523 109.399 225.824 108.583 225.875 108.416C226.144 108.093 224.892 103.737 224.302 102.947C224.48 103.749 225.709 107.984 224.756 108.39Z" fill="white"/>
<ellipse rx="2.95516" ry="5.64924" transform="matrix(-0.920119 0.412669 0.427928 0.894331 216.849 92.6976)" fill="#FF6B7D"/>
<path d="M215.635 91.9421C216.01 92.9069 216.397 93.9914 216.761 93.8586C217.125 93.7259 216.755 92.5789 216.38 91.6141C216.005 90.6493 215.976 89.8239 215.316 90.0645C214.656 90.3052 215.26 90.9773 215.635 91.9421Z" fill="white"/>
<path d="M217.408 93.5419C217.369 93.9193 217.391 94.3936 217.398 94.9416C217.83 94.4842 217.933 93.9127 217.963 93.6252C218.166 93.2598 216.927 90.8056 216.195 90.1354C216.524 90.892 217.436 93.2784 217.408 93.5419Z" fill="#771824"/>
<path d="M218.642 95.6686C218.338 95.9915 217.284 96.4625 216.936 96.3444C217.225 96.8186 218.304 96.7857 218.813 96.6815C219.589 96.5229 219.728 95.6665 219.746 95.493C219.948 95.1276 217.883 91.0722 217.151 90.402C217.48 91.1586 219.5 95.0989 218.642 95.6686Z" fill="white"/>
<ellipse rx="3.24241" ry="6.16386" transform="matrix(-0.984936 0.221869 0.231361 0.962692 199.16 97.1118)" fill="#FF6B7D"/>
<path d="M198.032 96.0407C198.212 97.1552 198.377 98.4004 198.798 98.3369C199.219 98.2733 199.086 96.9647 198.906 95.8503C198.727 94.7358 198.886 93.8454 198.123 93.9606C197.361 94.0759 197.853 94.9263 198.032 96.0407Z" fill="white"/>
<path d="M199.564 98.1373C199.434 98.5329 199.349 99.0458 199.231 99.6344C199.799 99.2376 200.04 98.6477 200.139 98.3462C200.44 97.9985 199.679 95.1022 199.049 94.2264C199.227 95.1079 199.655 97.861 199.564 98.1373Z" fill="#771824"/>
<path d="M200.396 100.681C199.996 100.962 198.759 101.239 198.413 101.037C198.614 101.608 199.776 101.805 200.346 101.804C201.214 101.801 201.559 100.914 201.619 100.732C201.92 100.384 200.641 95.5938 200.012 94.7181C200.19 95.5995 201.446 100.256 200.396 100.681Z" fill="white"/>
<ellipse rx="3.23434" ry="6.17946" transform="matrix(-0.927804 0.395533 0.410389 0.902307 191.193 85.4014)" fill="#FF6B7D"/>
<path d="M189.881 84.5504C190.27 85.6134 190.67 86.8076 191.072 86.6697C191.473 86.5319 191.093 85.2697 190.703 84.2067C190.314 83.1436 190.3 82.2401 189.572 82.49C188.845 82.7399 189.491 83.4874 189.881 84.5504Z" fill="white"/>
<path d="M191.787 86.3365C191.735 86.7485 191.749 87.2679 191.745 87.8675C192.228 87.3758 192.352 86.7527 192.391 86.4388C192.621 86.0431 191.319 83.3333 190.533 82.5855C190.876 83.4198 191.823 86.0488 191.787 86.3365Z" fill="#771824"/>
<path d="M193.09 88.6877C192.751 89.0348 191.588 89.5288 191.21 89.3926C191.516 89.9172 192.697 89.9029 193.256 89.7992C194.109 89.6414 194.278 88.7073 194.302 88.5178C194.532 88.1222 192.359 83.644 191.573 82.8962C191.916 83.7305 194.041 88.0817 193.09 88.6877Z" fill="white"/>
<ellipse rx="3.2516" ry="6.14602" transform="matrix(-0.971295 -0.262363 -0.275158 0.954809 183.496 106.659)" fill="#FF6B7D"/>
<path d="M183.038 105.195C182.643 106.256 182.17 107.425 182.571 107.565C182.971 107.705 183.504 106.495 183.899 105.434C184.294 104.373 184.875 103.666 184.149 103.412C183.423 103.159 183.433 104.134 183.038 105.195Z" fill="white"/>
<path d="M183.342 107.746C183.032 108.033 182.703 108.443 182.307 108.904C183.002 108.82 183.507 108.415 183.743 108.196C184.179 108.031 184.947 105.137 184.83 104.076C184.549 104.932 183.558 107.546 183.342 107.746Z" fill="#771824"/>
<path d="M182.81 110.364C182.321 110.425 181.098 110.093 180.894 109.755C180.787 110.349 181.71 111.062 182.21 111.326C182.973 111.727 183.716 111.109 183.858 110.977C184.295 110.812 185.548 106.015 185.43 104.955C185.149 105.811 183.942 110.48 182.81 110.364Z" fill="white"/>
<ellipse rx="3.65641" ry="6.99813" transform="matrix(-0.902885 0.448211 0.46423 0.876532 183.669 92.4531)" fill="#FF6B7D"/>
<path d="M182.128 91.5768C182.641 92.7524 183.175 94.0753 183.619 93.8937C184.063 93.712 183.546 92.3109 183.033 91.1354C182.52 89.9599 182.442 88.9402 181.637 89.2694C180.833 89.5987 181.614 90.4013 182.128 91.5768Z" fill="white"/>
<path d="M184.404 93.4708C184.374 93.9396 184.426 94.5252 184.462 95.2028C184.974 94.6162 185.071 93.9044 185.094 93.5473C185.326 93.0855 183.668 90.1089 182.729 89.315C183.175 90.2351 184.425 93.1435 184.404 93.4708Z" fill="#771824"/>
<path d="M186.038 96.0425C185.679 96.4565 184.399 97.0897 183.963 96.9603C184.345 97.533 185.677 97.4406 186.302 97.2873C187.254 97.054 187.381 95.9879 187.395 95.7724C187.627 95.3106 184.864 90.3929 183.925 89.5989C184.371 90.5191 187.07 95.2966 186.038 96.0425Z" fill="white"/>
<ellipse rx="3.28233" ry="6.20476" transform="matrix(-0.963785 -0.287322 -0.301303 0.947328 168.586 97.8094)" fill="#FF6B7D"/>
<path d="M168.165 96.3203C167.737 97.3808 167.227 98.5483 167.628 98.6998C168.028 98.8513 168.599 97.6446 169.027 96.5841C169.456 95.5236 170.062 94.8251 169.336 94.5505C168.61 94.2759 168.593 95.2598 168.165 96.3203Z" fill="white"/>
<path d="M168.402 98.9028C168.081 99.1842 167.737 99.5897 167.325 100.045C168.029 99.9782 168.549 99.5823 168.793 99.3678C169.239 99.2126 170.094 96.3114 170.005 95.2379C169.697 96.0944 168.625 98.7063 168.402 98.9028Z" fill="#771824"/>
<path d="M167.792 101.531C167.296 101.579 166.071 101.212 165.875 100.866C165.751 101.463 166.662 102.207 167.16 102.486C167.918 102.91 168.685 102.306 168.832 102.177C169.277 102.021 170.675 97.2135 170.586 96.14C170.279 96.9966 168.931 101.677 167.792 101.531Z" fill="white"/>
<ellipse rx="3.04571" ry="5.75747" transform="matrix(-0.963785 -0.287322 -0.301303 0.947328 168.512 114.774)" fill="#FF6B7D"/>
<path d="M168.121 113.392C167.724 114.376 167.251 115.46 167.623 115.6C167.994 115.741 168.524 114.621 168.921 113.637C169.319 112.653 169.881 112.005 169.208 111.75C168.534 111.495 168.518 112.408 168.121 113.392Z" fill="white"/>
<path d="M168.34 115.789C168.043 116.05 167.724 116.426 167.341 116.848C167.994 116.786 168.477 116.419 168.704 116.22C169.117 116.076 169.911 113.384 169.828 112.388C169.543 113.183 168.548 115.606 168.34 115.789Z" fill="#771824"/>
<path d="M167.774 118.228C167.314 118.272 166.177 117.932 165.996 117.611C165.88 118.164 166.726 118.855 167.188 119.113C167.891 119.507 168.603 118.947 168.74 118.826C169.153 118.682 170.45 114.221 170.367 113.225C170.082 114.02 168.831 118.363 167.774 118.228Z" fill="white"/>
<ellipse rx="3.68325" ry="6.96183" transform="matrix(-0.972414 -0.258426 -0.271033 0.955921 156.5 131.565)" fill="#FF6B7D"/>
<path d="M155.975 129.909C155.533 131.113 155.003 132.44 155.458 132.596C155.912 132.753 156.509 131.38 156.952 130.176C157.394 128.973 158.049 128.169 157.225 127.885C156.401 127.602 156.417 128.706 155.975 129.909Z" fill="white"/>
<path d="M156.333 132.798C155.983 133.124 155.612 133.59 155.166 134.115C155.953 134.016 156.523 133.555 156.789 133.306C157.283 133.117 158.138 129.835 158 128.634C157.686 129.605 156.577 132.57 156.333 132.798Z" fill="#771824"/>
<path d="M155.742 135.766C155.188 135.837 153.801 135.466 153.569 135.085C153.451 135.757 154.499 136.562 155.068 136.858C155.933 137.309 156.772 136.605 156.932 136.455C157.426 136.266 158.822 130.827 158.683 129.626C158.369 130.597 157.025 135.891 155.742 135.766Z" fill="white"/>
<ellipse rx="3.68325" ry="6.96183" transform="matrix(-0.972414 -0.258426 -0.271033 0.955921 151.626 111.715)" fill="#FF6B7D"/>
<path d="M151.101 110.059C150.659 111.263 150.129 112.589 150.584 112.746C151.038 112.903 151.635 111.53 152.078 110.326C152.52 109.123 153.175 108.319 152.351 108.035C151.527 107.752 151.543 108.856 151.101 110.059Z" fill="white"/>
<path d="M151.458 112.947C151.109 113.274 150.738 113.74 150.291 114.264C151.079 114.166 151.648 113.705 151.914 113.456C152.408 113.267 153.264 109.984 153.125 108.783C152.811 109.754 151.702 112.72 151.458 112.947Z" fill="#771824"/>
<path d="M150.868 115.916C150.314 115.986 148.927 115.616 148.695 115.234C148.577 115.907 149.625 116.711 150.193 117.008C151.059 117.459 151.897 116.755 152.058 116.605C152.552 116.416 153.948 110.977 153.809 109.776C153.495 110.747 152.151 116.041 150.868 115.916Z" fill="white"/>
<ellipse rx="3.68325" ry="6.96183" transform="matrix(-0.972414 -0.258426 -0.271033 0.955921 152.766 93.7204)" fill="#FF6B7D"/>
<path d="M152.24 92.0647C151.798 93.2685 151.268 94.5948 151.723 94.7514C152.177 94.9079 152.775 93.5354 153.217 92.3317C153.659 91.1279 154.314 90.3242 153.49 90.0406C152.666 89.7569 152.683 90.861 152.24 92.0647Z" fill="white"/>
<path d="M152.598 94.9531C152.248 95.2794 151.877 95.7458 151.431 96.2699C152.218 96.1717 152.787 95.7103 153.054 95.4615C153.547 95.2726 154.403 91.9901 154.265 90.7891C153.951 91.76 152.842 94.7252 152.598 94.9531Z" fill="#771824"/>
<path d="M152.007 97.9213C151.453 97.9918 150.066 97.6212 149.834 97.2398C149.716 97.9126 150.764 98.7168 151.333 99.0131C152.198 99.4639 153.037 98.7604 153.197 98.6103C153.691 98.4213 155.087 92.9823 154.948 91.7813C154.634 92.7523 153.29 98.0466 152.007 97.9213Z" fill="white"/>
<ellipse rx="3.6771" ry="6.97379" transform="matrix(-0.853726 -0.522618 -0.546259 0.836407 142.318 84.2352)" fill="#FF6B7D"/>
<path d="M142.314 82.503C141.528 83.5296 140.622 84.6487 141.01 84.9268C141.397 85.2049 142.382 84.0607 143.168 83.0341C143.953 82.0076 144.822 81.4237 144.119 80.9198C143.417 80.4158 143.1 81.4765 142.314 82.503Z" fill="white"/>
<path d="M141.785 85.3664C141.353 85.5799 140.858 85.9213 140.273 86.2966C141.055 86.4249 141.739 86.1443 142.069 85.9815C142.598 85.9402 144.405 83.042 144.634 81.8541C144.042 82.6942 142.088 85.2174 141.785 85.3664Z" fill="#771824"/>
<path d="M140.327 88.0393C139.775 87.9502 138.56 87.2042 138.453 86.7739C138.138 87.3841 138.898 88.4493 139.353 88.8932C140.045 89.5688 141.059 89.1326 141.258 89.0344C141.787 88.9931 144.76 84.1846 144.99 82.9967C144.397 83.8368 141.516 88.5214 140.327 88.0393Z" fill="white"/>
<ellipse rx="3.68325" ry="6.96183" transform="matrix(-0.972414 -0.258426 -0.271033 0.955921 133.304 115.323)" fill="#FF6B7D"/>
<path d="M132.779 113.668C132.336 114.871 131.806 116.198 132.261 116.354C132.716 116.511 133.313 115.138 133.755 113.934C134.198 112.731 134.852 111.927 134.029 111.643C133.205 111.36 133.221 112.464 132.779 113.668Z" fill="white"/>
<path d="M133.136 116.556C132.786 116.882 132.415 117.348 131.969 117.872C132.756 117.774 133.326 117.313 133.592 117.064C134.086 116.875 134.941 113.593 134.803 112.392C134.489 113.363 133.38 116.328 133.136 116.556Z" fill="#771824"/>
<path d="M132.546 119.524C131.991 119.595 130.604 119.224 130.373 118.843C130.254 119.516 131.302 120.32 131.871 120.616C132.737 121.067 133.575 120.363 133.736 120.213C134.23 120.024 135.626 114.585 135.487 113.384C135.173 114.355 133.829 119.649 132.546 119.524Z" fill="white"/>
<ellipse rx="3.68325" ry="6.96183" transform="matrix(-0.972414 -0.258426 -0.271033 0.955921 129.801 97.2729)" fill="#FF6B7D"/>
<path d="M129.275 95.6171C128.833 96.8208 128.303 98.1472 128.758 98.3038C129.212 98.4603 129.81 97.0878 130.252 95.884C130.694 94.6803 131.349 93.8766 130.525 93.593C129.701 93.3093 129.718 94.4134 129.275 95.6171Z" fill="white"/>
<path d="M129.633 98.5053C129.283 98.8317 128.913 99.298 128.466 99.8222C129.253 99.7239 129.823 99.2625 130.089 99.0137C130.583 98.8248 131.439 95.5423 131.3 94.3413C130.986 95.3123 129.877 98.2775 129.633 98.5053Z" fill="#771824"/>
<path d="M129.042 101.474C128.488 101.544 127.101 101.174 126.869 100.792C126.751 101.465 127.799 102.269 128.368 102.565C129.233 103.016 130.072 102.313 130.233 102.163C130.726 101.974 132.122 96.5347 131.984 95.3337C131.67 96.3047 130.325 101.599 129.042 101.474Z" fill="white"/>
<ellipse rx="3.20696" ry="6.06157" transform="matrix(-0.972414 -0.258426 -0.271033 0.955921 132.729 136.146)" fill="#FF6B7D"/>
<path d="M132.272 134.704C131.887 135.752 131.425 136.907 131.821 137.044C132.217 137.18 132.737 135.985 133.122 134.937C133.507 133.889 134.077 133.189 133.36 132.942C132.643 132.695 132.657 133.656 132.272 134.704Z" fill="white"/>
<path d="M132.583 137.219C132.278 137.503 131.955 137.909 131.567 138.365C132.252 138.28 132.748 137.878 132.98 137.662C133.41 137.497 134.155 134.639 134.034 133.593C133.761 134.439 132.795 137.021 132.583 137.219Z" fill="#771824"/>
<path d="M132.069 139.804C131.586 139.865 130.379 139.542 130.177 139.21C130.074 139.796 130.987 140.496 131.482 140.754C132.235 141.147 132.965 140.534 133.105 140.403C133.535 140.239 134.751 135.503 134.63 134.458C134.356 135.303 133.186 139.913 132.069 139.804Z" fill="white"/>
<ellipse rx="3.42761" ry="6.47863" transform="matrix(-0.972414 -0.258426 -0.271033 0.955921 146.883 148.046)" fill="#FF6B7D"/>
<path d="M146.394 146.505C145.983 147.625 145.49 148.86 145.913 149.005C146.336 149.151 146.892 147.874 147.303 146.754C147.715 145.633 148.324 144.886 147.558 144.622C146.791 144.358 146.806 145.385 146.394 146.505Z" fill="white"/>
<path d="M146.726 149.193C146.401 149.497 146.056 149.931 145.641 150.418C146.373 150.327 146.903 149.898 147.151 149.666C147.61 149.49 148.407 146.435 148.278 145.318C147.986 146.221 146.953 148.981 146.726 149.193Z" fill="#771824"/>
<path d="M146.177 151.955C145.662 152.021 144.371 151.676 144.155 151.321C144.045 151.947 145.021 152.696 145.55 152.972C146.355 153.391 147.136 152.736 147.285 152.597C147.745 152.421 149.044 147.359 148.915 146.242C148.622 147.145 147.371 152.072 146.177 151.955Z" fill="white"/>
<ellipse rx="3.80468" ry="7.19134" transform="matrix(-0.972414 -0.258426 -0.271033 0.955921 159.896 160.012)" fill="#FF6B7D"/>
<path d="M159.353 158.302C158.896 159.545 158.349 160.915 158.818 161.077C159.288 161.239 159.905 159.821 160.362 158.577C160.819 157.334 161.495 156.504 160.644 156.211C159.793 155.918 159.81 157.058 159.353 158.302Z" fill="white"/>
<path d="M159.722 161.285C159.361 161.622 158.978 162.104 158.517 162.645C159.33 162.544 159.918 162.067 160.193 161.81C160.703 161.615 161.587 158.224 161.444 156.984C161.119 157.987 159.974 161.05 159.722 161.285Z" fill="#771824"/>
<path d="M159.112 164.351C158.54 164.424 157.107 164.041 156.868 163.647C156.746 164.342 157.828 165.173 158.416 165.479C159.309 165.945 160.176 165.218 160.342 165.063C160.852 164.868 162.294 159.25 162.15 158.009C161.826 159.012 160.437 164.481 159.112 164.351Z" fill="white"/>
<ellipse rx="3.9957" ry="7.57211" transform="matrix(-1.0066 0.0762559 0.0797679 0.986956 172.562 172.472)" fill="#FF6B7D"/>
<path d="M171.394 170.968C171.4 172.355 171.364 173.9 171.888 173.898C172.412 173.895 172.5 172.28 172.494 170.892C172.488 169.504 172.851 168.45 171.902 168.453C170.952 168.457 171.388 169.58 171.394 170.968Z" fill="white"/>
<path d="M172.858 173.792C172.625 174.25 172.424 174.859 172.167 175.554C172.934 175.172 173.341 174.498 173.518 174.149C173.951 173.78 173.576 170.12 172.977 168.942C173.026 170.046 173.021 173.472 172.858 173.792Z" fill="#771824"/>
<path d="M173.385 177.036C172.845 177.305 171.287 177.421 170.905 177.114C171.04 177.844 172.417 178.292 173.111 178.392C174.167 178.544 174.756 177.526 174.863 177.315C175.296 176.946 174.653 170.89 174.054 169.713C174.103 170.817 174.744 176.706 173.385 177.036Z" fill="white"/>
<ellipse rx="3.15708" ry="5.96709" transform="matrix(-0.976093 -0.245017 -0.256978 0.95957 177.735 190.092)" fill="#FF6B7D"/>
<path d="M177.263 188.679C176.9 189.716 176.462 190.859 176.854 190.988C177.245 191.116 177.74 189.933 178.104 188.896C178.468 187.859 179.019 187.163 178.309 186.929C177.6 186.696 177.627 187.642 177.263 188.679Z" fill="white"/>
<path d="M177.605 191.15C177.31 191.434 176.998 191.838 176.622 192.292C177.295 192.199 177.778 191.797 178.003 191.58C178.424 191.413 179.116 188.589 178.982 187.561C178.725 188.397 177.812 190.952 177.605 191.15Z" fill="#771824"/>
<path d="M177.138 193.701C176.664 193.768 175.47 193.467 175.267 193.143C175.174 193.721 176.082 194.398 176.573 194.645C177.321 195.021 178.031 194.408 178.166 194.278C178.587 194.11 179.715 189.432 179.581 188.404C179.324 189.24 178.239 193.793 177.138 193.701Z" fill="white"/>
<ellipse rx="3.15708" ry="5.96709" transform="matrix(-0.976093 -0.245017 -0.256978 0.95957 190.052 186.078)" fill="#FF6B7D"/>
<path d="M189.581 184.665C189.217 185.702 188.779 186.845 189.171 186.974C189.562 187.103 190.057 185.919 190.421 184.882C190.785 183.846 191.336 183.149 190.626 182.916C189.917 182.682 189.945 183.628 189.581 184.665Z" fill="white"/>
<path d="M189.922 187.136C189.627 187.42 189.315 187.824 188.939 188.279C189.612 188.185 190.095 187.783 190.32 187.567C190.74 187.399 191.433 184.575 191.299 183.548C191.042 184.384 190.129 186.938 189.922 187.136Z" fill="#771824"/>
<path d="M189.454 189.687C188.98 189.754 187.787 189.453 187.583 189.129C187.49 189.707 188.399 190.384 188.89 190.631C189.637 191.007 190.347 190.394 190.483 190.264C190.904 190.096 192.032 185.418 191.898 184.39C191.641 185.226 190.555 189.78 189.454 189.687Z" fill="white"/>
<ellipse rx="3.94074" ry="7.44826" transform="matrix(-0.976093 -0.245017 -0.256978 0.95957 198.713 193.492)" fill="#FF6B7D"/>
<path d="M198.125 191.729C197.671 193.023 197.125 194.45 197.614 194.611C198.103 194.771 198.72 193.294 199.174 192C199.629 190.706 200.317 189.836 199.431 189.545C198.545 189.254 198.58 190.435 198.125 191.729Z" fill="white"/>
<path d="M198.552 194.813C198.184 195.168 197.794 195.672 197.325 196.239C198.166 196.122 198.767 195.621 199.048 195.35C199.574 195.141 200.437 191.617 200.27 190.334C199.95 191.377 198.81 194.566 198.552 194.813Z" fill="#771824"/>
<path d="M197.968 197.998C197.376 198.081 195.887 197.705 195.632 197.301C195.517 198.022 196.65 198.867 197.263 199.175C198.196 199.645 199.082 198.88 199.252 198.717C199.777 198.508 201.185 192.669 201.018 191.386C200.697 192.429 199.342 198.113 197.968 197.998Z" fill="white"/>
<ellipse rx="3.67404" ry="6.94418" transform="matrix(-0.976093 -0.245017 -0.256978 0.95957 190.361 211.061)" fill="#FF6B7D"/>
<path d="M189.813 209.418C189.39 210.624 188.881 211.954 189.336 212.104C189.792 212.254 190.368 210.877 190.791 209.67C191.215 208.464 191.856 207.653 191.03 207.382C190.204 207.11 190.237 208.211 189.813 209.418Z" fill="white"/>
<path d="M190.211 212.293C189.867 212.623 189.504 213.093 189.067 213.622C189.851 213.514 190.412 213.046 190.674 212.794C191.163 212.599 191.969 209.313 191.813 208.117C191.514 209.09 190.451 212.062 190.211 212.293Z" fill="#771824"/>
<path d="M189.667 215.262C189.115 215.34 187.726 214.989 187.489 214.612C187.381 215.285 188.438 216.073 189.01 216.36C189.88 216.798 190.706 216.085 190.864 215.933C191.354 215.738 192.666 210.294 192.51 209.098C192.211 210.07 190.948 215.369 189.667 215.262Z" fill="white"/>
<ellipse rx="3.42343" ry="6.47052" transform="matrix(-0.976093 -0.245017 -0.256978 0.95957 181.467 205.732)" fill="#FF6B7D"/>
<path d="M180.956 204.2C180.562 205.324 180.087 206.564 180.512 206.703C180.936 206.843 181.473 205.56 181.867 204.436C182.262 203.311 182.86 202.556 182.09 202.303C181.321 202.05 181.351 203.076 180.956 204.2Z" fill="white"/>
<path d="M181.327 206.879C181.007 207.187 180.668 207.625 180.261 208.118C180.991 208.017 181.514 207.581 181.758 207.346C182.214 207.164 182.965 204.103 182.819 202.988C182.541 203.895 181.551 206.664 181.327 206.879Z" fill="#771824"/>
<path d="M180.82 209.646C180.306 209.718 179.011 209.392 178.791 209.04C178.69 209.667 179.675 210.401 180.208 210.669C181.018 211.077 181.788 210.413 181.935 210.271C182.391 210.089 183.614 205.016 183.469 203.902C183.191 204.809 182.014 209.746 180.82 209.646Z" fill="white"/>
<ellipse rx="3.42343" ry="6.47052" transform="matrix(-0.976093 -0.245017 -0.256978 0.95957 165.837 201.603)" fill="#FF6B7D"/>
<path d="M165.326 200.071C164.931 201.195 164.457 202.435 164.881 202.575C165.306 202.714 165.842 201.431 166.237 200.307C166.632 199.182 167.229 198.427 166.46 198.174C165.69 197.921 165.72 198.947 165.326 200.071Z" fill="white"/>
<path d="M165.697 202.751C165.376 203.058 165.038 203.496 164.63 203.989C165.361 203.888 165.883 203.452 166.127 203.217C166.584 203.035 167.334 199.974 167.189 198.859C166.911 199.766 165.92 202.536 165.697 202.751Z" fill="#771824"/>
<path d="M165.189 205.517C164.675 205.59 163.381 205.263 163.16 204.912C163.06 205.538 164.045 206.272 164.577 206.54C165.388 206.948 166.157 206.284 166.305 206.142C166.761 205.96 167.984 200.888 167.839 199.773C167.56 200.68 166.383 205.617 165.189 205.517Z" fill="white"/>
<ellipse rx="4.03148" ry="7.63923" transform="matrix(-1.00695 0.0712348 0.0745221 0.987385 154.183 181.336)" fill="#FF6B7D"/>
<path d="M153.014 179.812C153.013 181.212 152.967 182.77 153.496 182.77C154.025 182.771 154.122 181.141 154.124 179.741C154.125 178.341 154.497 177.279 153.539 177.278C152.581 177.277 153.015 178.412 153.014 179.812Z" fill="white"/>
<path d="M154.475 182.669C154.237 183.13 154.031 183.743 153.768 184.442C154.544 184.062 154.958 183.383 155.139 183.032C155.577 182.662 155.219 178.968 154.621 177.776C154.664 178.891 154.641 182.347 154.475 182.669Z" fill="#771824"/>
<path d="M154.989 185.944C154.443 186.213 152.87 186.322 152.486 186.01C152.619 186.747 154.006 187.206 154.705 187.31C155.77 187.469 156.37 186.445 156.479 186.233C156.917 185.863 156.301 179.75 155.703 178.559C155.747 179.673 156.361 185.618 154.989 185.944Z" fill="white"/>
<ellipse rx="3.04694" ry="5.76597" transform="matrix(-1.00882 -0.0172138 -0.0180321 0.990529 149.242 202.794)" fill="#FF6B7D"/>
<path d="M148.471 201.571C148.371 202.624 148.227 203.793 148.624 203.828C149.022 203.863 149.21 202.644 149.31 201.591C149.41 200.538 149.765 199.763 149.044 199.699C148.324 199.635 148.57 200.518 148.471 201.571Z" fill="white"/>
<path d="M149.368 203.816C149.157 204.147 148.958 204.595 148.711 205.104C149.322 204.869 149.681 204.386 149.842 204.133C150.198 203.884 150.189 201.082 149.823 200.146C149.777 200.987 149.516 203.585 149.368 203.816Z" fill="#771824"/>
<path d="M149.524 206.314C149.094 206.48 147.903 206.458 147.637 206.199C147.684 206.762 148.695 207.198 149.214 207.323C150.003 207.513 150.527 206.782 150.624 206.63C150.98 206.381 150.948 201.742 150.582 200.806C150.536 201.647 150.579 206.16 149.524 206.314Z" fill="white"/>
<ellipse rx="3.83694" ry="7.26754" transform="matrix(-1.0083 0.0462467 0.0484012 0.989118 140.03 188.35)" fill="#FF6B7D"/>
<path d="M138.956 186.873C138.919 188.205 138.837 189.686 139.34 189.699C139.843 189.712 139.977 188.164 140.013 186.832C140.05 185.5 140.431 184.498 139.519 184.475C138.608 184.452 138.992 185.541 138.956 186.873Z" fill="white"/>
<path d="M140.274 189.625C140.037 190.058 139.825 190.637 139.557 191.296C140.305 190.952 140.715 190.316 140.896 189.986C141.323 189.645 141.075 186.122 140.536 184.975C140.549 186.036 140.44 189.323 140.274 189.625Z" fill="#771824"/>
<path d="M140.68 192.752C140.155 192.996 138.656 193.063 138.299 192.757C138.406 193.461 139.714 193.93 140.376 194.046C141.385 194.222 141.981 193.262 142.091 193.063C142.517 192.721 142.085 186.892 141.546 185.744C141.559 186.805 141.994 192.475 140.68 192.752Z" fill="white"/>
<ellipse rx="3.83843" ry="7.26463" transform="matrix(-1.009 -0.00815267 -0.0085392 0.99059 133.265 206.172)" fill="#FF6B7D"/>
<path d="M132.278 204.639C132.165 205.967 131.997 207.441 132.499 207.481C133 207.521 133.223 205.983 133.336 204.655C133.449 203.327 133.886 202.348 132.978 202.275C132.069 202.203 132.391 203.311 132.278 204.639Z" fill="white"/>
<path d="M133.435 207.458C133.173 207.878 132.929 208.444 132.624 209.088C133.39 208.785 133.836 208.172 134.036 207.852C134.481 207.534 134.436 204.004 133.964 202.829C133.917 203.889 133.619 207.165 133.435 207.458Z" fill="#771824"/>
<path d="M133.661 210.603C133.122 210.817 131.622 210.803 131.283 210.479C131.35 211.188 132.628 211.727 133.283 211.878C134.28 212.108 134.931 211.182 135.051 210.989C135.497 210.67 135.4 204.827 134.928 203.652C134.881 204.712 134.989 210.396 133.661 210.603Z" fill="white"/>
<ellipse rx="3.31923" ry="6.28199" transform="matrix(-1.009 -0.00815267 -0.0085392 0.99059 142.324 217.129)" fill="#FF6B7D"/>
<path d="M141.471 215.803C141.373 216.951 141.228 218.226 141.662 218.26C142.095 218.295 142.288 216.965 142.386 215.817C142.483 214.669 142.862 213.821 142.076 213.759C141.29 213.696 141.568 214.655 141.471 215.803Z" fill="white"/>
<path d="M142.472 218.241C142.245 218.603 142.033 219.093 141.77 219.65C142.432 219.388 142.818 218.858 142.991 218.581C143.376 218.306 143.337 215.254 142.929 214.238C142.888 215.154 142.63 217.987 142.472 218.241Z" fill="#771824"/>
<path d="M142.667 220.96C142.201 221.145 140.904 221.133 140.611 220.853C140.669 221.466 141.774 221.932 142.341 222.062C143.203 222.261 143.765 221.46 143.87 221.294C144.255 221.018 144.171 215.965 143.763 214.95C143.722 215.866 143.816 220.781 142.667 220.96Z" fill="white"/>
<ellipse rx="3.31775" ry="6.28487" transform="matrix(-1.00798 0.0532652 0.0557402 0.988699 158.588 218.219)" fill="#FF6B7D"/>
<path d="M157.651 216.948C157.628 218.1 157.566 219.381 158.001 219.389C158.436 219.397 158.542 218.058 158.565 216.906C158.588 215.754 158.911 214.886 158.122 214.871C157.334 214.856 157.674 215.796 157.651 216.948Z" fill="white"/>
<path d="M158.808 219.319C158.605 219.695 158.426 220.197 158.199 220.768C158.843 220.467 159.194 219.915 159.348 219.628C159.714 219.33 159.478 216.286 159.004 215.297C159.023 216.214 158.949 219.057 158.808 219.319Z" fill="#771824"/>
<path d="M159.179 222.021C158.726 222.235 157.43 222.301 157.119 222.039C157.217 222.648 158.351 223.045 158.924 223.142C159.798 223.288 160.307 222.454 160.4 222.281C160.767 221.983 160.356 216.945 159.883 215.956C159.901 216.873 160.313 221.773 159.179 222.021Z" fill="white"/>
<ellipse rx="2.62178" ry="4.96463" transform="matrix(-0.898272 -0.44555 -0.466427 0.881414 170.426 217.858)" fill="#FF6B7D"/>
<path d="M170.309 216.629C169.82 217.406 169.251 218.257 169.544 218.43C169.838 218.603 170.461 217.73 170.95 216.953C171.439 216.176 172.017 215.707 171.485 215.393C170.953 215.08 170.798 215.852 170.309 216.629Z" fill="white"/>
<path d="M170.124 218.694C169.831 218.872 169.502 219.145 169.112 219.448C169.676 219.49 170.142 219.249 170.366 219.113C170.738 219.051 171.828 216.882 171.912 216.024C171.547 216.657 170.328 218.569 170.124 218.694Z" fill="#771824"/>
<path d="M169.266 220.681C168.869 220.652 167.957 220.198 167.853 219.9C167.67 220.352 168.28 221.061 168.632 221.348C169.168 221.784 169.858 221.411 169.993 221.329C170.366 221.267 172.156 217.67 172.24 216.813C171.875 217.446 170.142 220.949 169.266 220.681Z" fill="white"/>
<ellipse rx="3.70848" ry="7.02243" transform="matrix(-0.898272 -0.44555 -0.466427 0.881414 179.106 224.342)" fill="#FF6B7D"/>
<path d="M178.94 222.604C178.248 223.704 177.444 224.907 177.859 225.152C178.274 225.397 179.155 224.162 179.847 223.062C180.539 221.963 181.356 221.3 180.604 220.856C179.851 220.412 179.633 221.505 178.94 222.604Z" fill="white"/>
<path d="M178.678 225.525C178.264 225.777 177.799 226.163 177.248 226.592C178.045 226.651 178.705 226.31 179.02 226.117C179.548 226.029 181.089 222.961 181.208 221.749C180.692 222.644 178.968 225.349 178.678 225.525Z" fill="#771824"/>
<path d="M177.465 228.336C176.904 228.295 175.614 227.653 175.466 227.231C175.207 227.871 176.07 228.873 176.568 229.278C177.326 229.895 178.303 229.368 178.493 229.252C179.02 229.164 181.553 224.076 181.672 222.864C181.156 223.759 178.704 228.715 177.465 228.336Z" fill="white"/>
<ellipse rx="1.68037" ry="3.19434" transform="matrix(-0.792036 -0.608688 -0.63474 0.774161 165.788 233.366)" fill="#FF6B7D"/>
<path d="M165.874 232.578C165.465 233.007 164.996 233.473 165.158 233.618C165.32 233.763 165.826 233.289 166.235 232.86C166.645 232.43 167.069 232.205 166.775 231.943C166.481 231.68 166.283 232.148 165.874 232.578Z" fill="white"/>
<path d="M165.488 233.855C165.281 233.932 165.038 234.063 164.753 234.207C165.103 234.302 165.428 234.207 165.586 234.148C165.829 234.154 166.797 232.922 166.962 232.392C166.65 232.746 165.633 233.802 165.488 233.855Z" fill="#771824"/>
<path d="M164.69 235.002C164.444 234.935 163.929 234.538 163.902 234.337C163.727 234.6 164.019 235.121 164.204 235.344C164.484 235.684 164.968 235.534 165.063 235.498C165.306 235.505 166.902 233.458 167.066 232.929C166.754 233.283 165.207 235.277 164.69 235.002Z" fill="white"/>
<ellipse rx="3.22636" ry="6.11842" transform="matrix(-1.00319 0.113565 0.118712 0.982927 148.904 230.57)" fill="#FF6B7D"/>
<path d="M147.914 229.391C147.963 230.511 147.983 231.758 148.406 231.741C148.829 231.723 148.848 230.417 148.799 229.297C148.75 228.177 149.01 227.315 148.243 227.346C147.477 227.378 147.865 228.271 147.914 229.391Z" fill="white"/>
<path d="M149.185 231.626C149.012 232.003 148.869 232.5 148.684 233.069C149.291 232.738 149.597 232.182 149.729 231.894C150.067 231.583 149.647 228.641 149.127 227.708C149.201 228.598 149.307 231.363 149.185 231.626Z" fill="#771824"/>
<path d="M149.714 234.228C149.287 234.462 148.033 234.603 147.715 234.366C147.848 234.951 148.973 235.271 149.537 235.331C150.394 235.422 150.837 234.583 150.916 234.41C151.254 234.099 150.541 229.23 150.02 228.298C150.095 229.187 150.8 233.922 149.714 234.228Z" fill="white"/>
<ellipse rx="2.77804" ry="5.30223" transform="matrix(-0.941175 0.363377 0.377411 0.916248 131.743 221.357)" fill="#FF6B7D"/>
<path d="M130.644 220.588C130.945 221.512 131.251 222.548 131.6 222.441C131.948 222.335 131.661 221.241 131.361 220.317C131.06 219.394 131.076 218.618 130.444 218.811C129.812 219.004 130.343 219.665 130.644 220.588Z" fill="white"/>
<path d="M132.223 222.176C132.166 222.528 132.162 222.974 132.139 223.489C132.569 223.081 132.695 222.55 132.739 222.282C132.948 221.949 131.916 219.586 131.265 218.921C131.534 219.647 132.263 221.931 132.223 222.176Z" fill="#771824"/>
<path d="M133.268 224.232C132.966 224.52 131.953 224.909 131.633 224.781C131.879 225.24 132.892 225.263 133.376 225.19C134.112 225.08 134.287 224.283 134.313 224.122C134.522 223.789 132.798 219.883 132.147 219.218C132.416 219.944 134.103 223.74 133.268 224.232Z" fill="white"/>
<ellipse rx="3.60362" ry="6.92141" transform="matrix(-0.845126 0.546741 0.564292 0.817577 117.32 200.82)" fill="#FF6B7D"/>
<path d="M115.707 200.13C116.348 201.227 117.027 202.465 117.441 202.238C117.856 202.012 117.184 200.694 116.543 199.598C115.902 198.501 115.706 197.51 114.956 197.921C114.205 198.333 115.066 199.034 115.707 200.13Z" fill="white"/>
<path d="M118.161 201.738C118.186 202.201 118.306 202.769 118.421 203.43C118.854 202.798 118.866 202.09 118.847 201.737C119.02 201.258 117.045 198.521 116.031 197.846C116.576 198.7 118.143 201.415 118.161 201.738Z" fill="#771824"/>
<path d="M120.065 204.08C119.762 204.525 118.581 205.287 118.137 205.208C118.579 205.728 119.875 205.491 120.47 205.272C121.376 204.938 121.376 203.879 121.364 203.666C121.538 203.187 118.251 198.668 117.237 197.993C117.782 198.846 120.99 203.235 120.065 204.08Z" fill="white"/>
<ellipse rx="3.62856" ry="6.87324" transform="matrix(-1.00815 0.0495843 0.0518914 0.988925 125.785 186.836)" fill="#FF6B7D"/>
<path d="M124.765 185.443C124.735 186.702 124.662 188.103 125.138 188.114C125.614 188.124 125.735 186.66 125.765 185.4C125.795 184.141 126.152 183.192 125.29 183.173C124.428 183.154 124.795 184.183 124.765 185.443Z" fill="white"/>
<path d="M126.021 188.041C125.798 188.451 125.599 188.999 125.349 189.623C126.054 189.296 126.441 188.693 126.61 188.381C127.013 188.056 126.767 184.726 126.253 183.643C126.269 184.646 126.177 187.755 126.021 188.041Z" fill="#771824"/>
<path d="M126.416 190.997C125.919 191.229 124.502 191.296 124.163 191.009C124.267 191.674 125.505 192.114 126.132 192.221C127.087 192.385 127.648 191.475 127.75 191.286C128.152 190.961 127.724 185.45 127.211 184.367C127.227 185.37 127.657 190.73 126.416 190.997Z" fill="white"/>
<ellipse rx="3.62856" ry="6.87324" transform="matrix(-1.00815 0.0495843 0.0518914 0.988925 110.128 182.624)" fill="#FF6B7D"/>
<path d="M109.108 181.231C109.078 182.491 109.005 183.891 109.481 183.902C109.957 183.913 110.078 182.449 110.108 181.189C110.138 179.929 110.495 178.981 109.633 178.961C108.771 178.942 109.138 179.971 109.108 181.231Z" fill="white"/>
<path d="M110.364 183.829C110.14 184.24 109.942 184.787 109.691 185.412C110.397 185.084 110.783 184.482 110.953 184.169C111.355 183.844 111.109 180.514 110.596 179.431C110.612 180.434 110.519 183.543 110.364 183.829Z" fill="#771824"/>
<path d="M110.759 186.786C110.262 187.017 108.845 187.085 108.506 186.797C108.61 187.463 109.848 187.902 110.475 188.01C111.43 188.173 111.991 187.263 112.093 187.075C112.495 186.75 112.067 181.239 111.554 180.155C111.57 181.159 112 186.519 110.759 186.786Z" fill="white"/>
<ellipse rx="3.62856" ry="6.87324" transform="matrix(-1.00815 0.0495843 0.0518914 0.988925 116.482 167.849)" fill="#FF6B7D"/>
<path d="M115.462 166.456C115.432 167.716 115.359 169.116 115.834 169.127C116.31 169.138 116.431 167.673 116.462 166.414C116.492 165.154 116.848 164.206 115.986 164.186C115.124 164.167 115.492 165.196 115.462 166.456Z" fill="white"/>
<path d="M116.718 169.054C116.494 169.464 116.296 170.012 116.045 170.637C116.751 170.309 117.137 169.707 117.307 169.394C117.709 169.069 117.463 165.739 116.95 164.656C116.966 165.659 116.873 168.768 116.718 169.054Z" fill="#771824"/>
<path d="M117.112 172.01C116.616 172.242 115.198 172.31 114.859 172.022C114.964 172.688 116.202 173.127 116.829 173.235C117.783 173.398 118.344 172.488 118.447 172.3C118.849 171.975 118.42 166.464 117.907 165.38C117.923 166.384 118.354 171.744 117.112 172.01Z" fill="white"/>
<ellipse rx="3.62856" ry="6.87324" transform="matrix(-1.00815 0.0495843 0.0518914 0.988925 138.433 167.492)" fill="#FF6B7D"/>
<path d="M137.413 166.099C137.383 167.358 137.31 168.759 137.786 168.77C138.262 168.78 138.383 167.316 138.413 166.057C138.443 164.797 138.8 163.848 137.938 163.829C137.076 163.81 137.443 164.839 137.413 166.099Z" fill="white"/>
<path d="M138.669 168.697C138.445 169.107 138.247 169.655 137.996 170.279C138.702 169.952 139.088 169.35 139.258 169.037C139.66 168.712 139.414 165.382 138.901 164.299C138.917 165.302 138.825 168.411 138.669 168.697Z" fill="#771824"/>
<path d="M139.063 171.653C138.567 171.885 137.15 171.953 136.811 171.665C136.915 172.33 138.153 172.77 138.78 172.877C139.734 173.041 140.295 172.131 140.398 171.942C140.8 171.618 140.372 166.106 139.858 165.023C139.874 166.026 140.305 171.387 139.063 171.653Z" fill="white"/>
<ellipse rx="3.6325" ry="6.86558" transform="matrix(-0.978099 -0.237372 -0.248964 0.961556 123.345 149.066)" fill="#FF6B7D"/>
<path d="M122.789 147.445C122.381 148.641 121.888 149.96 122.34 150.105C122.792 150.25 123.35 148.884 123.758 147.688C124.167 146.491 124.795 145.685 123.976 145.423C123.157 145.161 123.198 146.249 122.789 147.445Z" fill="white"/>
<path d="M123.206 150.285C122.869 150.614 122.514 151.082 122.086 151.608C122.86 151.494 123.411 151.027 123.668 150.776C124.15 150.579 124.919 147.325 124.755 146.144C124.468 147.108 123.442 150.055 123.206 150.285Z" fill="#771824"/>
<path d="M122.692 153.224C122.147 153.305 120.771 152.969 120.534 152.598C120.433 153.264 121.484 154.035 122.052 154.315C122.915 154.741 123.726 154.029 123.881 153.878C124.364 153.681 125.617 148.289 125.453 147.108C125.165 148.072 123.96 153.32 122.692 153.224Z" fill="white"/>
<ellipse rx="3.98267" ry="7.53545" transform="matrix(-0.924931 -0.39011 -0.408724 0.908317 112.788 134.994)" fill="#FF6B7D"/>
<path d="M112.49 133.143C111.824 134.366 111.046 135.707 111.508 135.943C111.97 136.178 112.828 134.798 113.493 133.575C114.158 132.352 114.987 131.589 114.15 131.162C113.313 130.735 113.155 131.92 112.49 133.143Z" fill="white"/>
<path d="M112.411 136.289C111.985 136.586 111.514 137.03 110.953 137.525C111.811 137.537 112.494 137.128 112.819 136.901C113.378 136.773 114.817 133.385 114.859 132.079C114.369 133.072 112.709 136.081 112.411 136.289Z" fill="#771824"/>
<path d="M111.307 139.379C110.703 139.372 109.277 138.768 109.089 138.325C108.855 139.028 109.85 140.045 110.411 140.447C111.266 141.059 112.276 140.431 112.472 140.294C113.031 140.166 115.392 134.55 115.434 133.243C114.944 134.236 112.661 139.704 111.307 139.379Z" fill="white"/>
<ellipse rx="2.76055" ry="5.21751" transform="matrix(-0.98715 -0.19916 -0.208887 0.970463 111.022 149.794)" fill="#FF6B7D"/>
<path d="M110.55 148.58C110.277 149.5 109.945 150.516 110.292 150.613C110.64 150.709 111.02 149.656 111.293 148.735C111.566 147.815 112.017 147.184 111.387 147.009C110.757 146.834 110.822 147.659 110.55 148.58Z" fill="white"/>
<path d="M110.956 150.724C110.71 150.984 110.455 151.35 110.147 151.762C110.731 151.653 111.134 151.282 111.321 151.084C111.682 150.92 112.163 148.426 112.001 147.534C111.814 148.274 111.127 150.543 110.956 150.724Z" fill="#771824"/>
<path d="M110.658 152.971C110.246 153.049 109.191 152.834 108.999 152.56C108.943 153.068 109.766 153.622 110.206 153.818C110.875 154.116 111.468 153.552 111.581 153.432C111.941 153.269 112.723 149.137 112.561 148.245C112.373 148.985 111.623 153.006 110.658 152.971Z" fill="white"/>
<ellipse rx="3.22893" ry="6.10849" transform="matrix(-1.00781 -0.0438193 -0.0459165 0.989841 102.671 164.135)" fill="#FF6B7D"/>
<path d="M101.891 162.818C101.754 163.931 101.566 165.164 101.986 165.213C102.406 165.262 102.642 163.975 102.78 162.863C102.917 161.75 103.316 160.94 102.554 160.852C101.793 160.764 102.028 161.705 101.891 162.818Z" fill="white"/>
<path d="M102.774 165.221C102.541 165.566 102.317 166.035 102.04 166.567C102.694 166.335 103.088 165.833 103.266 165.571C103.651 165.316 103.725 162.348 103.366 161.347C103.292 162.236 102.937 164.981 102.774 165.221Z" fill="#771824"/>
<path d="M102.864 167.871C102.404 168.035 101.144 167.978 100.869 167.696C100.903 168.293 101.96 168.784 102.506 168.931C103.337 169.154 103.913 168.395 104.02 168.236C104.405 167.982 104.509 163.068 104.15 162.067C104.076 162.956 103.987 167.737 102.864 167.871Z" fill="white"/>
<ellipse rx="2.57244" ry="4.90423" transform="matrix(-0.955072 0.325964 0.33894 0.930837 96.1006 173.549)" fill="#FF6B7D"/>
<path d="M95.1141 172.799C95.3565 173.664 95.5993 174.633 95.9258 174.547C96.2524 174.461 96.0295 173.439 95.7871 172.574C95.5446 171.71 95.5899 170.993 94.998 171.149C94.4061 171.304 94.8716 171.934 95.1141 172.799Z" fill="white"/>
<path d="M96.5128 174.325C96.4462 174.648 96.4253 175.061 96.3847 175.535C96.7976 175.174 96.9351 174.688 96.9857 174.441C97.1921 174.141 96.329 171.918 95.753 171.28C95.9733 171.961 96.5593 174.099 96.5128 174.325Z" fill="#771824"/>
<path d="M97.3989 176.264C97.1087 176.519 96.1565 176.842 95.8654 176.712C96.0752 177.146 97.0114 177.203 97.4614 177.154C98.1462 177.078 98.3388 176.348 98.3693 176.2C98.5758 175.9 97.133 172.225 96.5569 171.587C96.7772 172.268 98.1899 175.839 97.3989 176.264Z" fill="white"/>
<ellipse rx="4.1464" ry="7.83793" transform="matrix(-0.96571 -0.281148 -0.294838 0.949248 97.8018 145.919)" fill="#FF6B7D"/>
<path d="M97.2578 144.043C96.7261 145.386 96.0926 146.864 96.5997 147.053C97.1069 147.241 97.8178 145.712 98.3495 144.369C98.8812 143.026 99.6408 142.138 98.7216 141.797C97.8024 141.456 97.7895 142.699 97.2578 144.043Z" fill="white"/>
<path d="M97.5778 147.303C97.1752 147.661 96.7447 148.176 96.2277 148.754C97.1164 148.664 97.7702 148.16 98.0768 147.887C98.6379 147.688 99.6934 144.016 99.5711 142.661C99.1905 143.745 97.8589 147.053 97.5778 147.303Z" fill="#771824"/>
<path d="M96.8299 150.627C96.2043 150.692 94.6537 150.238 94.4035 149.803C94.2515 150.557 95.4085 151.49 96.0401 151.838C97.0014 152.369 97.9651 151.599 98.1501 151.434C98.7112 151.235 100.435 145.15 100.313 143.795C99.9324 144.879 98.2704 150.802 96.8299 150.627Z" fill="white"/>
<ellipse rx="3.22202" ry="6.09057" transform="matrix(-0.96571 -0.281148 -0.294838 0.949248 91.5754 133.009)" fill="#FF6B7D"/>
<path d="M91.1525 131.551C90.7394 132.595 90.2471 133.744 90.6412 133.89C91.0353 134.036 91.5877 132.848 92.0009 131.804C92.414 130.761 93.0042 130.071 92.29 129.806C91.5757 129.541 91.5657 130.507 91.1525 131.551Z" fill="white"/>
<path d="M91.4012 134.084C91.0883 134.363 90.7538 134.763 90.3521 135.212C91.0426 135.142 91.5507 134.75 91.789 134.538C92.225 134.383 93.0451 131.53 92.9501 130.477C92.6543 131.32 91.6196 133.89 91.4012 134.084Z" fill="#771824"/>
<path d="M90.8202 136.668C90.334 136.718 89.1291 136.366 88.9347 136.027C88.8166 136.613 89.7157 137.338 90.2065 137.609C90.9534 138.021 91.7023 137.423 91.8461 137.295C92.2821 137.14 93.6218 132.412 93.5268 131.358C93.231 132.201 91.9395 136.804 90.8202 136.668Z" fill="white"/>
<ellipse rx="3.22059" ry="6.09334" transform="matrix(-0.92618 -0.38728 -0.405773 0.909575 101.017 125.036)" fill="#FF6B7D"/>
<path d="M100.77 123.54C100.235 124.531 99.6095 125.617 99.9836 125.806C100.358 125.996 101.048 124.877 101.583 123.887C102.117 122.896 102.786 122.277 102.108 121.934C101.43 121.591 101.305 122.549 100.77 123.54Z" fill="white"/>
<path d="M100.716 126.085C100.372 126.326 99.9918 126.686 99.5392 127.088C100.233 127.095 100.785 126.763 101.047 126.579C101.498 126.473 102.653 123.731 102.684 122.674C102.29 123.478 100.956 125.916 100.716 126.085Z" fill="#771824"/>
<path d="M99.8305 128.586C99.3416 128.581 98.1867 128.097 98.0339 127.739C97.8468 128.308 98.6535 129.128 99.1088 129.452C99.8017 129.945 100.617 129.434 100.775 129.323C101.226 129.218 103.12 124.671 103.152 123.614C102.757 124.418 100.926 128.846 99.8305 128.586Z" fill="white"/>
<ellipse rx="2.68171" ry="5.06849" transform="matrix(-0.980275 -0.228783 -0.239958 0.963705 82.2709 133.673)" fill="#FF6B7D"/>
<path d="M81.8502 132.48C81.5567 133.366 81.2024 134.343 81.5369 134.447C81.8714 134.551 82.2737 133.539 82.5672 132.653C82.8607 131.767 83.3182 131.168 82.7121 130.98C82.1059 130.792 82.1437 131.595 81.8502 132.48Z" fill="white"/>
<path d="M82.1773 134.574C81.9306 134.82 81.6718 135.167 81.3594 135.558C81.9299 135.47 82.3334 135.121 82.5212 134.934C82.8761 134.786 83.4214 132.378 83.2922 131.507C83.0867 132.221 82.3496 134.403 82.1773 134.574Z" fill="#771824"/>
<path d="M81.8178 136.747C81.4162 136.811 80.3982 136.572 80.2205 136.299C80.1503 136.792 80.932 137.354 81.3528 137.557C81.9931 137.866 82.5869 137.335 82.7002 137.222C83.0551 137.074 83.9427 133.085 83.8135 132.214C83.6079 132.928 82.7544 136.81 81.8178 136.747Z" fill="white"/>
<ellipse rx="3.27653" ry="6.19895" transform="matrix(-1.00811 -0.0376085 -0.0394057 0.990069 86.6916 146.869)" fill="#FF6B7D"/>
<path d="M85.8903 145.537C85.7585 146.667 85.5766 147.92 86.0033 147.967C86.43 148.013 86.6608 146.707 86.7925 145.577C86.9243 144.447 87.3237 143.622 86.5505 143.538C85.7772 143.453 86.022 144.407 85.8903 145.537Z" fill="white"/>
<path d="M86.803 147.97C86.5683 148.322 86.3444 148.799 86.0672 149.34C86.7288 149.101 87.1259 148.59 87.3046 148.322C87.6931 148.061 87.7486 145.049 87.3774 144.035C87.3083 144.938 86.9669 147.725 86.803 147.97Z" fill="#771824"/>
<path d="M86.9123 150.658C86.4468 150.828 85.1673 150.779 84.8866 150.493C84.9248 151.1 86.0013 151.591 86.556 151.737C87.4002 151.958 87.9801 151.184 88.0879 151.022C88.4764 150.762 88.5493 145.774 88.1781 144.761C88.109 145.664 88.0505 150.515 86.9123 150.658Z" fill="white"/>
<ellipse rx="3.27524" ry="6.20146" transform="matrix(-0.901121 -0.440026 -0.460686 0.884292 91.9746 117.807)" fill="#FF6B7D"/>
<path d="M91.818 116.274C91.2131 117.248 90.5096 118.315 90.8777 118.529C91.2457 118.743 92.0166 117.648 92.6215 116.673C93.2263 115.698 93.9438 115.109 93.2768 114.721C92.6096 114.333 92.4229 115.299 91.818 116.274Z" fill="white"/>
<path d="M91.6032 118.854C91.2388 119.08 90.8305 119.423 90.3458 119.804C91.0504 119.853 91.6311 119.547 91.9086 119.376C92.3738 119.295 93.7175 116.578 93.8151 115.506C93.3646 116.3 91.8576 118.697 91.6032 118.854Z" fill="#771824"/>
<path d="M90.5482 121.343C90.0519 121.31 88.9093 120.75 88.7764 120.378C88.5509 120.944 89.3189 121.825 89.7611 122.18C90.434 122.721 91.2937 122.25 91.4611 122.147C91.9263 122.066 94.1336 117.559 94.2312 116.488C93.7807 117.281 91.6446 121.671 90.5482 121.343Z" fill="white"/>
<ellipse rx="2.33018" ry="4.40431" transform="matrix(-0.973384 -0.254963 -0.267404 0.956884 83.9977 115.844)" fill="#FF6B7D"/>
<path d="M83.6615 114.797C83.3846 115.56 83.0526 116.4 83.3406 116.498C83.6285 116.596 84.0031 115.727 84.2801 114.964C84.557 114.202 84.9693 113.692 84.4475 113.514C83.9256 113.336 83.9385 114.035 83.6615 114.797Z" fill="white"/>
<path d="M83.8942 116.624C83.6738 116.831 83.4403 117.127 83.1592 117.46C83.657 117.396 84.0161 117.103 84.1839 116.945C84.4959 116.824 85.0294 114.746 84.9387 113.986C84.7425 114.601 84.048 116.479 83.8942 116.624Z" fill="#771824"/>
<path d="M83.5277 118.503C83.1772 118.549 82.2989 118.317 82.1513 118.077C82.0781 118.502 82.7431 119.009 83.1036 119.195C83.6521 119.478 84.181 119.031 84.2823 118.936C84.5942 118.815 85.4643 115.371 85.3737 114.612C85.1774 115.227 84.3396 118.579 83.5277 118.503Z" fill="white"/>
<ellipse rx="2.87204" ry="5.43811" transform="matrix(-0.900668 -0.440911 -0.461606 0.883834 88.4293 104.49)" fill="#FF6B7D"/>
<path d="M88.2927 103.145C87.7614 103.999 87.1436 104.934 87.4661 105.122C87.7887 105.31 88.4656 104.35 88.9969 103.496C89.5282 102.642 90.1579 102.126 89.5734 101.785C88.9887 101.444 88.8241 102.291 88.2927 103.145Z" fill="white"/>
<path d="M88.1025 105.408C87.7828 105.605 87.4245 105.906 86.9991 106.24C87.6169 106.283 88.1264 106.016 88.3699 105.865C88.7779 105.795 89.9587 103.413 90.0452 102.474C89.6494 103.169 88.3258 105.27 88.1025 105.408Z" fill="#771824"/>
<path d="M87.1756 107.589C86.7404 107.56 85.739 107.068 85.6229 106.741C85.4246 107.238 86.0972 108.011 86.4846 108.323C87.0742 108.798 87.8285 108.386 87.9754 108.295C88.3834 108.225 90.3232 104.275 90.4097 103.335C90.0139 104.031 88.1368 107.878 87.1756 107.589Z" fill="white"/>
<ellipse rx="4.31465" ry="8.16964" transform="matrix(-0.900668 -0.440911 -0.461606 0.883834 107.42 104.42)" fill="#FF6B7D"/>
<path d="M107.216 102.4C106.418 103.683 105.489 105.087 105.974 105.37C106.458 105.652 107.475 104.21 108.274 102.927C109.072 101.644 110.018 100.868 109.14 100.356C108.261 99.8441 108.014 101.116 107.216 102.4Z" fill="white"/>
<path d="M106.929 105.799C106.449 106.095 105.911 106.547 105.272 107.049C106.2 107.113 106.965 106.712 107.331 106.486C107.944 106.38 109.718 102.802 109.848 101.391C109.253 102.436 107.265 105.592 106.929 105.799Z" fill="#771824"/>
<path d="M105.537 109.076C104.883 109.032 103.379 108.293 103.204 107.802C102.906 108.549 103.917 109.709 104.499 110.178C105.385 110.891 106.518 110.272 106.738 110.136C107.351 110.031 110.265 104.096 110.395 102.685C109.801 103.73 106.981 109.509 105.537 109.076Z" fill="white"/>
<ellipse rx="4.31813" ry="8.16287" transform="matrix(-0.963131 -0.289386 -0.303465 0.946676 116.414 114.559)" fill="#FF6B7D"/>
<path d="M115.865 112.6C115.298 113.994 114.625 115.528 115.151 115.729C115.677 115.929 116.432 114.343 116.999 112.949C117.565 111.555 118.365 110.638 117.411 110.275C116.457 109.911 116.431 111.206 115.865 112.6Z" fill="white"/>
<path d="M116.167 115.998C115.744 116.367 115.291 116.9 114.747 117.497C115.674 117.411 116.359 116.892 116.681 116.611C117.268 116.408 118.402 112.593 118.287 111.181C117.88 112.307 116.462 115.74 116.167 115.998Z" fill="#771824"/>
<path d="M115.357 119.453C114.705 119.515 113.094 119.029 112.838 118.573C112.673 119.357 113.869 120.339 114.523 120.707C115.519 121.268 116.53 120.475 116.724 120.305C117.31 120.102 119.164 113.781 119.049 112.369C118.642 113.495 116.855 119.648 115.357 119.453Z" fill="white"/>
<ellipse rx="3.10234" ry="5.87704" transform="matrix(-0.885971 -0.468481 -0.490232 0.868987 120.501 89.8789)" fill="#FF6B7D"/>
<path d="M120.402 88.4222C119.798 89.327 119.098 90.316 119.439 90.5298C119.781 90.7436 120.546 89.7294 121.15 88.8246C121.754 87.9198 122.452 87.3832 121.833 86.9958C121.214 86.6083 121.006 87.5174 120.402 88.4222Z" fill="white"/>
<path d="M120.116 90.8595C119.764 91.0617 119.366 91.3748 118.895 91.7212C119.561 91.7883 120.12 91.5166 120.388 91.3624C120.832 91.3 122.191 88.7669 122.318 87.7553C121.866 88.4932 120.362 90.7184 120.116 90.8595Z" fill="#771824"/>
<path d="M119.038 93.1841C118.569 93.1379 117.505 92.5735 117.391 92.217C117.159 92.7469 117.858 93.6036 118.266 93.9535C118.885 94.4859 119.715 94.066 119.876 93.9729C120.32 93.9106 122.554 89.7092 122.681 88.6976C122.229 89.4355 120.065 93.5277 119.038 93.1841Z" fill="white"/>
<ellipse rx="2.65606" ry="5.07685" transform="matrix(-0.651659 -0.752123 -0.780028 0.633471 107.563 82.8916)" fill="#FF6B7D"/>
<path d="M107.955 81.6946C107.179 82.236 106.298 82.8156 106.502 83.0904C106.706 83.3653 107.647 82.7851 108.424 82.2437C109.2 81.7023 109.933 81.4844 109.563 80.9863C109.192 80.4882 108.732 81.1532 107.955 81.6946Z" fill="white"/>
<path d="M106.937 83.5599C106.59 83.615 106.17 83.7451 105.681 83.8795C106.192 84.1352 106.728 84.0874 106.993 84.0453C107.368 84.1297 109.276 82.5135 109.705 81.7418C109.105 82.1956 107.18 83.5215 106.937 83.5599Z" fill="#771824"/>
<path d="M105.321 85.0944C104.961 84.9152 104.291 84.1404 104.316 83.8203C103.959 84.1744 104.241 85.0726 104.454 85.4763C104.778 86.0907 105.578 86.0059 105.738 85.9805C106.113 86.065 109.262 83.3781 109.691 82.6064C109.09 83.0603 106.033 85.6813 105.321 85.0944Z" fill="white"/>
<ellipse rx="2.32509" ry="4.41651" transform="matrix(-0.812232 -0.582576 -0.607983 0.794519 100.189 93.8915)" fill="#FF6B7D"/>
<path d="M100.27 92.7987C99.7244 93.4111 99.0985 94.0764 99.3297 94.2694C99.561 94.4624 100.238 93.7848 100.783 93.1724C101.328 92.5601 101.904 92.2309 101.485 91.8811C101.066 91.5313 100.815 92.1864 100.27 92.7987Z" fill="white"/>
<path d="M99.7983 94.5822C99.515 94.6973 99.1861 94.8904 98.799 95.1009C99.2866 95.2172 99.7316 95.071 99.9474 94.9831C100.283 94.981 101.564 93.2336 101.765 92.4942C101.351 92.9977 99.9962 94.5018 99.7983 94.5822Z" fill="#771824"/>
<path d="M98.749 96.2026C98.4054 96.1215 97.6745 95.5958 97.6278 95.3194C97.3992 95.6902 97.8277 96.3968 98.0932 96.6975C98.4973 97.1551 99.1583 96.9256 99.2886 96.8726C99.6246 96.8705 101.733 93.9702 101.935 93.2309C101.52 93.7343 99.4765 96.5605 98.749 96.2026Z" fill="white"/>
<ellipse rx="2.32509" ry="4.41651" transform="matrix(-0.812232 -0.582576 -0.607983 0.794519 93.3912 88.7928)" fill="#FF6B7D"/>
<path d="M93.4718 87.7C92.9265 88.3123 92.3007 88.9776 92.5319 89.1706C92.7631 89.3636 93.4398 88.686 93.9851 88.0737C94.5303 87.4614 95.1065 87.1321 94.6874 86.7824C94.2683 86.4326 94.0171 87.0876 93.4718 87.7Z" fill="white"/>
<path d="M93.0003 89.4832C92.7169 89.5983 92.388 89.7914 92.0009 90.0019C92.4885 90.1182 92.9335 89.972 93.1493 89.8841C93.4853 89.882 94.7655 88.1346 94.9673 87.3952C94.5528 87.8987 93.1981 89.4028 93.0003 89.4832Z" fill="#771824"/>
<path d="M91.9509 91.1036C91.6073 91.0225 90.8765 90.4968 90.8297 90.2204C90.6011 90.5912 91.0296 91.2978 91.2951 91.5985C91.6992 92.0561 92.3603 91.8266 92.4905 91.7736C92.8265 91.7715 94.9347 88.8712 95.1366 88.1319C94.722 88.6353 92.6784 91.4615 91.9509 91.1036Z" fill="white"/>
<ellipse rx="3.68039" ry="6.9674" transform="matrix(-1.0091 0.0117518 0.0123057 0.990418 164.356 83.6408)" fill="#FF6B7D"/>
<path d="M163.378 82.1898C163.296 83.465 163.166 84.8815 163.647 84.9103C164.129 84.9392 164.311 83.4603 164.393 82.1851C164.474 80.9099 164.874 79.9624 164.002 79.9101C163.129 79.8579 163.459 80.9146 163.378 82.1898Z" fill="white"/>
<path d="M164.545 84.8701C164.302 85.2772 164.079 85.8246 163.8 86.4477C164.528 86.1427 164.944 85.547 165.129 85.2367C165.549 84.923 165.435 81.5394 164.959 80.4222C164.934 81.4394 164.715 84.5858 164.545 84.8701Z" fill="#771824"/>
<path d="M164.825 87.8808C164.313 88.0968 162.874 88.1117 162.542 87.8072C162.621 88.4854 163.857 88.9779 164.489 89.1105C165.449 89.3124 166.054 88.4119 166.166 88.2246C166.586 87.911 166.376 82.3103 165.9 81.1931C165.875 82.2103 166.094 87.6581 164.825 87.8808Z" fill="white"/>
<ellipse rx="3.99846" ry="7.57235" transform="matrix(-1.00864 0.0368386 0.0385606 0.989598 204.864 136.547)" fill="#FF6B7D"/>
<path d="M203.762 134.998C203.71 136.385 203.609 137.927 204.133 137.946C204.657 137.964 204.812 136.353 204.864 134.965C204.916 133.578 205.323 132.538 204.374 132.505C203.424 132.471 203.814 133.61 203.762 134.998Z" fill="white"/>
<path d="M205.107 137.878C204.854 138.326 204.628 138.927 204.342 139.611C205.125 139.26 205.559 138.602 205.751 138.26C206.199 137.908 205.977 134.235 205.428 133.035C205.43 134.14 205.283 137.564 205.107 137.878Z" fill="#771824"/>
<path d="M205.498 141.141C204.947 141.389 203.385 141.444 203.016 141.122C203.121 141.857 204.478 142.359 205.168 142.486C206.217 142.679 206.848 141.684 206.964 141.478C207.412 141.126 207.022 135.048 206.472 133.847C206.475 134.953 206.87 140.864 205.498 141.141Z" fill="white"/>
<path d="M129.659 70.9412C130.307 73.3323 142.464 74.9113 157.955 74.1309C173.446 73.3505 181.896 71.3206 185.756 68.1151C181.218 68.3321 173.433 70.2427 157.942 71.0231C142.452 71.8035 135.992 71.6721 129.659 70.9412Z" fill="#FFC6CD"/>
<path d="M134.717 69.2861C135.049 67.6736 144.707 65.7389 157.234 65.1009C169.761 64.4629 176.721 65.1645 180.08 66.9758C176.411 67.1702 169.996 66.4974 157.469 67.1354C144.942 67.7734 139.755 68.3383 134.717 69.2861Z" fill="#FFC6CD"/>
<path d="M130.991 144.776C133.67 146.87 136.177 145.084 139.288 141.353C142.399 137.622 142.617 131.294 139.938 129.199C137.259 127.105 141.083 136.394 137.972 140.124C134.861 143.855 128.312 142.681 130.991 144.776Z" fill="#FFE8EB"/>
<path d="M148.943 120.675C151.311 123.095 153.591 122.06 156.446 119.442C159.3 116.823 159.604 111.295 157.235 108.875C154.867 106.455 158.141 115.458 155.286 118.077C152.431 120.695 146.575 118.255 148.943 120.675Z" fill="#FFE8EB"/>
<path d="M167.708 122.54C170.133 123.508 170.775 124.61 173.63 121.991C176.485 119.373 176.43 116.212 174.062 113.792C171.694 111.372 174.439 116.64 171.584 119.258C168.73 121.877 169.48 121.517 167.708 122.54Z" fill="#FFE8EB"/>
<path d="M176.992 137.065C177.221 138.574 177.922 140.15 180.627 139.447C184.292 138.065 185.321 132.998 184.071 129.892C183.515 133.235 182.888 135.286 181.72 136.473C180.243 137.634 178.035 137.607 176.992 137.065Z" fill="#FFE8EB"/>
<path d="M182.044 112.831C182.746 114.504 184.015 116.118 186.956 114.537C190.815 111.9 190.549 105.77 188.2 102.549C188.519 106.558 188.382 109.099 187.368 110.799C185.986 112.558 183.412 113.158 182.044 112.831Z" fill="#FFE8EB"/>
<path d="M139.133 175.858C140.045 177.432 141.514 178.88 144.227 176.956C147.715 173.871 146.658 167.822 143.912 164.91C144.746 168.849 144.938 171.387 144.152 173.197C143.009 175.109 140.533 176.016 139.133 175.858Z" fill="#FFE8EB"/>
<path d="M120.36 157.434C120.76 159.197 121.73 160.996 124.904 159.918C129.167 157.949 129.973 151.863 128.219 148.304C127.834 152.308 127.257 154.79 125.961 156.301C124.293 157.808 121.651 157.979 120.36 157.434Z" fill="#FFE8EB"/>
<path d="M116.24 176.624C117.134 178.209 118.585 179.673 121.321 177.779C124.845 174.734 123.861 168.673 121.15 165.731C121.937 169.679 122.099 172.219 121.291 174.02C120.125 175.919 117.638 176.798 116.24 176.624Z" fill="#FFE8EB"/>
<path d="M101.866 170.785C102.759 172.37 104.21 173.834 106.946 171.94C110.471 168.895 109.487 162.834 106.775 159.892C107.562 163.84 107.724 166.38 106.916 168.181C105.75 170.08 103.263 170.959 101.866 170.785Z" fill="#FFE8EB"/>
<path d="M108.89 156.332C109.496 158.04 110.673 159.719 113.698 158.297C117.701 155.868 117.782 149.733 115.619 146.392C115.71 150.412 115.429 152.942 114.321 154.586C112.842 156.269 110.238 156.731 108.89 156.332Z" fill="#FFE8EB"/>
<path d="M105.528 87.2926C105.837 89.115 106.754 90.9843 110.219 89.9358C114.909 87.9904 116.179 81.7426 114.544 78.0466C113.863 82.1599 113.079 84.7035 111.592 86.2332C109.708 87.753 106.873 87.8784 105.528 87.2926Z" fill="#FFE8EB"/>
<path d="M87.7572 154.777C88.3604 155.85 89.3181 156.873 91.0305 155.777C93.2243 153.973 92.4733 149.988 90.6794 147.943C91.2621 150.547 91.4167 152.204 90.936 153.334C90.2282 154.51 88.6548 154.959 87.7572 154.777Z" fill="#FFE8EB"/>
<path d="M90.9622 165.35C91.5654 166.423 92.9452 164.713 93.06 164.506C93.1748 164.299 94.7937 162.807 92.9999 160.763C91.0324 161.786 91.5307 162.487 91.05 163.617C91.039 164.301 91.0594 164.512 90.9622 165.35Z" fill="#FFE8EB"/>
<path d="M114.586 188.27C115.189 189.343 116.944 188.707 117.31 187.869C117.676 187.031 119.053 181.783 115.721 183.203C115.926 184.858 115.781 185.851 115.3 186.981C115.012 187.658 114.927 187.834 114.586 188.27Z" fill="#FFE8EB"/>
<path d="M167.381 104.337C168.082 106.01 169.352 107.624 172.293 106.044C176.152 103.406 175.886 97.2762 173.537 94.0548C173.855 98.0642 173.718 100.605 172.704 102.306C171.323 104.064 168.749 104.664 167.381 104.337Z" fill="#FFE8EB"/>
<path d="M154.688 102.343C154.77 103.538 155.239 104.802 157.53 104.343C160.664 103.382 161.877 99.429 161.063 96.9409C160.364 99.553 159.699 101.145 158.647 102.039C157.341 102.902 155.513 102.805 154.688 102.343Z" fill="#FFE8EB"/>
<path d="M143.594 158.814C145.31 160.696 147.596 159.512 150.708 156.853C153.82 154.193 155.14 149.237 153.425 147.355C151.709 145.473 153.014 153.111 149.902 155.771C146.79 158.43 141.879 156.932 143.594 158.814Z" fill="#FFE8EB"/>
<path d="M156.327 141.403C158.889 142.792 160.82 140.792 163.029 136.974C165.237 133.156 164.637 127.541 162.074 126.152C159.511 124.762 163.954 132.297 161.745 136.115C159.537 139.933 153.764 140.014 156.327 141.403Z" fill="#FFE8EB"/>
<path d="M209.345 98.4706C217.217 97.1475 220.992 106.36 221.895 111.131C226.274 111.005 228.503 114.947 229.069 116.934C229.132 116.999 229.636 117.624 231.145 119.607C233.756 123.692 232.043 131.597 230.86 135.038C230.822 135.108 230.576 134.802 229.902 133.023C231.944 127.675 230.041 120.946 229.994 120.316C229.948 119.686 227.904 115.531 225.009 117.248C222.693 118.621 223.576 123.934 224.307 126.418C225.133 128.359 226.998 132.489 227.853 133.476C228.921 134.709 226.995 138.379 225.693 139.999C224.391 141.619 225.833 143.491 225.243 145.089C224.772 146.368 221.827 147.411 220.414 147.773C222.41 145.395 226.736 136.365 224.809 134.755C223.589 132.623 223.978 131.226 222.765 130.833C221.641 130.468 219.895 131.238 219.489 132.204C216.094 134.054 219.069 150.404 217.062 151.938C217.957 149.975 217.406 145.489 216.153 142.878C214.017 138.034 216.127 134.836 217.649 131.248C222.1 125.408 220.068 122.121 218.532 118.751C207.586 119.102 209.321 129.163 209.533 133.436C204.258 119.871 213.02 118.803 216.353 116.475C218.65 111.943 216.691 102.287 211.312 100.741C205.436 100.212 205.579 106.818 203.926 108.249C203.166 106.71 203.266 100.517 209.345 98.4706Z" fill="#FFCCD3"/>
<path d="M124.614 105.405C135.703 108.723 137.319 98.5223 136.741 93.0071C136.935 92.6562 137.632 92.171 138.861 93.037C140.516 95.7217 138.678 99.1884 138.323 102.249C137.094 108.547 130.659 108.895 127.997 109.54C125.76 111.988 125.954 117.686 126.47 120.307C128.122 123.072 128.826 125.506 133.764 124.989C140.353 122.246 139.34 120.219 141.458 113.45C146.236 122.139 139.781 127.587 137.602 128.646C127.212 127.588 125.607 132.676 124.29 135.278C123.153 140.204 120.496 141.217 115.561 141.655C119.121 139.691 120.594 129.626 115.641 126.769C107.259 126.471 106.909 134.361 106.779 138.147C106.495 142.137 108.445 143.231 110.502 144.584C108.59 145.01 107.659 144.648 104.606 149.552C103.609 156.416 100.301 156.564 98.0803 156.262C104.524 150.199 104.054 142.762 103.014 139.801C101.543 138.726 98.6613 135.983 98.9038 133.61C108.48 128.2 106.6 119.702 103.843 117.318C100.413 116.806 97.7524 123.249 96.6209 125.094C93.6242 127.873 91.9404 126.575 88.7698 126.937C88.2231 129.05 86.3655 129.93 85.505 130.106L85.2671 129.227C85.8692 128.141 87.0943 125.267 87.1779 122.461C88.081 123.439 87.454 123.622 89.9569 124.795C98.4608 122.726 97.1272 111.858 94.0745 110.018C93.1091 110.432 90.1111 112.665 88.7328 113.73C88.3671 113.836 87.7147 113.48 88.0312 111.203C93.9053 107.004 91.9696 107.652 93.7112 103.088C91.6835 99.8721 92.3353 100.592 91.8999 97.8223C93.9227 97.7283 94.6914 98.0005 97.2814 99.7275C99.7913 100.319 103.016 96.7287 104.315 94.8595L106.853 93.1252C107.461 92.975 108.85 93.1709 109.537 95.1557C108.126 95.5676 103.82 99.3084 102.857 100.335C101.894 101.361 97.5701 109.163 104.248 112.759C110.717 113.982 113.309 105.891 113.797 101.693L118.208 99.66C120.163 99.5307 124.18 100.499 124.614 105.405Z" fill="#FFCCD3"/>
<path d="M211.307 171.175C215.968 170.932 219.278 160.932 220.351 155.962C220.672 155.614 221.509 155.178 222.286 156.216C223.256 157.513 219.626 163.509 218.711 166.453C217.796 169.398 218.323 168.631 219.049 170C220.338 174.17 216.019 178.542 213.699 180.207C214.724 178.542 216.461 174.91 215.205 173.703C212.973 172.742 209.733 175.817 207.898 179.127C210.048 184.209 208.454 184.868 206.747 187.947C202.901 190.36 205.202 196.463 206.016 199.612C203.366 202.547 200.743 201.829 199.068 201.802C205.162 198.474 203.458 188.617 202.295 185.634C205.061 186.278 205.808 184.931 205.915 182.706C206.021 180.481 206.682 178.692 208.911 173.706C207.651 167.426 211.387 166.479 212.574 167.096C213.761 167.713 212.59 168.585 211.307 171.175Z" fill="#FFCCD3"/>
<defs>
<linearGradient id="paint0_linear" x1="164.538" y1="59.4895" x2="140.207" y2="241.424" gradientUnits="userSpaceOnUse">
<stop offset="0.341667" stop-color="#B70202" stop-opacity="0"/>
<stop offset="0.951042" stop-color="#C50000"/>
</linearGradient>
</defs>
</svg>
