<svg xmlns="http://www.w3.org/2000/svg" fill="none" viewBox="0 0 361 389">
  <defs/>
  <path fill="#DE0000" d="M320.586 201.216c-22.887 49.387-160.982 153.331-216.566 132.712-68.247-25.316-52.377-177.501-33.346-228.802 25.184-50.758 87.285-86.5 155.532-61.185 68.246 25.316 113.41 105.974 94.38 157.275z"/>
  <path fill="url(#paint0_linear)" d="M320.586 201.216c-22.887 49.387-160.982 153.331-216.566 132.712-68.247-25.316-52.377-177.501-33.346-228.802 25.184-50.758 87.285-86.5 155.532-61.185 68.246 25.316 113.41 105.974 94.38 157.275z"/>
  <ellipse cx="136.636" cy="122.978" fill="#FF6B7D" rx="6.696" ry="12.851" transform="rotate(15.525 136.636 122.978)"/>
  <path fill="#fff" d="M139.03 120.817c-.466 2.334-.914 4.944-1.767 4.773-.853-.17-.466-2.916 0-5.249.466-2.334.221-4.224 1.767-3.915 1.546.309.465 2.058 0 4.391z"/>
  <path fill="#771824" d="M135.719 125.103c.229.845.357 1.934.547 3.184-1.124-.885-1.565-2.149-1.739-2.793-.583-.759 1.229-6.797 2.591-8.588-.442 1.842-1.559 7.607-1.399 8.197z"/>
  <path fill="#fff" d="M133.795 130.394c.79.625 3.29 1.316 4.014.921-.461 1.185-2.851 1.501-4.014 1.448-1.77-.08-2.395-1.98-2.5-2.369-.584-.759 2.454-10.743 3.816-12.534-.442 1.842-3.421 11.547-1.316 12.534z"/>
  <ellipse cx="153.846" cy="144.534" fill="#FF6B7D" rx="4.35" ry="8.349" transform="rotate(12.7 153.846 144.534)"/>
  <path fill="#fff" d="M155.33 143.055c-.228 1.529-.434 3.237-.993 3.154-.559-.083-.396-1.878-.168-3.406.227-1.529.008-2.748 1.02-2.597 1.013.151.369 1.321.141 2.849z"/>
  <path fill="#771824" d="M153.319 145.942c.176.541.294 1.243.457 2.049-.758-.539-1.084-1.345-1.218-1.757-.403-.474.58-4.45 1.407-5.655-.228 1.209-.769 4.986-.646 5.363z"/>
  <path fill="#fff" d="M152.24 149.437c.533.38 2.178.749 2.634.469-.26.784-1.801 1.065-2.558 1.068-1.151.005-1.617-1.208-1.698-1.457-.403-.474 1.248-7.049 2.075-8.255-.228 1.209-1.85 7.602-.453 8.175z"/>
  <ellipse cx="121.281" cy="160.654" fill="#FF6B7D" rx="4.946" ry="9.492" transform="rotate(12.7 121.281 160.654)"/>
  <path fill="#fff" d="M122.968 158.973c-.258 1.738-.493 3.68-1.129 3.585-.635-.094-.45-2.135-.191-3.873.259-1.738.009-3.124 1.161-2.952 1.151.171.418 1.501.159 3.24z"/>
  <path fill="#771824" d="M120.682 162.255c.2.615.334 1.414.519 2.329-.861-.612-1.232-1.528-1.384-1.997-.458-.539.659-5.059 1.599-6.43-.259 1.375-.874 5.669-.734 6.098z"/>
  <path fill="#fff" d="M119.456 166.229c.605.432 2.475.851 2.994.533-.296.891-2.048 1.211-2.908 1.214-1.308.006-1.839-1.373-1.931-1.656-.458-.539 1.419-8.015 2.359-9.387-.259 1.376-2.103 8.644-.514 9.296z"/>
  <ellipse cx="138.087" cy="177.428" fill="#FF6B7D" rx="6.546" ry="12.563" transform="rotate(32.752 138.087 177.428)"/>
  <path fill="#fff" d="M140.949 176.104c-1.111 2.043-2.285 4.351-3.032 3.945-.747-.406.41-2.858 1.52-4.902 1.111-2.043 1.429-3.879 2.783-3.144 1.354.736-.161 2.057-1.271 4.101z"/>
  <path fill="#771824" d="M136.616 179.147c-.031.855-.226 1.909-.411 3.131-.793-1.152-.838-2.46-.815-3.111-.325-.878 3.116-5.991 4.906-7.269-.946 1.592-3.658 6.652-3.68 7.249z"/>
  <path fill="#fff" d="M133.288 183.53c.557.813 2.691 2.182 3.481 2.022-.772.973-3.096.576-4.166.19-1.63-.587-1.664-2.542-1.649-2.936-.325-.877 5.401-9.32 7.192-10.598-.946 1.592-6.538 9.791-4.858 11.322z"/>
  <ellipse cx="107.625" cy="192.895" fill="#FF6B7D" rx="5.013" ry="9.62" transform="rotate(14.485 107.625 192.895)"/>
  <path fill="#fff" d="M109.387 191.245c-.316 1.752-.616 3.712-1.257 3.596-.641-.116-.388-2.177-.071-3.929.317-1.753.108-3.164 1.269-2.954 1.161.21.376 1.534.059 3.287z"/>
  <path fill="#771824" d="M106.967 194.498c.183.629.294 1.442.453 2.375-.853-.647-1.2-1.587-1.339-2.067-.447-.56.827-5.104 1.823-6.463-.306 1.385-1.064 5.715-.937 6.155z"/>
  <path fill="#fff" d="M105.599 198.484c.6.457 2.481.94 3.017.635-.328.893-2.113 1.162-2.984 1.138-1.326-.036-1.82-1.45-1.904-1.739-.447-.56 1.691-8.074 2.686-9.434-.306 1.385-2.404 8.69-.815 9.4z"/>
  <ellipse cx="85.754" cy="192.71" fill="#FF6B7D" rx="5.013" ry="9.62" transform="rotate(14.485 85.754 192.71)"/>
  <path fill="#fff" d="M87.516 191.061c-.317 1.752-.616 3.712-1.257 3.596-.64-.116-.388-2.177-.071-3.929.317-1.753.108-3.165 1.269-2.954 1.161.21.376 1.534.06 3.287z"/>
  <path fill="#771824" d="M85.096 194.313c.183.63.294 1.443.453 2.376-.853-.647-1.2-1.587-1.34-2.067-.446-.56.828-5.104 1.823-6.463-.305 1.385-1.063 5.715-.936 6.154z"/>
  <path fill="#fff" d="M83.728 198.3c.6.457 2.48.94 3.017.635-.328.893-2.113 1.161-2.984 1.138-1.326-.036-1.82-1.45-1.904-1.739-.447-.56 1.69-8.075 2.686-9.434-.306 1.385-2.404 8.69-.815 9.4z"/>
  <ellipse cx="100.777" cy="164.338" fill="#FF6B7D" rx="6.761" ry="12.975" transform="rotate(29.906 100.777 164.338)"/>
  <path fill="#fff" d="M103.661 162.826c-1.041 2.165-2.133 4.605-2.924 4.224-.792-.38.276-2.969 1.316-5.134 1.041-2.165 1.275-4.075 2.709-3.385 1.435.689-.06 2.13-1.101 4.295z"/>
  <path fill="#771824" d="M99.348 166.187c.012.883-.136 1.98-.264 3.251-.877-1.148-.99-2.495-1-3.168-.38-.889 2.907-6.339 4.688-7.75-.894 1.691-3.433 7.049-3.424 7.667z"/>
  <path fill="#fff" d="M96.14 170.879c.615.81 2.887 2.112 3.694 1.907-.747 1.043-3.164.753-4.288.41-1.711-.522-1.847-2.538-1.852-2.944-.38-.889 5.094-9.892 6.876-11.302-.895 1.691-6.242 10.436-4.43 11.929z"/>
  <ellipse cx="91.234" cy="144.326" fill="#FF6B7D" rx="5.184" ry="9.948" transform="rotate(12.83 91.234 144.326)"/>
  <path fill="#fff" d="M93.007 142.569c-.275 1.821-.526 3.856-1.192 3.755-.666-.101-.466-2.239-.191-4.06.275-1.821.017-3.274 1.224-3.091 1.206.182.435 1.575.16 3.396z"/>
  <path fill="#771824" d="M90.602 146.003c.208.646.347 1.482.54 2.443-.902-.644-1.289-1.606-1.447-2.097-.479-.566.703-5.301 1.692-6.736-.275 1.441-.93 5.94-.785 6.39z"/>
  <path fill="#fff" d="M89.307 150.165c.634.454 2.593.898 3.138.566-.313.933-2.15 1.264-3.051 1.266-1.372.002-1.925-1.445-2.02-1.741-.479-.566 1.507-8.397 2.495-9.832-.275 1.441-2.225 9.054-.562 9.741z"/>
  <ellipse cx="72.258" cy="137.218" fill="#FF6B7D" rx="4.614" ry="8.855" transform="rotate(9.288 72.258 137.218)"/>
  <path fill="#fff" d="M73.737 135.559c-.145 1.633-.256 3.454-.853 3.402-.597-.053-.537-1.963-.393-3.596.144-1.633-.165-2.909.917-2.814 1.082.096.473 1.375.329 3.008z"/>
  <path fill="#771824" d="M71.789 138.743c.22.561.39 1.297.613 2.139-.836-.522-1.232-1.355-1.4-1.783-.456-.476.333-4.747 1.132-6.076-.165 1.295-.499 5.327-.345 5.72z"/>
  <path fill="#fff" d="M70.868 142.51c.588.37 2.352.656 2.818.331-.227.846-1.84 1.241-2.64 1.292-1.22.078-1.79-1.177-1.89-1.435-.457-.477.876-7.543 1.675-8.872-.165 1.295-1.48 8.166.037 8.684z"/>
  <ellipse cx="76.014" cy="118.9" fill="#FF6B7D" rx="3.276" ry="6.288" transform="rotate(14.476 76.014 118.9)"/>
  <path fill="#fff" d="M77.166 117.822c-.207 1.145-.402 2.426-.821 2.35-.419-.075-.254-1.422-.047-2.568.207-1.146.07-2.068.829-1.931.76.137.246 1.003.04 2.149z"/>
  <path fill="#771824" d="M75.584 119.948c.12.411.192.942.296 1.552-.557-.423-.784-1.037-.875-1.351-.292-.366.54-3.336 1.19-4.224-.2.905-.694 3.735-.61 4.023z"/>
  <path fill="#fff" d="M74.69 122.553c.393.299 1.622.615 1.972.415-.214.584-1.38.76-1.95.744-.867-.023-1.19-.947-1.245-1.136-.292-.366 1.105-5.278 1.755-6.167-.2.906-1.57 5.68-.531 6.144z"/>
  <ellipse cx="65.966" cy="161.794" fill="#FF6B7D" rx="2.506" ry="4.81" transform="rotate(9.288 65.966 161.794)"/>
  <path fill="#fff" d="M66.77 160.893c-.079.887-.14 1.876-.463 1.848-.325-.029-.292-1.067-.214-1.954.079-.887-.09-1.58.498-1.528.588.052.257.747.179 1.634z"/>
  <path fill="#771824" d="M65.712 162.622c.12.305.211.705.332 1.163-.454-.284-.669-.737-.76-.969-.248-.259.18-2.579.615-3.301-.09.704-.271 2.894-.188 3.107z"/>
  <path fill="#fff" d="M65.211 164.669c.32.201 1.278.356 1.531.18-.123.459-1 .674-1.434.701-.662.043-.972-.639-1.027-.779-.248-.259.476-4.097.91-4.819-.09.703-.803 4.435.02 4.717z"/>
  <ellipse cx="69.53" cy="187.654" fill="#FF6B7D" rx="2.506" ry="4.81" transform="rotate(9.288 69.53 187.654)"/>
  <path fill="#fff" d="M70.334 186.753c-.079.887-.14 1.876-.463 1.848-.325-.029-.292-1.067-.214-1.954.079-.887-.09-1.58.498-1.528.588.052.257.747.179 1.634z"/>
  <path fill="#771824" d="M69.275 188.482c.12.305.212.705.333 1.163-.454-.284-.67-.737-.76-.969-.248-.259.18-2.579.615-3.301-.09.704-.271 2.894-.188 3.107z"/>
  <path fill="#fff" d="M68.775 190.529c.32.201 1.278.356 1.531.179-.123.46-1 .675-1.434.702-.662.043-.972-.639-1.027-.779-.248-.259.476-4.097.91-4.819-.09.703-.803 4.435.02 4.717z"/>
  <ellipse cx="65.751" cy="210.348" fill="#FF6B7D" rx="2.817" ry="5.406" transform="rotate(9.288 65.751 210.348)"/>
  <path fill="#fff" d="M66.655 209.335c-.089.997-.156 2.109-.521 2.077-.365-.032-.328-1.199-.24-2.196.088-.997-.1-1.776.56-1.717.66.058.289.839.2 1.836z"/>
  <path fill="#771824" d="M65.465 211.279c.135.342.238.792.374 1.306-.51-.319-.752-.827-.854-1.089-.28-.29.203-2.898.69-3.71-.1.791-.304 3.253-.21 3.493z"/>
  <path fill="#fff" d="M64.903 213.579c.359.225 1.436.4 1.72.202-.138.516-1.123.758-1.612.789-.744.047-1.092-.719-1.154-.877-.279-.29.535-4.605 1.023-5.416-.1.791-.903 4.986.023 5.302z"/>
  <ellipse cx="79.522" cy="162.856" fill="#FF6B7D" rx="4.41" ry="8.464" transform="rotate(12.83 79.522 162.856)"/>
  <path fill="#fff" d="M81.03 161.36c-.234 1.55-.448 3.281-1.014 3.195-.566-.086-.397-1.904-.162-3.454.234-1.549.014-2.785 1.04-2.63 1.027.155.37 1.34.136 2.889z"/>
  <path fill="#771824" d="M78.984 164.282c.177.549.295 1.261.459 2.078-.767-.548-1.096-1.366-1.23-1.784-.408-.481.598-4.51 1.438-5.73-.233 1.225-.79 5.053-.667 5.436z"/>
  <path fill="#fff" d="M77.882 167.822c.54.387 2.206.764 2.67.482-.267.794-1.83 1.075-2.596 1.077-1.167.002-1.638-1.229-1.719-1.481-.407-.481 1.282-7.144 2.123-8.365-.234 1.226-1.893 7.703-.478 8.287z"/>
  <ellipse cx="89.294" cy="119.761" fill="#FF6B7D" rx="4.806" ry="9.225" transform="rotate(19.177 89.294 119.761)"/>
  <path fill="#fff" d="M91.108 118.323c-.44 1.651-.88 3.5-1.483 3.339-.603-.161-.2-2.111.24-3.761s.351-3.015 1.444-2.723c1.094.291.24 1.495-.2 3.145z"/>
  <path fill="#771824" d="M88.54 121.242c.126.616.168 1.401.246 2.306-.764-.686-1.022-1.612-1.117-2.081-.384-.57 1.19-4.812 2.249-6.033-.401 1.299-1.466 5.378-1.378 5.808z"/>
  <path fill="#fff" d="M86.92 124.944c.537.484 2.297 1.093 2.833.843-.384.828-2.11.945-2.941.854-1.264-.138-1.626-1.528-1.683-1.811-.384-.571 2.249-7.584 3.307-8.805-.401 1.299-2.979 8.116-1.516 8.919z"/>
  <ellipse cx="107.19" cy="108.804" fill="#FF6B7D" rx="4.806" ry="9.225" transform="rotate(13.595 107.19 108.804)"/>
  <path fill="#fff" d="M108.856 107.196c-.278 1.685-.536 3.568-1.152 3.467-.616-.102-.405-2.081-.127-3.767.278-1.685.056-3.035 1.172-2.851 1.117.185.384 1.466.107 3.151z"/>
  <path fill="#771824" d="M106.583 110.35c.185.601.303 1.379.47 2.271-.828-.608-1.175-1.504-1.315-1.962-.437-.53.717-4.905 1.651-6.223-.272 1.332-.935 5.495-.806 5.914z"/>
  <path fill="#fff" d="M105.331 114.192c.582.43 2.392.865 2.901.564-.301.861-2.008 1.146-2.844 1.136-1.271-.015-1.766-1.363-1.851-1.639-.437-.53 1.501-7.767 2.435-9.085-.273 1.333-2.175 8.367-.641 9.024z"/>
  <ellipse cx="91.46" cy="94.538" fill="#FF6B7D" rx="4.806" ry="9.225" transform="rotate(36.282 91.46 94.538)"/>
  <path fill="#fff" d="M93.618 93.698c-.906 1.447-1.871 3.085-2.4 2.754-.53-.331.43-2.076 1.335-3.524.907-1.447 1.223-2.779 2.182-2.178.96.6-.211 1.5-1.117 2.948z"/>
  <path fill="#771824" d="M90.305 95.731c-.062.626-.253 1.39-.443 2.277-.53-.88-.504-1.841-.457-2.317-.198-.658 2.554-4.25 3.924-5.106-.765 1.124-2.982 4.71-3.024 5.147z"/>
  <path fill="#fff" d="M87.667 98.793c.37.62 1.873 1.721 2.46 1.64-.61.678-2.295.282-3.063-.05-1.167-.504-1.104-1.938-1.075-2.226-.2-.658 4.38-6.587 5.75-7.442-.766 1.124-5.234 6.88-4.072 8.078z"/>
  <ellipse cx="124.77" cy="85.727" fill="#FF6B7D" rx="6.531" ry="12.535" transform="rotate(32.795 124.77 85.727)"/>
  <path fill="#fff" d="M127.626 84.409c-1.109 2.038-2.282 4.34-3.027 3.934-.745-.406.411-2.852 1.52-4.89 1.11-2.038 1.429-3.87 2.779-3.134 1.35.735-.162 2.052-1.272 4.09z"/>
  <path fill="#771824" d="M123.3 87.442c-.031.853-.227 1.904-.412 3.124-.791-1.15-.835-2.455-.811-3.106-.324-.875 3.113-5.974 4.901-7.248-.946 1.587-3.656 6.634-3.678 7.23z"/>
  <path fill="#fff" d="M119.976 91.812c.555.811 2.684 2.179 3.472 2.02-.772.97-3.089.573-4.157.187-1.626-.587-1.658-2.538-1.643-2.93-.324-.876 5.396-9.297 7.184-10.57-.946 1.587-6.531 9.765-4.856 11.293z"/>
  <ellipse cx="111.655" cy="69.826" fill="#FF6B7D" rx="4.972" ry="9.542" transform="rotate(42.37 111.655 69.826)"/>
  <path fill="#fff" d="M113.967 69.198c-1.091 1.39-2.263 2.969-2.771 2.57s.669-2.088 1.76-3.478c1.091-1.39 1.563-2.724 2.483-2.001.921.723-.381 1.52-1.472 2.91z"/>
  <path fill="#771824" d="M110.336 70.927c-.132.637-.412 1.4-.706 2.293-.448-.964-.315-1.949-.215-2.434-.132-.698 3.093-4.09 4.597-4.82-.911 1.072-3.585 4.517-3.676 4.961z"/>
  <path fill="#fff" d="M107.287 73.787c.314.68 1.738 1.975 2.35 1.956-.702.63-2.392.038-3.144-.387-1.146-.646-.923-2.115-.863-2.407-.132-.699 5.228-6.295 6.732-7.025-.911 1.072-6.139 6.503-5.075 7.863z"/>
  <ellipse cx="131.561" cy="56.293" fill="#FF6B7D" rx="4.972" ry="9.542" transform="rotate(53.073 131.561 56.293)"/>
  <path fill="#fff" d="M133.949 56.105c-1.33 1.163-2.775 2.497-3.2 2.01-.425-.485 1.046-1.927 2.376-3.09 1.33-1.162 2.041-2.386 2.811-1.505.771.881-.657 1.423-1.987 2.585z"/>
  <path fill="#771824" d="M130.06 57.13c-.248.601-.665 1.3-1.119 2.122-.261-1.03.052-1.974.24-2.431 0-.711 3.8-3.446 5.412-3.884-1.094.885-4.36 3.773-4.533 4.193z"/>
  <path fill="#fff" d="M126.533 59.374c.182.725 1.342 2.264 1.946 2.358-.807.49-2.357-.406-3.017-.963-1.006-.848-.515-2.25-.401-2.526 0-.711 6.307-5.215 7.919-5.653-1.094.885-7.239 5.25-6.447 6.784z"/>
  <ellipse cx="153.846" cy="76.836" fill="#FF6B7D" rx="5.44" ry="10.441" transform="rotate(41.315 153.846 76.836)"/>
  <path fill="#fff" d="M156.362 76.103c-1.166 1.542-2.416 3.293-2.979 2.867-.564-.427.69-2.299 1.855-3.84 1.166-1.543 1.655-3.012 2.676-2.24 1.022.772-.387 1.67-1.552 3.213z"/>
  <path fill="#771824" d="M152.424 78.067c-.132.7-.423 1.54-.726 2.522-.509-1.044-.384-2.125-.284-2.657-.159-.762 3.301-4.538 4.931-5.367-.975 1.192-3.83 5.014-3.921 5.502z"/>
  <path fill="#fff" d="M149.147 81.257c.356.737 1.941 2.126 2.61 2.093-.755.704-2.615.09-3.448-.36-1.266-.684-1.052-2.295-.991-2.617-.159-.761 5.592-6.991 7.222-7.82-.975 1.191-6.584 7.238-5.393 8.704z"/>
  <ellipse cx="174.981" cy="65.403" fill="#FF6B7D" rx="5.44" ry="10.441" transform="rotate(51.983 174.981 65.403)"/>
  <path fill="#fff" d="M177.589 65.147c-1.431 1.3-2.983 2.79-3.458 2.266-.476-.523 1.103-2.13 2.534-3.43 1.431-1.3 2.183-2.653 3.044-1.705.861.948-.689 1.57-2.12 2.87z"/>
  <path fill="#771824" d="M173.356 66.349c-.258.663-.7 1.436-1.18 2.344-.307-1.12.016-2.16.213-2.664-.015-.778 4.084-3.848 5.839-4.361-1.178.99-4.692 4.218-4.872 4.68z"/>
  <path fill="#fff" d="M169.545 68.877c.214.79 1.514 2.449 2.178 2.54-.873.552-2.587-.396-3.322-.992-1.118-.907-.609-2.45-.49-2.755-.015-.778 6.79-5.836 8.545-6.348-1.178.99-7.811 5.894-6.911 7.555z"/>
  <ellipse cx="169.011" cy="103.541" fill="#FF6B7D" rx="5.44" ry="10.441" transform="rotate(12.628 169.011 103.541)"/>
  <path fill="#fff" d="M170.866 101.689c-.282 1.913-.538 4.049-1.237 3.946-.7-.103-.498-2.348-.216-4.26.282-1.912.006-3.436 1.273-3.249 1.267.187.462 1.651.18 3.563z"/>
  <path fill="#771824" d="M168.354 105.303c.221.676.369 1.554.575 2.561-.949-.672-1.358-1.68-1.526-2.195-.504-.592.719-5.566 1.75-7.075-.283 1.513-.953 6.237-.799 6.709z"/>
  <path fill="#fff" d="M167.01 109.675c.667.475 2.724.933 3.295.582-.325.98-2.251 1.335-3.197 1.34-1.439.008-2.025-1.509-2.126-1.82-.505-.591 1.55-8.818 2.581-10.327-.283 1.513-2.301 9.51-.553 10.225z"/>
  <ellipse cx="180.268" cy="81.953" fill="#FF6B7D" rx="6.155" ry="11.813" transform="rotate(55.364 180.268 81.953)"/>
  <path fill="#fff" d="M183.231 81.84c-1.703 1.372-3.556 2.95-4.058 2.328-.502-.623 1.389-2.333 3.092-3.706 1.702-1.372 2.643-2.851 3.552-1.723.909 1.129-.884 1.728-2.586 3.1z"/>
  <path fill="#771824" d="M178.368 82.914c-.336.731-.886 1.575-1.489 2.57-.272-1.288.162-2.44.418-2.996.035-.88 4.87-4.074 6.887-4.536-1.397 1.04-5.581 4.451-5.816 4.962z"/>
  <path fill="#fff" d="M173.895 85.515c.189.907 1.547 2.867 2.291 3.014-1.023.565-2.896-.62-3.686-1.342-1.202-1.099-.525-2.808-.37-3.144.035-.88 8.059-6.139 10.076-6.6-1.398 1.04-9.216 6.136-8.311 8.072z"/>
  <ellipse cx="197.978" cy="101.873" fill="#FF6B7D" rx="5.492" ry="10.54" transform="rotate(11.102 197.978 101.873)"/>
  <path fill="#fff" d="M199.8 99.955c-.233 1.937-.434 4.1-1.142 4.015-.709-.086-.566-2.356-.332-4.293.233-1.937-.087-3.468 1.196-3.313 1.284.155.512 1.654.278 3.591z"/>
  <path fill="#771824" d="M197.363 103.669c.24.677.414 1.559.648 2.569-.975-.653-1.415-1.659-1.598-2.174-.525-.584.575-5.636 1.576-7.187-.245 1.535-.795 6.32-.626 6.792z"/>
  <path fill="#fff" d="M196.124 108.117c.686.461 2.774.868 3.34.499-.301.998-2.235 1.408-3.19 1.438-1.452.047-2.084-1.468-2.194-1.779-.525-.583 1.327-8.94 2.328-10.491-.245 1.534-2.068 9.659-.284 10.333z"/>
  <ellipse cx="184.34" cy="127.55" fill="#FF6B7D" rx="5.096" ry="9.78" transform="rotate(11.102 184.34 127.55)"/>
  <path fill="#fff" d="M186.031 125.77c-.216 1.798-.403 3.804-1.06 3.725-.657-.079-.525-2.186-.308-3.983.216-1.798-.081-3.218 1.11-3.074 1.192.143.475 1.534.258 3.332z"/>
  <path fill="#771824" d="M183.769 129.216c.224.628.385 1.446.602 2.384-.905-.605-1.313-1.539-1.483-2.017-.487-.542.534-5.23 1.462-6.669-.227 1.424-.737 5.864-.581 6.302z"/>
  <path fill="#fff" d="M182.62 133.344c.637.428 2.574.805 3.1.463-.28.926-2.075 1.306-2.96 1.334-1.348.043-1.934-1.362-2.037-1.651-.487-.541 1.232-8.295 2.16-9.735-.227 1.424-1.918 8.963-.263 9.589z"/>
  <ellipse cx="188.295" cy="162.328" fill="#FF6B7D" rx="6.162" ry="11.827" transform="rotate(12.867 188.295 162.328)"/>
  <path fill="#fff" d="M190.405 160.24c-.328 2.165-.629 4.583-1.42 4.463-.791-.12-.553-2.661-.224-4.826.329-2.165.023-3.892 1.457-3.674 1.434.218.516 1.872.187 4.037z"/>
  <path fill="#771824" d="M187.543 164.321c.246.767.411 1.762.638 2.904-1.071-.766-1.529-1.909-1.717-2.494-.569-.672.84-6.301 2.016-8.005-.328 1.712-1.109 7.06-.937 7.595z"/>
  <path fill="#fff" d="M186.001 169.267c.753.541 3.081 1.07 3.729.676-.373 1.108-2.557 1.5-3.628 1.502-1.63.002-2.287-1.719-2.4-2.071-.569-.673 1.798-9.981 2.974-11.686-.328 1.712-2.653 10.762-.675 11.579z"/>
  <ellipse cx="211.505" cy="136.177" fill="#FF6B7D" rx="6.162" ry="11.827" transform="rotate(12.867 211.505 136.177)"/>
  <path fill="#fff" d="M213.615 134.089c-.329 2.164-.629 4.583-1.42 4.463-.791-.121-.553-2.662-.224-4.827.329-2.164.023-3.892 1.457-3.674 1.434.218.516 1.873.187 4.038z"/>
  <path fill="#771824" d="M210.753 138.17c.246.767.411 1.762.638 2.903-1.071-.765-1.529-1.909-1.717-2.493-.569-.673.84-6.301 2.016-8.006-.328 1.713-1.11 7.06-.937 7.596z"/>
  <path fill="#fff" d="M209.211 143.115c.753.541 3.081 1.07 3.729.676-.373 1.109-2.557 1.501-3.628 1.502-1.63.002-2.287-1.718-2.4-2.071-.569-.673 1.798-9.981 2.974-11.686-.328 1.713-2.653 10.762-.675 11.579z"/>
  <ellipse cx="224.42" cy="108.11" fill="#FF6B7D" rx="6.162" ry="11.827" transform="rotate(12.867 224.42 108.11)"/>
  <path fill="#fff" d="M226.53 106.022c-.328 2.164-.629 4.583-1.42 4.463-.791-.121-.553-2.662-.224-4.827.329-2.164.023-3.892 1.457-3.674 1.434.218.516 1.873.187 4.038z"/>
  <path fill="#771824" d="M223.668 110.103c.246.767.411 1.762.638 2.903-1.071-.765-1.529-1.909-1.717-2.493-.569-.673.84-6.301 2.016-8.006-.328 1.713-1.109 7.06-.937 7.596z"/>
  <path fill="#fff" d="M222.126 115.048c.753.541 3.081 1.07 3.729.676-.373 1.109-2.557 1.501-3.628 1.502-1.63.002-2.287-1.718-2.4-2.071-.569-.673 1.798-9.981 2.974-11.686-.328 1.713-2.653 10.762-.675 11.579z"/>
  <ellipse cx="247.381" cy="101.982" fill="#FF6B7D" rx="6.162" ry="11.827" transform="rotate(-4.088 247.381 101.982)"/>
  <path fill="#fff" d="M248.79 99.37c.317 2.166.735 4.567-.057 4.682-.792.116-1.305-2.384-1.621-4.55-.317-2.167-1.114-3.73.322-3.94 1.435-.21 1.039 1.64 1.356 3.807z"/>
  <path fill="#771824" d="M247.243 104.108c.459.662.907 1.566 1.457 2.591-1.248-.42-2.02-1.38-2.37-1.884-.74-.478-1.034-6.272-.406-8.246.185 1.734.998 7.077 1.319 7.539z"/>
  <path fill="#fff" d="M247.209 109.288c.879.298 3.26.125 3.764-.441-.032 1.169-2.007 2.181-3.031 2.495-1.559.477-2.689-.977-2.9-1.281-.74-.478-1.191-10.072-.564-12.045.186 1.733.602 11.067 2.731 11.272z"/>
  <ellipse cx="235.369" cy="155.999" fill="#FF6B7D" rx="6.162" ry="11.827" transform="rotate(12.867 235.369 155.999)"/>
  <path fill="#fff" d="M237.478 153.911c-.328 2.164-.628 4.583-1.42 4.463-.791-.121-.552-2.662-.224-4.827.329-2.164.023-3.892 1.457-3.674 1.434.218.516 1.873.187 4.038z"/>
  <path fill="#771824" d="M234.616 157.992c.247.767.411 1.762.639 2.903-1.072-.765-1.53-1.909-1.718-2.493-.569-.673.84-6.301 2.016-8.006-.328 1.713-1.109 7.06-.937 7.596z"/>
  <path fill="#fff" d="M233.074 162.937c.753.542 3.081 1.07 3.729.676-.372 1.109-2.556 1.501-3.628 1.502-1.63.002-2.286-1.718-2.4-2.071-.568-.673 1.798-9.981 2.974-11.686-.328 1.713-2.652 10.762-.675 11.579z"/>
  <ellipse cx="255.116" cy="131.489" fill="#FF6B7D" rx="6.162" ry="11.827" transform="rotate(12.867 255.116 131.489)"/>
  <path fill="#fff" d="M257.226 129.401c-.329 2.165-.629 4.583-1.42 4.463-.792-.12-.553-2.661-.224-4.826.329-2.165.023-3.892 1.457-3.674 1.434.218.516 1.872.187 4.037z"/>
  <path fill="#771824" d="M254.364 133.482c.246.767.41 1.763.638 2.904-1.071-.766-1.53-1.909-1.717-2.494-.569-.672.84-6.301 2.015-8.005-.327 1.712-1.109 7.06-.936 7.595z"/>
  <path fill="#fff" d="M252.821 138.428c.753.541 3.081 1.07 3.729.676-.372 1.108-2.556 1.5-3.627 1.502-1.631.002-2.287-1.719-2.4-2.071-.569-.673 1.798-9.981 2.973-11.686-.327 1.712-2.652 10.762-.675 11.579z"/>
  <ellipse cx="219.337" cy="187.893" fill="#FF6B7D" rx="5.365" ry="10.297" transform="rotate(12.867 219.337 187.893)"/>
  <path fill="#fff" d="M221.173 186.075c-.286 1.885-.547 3.991-1.236 3.886-.689-.105-.481-2.317-.195-4.202.286-1.885.02-3.389 1.268-3.199 1.249.19.45 1.63.163 3.515z"/>
  <path fill="#771824" d="M218.682 189.629c.214.667.357 1.534.556 2.528-.933-.667-1.332-1.663-1.496-2.171-.495-.586.732-5.486 1.755-6.971-.285 1.491-.965 6.147-.815 6.614z"/>
  <path fill="#fff" d="M217.338 193.935c.656.471 2.683.931 3.247.588-.324.965-2.226 1.307-3.158 1.308-1.42.001-1.991-1.496-2.09-1.804-.495-.585 1.565-8.69 2.589-10.174-.285 1.491-2.309 9.37-.588 10.082z"/>
  <ellipse cx="189.002" cy="194.76" fill="#FF6B7D" rx="5.735" ry="11.006" transform="rotate(12.867 189.002 194.76)"/>
  <path fill="#fff" d="M190.965 192.817c-.306 2.015-.586 4.265-1.322 4.153-.737-.111-.514-2.476-.209-4.491.306-2.014.022-3.622 1.356-3.419 1.335.203.48 1.743.175 3.757z"/>
  <path fill="#771824" d="M188.301 196.615c.23.714.383 1.64.595 2.702-.997-.712-1.424-1.776-1.598-2.32-.53-.626.781-5.864 1.875-7.45-.305 1.593-1.032 6.57-.872 7.068z"/>
  <path fill="#fff" d="M186.866 201.217c.7.504 2.867.996 3.47.629-.347 1.032-2.379 1.397-3.376 1.398-1.517.002-2.128-1.599-2.233-1.927-.53-.626 1.673-9.289 2.767-10.875-.305 1.594-2.468 10.015-.628 10.775z"/>
  <ellipse cx="160.282" cy="202.621" fill="#FF6B7D" rx="6.365" ry="12.217" transform="rotate(12.867 160.282 202.621)"/>
  <path fill="#fff" d="M162.461 200.464c-.34 2.237-.65 4.735-1.467 4.611-.818-.124-.571-2.749-.231-4.986.339-2.236.023-4.02 1.504-3.795 1.482.225.534 1.934.194 4.17z"/>
  <path fill="#771824" d="M159.505 204.68c.255.793.424 1.82.659 3-1.106-.791-1.58-1.973-1.774-2.576-.587-.695.868-6.509 2.083-8.27-.339 1.769-1.146 7.293-.968 7.846z"/>
  <path fill="#fff" d="M157.911 209.789c.778.559 3.183 1.105 3.852.698-.384 1.145-2.64 1.55-3.747 1.551-1.684.002-2.362-1.774-2.479-2.139-.588-.695 1.857-10.31 3.071-12.071-.338 1.769-2.739 11.117-.697 11.961z"/>
  <ellipse cx="131.668" cy="211.502" fill="#FF6B7D" rx="6.694" ry="12.847" transform="rotate(32.691 131.668 211.502)"/>
  <path fill="#fff" d="M134.594 210.145c-1.134 2.091-2.331 4.452-3.096 4.037-.764-.414.416-2.923 1.549-5.014 1.134-2.091 1.457-3.968 2.842-3.217 1.386.751-.162 2.103-1.295 4.194z"/>
  <path fill="#771824" d="M130.166 213.261c-.031.875-.23 1.952-.417 3.203-.813-1.177-.86-2.515-.837-3.181-.333-.897 3.18-6.129 5.009-7.438-.966 1.629-3.734 6.806-3.755 7.416z"/>
  <path fill="#fff" d="M126.768 217.747c.57.83 2.754 2.228 3.561 2.064-.789.996-3.165.592-4.26.199-1.667-.599-1.704-2.599-1.689-3.001-.334-.897 5.513-9.537 7.343-10.846-.966 1.629-6.675 10.02-4.955 11.584z"/>
  <ellipse cx="109.83" cy="234.05" fill="#FF6B7D" rx="5.282" ry="10.137" transform="rotate(13.682 109.83 234.05)"/>
  <path fill="#fff" d="M111.663 232.286c-.308 1.851-.595 3.92-1.272 3.808-.676-.113-.441-2.288-.133-4.139.308-1.851.067-3.335 1.294-3.131 1.226.204.419 1.611.111 3.462z"/>
  <path fill="#771824" d="M109.161 235.749c.202.661.331 1.516.512 2.497-.909-.67-1.288-1.655-1.442-2.159-.479-.583.797-5.389 1.825-6.836-.301 1.464-1.036 6.037-.895 6.498z"/>
  <path fill="#fff" d="M107.778 239.969c.639.473 2.628.954 3.188.624-.333.946-2.209 1.256-3.127 1.244-1.398-.019-1.939-1.501-2.032-1.805-.479-.583 1.662-8.532 2.691-9.979-.302 1.464-2.404 9.191-.72 9.916z"/>
  <ellipse cx="95.075" cy="218.327" fill="#FF6B7D" rx="5.282" ry="10.137" transform="rotate(13.682 95.075 218.327)"/>
  <path fill="#fff" d="M96.908 216.563c-.308 1.851-.595 3.921-1.272 3.808-.676-.113-.44-2.288-.132-4.139.308-1.851.066-3.335 1.293-3.131 1.226.204.42 1.611.111 3.462z"/>
  <path fill="#771824" d="M94.406 220.026c.202.661.33 1.516.512 2.497-.909-.67-1.288-1.655-1.442-2.158-.479-.584.797-5.39 1.826-6.837-.302 1.464-1.037 6.037-.896 6.498z"/>
  <path fill="#fff" d="M93.023 224.246c.64.473 2.628.954 3.188.624-.333.946-2.21 1.256-3.127 1.244-1.398-.018-1.94-1.501-2.032-1.805-.48-.583 1.662-8.532 2.69-9.979-.301 1.464-2.403 9.192-.719 9.916z"/>
  <ellipse cx="76.403" cy="222.728" fill="#FF6B7D" rx="6.593" ry="12.653" transform="rotate(13.682 76.403 222.728)"/>
  <path fill="#fff" d="M78.691 220.526c-.384 2.311-.742 4.894-1.587 4.753-.845-.14-.55-2.855-.166-5.166.385-2.311.084-4.163 1.614-3.909 1.531.255.524 2.011.14 4.322z"/>
  <path fill="#771824" d="M75.568 224.849c.252.824.413 1.891.64 3.116-1.135-.835-1.608-2.066-1.8-2.694-.599-.728.994-6.727 2.278-8.533-.377 1.827-1.294 7.536-1.118 8.111z"/>
  <path fill="#fff" d="M73.842 230.116c.798.591 3.28 1.191 3.98.78-.416 1.18-2.758 1.566-3.904 1.552-1.745-.023-2.42-1.873-2.536-2.253-.598-.728 2.075-10.65 3.358-12.456-.376 1.827-3 11.473-.898 12.377z"/>
  <ellipse cx="74.378" cy="255.811" fill="#FF6B7D" rx="6.147" ry="11.797" transform="rotate(13.682 74.378 255.811)"/>
  <path fill="#fff" d="M76.512 253.758c-.359 2.154-.692 4.562-1.48 4.431-.788-.131-.513-2.662-.155-4.817.359-2.154.078-3.881 1.505-3.643 1.428.237.488 1.874.13 4.029z"/>
  <path fill="#771824" d="M73.6 257.788c.235.769.385 1.764.596 2.905-1.058-.779-1.499-1.926-1.678-2.511-.558-.679.927-6.273 2.124-7.956-.351 1.703-1.206 7.026-1.042 7.562z"/>
  <path fill="#fff" d="M71.99 262.699c.744.55 3.059 1.11 3.71.727-.387 1.1-2.57 1.46-3.639 1.446-1.626-.021-2.256-1.746-2.364-2.099-.558-.679 1.934-9.93 3.131-11.613-.351 1.703-2.798 10.696-.837 11.539z"/>
  <ellipse cx="91.699" cy="254.74" fill="#FF6B7D" rx="5.728" ry="10.992" transform="rotate(13.682 91.7 254.74)"/>
  <path fill="#fff" d="M93.688 252.828c-.335 2.007-.645 4.251-1.38 4.128-.733-.122-.478-2.48-.144-4.488.334-2.007.073-3.616 1.403-3.395 1.33.222.455 1.747.12 3.755z"/>
  <path fill="#771824" d="M90.974 256.583c.22.716.359 1.643.555 2.707-.985-.726-1.396-1.795-1.563-2.34-.52-.633.864-5.845 1.98-7.414-.328 1.587-1.125 6.547-.972 7.047z"/>
  <path fill="#fff" d="M89.475 261.159c.693.512 2.85 1.034 3.457.677-.361 1.025-2.396 1.361-3.392 1.348-1.515-.02-2.102-1.627-2.203-1.957-.52-.632 1.803-9.252 2.918-10.821-.327 1.588-2.607 9.967-.78 10.753z"/>
  <ellipse cx="117.896" cy="260.767" fill="#FF6B7D" rx="5.728" ry="10.992" transform="rotate(13.682 117.896 260.767)"/>
  <path fill="#fff" d="M119.885 258.854c-.334 2.007-.645 4.251-1.379 4.129-.734-.122-.479-2.481-.145-4.488.334-2.008.073-3.617 1.403-3.396 1.33.222.455 1.747.121 3.755z"/>
  <path fill="#771824" d="M117.171 262.609c.219.716.359 1.643.555 2.707-.985-.726-1.396-1.794-1.563-2.34-.52-.633.864-5.845 1.979-7.413-.327 1.587-1.124 6.546-.971 7.046z"/>
  <path fill="#fff" d="M115.672 267.185c.693.513 2.849 1.035 3.457.677-.361 1.025-2.396 1.361-3.392 1.348-1.515-.02-2.102-1.627-2.202-1.956-.52-.633 1.802-9.252 2.917-10.821-.327 1.587-2.607 9.966-.78 10.752z"/>
  <ellipse cx="151.356" cy="239.304" fill="#FF6B7D" rx="6.753" ry="12.961" transform="rotate(32.396 151.356 239.304)"/>
  <path fill="#fff" d="M154.3 237.92c-1.133 2.115-2.329 4.503-3.102 4.089-.773-.414.404-2.951 1.537-5.067 1.132-2.115 1.449-4.011 2.85-3.261 1.402.751-.153 2.123-1.285 4.239z"/>
  <path fill="#771824" d="M149.849 241.087c-.026.883-.221 1.971-.404 3.233-.826-1.183-.881-2.532-.86-3.205-.341-.903 3.175-6.2 5.014-7.53-.966 1.649-3.732 6.886-3.75 7.502z"/>
  <path fill="#fff" d="M146.444 245.63c.58.835 2.791 2.233 3.604 2.064-.79 1.008-3.19.613-4.297.222-1.685-.595-1.732-2.612-1.72-3.018-.341-.903 5.513-9.651 7.352-10.981-.966 1.649-6.682 10.144-4.939 11.713z"/>
  <ellipse cx="141.191" cy="275.583" fill="#FF6B7D" rx="5.101" ry="9.789" transform="rotate(27.207 141.191 275.583)"/>
  <path fill="#fff" d="M143.311 274.341c-.707 1.669-1.444 3.547-2.054 3.288-.61-.259.103-2.248.81-3.916.707-1.669.816-3.117 1.922-2.648 1.105.469.03 1.607-.678 3.276z"/>
  <path fill="#771824" d="M140.18 277.028c.04.665-.032 1.497-.084 2.459-.702-.834-.835-1.844-.866-2.352-.318-.656 1.966-4.88 3.258-6.006-.614 1.306-2.337 5.434-2.308 5.899z"/>
  <path fill="#fff" d="M137.929 280.677c.493.589 2.252 1.49 2.852 1.306-.526.813-2.358.68-3.217.461-1.308-.332-1.482-1.846-1.5-2.152-.318-.656 3.488-7.636 4.78-8.762-.614 1.306-4.333 8.086-2.915 9.147z"/>
  <ellipse cx="166.364" cy="260.999" fill="#FF6B7D" rx="6.426" ry="12.333" transform="rotate(30.93 166.364 260.999)"/>
  <path fill="#fff" d="M169.131 259.611c-1.026 2.04-2.106 4.34-2.851 3.965-.746-.375.312-2.817 1.338-4.857s1.281-3.851 2.632-3.171c1.352.679-.094 2.023-1.119 4.063z"/>
  <path fill="#771824" d="M164.974 262.732c-.004.841-.163 1.88-.306 3.086-.814-1.106-.899-2.388-.896-3.028-.347-.851 2.869-5.975 4.586-7.285-.878 1.592-3.382 6.641-3.384 7.227z"/>
  <path fill="#fff" d="M161.846 267.136c.571.78 2.708 2.057 3.478 1.876-.727.978-3.019.661-4.082.316-1.617-.525-1.711-2.443-1.71-2.829-.346-.851 5.01-9.314 6.727-10.624-.879 1.592-6.109 9.812-4.413 11.261z"/>
  <ellipse cx="161.813" cy="293.218" fill="#FF6B7D" rx="6.426" ry="12.333" transform="rotate(27.739 161.813 293.218)"/>
  <path fill="#fff" d="M164.498 291.678c-.91 2.093-1.86 4.451-2.626 4.118-.765-.333.156-2.831 1.066-4.924.911-2.094 1.065-3.917 2.452-3.314 1.387.604.019 2.026-.892 4.12z"/>
  <path fill="#771824" d="M160.522 295.026c.043.839-.058 1.886-.134 3.097-.875-1.058-1.031-2.334-1.063-2.973-.394-.83 2.532-6.126 4.174-7.529-.789 1.638-3.008 6.819-2.977 7.405z"/>
  <path fill="#fff" d="M157.643 299.597c.615.747 2.82 1.903 3.578 1.679-.672 1.018-2.978.829-4.058.543-1.644-.434-1.845-2.344-1.865-2.73-.393-.83 4.483-9.578 6.125-10.982-.789 1.639-5.554 10.137-3.78 11.49z"/>
  <ellipse cx="139.691" cy="302.656" fill="#FF6B7D" rx="5.557" ry="10.665" transform="rotate(27.739 139.691 302.656)"/>
  <path fill="#fff" d="M142.013 301.324c-.787 1.811-1.609 3.849-2.27 3.561-.662-.288.134-2.447.921-4.258.788-1.81.921-3.387 2.12-2.865 1.2.522.017 1.752-.771 3.562z"/>
  <path fill="#771824" d="M138.574 304.219c.038.726-.049 1.631-.115 2.679-.756-.915-.891-2.018-.92-2.571-.34-.718 2.191-5.297 3.61-6.511-.682 1.417-2.601 5.897-2.575 6.403z"/>
  <path fill="#fff" d="M136.085 308.172c.531.646 2.438 1.646 3.094 1.452-.581.88-2.575.717-3.509.47-1.422-.376-1.595-2.027-1.612-2.361-.341-.718 3.876-8.283 5.296-9.496-.683 1.416-4.803 8.765-3.269 9.935z"/>
  <ellipse cx="115.031" cy="291.544" fill="#FF6B7D" rx="5.557" ry="10.665" transform="rotate(31.341 115.031 291.544)"/>
  <path fill="#fff" d="M117.431 290.36c-.899 1.758-1.847 3.741-2.49 3.412-.642-.329.288-2.435 1.188-4.192.9-1.758 1.131-3.322 2.296-2.726 1.164.596-.094 1.749-.994 3.506z"/>
  <path fill="#771824" d="M113.818 293.034c-.009.726-.152 1.624-.284 2.666-.697-.961-.763-2.07-.756-2.624-.294-.738 2.519-5.149 4.011-6.271-.769 1.371-2.966 5.722-2.971 6.229z"/>
  <path fill="#fff" d="M111.086 296.822c.489.678 2.329 1.796 2.996 1.644-.635.842-2.615.553-3.532.248-1.395-.464-1.465-2.123-1.461-2.457-.294-.738 4.39-8.023 5.882-9.145-.769 1.371-5.343 8.446-3.885 9.71z"/>
  <ellipse cx="98.015" cy="281.713" fill="#FF6B7D" rx="4.39" ry="8.426" transform="rotate(1.09 98.015 281.713)"/>
  <path fill="#fff" d="M99.183 279.949c.085 1.558.227 3.288-.342 3.32-.57.031-.772-1.776-.858-3.334-.086-1.558-.55-2.718.482-2.774 1.032-.057.632 1.231.718 2.788z"/>
  <path fill="#771824" d="M97.78 283.212c.284.499.543 1.17.868 1.933-.858-.379-1.344-1.11-1.56-1.49-.495-.386-.33-4.517.241-5.877.02 1.242.254 5.086.452 5.434z"/>
  <path fill="#fff" d="M97.424 286.886c.603.268 2.304.298 2.699-.072-.099.828-1.565 1.419-2.312 1.576-1.137.238-1.845-.866-1.975-1.096-.495-.386-.198-7.222.374-8.583.02 1.243-.284 7.892 1.214 8.175z"/>
  <ellipse cx="80.07" cy="284.695" fill="#FF6B7D" rx="6.21" ry="11.918" transform="rotate(1.09 80.07 284.695)"/>
  <path fill="#fff" d="M81.722 282.201c.12 2.203.322 4.651-.483 4.695-.806.044-1.093-2.512-1.214-4.715s-.778-3.844.681-3.924c1.46-.08.895 1.741 1.016 3.944z"/>
  <path fill="#771824" d="M79.739 286.817c.4.706.767 1.654 1.227 2.733-1.214-.535-1.902-1.569-2.207-2.107-.7-.547-.468-6.389.341-8.313.03 1.757.359 7.194.639 7.687z"/>
  <path fill="#fff" d="M79.234 292.013c.854.379 3.26.421 3.818-.101-.14 1.17-2.214 2.007-3.27 2.228-1.608.338-2.61-1.225-2.794-1.549-.7-.547-.28-10.217.53-12.141.029 1.757-.403 11.163 1.716 11.563z"/>
  <ellipse cx="92.231" cy="308.769" fill="#FF6B7D" rx="2.819" ry="5.411" transform="rotate(-10.225 92.231 308.769)"/>
  <path fill="#fff" d="M92.744 307.511c.25.97.558 2.042.203 2.134-.354.091-.71-1.021-.96-1.991-.25-.97-.689-1.642-.046-1.808.643-.166.553.695.803 1.665z"/>
  <path fill="#771824" d="M92.273 309.743c.241.278.489.668.79 1.107-.589-.13-.987-.529-1.17-.741-.361-.181-.778-2.802-.59-3.731.17.78.801 3.17.97 3.365z"/>
  <path fill="#fff" d="M92.51 312.101c.415.092 1.49-.103 1.691-.385.043.533-.806 1.09-1.257 1.283-.686.293-1.27-.313-1.381-.441-.36-.181-1.035-4.523-.846-5.451.17.779.815 5.005 1.794 4.994z"/>
  <ellipse cx="119.18" cy="317.792" fill="#FF6B7D" rx="5.407" ry="10.377" transform="rotate(34.886 119.18 317.792)"/>
  <path fill="#fff" d="M121.583 316.787c-.98 1.653-2.02 3.522-2.624 3.163-.604-.358.426-2.346 1.406-3.999.979-1.652 1.298-3.158 2.393-2.509 1.095.649-.196 1.693-1.175 3.345z"/>
  <path fill="#771824" d="M117.913 319.166c-.052.705-.245 1.569-.436 2.572-.619-.975-.616-2.056-.576-2.593-.242-.735 2.755-4.849 4.273-5.849-.83 1.285-3.225 5.378-3.261 5.87z"/>
  <path fill="#fff" d="M115.031 322.681c.435.688 2.154 1.884 2.811 1.776-.667.78-2.573.38-3.445.029-1.326-.535-1.294-2.15-1.27-2.474-.242-.734 4.745-7.527 6.262-8.527-.83 1.285-5.697 7.881-4.358 9.196z"/>
  <ellipse cx="151.735" cy="317.341" fill="#FF6B7D" rx="4.67" ry="8.963" transform="rotate(49.959 151.735 317.341)"/>
  <path fill="#fff" d="M153.964 317.043c-1.188 1.159-2.475 2.484-2.898 2.049-.424-.434.882-1.861 2.07-3.02 1.188-1.158 1.793-2.342 2.56-1.555.768.787-.544 1.368-1.732 2.526z"/>
  <path fill="#771824" d="M150.369 318.203c-.202.576-.557 1.253-.941 2.047-.298-.952-.052-1.853.101-2.292-.036-.667 3.388-3.426 4.878-3.919-.981.886-3.897 3.762-4.038 4.164z"/>
  <path fill="#fff" d="M147.176 320.487c.208.672 1.374 2.055 1.945 2.113-.731.5-2.231-.261-2.879-.75-.987-.744-.597-2.084-.504-2.349-.037-.666 5.648-5.212 7.138-5.705-.981.885-6.522 5.293-5.7 6.691z"/>
  <ellipse cx="189.461" cy="297.644" fill="#FF6B7D" rx="6.077" ry="11.664" transform="rotate(61.969 189.461 297.644)"/>
  <path fill="#fff" d="M192.378 297.868c-1.825 1.153-3.822 2.49-4.244 1.823-.421-.668 1.628-2.13 3.453-3.283 1.826-1.153 2.916-2.496 3.68-1.287.764 1.21-1.063 1.594-2.889 2.747z"/>
  <path fill="#771824" d="M187.488 298.371c-.412.679-1.048 1.444-1.752 2.351-.121-1.293.436-2.374.75-2.891.134-.858 5.239-3.442 7.269-3.666-1.488.861-5.979 3.731-6.267 4.206z"/>
  <path fill="#fff" d="M182.807 300.413c.082.911 1.192 2.988 1.904 3.216-1.067.438-2.77-.936-3.462-1.734-1.055-1.214-.196-2.814-.006-3.126.134-.859 8.601-5.105 10.631-5.329-1.488.861-9.735 4.972-9.067 6.973z"/>
  <ellipse cx="188.416" cy="269.886" fill="#FF6B7D" rx="6.077" ry="11.664" transform="rotate(31.125 188.416 269.886)"/>
  <path fill="#fff" d="M191.036 268.582c-.977 1.926-2.005 4.098-2.709 3.741-.704-.357.305-2.663 1.281-4.589.977-1.926 1.224-3.638 2.5-2.991 1.276.648-.095 1.913-1.072 3.839z"/>
  <path fill="#771824" d="M187.095 271.521c-.006.795-.159 1.777-.299 2.917-.766-1.048-.843-2.261-.838-2.866-.325-.806 2.734-5.642 4.362-6.875-.837 1.502-3.221 6.269-3.225 6.824z"/>
  <path fill="#fff" d="M184.123 275.675c.538.74 2.555 1.954 3.283 1.785-.691.923-2.857.616-3.861.286-1.528-.502-1.611-2.316-1.608-2.681-.325-.806 4.768-8.792 6.396-10.026-.837 1.503-5.809 9.26-4.21 10.636z"/>
  <ellipse cx="214.719" cy="275.809" fill="#FF6B7D" rx="6.077" ry="11.664" transform="rotate(31.125 214.719 275.809)"/>
  <path fill="#fff" d="M217.339 274.505c-.977 1.926-2.005 4.098-2.709 3.741-.704-.357.304-2.663 1.281-4.589.977-1.926 1.224-3.638 2.5-2.991 1.276.647-.095 1.913-1.072 3.839z"/>
  <path fill="#771824" d="M213.398 277.444c-.006.794-.16 1.777-.299 2.917-.767-1.049-.843-2.261-.838-2.867-.325-.805 2.733-5.641 4.361-6.874-.836 1.502-3.22 6.269-3.224 6.824z"/>
  <path fill="#fff" d="M210.425 281.598c.539.74 2.556 1.954 3.284 1.785-.691.923-2.858.616-3.861.286-1.528-.502-1.611-2.316-1.608-2.681-.325-.806 4.767-8.792 6.395-10.026-.836 1.503-5.809 9.26-4.21 10.636z"/>
  <ellipse cx="217.402" cy="248.513" fill="#FF6B7D" rx="6.077" ry="11.664" transform="rotate(31.125 217.402 248.513)"/>
  <path fill="#fff" d="M220.022 247.209c-.977 1.926-2.005 4.098-2.709 3.741-.704-.357.305-2.663 1.281-4.589.977-1.925 1.224-3.638 2.5-2.991 1.276.648-.095 1.914-1.072 3.839z"/>
  <path fill="#771824" d="M216.081 250.148c-.006.795-.159 1.777-.299 2.917-.766-1.048-.843-2.261-.838-2.866-.325-.806 2.733-5.642 4.361-6.875-.836 1.502-3.22 6.269-3.224 6.824z"/>
  <path fill="#fff" d="M213.109 254.302c.538.74 2.555 1.954 3.283 1.785-.691.924-2.858.616-3.861.286-1.528-.502-1.611-2.315-1.608-2.681-.325-.805 4.767-8.792 6.395-10.025-.836 1.502-5.809 9.259-4.209 10.635z"/>
  <ellipse cx="185.599" cy="230.753" fill="#FF6B7D" rx="6.077" ry="11.664" transform="rotate(31.125 185.599 230.753)"/>
  <path fill="#fff" d="M188.219 229.45c-.977 1.926-2.005 4.098-2.709 3.741-.704-.357.305-2.663 1.281-4.589.977-1.926 1.224-3.638 2.5-2.991 1.276.647-.095 1.913-1.072 3.839z"/>
  <path fill="#771824" d="M184.278 232.389c-.006.794-.159 1.777-.299 2.916-.766-1.048-.843-2.26-.838-2.866-.325-.806 2.734-5.641 4.362-6.875-.837 1.503-3.221 6.27-3.225 6.825z"/>
  <path fill="#fff" d="M181.306 236.543c.538.739 2.555 1.954 3.283 1.785-.691.923-2.858.616-3.861.286-1.528-.502-1.611-2.316-1.608-2.681-.325-.806 4.767-8.793 6.395-10.026-.836 1.502-5.809 9.26-4.209 10.636z"/>
  <ellipse cx="222.588" cy="214.765" fill="#FF6B7D" rx="6.077" ry="11.664" transform="rotate(14.145 222.588 214.765)"/>
  <path fill="#fff" d="M224.714 212.753c-.372 2.127-.721 4.505-1.499 4.369-.778-.136-.486-2.636-.115-4.763.372-2.127.108-3.837 1.518-3.591 1.409.247.467 1.858.096 3.985z"/>
  <path fill="#771824" d="M221.803 216.714c.226.762.366 1.747.566 2.877-1.04-.778-1.467-1.916-1.639-2.496-.546-.676.967-6.194 2.164-7.849-.361 1.681-1.249 6.937-1.091 7.468z"/>
  <path fill="#fff" d="M220.173 221.556c.731.55 3.014 1.122 3.662.748-.392 1.085-2.553 1.424-3.61 1.401-1.607-.034-2.216-1.744-2.32-2.094-.546-.676 1.991-9.802 3.188-11.457-.361 1.681-2.851 10.553-.92 11.402z"/>
  <ellipse cx="249.423" cy="201.796" fill="#FF6B7D" rx="6.667" ry="12.794" transform="rotate(4.677 249.423 201.796)"/>
  <path fill="#fff" d="M251.36 199.236c-.019 2.368.033 5.004-.833 4.998-.866-.007-1.002-2.765-.984-5.134.019-2.368-.575-4.171.994-4.158 1.569.012.841 1.925.823 4.294z"/>
  <path fill="#771824" d="M248.925 204.048c.383.783.712 1.823 1.132 3.011-1.265-.655-1.933-1.809-2.224-2.406-.713-.633-.072-6.876.925-8.883-.087 1.884-.1 7.731.167 8.278z"/>
  <path fill="#fff" d="M248.036 209.58c.889.463 3.464.67 4.097.149-.228 1.244-2.506 2.001-3.653 2.167-1.746.254-2.714-1.487-2.889-1.847-.713-.633.386-10.965 1.383-12.972-.087 1.884-1.182 11.933 1.062 12.503z"/>
  <ellipse cx="240.013" cy="225.532" fill="#FF6B7D" rx="4.618" ry="8.864" transform="rotate(16.446 240.013 225.532)"/>
  <path fill="#fff" d="M241.688 224.069c-.347 1.604-.685 3.399-1.271 3.272-.586-.127-.289-2.017.058-3.621.348-1.604.199-2.91 1.262-2.68 1.063.23.298 1.425-.049 3.029z"/>
  <path fill="#771824" d="M239.357 226.988c.149.586.225 1.338.342 2.202-.765-.623-1.055-1.499-1.168-1.945-.394-.53.923-4.674 1.882-5.894-.325 1.265-1.16 5.229-1.056 5.637z"/>
  <path fill="#fff" d="M237.972 230.615c.538.44 2.255.944 2.758.68-.33.811-1.982 1.003-2.784.954-1.219-.075-1.63-1.393-1.698-1.662-.394-.53 1.811-7.382 2.771-8.602-.326 1.266-2.487 7.926-1.047 8.63z"/>
  <ellipse cx="240.602" cy="253.739" fill="#FF6B7D" rx="5.405" ry="10.372" transform="rotate(25.646 240.602 253.739)"/>
  <path fill="#fff" d="M242.811 252.362c-.701 1.788-1.427 3.798-2.081 3.542-.653-.257.044-2.384.745-4.172.701-1.787.774-3.324 1.959-2.86 1.184.465.078 1.702-.623 3.49z"/>
  <path fill="#771824" d="M239.572 255.298c.062.704.009 1.587-.017 2.608-.768-.863-.938-1.93-.986-2.466-.356-.686 1.941-5.227 3.277-6.457-.612 1.401-2.318 5.824-2.274 6.315z"/>
  <path fill="#fff" d="M237.293 259.228c.54.609 2.428 1.513 3.059 1.302-.534.876-2.478.787-3.394.581-1.395-.315-1.623-1.914-1.651-2.237-.356-.686 3.473-8.188 4.81-9.418-.613 1.401-4.356 8.69-2.824 9.772z"/>
  <ellipse cx="242.581" cy="273.109" fill="#FF6B7D" rx="4.322" ry="8.295" transform="rotate(47.636 242.581 273.109)"/>
  <path fill="#fff" d="M244.631 272.75c-1.056 1.115-2.196 2.389-2.604 2.003-.408-.386.746-1.754 1.802-2.87 1.055-1.116 1.569-2.233 2.309-1.534.739.699-.452 1.285-1.507 2.401z"/>
  <path fill="#771824" d="M241.35 273.957c-.165.541-.468 1.18-.794 1.929-.311-.87-.118-1.712.008-2.124-.059-.615 3.004-3.295 4.364-3.806-.874.855-3.463 3.624-3.578 4.001z"/>
  <path fill="#fff" d="M238.483 276.189c.217.613 1.347 1.849 1.878 1.881-.658.49-2.073-.158-2.691-.585-.94-.651-.63-1.905-.554-2.154-.059-.615 5.028-5.031 6.387-5.543-.874.855-5.832 5.14-5.02 6.401z"/>
  <ellipse cx="262.481" cy="230.051" fill="#FF6B7D" rx="6.937" ry="13.314" transform="rotate(11.48 262.481 230.051)"/>
  <path fill="#fff" d="M264.798 227.644c-.311 2.445-.583 5.176-1.477 5.062-.894-.114-.694-2.98-.383-5.426.311-2.445-.081-4.381 1.539-4.174 1.62.206.632 2.093.321 4.538z"/>
  <path fill="#771824" d="M261.688 232.316c.299.857.511 1.972.798 3.251-1.226-.833-1.774-2.107-2.001-2.76-.658-.741.774-7.114 2.051-9.065-.322 1.937-1.056 7.976-.848 8.574z"/>
  <path fill="#fff" d="M260.088 237.923c.862.589 3.497 1.12 4.215.659-.389 1.258-2.836 1.759-4.042 1.79-1.835.046-2.62-1.872-2.757-2.266-.659-.742 1.751-11.282 3.028-13.233-.322 1.936-2.692 12.184-.444 13.05z"/>
  <ellipse cx="282.044" cy="215.44" fill="#FF6B7D" rx="5.391" ry="10.346" transform="rotate(11.48 282.044 215.44)"/>
  <path fill="#fff" d="M283.844 213.57c-.241 1.9-.453 4.022-1.147 3.933-.695-.088-.54-2.316-.298-4.216.241-1.9-.063-3.404 1.196-3.244 1.259.16.491 1.627.249 3.527z"/>
  <path fill="#771824" d="M281.428 217.201c.232.665.397 1.532.62 2.526-.953-.648-1.378-1.638-1.555-2.145-.512-.576.601-5.528 1.593-7.044-.25 1.505-.82 6.198-.658 6.663z"/>
  <path fill="#fff" d="M280.184 221.557c.67.458 2.717.871 3.276.512-.302.978-2.204 1.367-3.141 1.391-1.426.036-2.036-1.454-2.143-1.761-.511-.576 1.361-8.767 2.353-10.282-.25 1.504-2.091 9.468-.345 10.14z"/>
  <ellipse cx="274.702" cy="195.994" fill="#FF6B7D" rx="5.391" ry="10.346" transform="rotate(4.857 274.702 195.994)"/>
  <path fill="#fff" d="M276.275 193.928c-.021 1.915.014 4.047-.686 4.039-.7-.007-.803-2.238-.783-4.153.021-1.915-.454-3.374.815-3.36 1.269.014.675 1.559.654 3.474z"/>
  <path fill="#771824" d="M274.294 197.813c.307.635.57 1.477.907 2.438-1.022-.533-1.558-1.468-1.792-1.951-.575-.514-.041-5.561.77-7.181-.075 1.523-.1 6.251.115 6.694z"/>
  <path fill="#fff" d="M273.56 202.284c.719.377 2.8.551 3.313.131-.187 1.006-2.031 1.612-2.959 1.744-1.413.2-2.191-1.21-2.332-1.502-.574-.513.341-8.865 1.152-10.486-.076 1.524-.986 9.646.826 10.113z"/>
  <ellipse cx="295.11" cy="223.742" fill="#FF6B7D" rx="4.487" ry="8.611" transform="rotate(14.664 295.11 223.742)"/>
  <path fill="#fff" d="M296.693 222.271c-.289 1.568-.563 3.321-1.136 3.216-.573-.106-.341-1.95-.053-3.517.289-1.568.106-2.832 1.144-2.641 1.039.191.333 1.375.045 2.942z"/>
  <path fill="#771824" d="M294.517 225.177c.162.563.259 1.291.398 2.127-.762-.582-1.069-1.424-1.193-1.854-.398-.502.755-4.566 1.65-5.78-.278 1.239-.968 5.113-.855 5.507z"/>
  <path fill="#fff" d="M293.282 228.74c.536.411 2.218.848 2.698.576-.296.799-1.894 1.034-2.674 1.011-1.186-.036-1.624-1.303-1.699-1.562-.398-.503 1.536-7.222 2.431-8.436-.278 1.239-2.176 7.771-.756 8.411z"/>
  <ellipse cx="277.955" cy="240.201" fill="#FF6B7D" rx="5.484" ry="10.526" transform="rotate(26.01 277.955 240.201)"/>
  <path fill="#fff" d="M280.205 238.818c-.723 1.81-1.472 3.845-2.134 3.581-.661-.265.06-2.419.783-4.228.723-1.81.807-3.369 2.006-2.89 1.199.479.068 1.727-.655 3.537z"/>
  <path fill="#771824" d="M276.899 241.777c.059.715-.001 1.61-.034 2.646-.774-.881-.94-1.965-.984-2.509-.357-.698 2.003-5.291 3.367-6.53-.631 1.417-2.39 5.894-2.349 6.393z"/>
  <path fill="#fff" d="M274.562 245.75c.543.622 2.454 1.551 3.095 1.34-.547.886-2.519.784-3.448.568-1.413-.328-1.634-1.952-1.661-2.28-.356-.699 3.578-8.287 4.942-9.527-.63 1.418-4.476 8.791-2.928 9.899z"/>
  <ellipse cx="293.778" cy="192.171" fill="#FF6B7D" rx="5.484" ry="10.526" transform="rotate(1.452 293.778 192.171)"/>
  <path fill="#fff" d="M295.25 189.978c.095 1.947.259 4.11-.453 4.144-.711.035-.95-2.224-1.045-4.171-.095-1.946-.666-3.399.624-3.462 1.289-.062.78 1.543.874 3.489z"/>
  <path fill="#771824" d="M293.473 194.044c.351.626.669 1.465 1.069 2.421-1.07-.48-1.671-1.397-1.938-1.873-.614-.487-.377-5.645.349-7.34.015 1.552.276 6.355.52 6.792z"/>
  <path fill="#fff" d="M292.999 198.629c.752.339 2.876.39 3.372-.068-.129 1.033-1.965 1.76-2.9 1.95-1.422.289-2.297-1.096-2.458-1.384-.615-.487-.19-9.024.535-10.718.016 1.551-.418 9.855 1.451 10.22z"/>
  <ellipse cx="307.032" cy="195.464" fill="#FF6B7D" rx="3.899" ry="7.482" transform="rotate(13.078 307.032 195.464)"/>
  <path fill="#fff" d="M308.371 194.148c-.213 1.368-.409 2.898-.909 2.82-.501-.078-.344-1.685-.131-3.054.213-1.369.024-2.462.93-2.321.907.141.323 1.186.11 2.555z"/>
  <path fill="#771824" d="M306.551 196.724c.154.485.256 1.115.397 1.838-.676-.487-.963-1.211-1.081-1.582-.358-.426.546-3.984 1.294-5.059-.211 1.082-.718 4.463-.61 4.803z"/>
  <path fill="#fff" d="M305.564 199.848c.475.344 1.947.684 2.358.436-.238.701-1.621.944-2.299.942-1.031-.003-1.442-1.092-1.513-1.316-.359-.427 1.16-6.31 1.908-7.386-.211 1.083-1.703 6.802-.454 7.324z"/>
  <ellipse cx="309.753" cy="174.842" fill="#FF6B7D" rx="4.809" ry="9.23" transform="rotate(1.394 309.753 174.842)"/>
  <path fill="#fff" d="M311.042 172.919c.085 1.706.231 3.603-.393 3.634-.624.03-.836-1.95-.921-3.657-.084-1.707-.587-2.98.544-3.036 1.131-.056.685 1.352.77 3.059z"/>
  <path fill="#771824" d="M309.487 176.485c.308.548.588 1.284.939 2.121-.938-.419-1.466-1.222-1.701-1.64-.539-.427-.335-4.95.299-6.436.015 1.36.248 5.572.463 5.955z"/>
  <path fill="#fff" d="M309.075 180.506c.66.297 2.523.34 2.957-.062-.112.905-1.722 1.545-2.541 1.712-1.247.254-2.016-.959-2.157-1.212-.54-.426-.175-7.913.46-9.399.015 1.361-.358 8.643 1.281 8.961z"/>
  <ellipse cx="282.045" cy="159.839" fill="#FF6B7D" rx="7.225" ry="13.866" transform="rotate(1.394 282.045 159.839)"/>
  <path fill="#fff" d="M283.981 156.949c.127 2.564.347 5.413-.591 5.459-.937.046-1.255-2.929-1.383-5.493-.127-2.564-.881-4.477.818-4.561 1.698-.085 1.029 2.031 1.156 4.595z"/>
  <path fill="#771824" d="M281.645 162.306c.463.824.883 1.929 1.411 3.187-1.409-.63-2.203-1.836-2.555-2.464-.81-.641-.504-7.436.45-9.669.022 2.044.372 8.371.694 8.946z"/>
  <path fill="#fff" d="M281.026 168.347c.992.446 3.79.51 4.443-.093-.169 1.36-2.587 2.32-3.818 2.572-1.873.382-3.028-1.441-3.24-1.82-.811-.641-.263-11.888.691-14.121.022 2.044-.538 12.984 1.924 13.462z"/>
  <ellipse cx="260.681" cy="168.094" fill="#FF6B7D" rx="7.225" ry="13.866" transform="rotate(10.976 260.681 168.094)"/>
  <path fill="#fff" d="M263.071 165.567c-.301 2.549-.559 5.395-1.491 5.284-.932-.11-.751-3.097-.449-5.646.301-2.549-.124-4.562 1.565-4.362 1.689.2.677 2.174.375 4.724z"/>
  <path fill="#771824" d="M259.876 170.461c.319.889.55 2.049.861 3.377-1.285-.856-1.867-2.178-2.109-2.855-.693-.767.74-7.416 2.052-9.459-.318 2.019-1.027 8.316-.804 8.937z"/>
  <path fill="#fff" d="M258.261 176.314c.903.605 3.651 1.134 4.395.648-.393 1.313-2.937 1.857-4.192 1.9-1.911.066-2.746-1.925-2.893-2.334-.692-.766 1.72-11.765 3.032-13.808-.318 2.019-2.691 12.713-.342 13.594z"/>
  <ellipse cx="274.702" cy="127.619" fill="#FF6B7D" rx="5.196" ry="9.972" transform="rotate(-.425 274.702 127.619)"/>
  <path fill="#fff" d="M276.028 125.497c.15 1.84.373 3.883-.3 3.938-.673.054-.969-2.077-1.119-3.917-.15-1.841-.736-3.199.483-3.298 1.219-.099.786 1.437.936 3.277z"/>
  <path fill="#771824" d="M274.471 129.401c.351.582.679 1.367 1.087 2.26-1.027-.421-1.625-1.271-1.893-1.714-.597-.442-.532-5.333.102-6.96.063 1.468.459 6.008.704 6.414z"/>
  <path fill="#fff" d="M274.164 133.758c.723.298 2.736.28 3.191-.169-.09.982-1.806 1.728-2.685 1.936-1.338.318-2.21-.966-2.371-1.234-.597-.442-.46-8.539.174-10.166.063 1.469-.09 9.345 1.691 9.633z"/>
  <ellipse cx="299.28" cy="127.217" fill="#FF6B7D" rx="4.468" ry="8.576" transform="rotate(-21.792 299.28 127.217)"/>
  <path fill="#fff" d="M299.677 125.103c.697 1.426 1.515 2.993.993 3.247-.521.255-1.427-1.359-2.123-2.786-.697-1.427-1.592-2.331-.646-2.792.945-.462 1.08.904 1.776 2.331z"/>
  <path fill="#771824" d="M299.654 128.717c.463.356.971.882 1.578 1.469-.955-.015-1.7-.508-2.053-.779-.616-.167-2.097-4.105-2.099-5.607.511 1.157 2.25 4.669 2.574 4.917z"/>
  <path fill="#fff" d="M300.773 132.302c.673.013 2.279-.632 2.503-1.134.235.814-.906 1.949-1.544 2.392-.972.673-2.073-.082-2.286-.246-.616-.167-3.043-6.695-3.045-8.196.51 1.156 2.856 7.512 4.372 7.184z"/>
  <ellipse cx="301.148" cy="149.613" fill="#FF6B7D" rx="3.9" ry="7.484" transform="rotate(-8.316 301.148 149.613)"/>
  <path fill="#fff" d="M301.915 147.899c.301 1.353.677 2.848.182 2.958-.494.11-.934-1.444-1.235-2.796-.301-1.352-.877-2.302.019-2.501.896-.199.733.987 1.034 2.339z"/>
  <path fill="#771824" d="M301.159 150.962c.321.396.646.946 1.041 1.568-.807-.207-1.339-.777-1.583-1.079-.49-.267-.946-3.91-.642-5.185.199 1.086.96 4.42 1.184 4.696z"/>
  <path fill="#fff" d="M301.38 154.232c.568.147 2.063-.073 2.355-.454.034.739-1.165 1.47-1.797 1.716-.961.374-1.742-.491-1.889-.673-.49-.267-1.222-6.301-.918-7.575.198 1.085.896 6.956 2.249 6.986z"/>
  <ellipse cx="315.218" cy="147.246" fill="#FF6B7D" rx="3.9" ry="7.484" transform="rotate(-8.316 315.218 147.246)"/>
  <path fill="#fff" d="M315.985 145.532c.301 1.353.677 2.848.183 2.958-.494.11-.935-1.444-1.236-2.796-.301-1.353-.876-2.302.02-2.501.896-.199.732.987 1.033 2.339z"/>
  <path fill="#771824" d="M315.23 148.595c.321.396.645.946 1.041 1.567-.807-.207-1.339-.776-1.584-1.078-.489-.267-.945-3.91-.641-5.185.198 1.086.96 4.42 1.184 4.696z"/>
  <path fill="#fff" d="M315.451 151.865c.568.147 2.062-.073 2.355-.454.034.739-1.165 1.47-1.797 1.716-.962.374-1.742-.491-1.89-.673-.489-.267-1.222-6.301-.918-7.575.199 1.085.896 6.956 2.25 6.986z"/>
  <ellipse cx="215.644" cy="83.796" fill="#FF6B7D" rx="6.162" ry="11.827" transform="rotate(28.906 215.644 83.796)"/>
  <path fill="#fff" d="M218.249 82.373c-.914 1.99-1.871 4.23-2.598 3.897-.727-.334.204-2.71 1.118-4.7.914-1.99 1.097-3.735 2.415-3.13 1.319.607-.021 1.943-.935 3.933z"/>
  <path fill="#771824" d="M214.37 85.504c.026.806-.092 1.807-.188 2.967-.818-1.032-.943-2.257-.962-2.87-.36-.805 2.548-5.824 4.15-7.138-.789 1.555-3.017 6.48-3 7.041z"/>
  <path fill="#fff" d="M211.522 89.831c.574.728 2.665 1.88 3.397 1.68-.664.962-2.872.736-3.901.441-1.568-.448-1.723-2.283-1.735-2.653-.361-.804 4.486-9.096 6.087-10.41-.789 1.556-5.523 9.61-3.848 10.942z"/>
  <ellipse cx="113.551" cy="131.911" fill="#FF6B7D" rx="6.696" ry="12.851" transform="rotate(30.378 113.551 131.911)"/>
  <path fill="#fff" d="M116.418 130.436c-1.048 2.136-2.15 4.544-2.931 4.161-.78-.383.298-2.939 1.346-5.074 1.049-2.136 1.296-4.026 2.711-3.331 1.415.694-.077 2.109-1.126 4.244z"/>
  <path fill="#771824" d="M112.12 133.73c.004.876-.151 1.96-.288 3.218-.86-1.144-.961-2.479-.964-3.146-.37-.883 2.93-6.255 4.706-7.637-.9 1.668-3.458 6.954-3.454 7.565z"/>
  <path fill="#fff" d="M108.904 138.351c.603.807 2.843 2.116 3.643 1.919-.748 1.027-3.14.72-4.25.371-1.69-.531-1.808-2.528-1.81-2.931-.369-.883 5.126-9.755 6.902-11.137-.9 1.667-6.267 10.285-4.485 11.778z"/>
  <path fill="#FFC6CD" d="M276.659 91.838c-2.884 3.102-21.938-4.05-43.952-17.381-22.015-13.33-32.724-23.024-35.77-30.893 6.458 3.887 16.292 12.88 38.307 26.21 22.014 13.33 31.564 18.2 41.415 22.064zM270.606 85.37c.822-2.694-11.731-13.193-29.528-23.983-17.797-10.79-28.541-15.19-34.92-15.09 5.206 3.17 15.131 7.188 32.928 17.978 17.797 10.79 24.923 15.713 31.52 21.096z"/>
  <path fill="#FFE8EB" d="M214.886 202.288c-5.614 1.061-7.832-3.602-9.357-11.676-1.525-8.075 3.284-17.803 8.898-18.863 5.614-1.061-7.504 9.965-5.979 18.039 1.526 8.074 12.052 11.44 6.438 12.5zM208.169 151.812c-5.424 1.796-7.918-1.555-9.969-7.748-2.052-6.194 1.984-14.78 7.407-16.577 5.423-1.796-6.658 9.232-4.606 15.425 2.052 6.194 12.591 7.103 7.168 8.9zM179.223 139.908c-4.329-.44-6.161.72-8.213-5.474-2.051-6.194.589-10.924 6.012-12.721 5.423-1.796-2.859 4.005-.807 10.198 2.052 6.194 1.247 5.062 3.008 7.997zM153.882 154.559c-1.558 2.099-3.86 3.928-7.245.745-4.238-4.961-1.637-13.421 2.708-17.131-1.896 5.485-2.641 9.074-1.896 11.782 1.219 2.912 4.469 4.604 6.433 4.604zM166.131 114c-2.381 1.976-5.545 3.417-8.563-1.276-3.505-7.01 1.851-16.058 7.895-19.08-3.714 5.804-5.573 9.749-5.468 13.112.595 3.739 3.872 6.664 6.136 7.244zM177.798 242.837c-2.609 1.663-5.929 2.697-8.337-2.338-2.6-7.393 3.846-15.7 10.221-17.942-4.411 5.295-6.749 8.976-7.066 12.325.122 3.784 3.008 7.096 5.182 7.955zM220.172 229.743c-2.013 2.349-4.889 4.304-8.656.187-4.637-6.318-.884-16.141 4.563-20.139-2.681 6.348-3.848 10.55-3.177 13.847 1.217 3.585 4.94 5.915 7.27 6.105zM210.645 261.953c-2.59 1.693-5.898 2.765-8.363-2.241-2.686-7.363 3.664-15.744 10.012-18.059-4.35 5.345-6.644 9.053-6.923 12.406.166 3.782 3.09 7.061 5.274 7.894zM236.391 264.412c-2.59 1.693-5.897 2.765-8.363-2.241-2.685-7.363 3.664-15.744 10.013-18.059-4.35 5.345-6.645 9.053-6.923 12.406.166 3.782 3.089 7.061 5.273 7.894zM237.833 237.077c-2.269 2.103-5.35 3.716-8.621-.805-3.883-6.808.969-16.136 6.839-19.484-3.391 5.999-5.031 10.04-4.742 13.392.799 3.701 4.231 6.442 6.524 6.897zM298.689 135.459c-1.928 2.51-4.783 4.614-8.999.312-5.28-6.617-2.075-17.048 3.311-21.346-2.338 6.745-3.252 11.201-2.318 14.678 1.523 3.773 5.567 6.186 8.006 6.356zM269.989 251.307c-1.751 1.147-3.98 1.94-5.596-1.057-1.745-4.445 2.582-9.875 6.861-11.555-2.961 3.474-4.53 5.856-4.743 7.94.082 2.331 2.019 4.242 3.478 4.672zM256.737 264.759c-1.752 1.148-2.383-2.518-2.383-2.92 0-.403-1.159-3.925 3.121-5.606 2.047 3.089.75 3.757.537 5.841-.537 1.04-.738 1.343-1.275 2.685zM203.628 280.837c-1.752 1.148-3.803-1.189-3.659-2.742.145-1.552 2.384-10.557 6.105-5.799-1.64 2.337-2.233 3.951-2.446 6.034-.127 1.249-.146 1.582 0 2.507zM194.451 112.677c-2.381 1.975-5.545 3.417-8.564-1.277-3.505-7.01 1.851-16.058 7.895-19.08-3.714 5.805-5.572 9.749-5.468 13.113.595 3.739 3.872 6.663 6.137 7.244zM214.624 119.622c-1.089 1.741-2.799 3.282-5.775.791-3.803-3.91-2.374-10.831.832-13.949-1.095 4.493-1.412 7.419-.599 9.594 1.21 2.328 3.961 3.615 5.542 3.564zM185.085 213.6c-4.033 1.496-6.416-2.084-8.81-8.542-2.395-6.457-.31-14.977 3.724-16.473 4.033-1.496-4.064 9.015-1.669 15.472 2.395 6.458 10.789 8.047 6.755 9.543zM180.579 177.321c-4.873.087-6.075-4.449-6.21-11.946-.135-7.498 5.292-15.506 10.165-15.594 4.872-.088-7.728 7.806-7.593 15.303.136 7.498 8.51 12.149 3.638 12.237z"/>
  <path fill="#FFCCD3" d="M137.852 70.898c-10.436-8.173-23.419 2.776-28.606 9.273-6.3-3.625-12.752.58-15.19 3.135-.145.048-1.387.597-5.201 2.408-7.127 4.122-11.027 17.401-12.087 23.526 0 .135.607-.133 3.034-2.291 1.348-9.678 9.583-18.346 10.16-19.261.578-.915 6.935-5.586 9.776-.722 2.273 3.89-3.323 11.22-6.405 14.398-2.78 2.283-8.853 7.056-10.902 7.876-2.561 1.024-2.719 8.078-2.128 11.545.591 3.468-3.034 5.162-3.468 8.039-.346 2.301 3.114 6.187 4.887 7.842-.992-5.158 0-22.187 4.122-23.108 3.512-2.261 4.074-4.675 6.166-4.318 1.939.33 3.869 2.863 3.679 4.641 3.465 5.456-14.133 27.812-12.441 31.703.281-3.665 4.722-10.009 8.669-12.969 7.048-5.638 6.555-12.123 7.237-18.734-1.776-12.312 3.859-15.68 8.835-19.564 15.717 9.116 5.029 22.947 1.257 29.234 18.704-16.346 6.759-24.833 3.772-30.963.315-8.645 11.003-21.69 20.119-19.804 9.02 3.81 3.458 13.674 4.715 17.132 2.358-1.729 7.23-11.16 0-19.018zM256.109 147.838c-18.9-3.688-12.997-20.36-7.683-28.235 0-.682-.625-1.961-3.125-1.618-4.594 2.756-4.716 9.433-6.676 14.333-3.308 10.474 5.819 16.048 9.188 19.111 1.286 5.451-3.614 13.904-6.493 17.457-4.655 2.879-7.657 6.002-14.456 1.347-7.411-9.31-4.287-11.576-1.898-23.459-14.027 9.371-9.005 22.663-6.677 25.971 16.048 6.554 14.272 15.496 14.088 20.458-2.328 8.33.735 11.944 7.595 16.477-3.614-5.758 2.389-22.112 11.944-22.541 12.496 6.125 6.616 18.314 3.737 24.133-2.818 6.248-6.554 6.371-10.658 6.799 2.45 2.144 4.104 2.328 4.594 12.128-4.104 11.148.612 13.966 4.104 15.252-4.509-14.21 2.205-25.073 6.125-28.727 3.022-.47 9.457-2.352 11.025-6.125-9.616-15.681.018-27.039 5.98-28.477 5.429 1.917 4.099 13.734 4.258 17.407 2.13 6.548 5.643 5.909 9.985 8.943-.913 3.62 1.09 6.406 2.205 7.346l1.06-1.14c0-2.113.538-7.414 2.689-11.716-2.113.768-1.345 1.536-5.954 1.344-10.756-9.795 0-25.161 5.954-25.545 1.075 1.383 3.649 7.107 4.802 9.796.448.448 1.69.422 3.073-3.266-5.186-10.948-2.881-8.451-1.729-16.71 5.57-3.265 4.034-2.689 6.915-6.53-2.881-1.729-4.226-1.921-9.412-1.345-4.149-1.075-5.954-9.027-6.338-12.868l-2.305-4.61c-.768-.704-2.958-1.498-5.57.96 1.729 1.729 4.994 10.756 5.57 13.061.576 2.305.576 17.479-12.1 17.671-10.449-3.227-7.683-17.479-4.994-24.201l-4.802-6.531c-2.753-1.728-9.411-3.418-14.021 3.65zM76.074 179.149c-6.618-4.024-3.354-21.722-.895-30.068-.188-.778-1.059-2.093-3.035-1.135-2.47 1.198-2.02 13.099-3.069 18.264-1.047 5.165-1.197 3.593-3.368 5.09-5.263 5.287-2.492 15.277-.449 19.611-.15-3.319.255-10.165 3.069-11.003 4.042.299 6.287 7.485 6.287 13.922-7.26 5.988-5.464 8.234-5.464 14.222 3.668 6.662-4.64 14.072-8.383 18.189 1.497 6.512 5.913 7.485 8.383 8.757-6.213-9.805 4.267-23.353 8.383-26.946-4.565-1.198-4.565-3.818-2.919-7.261 1.647-3.443 2.13-6.664 2.913-15.941 6.93-8.495 2.235-12.855 0-12.855-2.236 0-1.23 2.236-1.453 7.154z"/>
  <defs>
    <linearGradient id="paint0_linear" x1="234.946" x2="125.608" y1="47.183" y2="341.936" gradientUnits="userSpaceOnUse">
      <stop offset=".342" stop-color="#B70202" stop-opacity="0"/>
      <stop offset=".951" stop-color="#940000"/>
    </linearGradient>
  </defs>
</svg>
