<svg width="105" height="274" viewBox="0 0 105 274" fill="none" xmlns="http://www.w3.org/2000/svg">
<path d="M40.9913 37.587L65.5566 37.587L69.5897 53.7195L80.9557 61.0524L94.522 81.5845L101.122 103.767V149.047L88.6563 263.807L51.9917 271.14L18.2603 263.807L5.06105 149.047L2.86011 125.949L5.06105 101.383L14.5932 74.6182L25.2256 61.0524L35.8583 53.7195L40.9913 37.587Z" fill="#08D510"/>
<path d="M40.9913 37.587L65.5566 37.587L69.5897 53.7195L80.9557 61.0524L94.522 81.5845L101.122 103.767V149.047L88.6563 263.807L51.9917 271.14L18.2603 263.807L5.06105 149.047L2.86011 125.949L5.06105 101.383L14.5932 74.6182L25.2256 61.0524L35.8583 53.7195L40.9913 37.587Z" fill="url(#paint0_linear)"/>
<path fill-rule="evenodd" clip-rule="evenodd" d="M67.6071 4.31271C67.6085 4.31284 67.6 4.3238 67.5774 4.34523C67.5944 4.32331 67.6057 4.31259 67.6071 4.31271ZM66.2496 5.1041C65.7802 4.90322 65.1973 4.69394 64.4922 4.48956C61.6989 3.67984 57.6602 3.13701 53.0717 3.13701C48.4833 3.13701 44.4446 3.67984 41.6512 4.48956C40.9462 4.69394 40.3632 4.90322 39.8939 5.1041C40.3632 5.30499 40.9462 5.51426 41.6512 5.71864C44.4446 6.52836 48.4833 7.07119 53.0717 7.07119C57.6602 7.07119 61.6989 6.52836 64.4922 5.71864C65.1973 5.51426 65.7802 5.30499 66.2496 5.1041ZM38.5364 4.31271C38.5378 4.31259 38.549 4.32331 38.566 4.34523C38.5435 4.3238 38.535 4.31284 38.5364 4.31271ZM38.5364 5.89549C38.535 5.89537 38.5435 5.88441 38.566 5.86297C38.549 5.88489 38.5378 5.89561 38.5364 5.89549ZM67.5774 5.86298C67.6 5.88441 67.6085 5.89537 67.6071 5.89549C67.6057 5.89561 67.5944 5.8849 67.5774 5.86298ZM53.0717 10.1357C62.6581 10.1357 70.4294 7.88297 70.4294 5.1041C70.4294 2.32523 62.6581 0.0725098 53.0717 0.0725098C43.4854 0.0725098 35.7141 2.32523 35.7141 5.1041C35.7141 7.88297 43.4854 10.1357 53.0717 10.1357Z" fill="white"/>
<path fill-rule="evenodd" clip-rule="evenodd" d="M14.5875 260.585C14.523 260.877 14.4902 261.172 14.4902 261.469C14.4902 268.261 31.6383 273.767 52.7916 273.767C73.8214 273.767 90.8927 268.325 91.0911 261.588C87.383 263.201 82.9466 264.57 77.9744 265.623C71.6693 267.583 62.7889 268.863 52.7916 268.863C42.5803 268.863 33.5342 267.528 27.2074 265.496C25.6009 264.98 24.2389 264.442 23.1133 263.905C19.9186 262.937 17.0524 261.821 14.5875 260.585Z" fill="white"/>
<path d="M0.911377 137.067L5.3069 136.584L18.9336 262.643L14.4902 260.585L0.911377 137.067Z" fill="white"/>
<path d="M104.67 138.15L100.274 137.666L86.9402 263.536L91.0909 261.668L104.67 138.15Z" fill="white"/>
<path d="M27.2626 69.2054C27.692 68.4613 28.7122 68.331 29.3148 68.9432C29.7165 69.3515 29.8037 69.9745 29.5294 70.4773L26.0598 76.8381C25.8267 77.2654 25.6454 77.719 25.5196 78.1892L23.5466 85.5647C23.3889 86.1542 22.8118 86.5296 22.209 86.4349C21.5178 86.3263 21.068 85.6488 21.2362 84.9697L23.3359 76.4904C23.4739 75.933 23.6896 75.3978 23.9765 74.9005L27.2626 69.2054Z" fill="white"/>
<path d="M30.1152 77.3122C30.4501 76.5147 31.4506 76.2524 32.1338 76.7829C32.5942 77.1404 32.7643 77.7583 32.5516 78.3011L29.9169 85.0256C29.7372 85.4842 29.6135 85.9627 29.5484 86.4509L28.5417 93.9949C28.4599 94.6081 27.9278 95.0602 27.3094 95.042C26.6028 95.0212 26.0651 94.4005 26.1454 93.6981L27.1347 85.0413C27.2006 84.4641 27.3483 83.8992 27.5733 83.3636L30.1152 77.3122Z" fill="white"/>
<path fill-rule="evenodd" clip-rule="evenodd" d="M41.6251 8.00238C41.2731 8.44245 39.6805 12.0762 44.3785 18.7876C46.1905 21.3762 46.8246 23.7849 46.5327 26.3026C46.2619 28.6388 45.1938 30.9124 44.1128 33.1826C44.0472 33.3204 43.9809 33.4593 43.914 33.5995C41.7397 38.1567 38.9456 44.0132 38.5319 53.941L38.473 55.3553L37.1494 55.8574C22.6242 61.3669 14.1837 75.8472 9.64279 92.3827C5.12103 108.848 4.63375 126.795 5.58309 138.259L1.30742 138.613C0.327569 126.78 0.819604 108.31 5.50565 91.2465C10.0473 74.7082 18.6888 58.957 34.3193 52.3696C34.9649 42.3922 37.8926 36.2564 40.0363 31.7636C40.1048 31.6201 40.1724 31.4783 40.2392 31.338C41.3841 28.9338 42.0967 27.312 42.271 25.8085C42.4243 24.4865 42.168 23.1112 40.8638 21.2479C35.5897 13.7136 36.2527 7.85008 38.275 5.32227L41.6251 8.00238Z" fill="white"/>
<path fill-rule="evenodd" clip-rule="evenodd" d="M64.2591 8.00238C64.6112 8.44245 66.2037 12.0762 61.5058 18.7876C59.6937 21.3762 59.0596 23.7849 59.3515 26.3026C59.6224 28.6388 60.6905 30.9124 61.7715 33.1826C61.8371 33.3204 61.9034 33.4593 61.9703 33.5995C64.1446 38.1567 66.9387 44.0132 67.3524 53.941L67.4113 55.3553L68.7349 55.8574C83.26 61.3669 91.7006 75.8472 96.2415 92.3827C100.763 108.848 101.251 126.795 100.301 138.259L104.577 138.613C105.557 126.78 105.065 108.31 100.379 91.2465C95.8369 74.7082 87.1955 58.957 71.565 52.3696C70.9193 42.3922 67.9917 36.2564 65.848 31.7636C65.7795 31.6201 65.7118 31.4783 65.6451 31.338C64.5002 28.9338 63.7876 27.312 63.6133 25.8085C63.46 24.4865 63.7163 23.1112 65.0205 21.2479C70.2945 13.7136 69.6315 7.85008 67.6093 5.32227L64.2591 8.00238Z" fill="white"/>
<defs>
<linearGradient id="paint0_linear" x1="51.9912" y1="37.587" x2="51.9912" y2="271.14" gradientUnits="userSpaceOnUse">
<stop stop-color="#1A8200"/>
<stop offset="1" stop-color="white" stop-opacity="0"/>
</linearGradient>
</defs>
</svg>
