<svg width="105" height="275" viewBox="0 0 105 275" fill="none" xmlns="http://www.w3.org/2000/svg">
<path d="M40.6061 38.296L65.1713 38.296L69.2044 54.4284L80.5705 61.7614L94.1367 82.2935L100.737 104.476V149.756L88.271 264.516L51.6065 271.849L17.875 264.516L4.67579 149.756L2.47485 126.658L4.67579 102.092L14.2079 75.3272L24.8403 61.7614L35.473 54.4284L40.6061 38.296Z" fill="#D55E08"/>
<path d="M40.6061 38.296L65.1713 38.296L69.2044 54.4284L80.5705 61.7614L94.1367 82.2935L100.737 104.476V149.756L88.271 264.516L51.6065 271.849L17.875 264.516L4.67579 149.756L2.47485 126.658L4.67579 102.092L14.2079 75.3272L24.8403 61.7614L35.473 54.4284L40.6061 38.296Z" fill="url(#paint0_linear)"/>
<path fill-rule="evenodd" clip-rule="evenodd" d="M67.2218 5.02158C67.2232 5.0217 67.2147 5.03266 67.1922 5.05409C67.2092 5.03217 67.2205 5.02145 67.2218 5.02158ZM65.8643 5.81296C65.395 5.61208 64.812 5.4028 64.107 5.19842C61.3136 4.3887 57.275 3.84587 52.6865 3.84587C48.098 3.84587 44.0593 4.3887 41.266 5.19842C40.5609 5.4028 39.978 5.61208 39.5086 5.81296C39.978 6.01385 40.5609 6.22312 41.266 6.42751C44.0593 7.23723 48.098 7.78006 52.6865 7.78006C57.275 7.78006 61.3136 7.23723 64.107 6.42751C64.812 6.22312 65.395 6.01385 65.8643 5.81296ZM38.1511 5.02158C38.1525 5.02146 38.1638 5.03217 38.1808 5.05409C38.1582 5.03266 38.1497 5.0217 38.1511 5.02158ZM38.1511 6.60435C38.1497 6.60423 38.1582 6.59327 38.1808 6.57183C38.1638 6.59375 38.1525 6.60447 38.1511 6.60435ZM67.1922 6.57184C67.2147 6.59327 67.2232 6.60423 67.2218 6.60435C67.2205 6.60447 67.2092 6.59376 67.1922 6.57184ZM52.6865 10.8446C62.2728 10.8446 70.0441 8.59184 70.0441 5.81296C70.0441 3.03409 62.2728 0.781372 52.6865 0.781372C43.1001 0.781372 35.3289 3.03409 35.3289 5.81296C35.3289 8.59184 43.1001 10.8446 52.6865 10.8446Z" fill="white"/>
<path fill-rule="evenodd" clip-rule="evenodd" d="M14.202 261.294C14.1375 261.586 14.1047 261.881 14.1047 262.178C14.1047 268.97 31.2528 274.476 52.4061 274.476C73.4359 274.476 90.5072 269.034 90.7056 262.297C86.9975 263.91 82.5611 265.279 77.5889 266.332C71.2838 268.292 62.4034 269.572 52.4061 269.572C42.1948 269.572 33.1487 268.237 26.8219 266.205C25.2154 265.689 23.8534 265.151 22.7278 264.614C19.5331 263.646 16.6669 262.53 14.202 261.294Z" fill="white"/>
<path d="M0.525879 137.776L4.9214 137.293L18.5481 263.352L14.1047 261.294L0.525879 137.776Z" fill="white"/>
<path d="M104.284 138.859L99.8889 138.375L86.5549 264.245L90.7056 262.377L104.284 138.859Z" fill="white"/>
<path d="M26.8774 69.9142C27.3067 69.1701 28.327 69.0398 28.9295 69.6521C29.3313 70.0603 29.4185 70.6834 29.1442 71.1862L25.6746 77.547C25.4415 77.9743 25.2601 78.4279 25.1344 78.8981L23.1613 86.2736C23.0036 86.863 22.4265 87.2385 21.8237 87.1437C21.1325 87.0351 20.6828 86.3577 20.8509 85.6785L22.9506 77.1992C23.0887 76.6419 23.3043 76.1067 23.5913 75.6093L26.8774 69.9142Z" fill="white"/>
<path d="M29.7299 78.0211C30.0649 77.2236 31.0654 76.9612 31.7486 77.4917C32.209 77.8492 32.379 78.4672 32.1664 79.0099L29.5316 85.7345C29.352 86.193 29.2282 86.6716 29.1631 87.1597L28.1564 94.7037C28.0746 95.3169 27.5425 95.7691 26.9242 95.7509C26.2175 95.7301 25.6798 95.1093 25.7601 94.407L26.7494 85.7501C26.8154 85.173 26.9631 84.6081 27.188 84.0725L29.7299 78.0211Z" fill="white"/>
<path fill-rule="evenodd" clip-rule="evenodd" d="M41.2399 8.71124C40.8878 9.15131 39.2953 12.785 43.9933 19.4965C45.8053 22.0851 46.4394 24.4938 46.1475 27.0115C45.8766 29.3477 44.8085 31.6213 43.7275 33.8914C43.6619 34.0292 43.5956 34.1682 43.5287 34.3083C41.3545 38.8656 38.5604 44.7221 38.1467 54.6498L38.0877 56.0642L36.7642 56.5662C22.239 62.0758 13.7985 76.556 9.25753 93.0915C4.73578 109.557 4.2485 127.503 5.19783 138.968L0.922165 139.322C-0.0576845 127.489 0.43435 109.019 5.1204 91.9554C9.66209 75.4171 18.3035 59.6659 33.934 53.0785C34.5797 43.1011 37.5073 36.9653 39.6511 32.4724C39.7195 32.3289 39.7872 32.1871 39.854 32.0469C40.9988 29.6427 41.7114 28.0209 41.8857 26.5174C42.039 25.1954 41.7828 23.82 40.4785 21.9568C35.2045 14.4224 35.8675 8.55894 37.8897 6.03113L41.2399 8.71124Z" fill="white"/>
<path fill-rule="evenodd" clip-rule="evenodd" d="M63.8736 8.71124C64.2257 9.15131 65.8182 12.785 61.1203 19.4965C59.3082 22.0851 58.6741 24.4938 58.966 27.0115C59.2369 29.3477 60.305 31.6213 61.386 33.8914C61.4516 34.0292 61.5179 34.1682 61.5848 34.3083C63.7591 38.8656 66.5532 44.7221 66.9669 54.6498L67.0258 56.0642L68.3494 56.5662C82.8745 62.0758 91.3151 76.556 95.856 93.0915C100.378 109.557 100.865 127.503 99.9157 138.968L104.191 139.322C105.171 127.489 104.679 109.019 99.9931 91.9554C95.4514 75.4171 86.81 59.6659 71.1795 53.0785C70.5338 43.1011 67.6062 36.9653 65.4625 32.4724C65.394 32.3289 65.3263 32.1871 65.2596 32.0469C64.1147 29.6427 63.4021 28.0209 63.2278 26.5174C63.0745 25.1954 63.3308 23.82 64.635 21.9568C69.909 14.4224 69.246 8.55894 67.2238 6.03113L63.8736 8.71124Z" fill="white"/>
<defs>
<linearGradient id="paint0_linear" x1="51.6059" y1="38.296" x2="51.6059" y2="271.849" gradientUnits="userSpaceOnUse">
<stop stop-color="#6F3500"/>
<stop offset="1" stop-color="white" stop-opacity="0"/>
</linearGradient>
</defs>
</svg>
