<svg width="105" height="275" viewBox="0 0 105 275" fill="none" xmlns="http://www.w3.org/2000/svg">
<path d="M40.7345 38.2428L65.2998 38.2428L69.3329 54.3752L80.6989 61.7081L94.2651 82.2403L100.865 104.422V149.703L88.3995 264.463L51.7349 271.796L18.0035 264.463L4.80421 149.703L2.60327 126.604L4.80421 102.039L14.3363 75.274L24.9687 61.7081L35.6015 54.3752L40.7345 38.2428Z" fill="#08B0D5"/>
<path d="M40.7345 38.2428L65.2998 38.2428L69.3329 54.3752L80.6989 61.7081L94.2651 82.2403L100.865 104.422V149.703L88.3995 264.463L51.7349 271.796L18.0035 264.463L4.80421 149.703L2.60327 126.604L4.80421 102.039L14.3363 75.274L24.9687 61.7081L35.6015 54.3752L40.7345 38.2428Z" fill="url(#paint0_linear)"/>
<path fill-rule="evenodd" clip-rule="evenodd" d="M67.3503 4.96835C67.3517 4.96848 67.3432 4.97944 67.3206 5.00087C67.3376 4.97895 67.3489 4.96823 67.3503 4.96835ZM65.9928 5.75974C65.5234 5.55886 64.9404 5.34958 64.2354 5.1452C61.4421 4.33548 57.4034 3.79265 52.8149 3.79265C48.2264 3.79265 44.1877 4.33548 41.3944 5.1452C40.6894 5.34958 40.1064 5.55886 39.637 5.75974C40.1064 5.96063 40.6894 6.1699 41.3944 6.37428C44.1877 7.184 48.2264 7.72683 52.8149 7.72683C57.4034 7.72683 61.4421 7.184 64.2354 6.37428C64.9404 6.1699 65.5234 5.96063 65.9928 5.75974ZM38.2795 4.96835C38.2809 4.96823 38.2922 4.97895 38.3092 5.00087C38.2866 4.97944 38.2781 4.96848 38.2795 4.96835ZM38.2795 6.55113C38.2781 6.55101 38.2866 6.54005 38.3092 6.51861C38.2922 6.54053 38.2809 6.55125 38.2795 6.55113ZM67.3206 6.51862C67.3432 6.54005 67.3517 6.55101 67.3503 6.55113C67.3489 6.55125 67.3376 6.54054 67.3206 6.51862ZM52.8149 10.7913C62.4012 10.7913 70.1725 8.53861 70.1725 5.75974C70.1725 2.98087 62.4012 0.728149 52.8149 0.728149C43.2285 0.728149 35.4573 2.98087 35.4573 5.75974C35.4573 8.53861 43.2285 10.7913 52.8149 10.7913Z" fill="white"/>
<path fill-rule="evenodd" clip-rule="evenodd" d="M14.3305 261.241C14.266 261.533 14.2332 261.828 14.2332 262.125C14.2332 268.916 31.3812 274.422 52.5345 274.422C73.5643 274.422 90.6356 268.98 90.8341 262.243C87.1259 263.856 82.6895 265.226 77.7173 266.279C71.4122 268.239 62.5318 269.519 52.5345 269.519C42.3232 269.519 33.2771 268.183 26.9503 266.152C25.3439 265.636 23.9818 265.097 22.8562 264.561C19.6615 263.593 16.7953 262.477 14.3305 261.241Z" fill="white"/>
<path d="M0.654297 137.723L5.04982 137.239L18.6766 263.298L14.2331 261.241L0.654297 137.723Z" fill="white"/>
<path d="M104.413 138.805L100.017 138.322L86.6834 264.192L90.8341 262.324L104.413 138.805Z" fill="white"/>
<path d="M27.0058 69.861C27.4351 69.1169 28.4554 68.9866 29.058 69.5989C29.4597 70.0071 29.5469 70.6302 29.2726 71.133L25.803 77.4938C25.5699 77.9211 25.3886 78.3746 25.2628 78.8448L23.2897 86.2203C23.132 86.8098 22.5549 87.1853 21.9521 87.0905C21.2609 86.9819 20.8112 86.3045 20.9794 85.6253L23.0791 77.146C23.2171 76.5887 23.4327 76.0535 23.7197 75.5561L27.0058 69.861Z" fill="white"/>
<path d="M29.8583 77.968C30.1933 77.1705 31.1938 76.9081 31.877 77.4386C32.3374 77.7961 32.5074 78.4141 32.2948 78.9568L29.6601 85.6814C29.4804 86.1399 29.3567 86.6185 29.2915 87.1066L28.2849 94.6506C28.203 95.2638 27.671 95.716 27.0526 95.6978C26.3459 95.677 25.8083 95.0562 25.8885 94.3539L26.8778 85.697C26.9438 85.1199 27.0915 84.555 27.3165 84.0194L29.8583 77.968Z" fill="white"/>
<path fill-rule="evenodd" clip-rule="evenodd" d="M41.3683 8.65802C41.0163 9.09809 39.4237 12.7318 44.1217 19.4433C45.9337 22.0319 46.5678 24.4406 46.2759 26.9583C46.0051 29.2945 44.9369 31.5681 43.8559 33.8382C43.7903 33.976 43.724 34.1149 43.6572 34.2551C41.4829 38.8124 38.6888 44.6689 38.2751 54.5966L38.2162 56.011L36.8926 56.513C22.3674 62.0225 13.9269 76.5028 9.38595 93.0383C4.8642 109.504 4.37691 127.45 5.32625 138.915L1.05058 139.269C0.0707335 127.436 0.562768 108.966 5.24881 91.9022C9.7905 75.3639 18.4319 59.6126 34.0625 53.0253C34.7081 43.0479 37.6358 36.912 39.7795 32.4192C39.8479 32.2757 39.9156 32.1339 39.9824 31.9937C41.1272 29.5894 41.8398 27.9677 42.0142 26.4642C42.1674 25.1422 41.9112 23.7668 40.6069 21.9036C35.3329 14.3692 35.9959 8.50572 38.0181 5.97791L41.3683 8.65802Z" fill="white"/>
<path fill-rule="evenodd" clip-rule="evenodd" d="M64.0021 8.65802C64.3541 9.09809 65.9467 12.7318 61.2487 19.4433C59.4367 22.0319 58.8025 24.4406 59.0945 26.9583C59.3653 29.2945 60.4334 31.5681 61.5144 33.8382C61.58 33.976 61.6463 34.1149 61.7132 34.2551C63.8875 38.8124 66.6816 44.6689 67.0953 54.5966L67.1542 56.011L68.4778 56.513C83.0029 62.0225 91.4435 76.5028 95.9844 93.0383C100.506 109.504 100.993 127.45 100.044 138.915L104.32 139.269C105.3 127.436 104.808 108.966 100.122 91.9022C95.5799 75.3639 86.9384 59.6126 71.3079 53.0253C70.6623 43.0479 67.7346 36.912 65.5909 32.4192C65.5224 32.2757 65.4548 32.1339 65.388 31.9937C64.2431 29.5894 63.5305 27.9677 63.3562 26.4642C63.2029 25.1422 63.4592 23.7668 64.7634 21.9036C70.0375 14.3692 69.3745 8.50572 67.3522 5.97791L64.0021 8.65802Z" fill="white"/>
<defs>
<linearGradient id="paint0_linear" x1="51.7343" y1="38.2428" x2="51.7343" y2="271.796" gradientUnits="userSpaceOnUse">
<stop stop-color="#005264"/>
<stop offset="1" stop-color="white" stop-opacity="0"/>
</linearGradient>
</defs>
</svg>
