<svg width="105" height="275" viewBox="0 0 105 275" fill="none" xmlns="http://www.w3.org/2000/svg">
<path d="M40.8629 38.2134L65.4282 38.2134L69.4613 54.3458L80.8273 61.6787L94.3936 82.2108L100.994 104.393V149.674L88.5279 264.434L51.8633 271.767L18.1319 264.434L4.93263 149.674L2.73169 126.575L4.93263 102.01L14.4648 75.2446L25.0971 61.6787L35.7299 54.3458L40.8629 38.2134Z" fill="#D50808"/>
<path d="M40.8629 38.2134L65.4282 38.2134L69.4613 54.3458L80.8273 61.6787L94.3936 82.2108L100.994 104.393V149.674L88.5279 264.434L51.8633 271.767L18.1319 264.434L4.93263 149.674L2.73169 126.575L4.93263 102.01L14.4648 75.2446L25.0971 61.6787L35.7299 54.3458L40.8629 38.2134Z" fill="url(#paint0_linear)"/>
<path fill-rule="evenodd" clip-rule="evenodd" d="M67.4787 4.93893C67.4801 4.93906 67.4716 4.95002 67.449 4.97145C67.466 4.94953 67.4773 4.93881 67.4787 4.93893ZM66.1212 5.73032C65.6518 5.52944 65.0689 5.32016 64.3638 5.11578C61.5705 4.30606 57.5318 3.76323 52.9433 3.76323C48.3548 3.76323 44.3161 4.30606 41.5228 5.11578C40.8178 5.32016 40.2348 5.52944 39.7655 5.73032C40.2348 5.93121 40.8178 6.14048 41.5228 6.34486C44.3161 7.15458 48.3548 7.69741 52.9433 7.69741C57.5318 7.69741 61.5705 7.15458 64.3638 6.34486C65.0689 6.14048 65.6518 5.93121 66.1212 5.73032ZM38.4079 4.93893C38.4093 4.93881 38.4206 4.94953 38.4376 4.97145C38.4151 4.95002 38.4066 4.93906 38.4079 4.93893ZM38.4079 6.52171C38.4066 6.52159 38.4151 6.51063 38.4376 6.48919C38.4206 6.51111 38.4093 6.52183 38.4079 6.52171ZM67.449 6.4892C67.4716 6.51063 67.4801 6.52159 67.4787 6.52171C67.4773 6.52183 67.466 6.51112 67.449 6.4892ZM52.9433 10.7619C62.5297 10.7619 70.3009 8.50919 70.3009 5.73032C70.3009 2.95145 62.5297 0.69873 52.9433 0.69873C43.357 0.69873 35.5857 2.95145 35.5857 5.73032C35.5857 8.50919 43.357 10.7619 52.9433 10.7619Z" fill="white"/>
<path fill-rule="evenodd" clip-rule="evenodd" d="M14.4591 261.212C14.3946 261.504 14.3618 261.798 14.3618 262.095C14.3618 268.887 31.5099 274.393 52.6631 274.393C73.693 274.393 90.7643 268.951 90.9627 262.214C87.2546 263.827 82.8182 265.196 77.846 266.249C71.5408 268.209 62.6604 269.49 52.6631 269.49C42.4518 269.49 33.4058 268.154 27.079 266.122C25.4725 265.607 24.1105 265.068 22.9849 264.532C19.7902 263.563 16.924 262.447 14.4591 261.212Z" fill="white"/>
<path d="M0.782959 137.693L5.17848 137.21L18.8052 263.269L14.3617 261.212L0.782959 137.693Z" fill="white"/>
<path d="M104.541 138.776L100.146 138.293L86.8118 264.162L90.9625 262.294L104.541 138.776Z" fill="white"/>
<path d="M27.1345 69.8316C27.5638 69.0875 28.584 68.9572 29.1866 69.5695C29.5884 69.9777 29.6755 70.6007 29.4013 71.1036L25.9316 77.4644C25.6986 77.8917 25.5172 78.3452 25.3914 78.8154L23.4184 86.1909C23.2607 86.7804 22.6836 87.1558 22.0808 87.0611C21.3896 86.9525 20.9398 86.2751 21.108 85.5959L23.2077 77.1166C23.3457 76.5592 23.5614 76.024 23.8484 75.5267L27.1345 69.8316Z" fill="white"/>
<path d="M29.987 77.9384C30.322 77.1409 31.3224 76.8786 32.0056 77.4091C32.466 77.7666 32.6361 78.3845 32.4235 78.9273L29.7887 85.6519C29.6091 86.1104 29.4853 86.5889 29.4202 87.0771L28.4135 94.6211C28.3317 95.2343 27.7996 95.6864 27.1813 95.6683C26.4746 95.6475 25.9369 95.0267 26.0172 94.3243L27.0065 85.6675C27.0725 85.0903 27.2201 84.5254 27.4451 83.9898L29.987 77.9384Z" fill="white"/>
<path fill-rule="evenodd" clip-rule="evenodd" d="M41.4967 8.6286C41.1447 9.06867 39.5521 12.7024 44.2501 19.4139C46.0621 22.0025 46.6962 24.4111 46.4043 26.9289C46.1335 29.265 45.0654 31.5386 43.9843 33.8088C43.9187 33.9466 43.8525 34.0855 43.7856 34.2257C41.6113 38.783 38.8172 44.6394 38.4035 54.5672L38.3446 55.9815L37.021 56.4836C22.4958 61.9931 14.0553 76.4734 9.51437 93.0089C4.99262 109.475 4.50533 127.421 5.45467 138.886L1.179 139.24C0.199151 127.406 0.691186 108.937 5.37723 91.8727C9.91892 75.3345 18.5603 59.5832 34.1909 52.9958C34.8365 43.0184 37.7642 36.8826 39.9079 32.3898C39.9764 32.2463 40.044 32.1045 40.1108 31.9643C41.2557 29.56 41.9683 27.9383 42.1426 26.4347C42.2958 25.1128 42.0396 23.7374 40.7353 21.8742C35.4613 14.3398 36.1243 8.4763 38.1465 5.94849L41.4967 8.6286Z" fill="white"/>
<path fill-rule="evenodd" clip-rule="evenodd" d="M64.1307 8.6286C64.4828 9.06867 66.0753 12.7024 61.3773 19.4139C59.5653 22.0025 58.9312 24.4111 59.2231 26.9289C59.494 29.265 60.5621 31.5386 61.6431 33.8088C61.7087 33.9466 61.775 34.0855 61.8419 34.2257C64.0161 38.783 66.8103 44.6394 67.2239 54.5672L67.2829 55.9815L68.6064 56.4836C83.1316 61.9931 91.5722 76.4734 96.1131 93.0089C100.635 109.475 101.122 127.421 100.173 138.886L104.448 139.24C105.428 127.406 104.936 108.937 100.25 91.8727C95.7085 75.3345 87.0671 59.5832 71.4366 52.9958C70.7909 43.0184 67.8633 36.8826 65.7195 32.3898C65.6511 32.2463 65.5834 32.1045 65.5166 31.9643C64.3718 29.56 63.6592 27.9383 63.4849 26.4347C63.3316 25.1128 63.5878 23.7374 64.8921 21.8742C70.1661 14.3398 69.5031 8.4763 67.4809 5.94849L64.1307 8.6286Z" fill="white"/>
<defs>
<linearGradient id="paint0_linear" x1="51.8628" y1="38.2134" x2="51.8628" y2="271.767" gradientUnits="userSpaceOnUse">
<stop stop-color="#6D0000"/>
<stop offset="1" stop-color="white" stop-opacity="0"/>
</linearGradient>
</defs>
</svg>
