<svg width="179" height="179" viewBox="0 0 179 179" fill="none" xmlns="http://www.w3.org/2000/svg">
<circle cx="89.2803" cy="89.0562" r="87" fill="#592500" stroke="black" stroke-width="4"/>
<circle cx="89.2806" cy="89.0562" r="73.2981" fill="#FFFCC0" stroke="black" stroke-width="4"/>
<line x1="88.9463" y1="84.3693" x2="88.9463" y2="33.3347" stroke="black" stroke-width="9"/>
<line x1="94.8887" y1="88.5818" x2="145.923" y2="88.5818" stroke="black" stroke-width="9"/>
<mask id="path-5-inside-1" fill="white">
<path d="M100.951 89.0562C100.951 95.5017 95.7255 100.727 89.28 100.727C82.8345 100.727 77.6094 95.5017 77.6094 89.0562C77.6094 82.6107 82.8345 77.3856 89.28 77.3856C95.7255 77.3856 100.951 82.6107 100.951 89.0562ZM84.877 89.0562C84.877 91.4879 86.8483 93.4592 89.28 93.4592C91.7117 93.4592 93.683 91.4879 93.683 89.0562C93.683 86.6246 91.7117 84.6533 89.28 84.6533C86.8483 84.6533 84.877 86.6246 84.877 89.0562Z"/>
</mask>
<path d="M100.951 89.0562C100.951 95.5017 95.7255 100.727 89.28 100.727C82.8345 100.727 77.6094 95.5017 77.6094 89.0562C77.6094 82.6107 82.8345 77.3856 89.28 77.3856C95.7255 77.3856 100.951 82.6107 100.951 89.0562ZM84.877 89.0562C84.877 91.4879 86.8483 93.4592 89.28 93.4592C91.7117 93.4592 93.683 91.4879 93.683 89.0562C93.683 86.6246 91.7117 84.6533 89.28 84.6533C86.8483 84.6533 84.877 86.6246 84.877 89.0562Z" fill="white" stroke="black" stroke-width="2" mask="url(#path-5-inside-1)"/>
</svg>
