<svg width="86" height="197" viewBox="0 0 86 197" fill="none" xmlns="http://www.w3.org/2000/svg">
<path d="M6.16138 87.7091H83.8548L77.6506 108.927L64.4938 121.298L45.0531 126.6L24.6305 121.298L12.8483 108.927L6.16138 87.7091Z" fill="#0835D4"/>
<path d="M6.16138 87.7091H83.8548L77.6506 108.927L64.4938 121.298L45.0531 126.6L24.6305 121.298L12.8483 108.927L6.16138 87.7091Z" fill="url(#paint0_linear)"/>
<rect x="6.16138" y="58.5441" width="77.6935" height="29.165" fill="#08D410"/>
<rect x="6.16138" y="58.5441" width="77.6935" height="29.165" fill="url(#paint1_linear)"/>
<path d="M6.16138 29.3791L13.3487 24.0573L22.9094 21.7255L33.4029 20.0931L44.5959 20.0931H56.2553L67.4484 21.7255L76.3095 24.0573L83.8548 29.3791V58.5441H6.16138V29.3791Z" fill="#D40808"/>
<path d="M6.16138 29.3791L13.3487 24.0573L22.9094 21.7255L33.4029 20.0931L44.5959 20.0931H56.2553L67.4484 21.7255L76.3095 24.0573L83.8548 29.3791V58.5441H6.16138V29.3791Z" fill="url(#paint2_linear)"/>
<path d="M85.898 87.7091C85.898 93.0789 84.8403 98.396 82.7854 103.357C80.7305 108.318 77.7185 112.826 73.9216 116.623C70.1246 120.42 65.6169 123.432 60.6559 125.487C55.6949 127.541 50.3777 128.599 45.0079 128.599C39.6382 128.599 34.321 127.541 29.36 125.487C24.399 123.432 19.8913 120.42 16.0943 116.623C12.2973 112.826 9.2854 108.318 7.23049 103.357C5.17557 98.396 4.11792 93.0789 4.11792 87.7091H8.20692C8.20692 92.5419 9.15881 97.3273 11.0082 101.792C12.8577 106.257 15.5684 110.314 18.9857 113.731C22.403 117.149 26.4599 119.859 30.9248 121.709C35.3897 123.558 40.1752 124.51 45.0079 124.51C49.8407 124.51 54.6262 123.558 59.0911 121.709C63.556 119.859 67.6129 117.149 71.0302 113.731C74.4475 110.314 77.1582 106.257 79.0077 101.792C80.8571 97.3274 81.809 92.5419 81.809 87.7091H85.898Z" fill="white"/>
<rect x="4.11792" y="29.3792" width="4.08665" height="58.33" fill="white"/>
<rect x="42.9646" y="126.93" width="4.08665" height="58.33" fill="white"/>
<rect x="81.8113" y="29.3792" width="4.08665" height="58.33" fill="white"/>
<path d="M44.3686 182.184C44.75 181.908 45.2654 181.908 45.6468 182.184L57.2037 190.543C58.0606 191.163 57.6222 192.517 56.5646 192.517H33.4508C32.3932 192.517 31.9548 191.163 32.8117 190.543L44.3686 182.184Z" fill="white"/>
<path d="M83.717 29.3791C83.717 30.08 83.2485 31.1639 81.4029 32.5044C79.6056 33.81 76.8645 35.0764 73.2811 36.1774C66.141 38.371 56.1444 39.7607 45.0079 39.7607C33.8715 39.7607 23.8749 38.371 16.7348 36.1774C13.1514 35.0764 10.4103 33.81 8.61298 32.5044C6.76739 31.1639 6.29887 30.08 6.29887 29.3791C6.29887 28.6782 6.76739 27.5944 8.61298 26.2538C10.4103 24.9483 13.1514 23.6818 16.7348 22.5809C23.8749 20.3873 33.8715 18.9976 45.0079 18.9976C56.1444 18.9976 66.141 20.3873 73.2811 22.5809C76.8645 23.6818 79.6056 24.9483 81.4029 26.2538C83.2485 27.5944 83.717 28.6782 83.717 29.3791Z" stroke="white" stroke-width="4.36189"/>
<rect x="11.907" y="43.3433" width="3.13341" height="22.3426" fill="white"/>
<rect x="17.6292" y="49.8826" width="3.13341" height="22.3426" fill="white"/>
<path d="M26.0823 19.1725C26.0823 25.8604 20.7183 32.5376 13.6489 32.5376C6.55204 32.5376 0.864757 26.2629 0.864757 19.6047C0.864757 16.2865 2.15957 13.6949 4.32448 11.9255C6.49785 10.1492 9.57794 9.17848 13.1735 9.17848C16.7788 9.17848 20.0159 10.046 22.3406 11.7233C24.6522 13.3911 26.0823 15.8717 26.0823 19.1725Z" fill="#A70000" stroke="#680000" stroke-width="0.756857"/>
<path d="M23.2869 18.249C23.2869 23.444 18.8731 28.6674 12.9905 28.6674C7.10795 28.6674 2.41235 23.7716 2.41235 18.5766C2.41235 13.3815 6.7259 10.386 12.6085 10.386C18.491 10.386 23.2869 13.0539 23.2869 18.249Z" fill="#AF3030"/>
<path d="M11.9899 20.8059C11.4218 22.2879 9.24 23.1605 7.09336 22.3377C4.94671 21.5149 3.76854 19.4615 4.33658 17.9795C4.90463 16.4976 6.80626 16.2464 8.95291 17.0693C11.0996 17.8921 12.5579 19.324 11.9899 20.8059Z" fill="#D84E4E"/>
<path d="M9.85414 19.9425C9.59201 20.6264 8.51124 21.0007 7.42209 20.5833C6.33293 20.1658 5.71058 19.1881 5.97271 18.5042C6.23484 17.8203 7.18464 17.7322 8.27379 18.1496C9.36294 18.5671 10.1163 19.2587 9.85414 19.9425Z" fill="#E78C8C"/>
<path d="M8.5616 13.7283C8.01221 13.244 8.16942 12.7537 8.94074 11.8787C9.71207 11.0037 13.3619 10.9183 13.9113 11.4026C14.4607 11.8869 10.1601 11.1792 9.38873 12.0542C8.61741 12.9292 9.11098 14.2126 8.5616 13.7283Z" fill="#E78C8C"/>
<path d="M15.2533 12.2224C16.4542 11.9918 18.8367 12.9631 18.4454 13.7093C18.0542 14.4554 14.7444 15.0565 14.1187 14.7285C13.4931 14.4004 17.6175 14.2902 18.0087 13.544C18.3999 12.7979 14.8376 12.3693 15.2533 12.2224Z" fill="#E78C8C"/>
<path d="M8.91218 19.4869C8.78452 19.8199 8.22329 19.9889 7.64635 19.7677C7.06942 19.5466 6.72919 19.0562 6.85685 18.7232C6.9845 18.3901 7.48116 18.3603 8.05809 18.5814C8.63503 18.8026 9.03983 19.1539 8.91218 19.4869Z" fill="white"/>
<path d="M19.5627 14.4289C19.5627 14.7182 16.6989 15.9909 13.5808 15.9909C10.4628 15.9909 7.85718 14.5403 7.85718 14.2509C7.85718 13.9615 10.4628 15.2395 13.5808 15.2395C16.6989 15.2395 19.5627 14.1395 19.5627 14.4289Z" fill="#680000"/>
<mask id="path-20-inside-1" fill="white">
<path fill-rule="evenodd" clip-rule="evenodd" d="M16.9261 3.92965C17.0291 4.44523 16.4876 4.98798 15.7167 5.14193C15.3747 5.21023 15.045 5.19053 14.775 5.10244C14.5621 5.1283 14.3744 5.13805 14.2167 5.14623L14.1687 5.14874C13.8553 5.16534 13.7261 5.18272 13.6158 5.23039C13.4268 5.31212 13.0513 5.60238 12.3755 7.28392C11.9055 8.4533 11.9774 9.24775 12.2083 9.88682C12.3305 10.2254 12.5065 10.5445 12.7167 10.8784C12.7901 10.9952 12.8843 11.1382 12.9834 11.2885L12.9834 11.2885C13.0909 11.4515 13.204 11.6231 13.3025 11.7794C13.3249 11.7895 13.3462 11.8025 13.3659 11.8181L15.4838 13.501C15.7216 13.69 15.564 14.0724 15.262 14.0389L10.7088 13.5333C10.4068 13.4998 10.3369 13.0921 10.6104 12.9599L11.8708 12.3506C11.8335 12.2938 11.796 12.2374 11.7575 12.1795C11.6609 12.0342 11.5579 11.8792 11.4354 11.6845C11.2003 11.3109 10.96 10.8868 10.7846 10.401C10.4199 9.39149 10.3707 8.21277 10.9709 6.71942C11.6328 5.07256 12.1948 4.19575 13.015 3.84104C13.4026 3.67337 13.7892 3.65296 14.074 3.63792L14.0886 3.63715L14.1158 3.63571C14.2755 3.62728 14.4256 3.61936 14.5798 3.60135C14.7848 3.45079 15.0474 3.33408 15.3439 3.27487C16.1148 3.12092 16.8232 3.41408 16.9261 3.92965Z"/>
</mask>
<path fill-rule="evenodd" clip-rule="evenodd" d="M16.9261 3.92965C17.0291 4.44523 16.4876 4.98798 15.7167 5.14193C15.3747 5.21023 15.045 5.19053 14.775 5.10244C14.5621 5.1283 14.3744 5.13805 14.2167 5.14623L14.1687 5.14874C13.8553 5.16534 13.7261 5.18272 13.6158 5.23039C13.4268 5.31212 13.0513 5.60238 12.3755 7.28392C11.9055 8.4533 11.9774 9.24775 12.2083 9.88682C12.3305 10.2254 12.5065 10.5445 12.7167 10.8784C12.7901 10.9952 12.8843 11.1382 12.9834 11.2885L12.9834 11.2885C13.0909 11.4515 13.204 11.6231 13.3025 11.7794C13.3249 11.7895 13.3462 11.8025 13.3659 11.8181L15.4838 13.501C15.7216 13.69 15.564 14.0724 15.262 14.0389L10.7088 13.5333C10.4068 13.4998 10.3369 13.0921 10.6104 12.9599L11.8708 12.3506C11.8335 12.2938 11.796 12.2374 11.7575 12.1795C11.6609 12.0342 11.5579 11.8792 11.4354 11.6845C11.2003 11.3109 10.96 10.8868 10.7846 10.401C10.4199 9.39149 10.3707 8.21277 10.9709 6.71942C11.6328 5.07256 12.1948 4.19575 13.015 3.84104C13.4026 3.67337 13.7892 3.65296 14.074 3.63792L14.0886 3.63715L14.1158 3.63571C14.2755 3.62728 14.4256 3.61936 14.5798 3.60135C14.7848 3.45079 15.0474 3.33408 15.3439 3.27487C16.1148 3.12092 16.8232 3.41408 16.9261 3.92965Z" fill="#22AB00"/>
<path fill-rule="evenodd" clip-rule="evenodd" d="M16.9261 3.92965C17.0291 4.44523 16.4876 4.98798 15.7167 5.14193C15.3747 5.21023 15.045 5.19053 14.775 5.10244C14.5621 5.1283 14.3744 5.13805 14.2167 5.14623L14.1687 5.14874C13.8553 5.16534 13.7261 5.18272 13.6158 5.23039C13.4268 5.31212 13.0513 5.60238 12.3755 7.28392C11.9055 8.4533 11.9774 9.24775 12.2083 9.88682C12.3305 10.2254 12.5065 10.5445 12.7167 10.8784C12.7901 10.9952 12.8843 11.1382 12.9834 11.2885L12.9834 11.2885C13.0909 11.4515 13.204 11.6231 13.3025 11.7794C13.3249 11.7895 13.3462 11.8025 13.3659 11.8181L15.4838 13.501C15.7216 13.69 15.564 14.0724 15.262 14.0389L10.7088 13.5333C10.4068 13.4998 10.3369 13.0921 10.6104 12.9599L11.8708 12.3506C11.8335 12.2938 11.796 12.2374 11.7575 12.1795C11.6609 12.0342 11.5579 11.8792 11.4354 11.6845C11.2003 11.3109 10.96 10.8868 10.7846 10.401C10.4199 9.39149 10.3707 8.21277 10.9709 6.71942C11.6328 5.07256 12.1948 4.19575 13.015 3.84104C13.4026 3.67337 13.7892 3.65296 14.074 3.63792L14.0886 3.63715L14.1158 3.63571C14.2755 3.62728 14.4256 3.61936 14.5798 3.60135C14.7848 3.45079 15.0474 3.33408 15.3439 3.27487C16.1148 3.12092 16.8232 3.41408 16.9261 3.92965Z" fill="url(#paint3_linear)"/>
<path d="M15.7167 5.14193L15.7612 5.36459L15.7167 5.14193ZM16.9261 3.92965L17.1488 3.88519V3.88519L16.9261 3.92965ZM14.775 5.10244L14.8454 4.88658L14.7975 4.87097L14.7476 4.87704L14.775 5.10244ZM14.2167 5.14623L14.2049 4.91948L14.2048 4.91949L14.2167 5.14623ZM14.1687 5.14874L14.1568 4.922L14.1567 4.922L14.1687 5.14874ZM13.6158 5.23039L13.706 5.43879L13.706 5.43879L13.6158 5.23039ZM12.3755 7.28392L12.5861 7.3686H12.5861L12.3755 7.28392ZM12.2083 9.88682L11.9947 9.96395L12.2083 9.88682ZM12.7167 10.8784L12.9088 10.7575L12.7167 10.8784ZM12.9834 11.2885L12.7938 11.4135L12.7963 11.4171L12.9834 11.2885ZM12.9834 11.2885L13.1731 11.1635L13.1705 11.1599L12.9834 11.2885ZM13.3025 11.7794L13.1105 11.9005L13.1468 11.9581L13.2088 11.9862L13.3025 11.7794ZM13.3659 11.8181L13.5072 11.6404L13.5072 11.6404L13.3659 11.8181ZM15.4838 13.501L15.3425 13.6788L15.4838 13.501ZM15.262 14.0389L15.2871 13.8132H15.2871L15.262 14.0389ZM10.7088 13.5333L10.7338 13.3077H10.7338L10.7088 13.5333ZM10.6104 12.9599L10.5116 12.7554H10.5116L10.6104 12.9599ZM11.8708 12.3506L11.9696 12.555L12.2027 12.4423L12.0606 12.2259L11.8708 12.3506ZM11.7575 12.1795L11.5684 12.3052H11.5684L11.7575 12.1795ZM11.4354 11.6845L11.6276 11.5636H11.6276L11.4354 11.6845ZM10.7846 10.401L10.571 10.4782H10.571L10.7846 10.401ZM10.9709 6.71942L11.1816 6.8041L10.9709 6.71942ZM13.015 3.84104L13.1051 4.04944H13.1051L13.015 3.84104ZM14.074 3.63792L14.086 3.86466L14.086 3.86466L14.074 3.63792ZM14.0886 3.63715L14.0766 3.41041L14.0766 3.41041L14.0886 3.63715ZM14.1158 3.63571L14.1038 3.40897L14.1038 3.40897L14.1158 3.63571ZM14.5798 3.60135L14.6062 3.82687L14.6658 3.8199L14.7142 3.78435L14.5798 3.60135ZM15.3439 3.27487L15.2994 3.05221V3.05221L15.3439 3.27487ZM15.7612 5.36459C16.1846 5.28004 16.5551 5.0871 16.8099 4.83177C17.0633 4.57773 17.2197 4.24025 17.1488 3.88519L16.7035 3.97412C16.7355 4.13463 16.6727 4.32631 16.4884 4.51104C16.3054 4.69447 16.0197 4.84988 15.6723 4.91927L15.7612 5.36459ZM14.7045 5.3183C15.0153 5.41968 15.3849 5.43974 15.7612 5.36459L15.6723 4.91927C15.3645 4.98073 15.0747 4.96138 14.8454 4.88658L14.7045 5.3183ZM14.2285 5.37298C14.386 5.36481 14.5808 5.35475 14.8024 5.32784L14.7476 4.87704C14.5434 4.90185 14.3628 4.91129 14.2049 4.91948L14.2285 5.37298ZM14.1805 5.37549L14.2285 5.37298L14.2048 4.91949L14.1568 4.922L14.1805 5.37549ZM13.706 5.43879C13.7729 5.40982 13.8614 5.39239 14.1807 5.37548L14.1567 4.922C13.8493 4.93828 13.6792 4.95562 13.5257 5.02199L13.706 5.43879ZM12.5861 7.3686C12.9212 6.53482 13.1768 6.05931 13.3651 5.78611C13.5515 5.51588 13.6623 5.45766 13.706 5.43879L13.5257 5.02199C13.3803 5.08485 13.2089 5.21263 12.9913 5.52835C12.7757 5.84109 12.5055 6.35149 12.1648 7.19925L12.5861 7.3686ZM12.4218 9.80968C12.211 9.22616 12.1357 8.48935 12.5861 7.3686L12.1648 7.19925C11.6752 8.41726 11.7438 9.26935 11.9947 9.96395L12.4218 9.80968ZM12.9088 10.7575C12.7024 10.4295 12.5361 10.1261 12.4218 9.80968L11.9947 9.96395C12.125 10.3246 12.3106 10.6595 12.5245 10.9993L12.9088 10.7575ZM13.173 11.1635C13.0735 11.0125 12.9807 10.8718 12.9088 10.7575L12.5245 10.9993C12.5995 11.1186 12.6952 11.2638 12.7938 11.4135L13.173 11.1635ZM13.1705 11.1599L13.1705 11.1599L12.7963 11.4171L12.7963 11.4171L13.1705 11.1599ZM13.4946 11.6583C13.3946 11.4997 13.2802 11.3261 13.173 11.1636L12.7939 11.4135C12.9016 11.5769 13.0134 11.7466 13.1105 11.9005L13.4946 11.6583ZM13.2088 11.9862C13.2144 11.9887 13.2197 11.9919 13.2247 11.9959L13.5072 11.6404C13.4727 11.613 13.4354 11.5903 13.3962 11.5726L13.2088 11.9862ZM13.2247 11.9959L15.3425 13.6788L15.625 13.3232L13.5072 11.6404L13.2247 11.9959ZM15.3425 13.6788C15.3614 13.6937 15.3679 13.7079 15.3704 13.7194C15.3735 13.7328 15.3725 13.7497 15.3654 13.7669C15.3584 13.784 15.3472 13.7967 15.3355 13.8041C15.3256 13.8104 15.311 13.8159 15.2871 13.8132L15.237 14.2646C15.7654 14.3233 16.0413 13.654 15.625 13.3232L15.3425 13.6788ZM15.2871 13.8132L10.7338 13.3077L10.6837 13.759L15.237 14.2646L15.2871 13.8132ZM10.7338 13.3077C10.7099 13.305 10.6969 13.2964 10.6886 13.2881C10.6788 13.2783 10.6707 13.2635 10.6676 13.2452C10.6644 13.227 10.6672 13.2103 10.6731 13.1978C10.6781 13.1872 10.6876 13.1748 10.7092 13.1643L10.5116 12.7554C10.0329 12.9868 10.1553 13.7003 10.6837 13.759L10.7338 13.3077ZM10.7092 13.1643L11.9696 12.555L11.772 12.1462L10.5116 12.7554L10.7092 13.1643ZM11.5684 12.3052C11.607 12.3632 11.6441 12.4191 11.681 12.4753L12.0606 12.2259C12.0229 12.1686 11.9851 12.1117 11.9466 12.0538L11.5684 12.3052ZM11.2433 11.8055C11.3674 12.0028 11.4718 12.1598 11.5684 12.3052L11.9466 12.0538C11.85 11.9085 11.7485 11.7557 11.6276 11.5636L11.2433 11.8055ZM10.571 10.4782C10.7544 10.986 11.0044 11.4258 11.2433 11.8055L11.6276 11.5636C11.3963 11.1959 11.1656 10.7876 10.9981 10.3239L10.571 10.4782ZM10.7603 6.63475C10.1405 8.17666 10.1863 9.41302 10.571 10.4782L10.9981 10.3239C10.6536 9.36995 10.6009 8.24887 11.1816 6.8041L10.7603 6.63475ZM12.9248 3.63264C12.0102 4.0282 11.4203 4.99259 10.7603 6.63475L11.1816 6.8041C11.8454 5.15253 12.3794 4.36329 13.1051 4.04944L12.9248 3.63264ZM14.062 3.41118C13.779 3.42612 13.3543 3.44688 12.9248 3.63264L13.1051 4.04944C13.4509 3.89987 13.7994 3.8798 14.086 3.86466L14.062 3.41118ZM14.0766 3.41041L14.062 3.41118L14.086 3.86466L14.1006 3.86389L14.0766 3.41041ZM14.1038 3.40897L14.0766 3.41041L14.1006 3.86389L14.1278 3.86245L14.1038 3.40897ZM14.5535 3.37582C14.4076 3.39286 14.2647 3.40048 14.1038 3.40897L14.1278 3.86245C14.2863 3.85408 14.4436 3.84586 14.6062 3.82687L14.5535 3.37582ZM15.2994 3.05221C14.9728 3.11743 14.6791 3.24676 14.4454 3.41834L14.7142 3.78435C14.8906 3.65482 15.122 3.55072 15.3883 3.49753L15.2994 3.05221ZM17.1488 3.88519C17.0779 3.53012 16.8039 3.2786 16.4723 3.14139C16.139 3.00348 15.7228 2.96765 15.2994 3.05221L15.3883 3.49753C15.7358 3.42814 16.0593 3.46192 16.2987 3.56099C16.5398 3.66077 16.6714 3.81361 16.7035 3.97412L17.1488 3.88519Z" fill="#0C3D00" mask="url(#path-20-inside-1)"/>
<path d="M18.7864 4.06252C18.911 4.21766 19.0434 4.38118 19.181 4.55111C19.8872 5.42329 20.7303 6.46449 21.3558 7.40925C21.7303 7.97487 22.0172 8.49209 22.1521 8.90845C22.292 9.34002 22.2433 9.57386 22.0992 9.68962C22.0169 9.75566 21.8836 9.80478 21.6881 9.82182C21.4946 9.83869 21.2564 9.82264 20.9822 9.77426C20.4341 9.67755 19.768 9.45638 19.0785 9.14928C17.6947 8.53295 16.2619 7.59117 15.5289 6.6785C15.1433 6.19829 14.7724 5.80758 14.4506 5.48094C14.3673 5.39639 14.288 5.31682 14.2129 5.2415C13.9945 5.0223 13.8119 4.83909 13.6707 4.67371C13.4772 4.447 13.4003 4.29585 13.3958 4.1792C13.392 4.08069 13.4402 3.95357 13.6662 3.77208C14.1215 3.40646 15.0488 3.02447 16.0495 2.96815C17.0445 2.91215 18.0769 3.17894 18.7864 4.06252Z" fill="#1B8800" stroke="#0C3D00" stroke-width="0.378429"/>
<path d="M13.567 3.99519C14.6334 3.85866 17.1361 4.11665 18.6168 6.24086C20.0974 8.36508 20.3452 8.60697 20.3021 8.76855" stroke="#0C3D00" stroke-width="0.302743"/>
<defs>
<linearGradient id="paint0_linear" x1="45.0081" y1="87.7091" x2="45.0081" y2="126.6" gradientUnits="userSpaceOnUse">
<stop stop-color="#20C96E"/>
<stop offset="1" stop-color="white" stop-opacity="0"/>
</linearGradient>
<linearGradient id="paint1_linear" x1="45.0081" y1="58.5441" x2="45.0081" y2="87.709" gradientUnits="userSpaceOnUse">
<stop stop-color="white" stop-opacity="0"/>
<stop offset="1" stop-color="#20C96E"/>
</linearGradient>
<linearGradient id="paint2_linear" x1="45.0081" y1="20.0931" x2="45.0081" y2="58.5441" gradientUnits="userSpaceOnUse">
<stop offset="0.523958" stop-color="#D40808"/>
<stop offset="1" stop-color="#19E607" stop-opacity="0.91"/>
</linearGradient>
<linearGradient id="paint3_linear" x1="13.689" y1="3.23389" x2="13.689" y2="14.041" gradientUnits="userSpaceOnUse">
<stop offset="0.0604165" stop-color="#0C3D00"/>
<stop offset="0.482292" stop-color="white" stop-opacity="0"/>
</linearGradient>
</defs>
</svg>
