<svg width="153" height="118" viewBox="0 0 153 118" fill="none" xmlns="http://www.w3.org/2000/svg">
<g filter="url(#filter0_d)">
<path d="M132.032 26.5718C132.911 28.9466 132.697 31.8532 131.388 35.1823C130.077 38.5171 127.695 42.1905 124.381 45.9742C117.756 53.5376 107.556 61.3691 95.3438 67.6227C83.1316 73.8763 71.3097 77.3217 62.0907 77.8716C57.4789 78.1468 53.5711 77.6941 50.6034 76.5505C47.6407 75.4089 45.6876 73.6117 44.8093 71.2369C43.931 68.8621 44.1443 65.9556 45.4535 62.6264C46.7649 59.2916 49.1466 55.6182 52.4608 51.8346C59.0858 44.2711 69.2855 36.4396 81.4977 30.186C93.7099 23.9324 105.532 20.4871 114.751 19.9371C119.363 19.662 123.27 20.1146 126.238 21.2582C129.201 22.3998 131.154 24.197 132.032 26.5718Z" fill="#D1E975" stroke="#2F4500" stroke-width="2.15532"/>
<mask id="path-2-inside-1" fill="white">
<path d="M94.3881 65.7439C100 62.9476 105.356 59.6006 110.035 55.9656C114.714 52.3306 118.589 48.5064 121.357 44.793L92.5594 48.8486C92.2826 49.2199 91.8951 49.6023 91.4272 49.9658C90.9593 50.3293 90.4237 50.664 89.8625 50.9437L94.3881 65.7439Z"/>
</mask>
<path d="M94.3881 65.7439C100 62.9476 105.356 59.6006 110.035 55.9656C114.714 52.3306 118.589 48.5064 121.357 44.793L92.5594 48.8486C92.2826 49.2199 91.8951 49.6023 91.4272 49.9658C90.9593 50.3293 90.4237 50.664 89.8625 50.9437L94.3881 65.7439Z" fill="#BDFF7B"/>
<path d="M94.3881 65.7439C100 62.9476 105.356 59.6006 110.035 55.9656C114.714 52.3306 118.589 48.5064 121.357 44.793L92.5594 48.8486C92.2826 49.2199 91.8951 49.6023 91.4272 49.9658C90.9593 50.3293 90.4237 50.664 89.8625 50.9437L94.3881 65.7439Z" fill="url(#paint0_linear)"/>
<path d="M94.3881 65.7439C100 62.9476 105.356 59.6006 110.035 55.9656C114.714 52.3306 118.589 48.5064 121.357 44.793L92.5594 48.8486C92.2826 49.2199 91.8951 49.6023 91.4272 49.9658C90.9593 50.3293 90.4237 50.664 89.8625 50.9437L94.3881 65.7439Z" stroke="#114100" stroke-width="2.15532" mask="url(#path-2-inside-1)"/>
<mask id="path-3-inside-2" fill="white">
<path d="M51.5734 62.7183C50.8055 65.8857 51.3188 68.5535 53.0731 70.5121C54.8274 72.4708 57.775 73.6673 61.6845 74.0075L84.5346 52.3665C84.1437 52.3324 83.8489 52.2128 83.6735 52.0169C83.498 51.821 83.4467 51.5543 83.5235 51.2375L51.5734 62.7183Z"/>
</mask>
<path d="M51.5734 62.7183C50.8055 65.8857 51.3188 68.5535 53.0731 70.5121C54.8274 72.4708 57.775 73.6673 61.6845 74.0075L84.5346 52.3665C84.1437 52.3324 83.8489 52.2128 83.6735 52.0169C83.498 51.821 83.4467 51.5543 83.5235 51.2375L51.5734 62.7183Z" fill="#BDFF7B"/>
<path d="M51.5734 62.7183C50.8055 65.8857 51.3188 68.5535 53.0731 70.5121C54.8274 72.4708 57.775 73.6673 61.6845 74.0075L84.5346 52.3665C84.1437 52.3324 83.8489 52.2128 83.6735 52.0169C83.498 51.821 83.4467 51.5543 83.5235 51.2375L51.5734 62.7183Z" fill="url(#paint1_linear)"/>
<path d="M51.5734 62.7183C50.8055 65.8857 51.3188 68.5535 53.0731 70.5121C54.8274 72.4708 57.775 73.6673 61.6845 74.0075L84.5346 52.3665C84.1437 52.3324 83.8489 52.2128 83.6735 52.0169C83.498 51.821 83.4467 51.5543 83.5235 51.2375L51.5734 62.7183Z" stroke="#114100" stroke-width="2.15532" mask="url(#path-3-inside-2)"/>
<mask id="path-4-inside-3" fill="white">
<path d="M122.717 25.9141C120.399 24.2455 116.922 23.398 112.56 23.4382C108.198 23.4784 103.07 24.4052 97.5768 26.1458L90.2941 46.0126C90.8434 45.8385 91.3563 45.7458 91.7925 45.7418C92.2287 45.7378 92.5764 45.8225 92.8082 45.9894L122.717 25.9141Z"/>
</mask>
<path d="M122.717 25.9141C120.399 24.2455 116.922 23.398 112.56 23.4382C108.198 23.4784 103.07 24.4052 97.5768 26.1458L90.2941 46.0126C90.8434 45.8385 91.3563 45.7458 91.7925 45.7418C92.2287 45.7378 92.5764 45.8225 92.8082 45.9894L122.717 25.9141Z" fill="#BDFF7B"/>
<path d="M122.717 25.9141C120.399 24.2455 116.922 23.398 112.56 23.4382C108.198 23.4784 103.07 24.4052 97.5768 26.1458L90.2941 46.0126C90.8434 45.8385 91.3563 45.7458 91.7925 45.7418C92.2287 45.7378 92.5764 45.8225 92.8082 45.9894L122.717 25.9141Z" fill="url(#paint2_linear)"/>
<path d="M122.717 25.9141C120.399 24.2455 116.922 23.398 112.56 23.4382C108.198 23.4784 103.07 24.4052 97.5768 26.1458L90.2941 46.0126C90.8434 45.8385 91.3563 45.7458 91.7925 45.7418C92.2287 45.7378 92.5764 45.8225 92.8082 45.9894L122.717 25.9141Z" stroke="#114100" stroke-width="2.15532" mask="url(#path-4-inside-3)"/>
<mask id="path-5-inside-4" fill="white">
<path d="M62.0713 75.2318C66.0085 75.6057 70.8156 75.0728 76.1154 73.6748C81.4152 72.2768 87.0636 70.0518 92.6175 67.1744L88.3423 51.7544C87.7869 52.0422 87.2221 52.2647 86.6921 52.4045C86.1621 52.5443 85.6814 52.5976 85.2877 52.5602L62.0713 75.2318Z"/>
</mask>
<path d="M62.0713 75.2318C66.0085 75.6057 70.8156 75.0728 76.1154 73.6748C81.4152 72.2768 87.0636 70.0518 92.6175 67.1744L88.3423 51.7544C87.7869 52.0422 87.2221 52.2647 86.6921 52.4045C86.1621 52.5443 85.6814 52.5976 85.2877 52.5602L62.0713 75.2318Z" fill="#BDFF7B"/>
<path d="M62.0713 75.2318C66.0085 75.6057 70.8156 75.0728 76.1154 73.6748C81.4152 72.2768 87.0636 70.0518 92.6175 67.1744L88.3423 51.7544C87.7869 52.0422 87.2221 52.2647 86.6921 52.4045C86.1621 52.5443 85.6814 52.5976 85.2877 52.5602L62.0713 75.2318Z" fill="url(#paint3_linear)"/>
<path d="M62.0713 75.2318C66.0085 75.6057 70.8156 75.0728 76.1154 73.6748C81.4152 72.2768 87.0636 70.0518 92.6175 67.1744L88.3423 51.7544C87.7869 52.0422 87.2221 52.2647 86.6921 52.4045C86.1621 52.5443 85.6814 52.5976 85.2877 52.5602L62.0713 75.2318Z" stroke="#114100" stroke-width="2.15532" mask="url(#path-5-inside-4)"/>
<mask id="path-6-inside-5" fill="white">
<path d="M69.6061 40.3264C64.6759 43.9071 60.4407 47.7632 57.2327 51.5922C54.0248 55.4213 51.9315 59.1191 51.1169 62.3956L83.5462 50.6825C83.6276 50.3548 83.837 49.985 84.1577 49.6021C84.4785 49.2192 84.9021 48.8336 85.3951 48.4756L69.6061 40.3264Z"/>
</mask>
<path d="M69.6061 40.3264C64.6759 43.9071 60.4407 47.7632 57.2327 51.5922C54.0248 55.4213 51.9315 59.1191 51.1169 62.3956L83.5462 50.6825C83.6276 50.3548 83.837 49.985 84.1577 49.6021C84.4785 49.2192 84.9021 48.8336 85.3951 48.4756L69.6061 40.3264Z" fill="#BDFF7B"/>
<path d="M69.6061 40.3264C64.6759 43.9071 60.4407 47.7632 57.2327 51.5922C54.0248 55.4213 51.9315 59.1191 51.1169 62.3956L83.5462 50.6825C83.6276 50.3548 83.837 49.985 84.1577 49.6021C84.4785 49.2192 84.9021 48.8336 85.3951 48.4756L69.6061 40.3264Z" fill="url(#paint4_linear)"/>
<path d="M69.6061 40.3264C64.6759 43.9071 60.4407 47.7632 57.2327 51.5922C54.0248 55.4213 51.9315 59.1191 51.1169 62.3956L83.5462 50.6825C83.6276 50.3548 83.837 49.985 84.1577 49.6021C84.4785 49.2192 84.9021 48.8336 85.3951 48.4756L69.6061 40.3264Z" stroke="#114100" stroke-width="2.15532" mask="url(#path-6-inside-5)"/>
<mask id="path-7-inside-6" fill="white">
<path d="M121.396 44.1194C124.094 40.5304 125.624 37.1508 125.866 34.2458C126.108 31.3409 125.056 28.9895 122.792 27.3761L93.0987 46.4838C93.3251 46.6451 93.4303 46.8803 93.4061 47.1708C93.3818 47.4613 93.2288 47.7992 92.959 48.1581L121.396 44.1194Z"/>
</mask>
<path d="M121.396 44.1194C124.094 40.5304 125.624 37.1508 125.866 34.2458C126.108 31.3409 125.056 28.9895 122.792 27.3761L93.0987 46.4838C93.3251 46.6451 93.4303 46.8803 93.4061 47.1708C93.3818 47.4613 93.2288 47.7992 92.959 48.1581L121.396 44.1194Z" fill="#BDFF7B"/>
<path d="M121.396 44.1194C124.094 40.5304 125.624 37.1508 125.866 34.2458C126.108 31.3409 125.056 28.9895 122.792 27.3761L93.0987 46.4838C93.3251 46.6451 93.4303 46.8803 93.4061 47.1708C93.3818 47.4613 93.2288 47.7992 92.959 48.1581L121.396 44.1194Z" fill="url(#paint5_linear)"/>
<path d="M121.396 44.1194C124.094 40.5304 125.624 37.1508 125.866 34.2458C126.108 31.3409 125.056 28.9895 122.792 27.3761L93.0987 46.4838C93.3251 46.6451 93.4303 46.8803 93.4061 47.1708C93.3818 47.4613 93.2288 47.7992 92.959 48.1581L121.396 44.1194Z" stroke="#114100" stroke-width="2.15532" mask="url(#path-7-inside-6)"/>
<mask id="path-8-inside-7" fill="white">
<path d="M94.7372 27.7163C86.9707 30.3333 78.9564 34.3977 71.9357 39.2798L86.6936 47.7351C87.3957 47.2469 88.1971 46.8405 88.9737 46.5788L94.7372 27.7163Z"/>
</mask>
<path d="M94.7372 27.7163C86.9707 30.3333 78.9564 34.3977 71.9357 39.2798L86.6936 47.7351C87.3957 47.2469 88.1971 46.8405 88.9737 46.5788L94.7372 27.7163Z" fill="#BDFF7B"/>
<path d="M94.7372 27.7163C86.9707 30.3333 78.9564 34.3977 71.9357 39.2798L86.6936 47.7351C87.3957 47.2469 88.1971 46.8405 88.9737 46.5788L94.7372 27.7163Z" fill="url(#paint6_linear)"/>
<path d="M94.7372 27.7163C86.9707 30.3333 78.9564 34.3977 71.9357 39.2798L86.6936 47.7351C87.3957 47.2469 88.1971 46.8405 88.9737 46.5788L94.7372 27.7163Z" stroke="#114100" stroke-width="2.15532" mask="url(#path-8-inside-7)"/>
<ellipse rx="3.89401" ry="1.63617" transform="matrix(0.891123 -0.456326 0.347219 0.938801 88.4752 49.0472)" fill="#EEFFC9"/>
<path d="M130.796 27.2638C131.721 29.7674 131.47 32.7687 130.165 36.0877C128.859 39.4087 126.508 43.0194 123.283 46.7005C116.836 54.0614 106.946 61.6459 95.1401 67.6915C83.3341 73.7371 71.8771 77.0838 62.9051 77.619C58.4183 77.8867 54.5704 77.4502 51.615 76.3114C48.6613 75.1732 46.6232 73.3446 45.6972 70.8409C44.7713 68.3373 45.023 65.336 46.3282 62.017C47.6341 58.696 49.9851 55.0852 53.2094 51.4042C59.657 44.0433 69.5466 36.4588 81.3526 30.4132C93.1586 24.3676 104.616 21.0209 113.588 20.4856C118.074 20.218 121.922 20.6545 124.878 21.7933C127.831 22.9314 129.87 24.7601 130.796 27.2638Z" stroke="white" stroke-width="0.71844"/>
</g>
<g filter="url(#filter1_d)">
<path d="M135.969 46.321C136.848 48.6958 136.634 51.6024 135.325 54.9315C134.014 58.2663 131.632 61.9397 128.318 65.7234C121.693 73.2868 111.493 81.1183 99.2808 87.3719C87.0686 93.6255 75.2467 97.0709 66.0277 97.6208C61.4159 97.896 57.5081 97.4433 54.5404 96.2997C51.5777 95.1581 49.6246 93.3609 48.7463 90.9861C47.868 88.6113 48.0813 85.7048 49.3905 82.3756C50.7019 79.0408 53.0836 75.3674 56.3978 71.5838C63.0228 64.0203 73.2226 56.1889 85.4347 49.9352C97.6469 43.6816 109.469 40.2363 118.688 39.6863C123.3 39.4112 127.207 39.8638 130.175 41.0074C133.138 42.149 135.091 43.9462 135.969 46.321Z" fill="#D1E975" stroke="#2F4500" stroke-width="2.15532"/>
<mask id="path-12-inside-8" fill="white">
<path d="M98.3261 85.4925C103.938 82.6962 109.294 79.3493 113.973 75.7143C118.652 72.0793 122.527 68.2551 125.295 64.5417L96.4974 68.5972C96.2206 68.9686 95.8331 69.351 95.3652 69.7145C94.8973 70.078 94.3617 70.4127 93.8005 70.6923L98.3261 85.4925Z"/>
</mask>
<path d="M98.3261 85.4925C103.938 82.6962 109.294 79.3493 113.973 75.7143C118.652 72.0793 122.527 68.2551 125.295 64.5417L96.4974 68.5972C96.2206 68.9686 95.8331 69.351 95.3652 69.7145C94.8973 70.078 94.3617 70.4127 93.8005 70.6923L98.3261 85.4925Z" fill="#BDFF7B"/>
<path d="M98.3261 85.4925C103.938 82.6962 109.294 79.3493 113.973 75.7143C118.652 72.0793 122.527 68.2551 125.295 64.5417L96.4974 68.5972C96.2206 68.9686 95.8331 69.351 95.3652 69.7145C94.8973 70.078 94.3617 70.4127 93.8005 70.6923L98.3261 85.4925Z" fill="url(#paint7_linear)"/>
<path d="M98.3261 85.4925C103.938 82.6962 109.294 79.3493 113.973 75.7143C118.652 72.0793 122.527 68.2551 125.295 64.5417L96.4974 68.5972C96.2206 68.9686 95.8331 69.351 95.3652 69.7145C94.8973 70.078 94.3617 70.4127 93.8005 70.6923L98.3261 85.4925Z" stroke="#114100" stroke-width="2.15532" mask="url(#path-12-inside-8)"/>
<mask id="path-13-inside-9" fill="white">
<path d="M55.5105 82.4675C54.7425 85.6349 55.2558 88.3026 57.0101 90.2613C58.7644 92.22 61.712 93.4164 65.6216 93.7567L88.4716 72.1156C88.0807 72.0816 87.7859 71.9619 87.6105 71.7661C87.4351 71.5702 87.3837 71.3034 87.4605 70.9867L55.5105 82.4675Z"/>
</mask>
<path d="M55.5105 82.4675C54.7425 85.6349 55.2558 88.3026 57.0101 90.2613C58.7644 92.22 61.712 93.4164 65.6216 93.7567L88.4716 72.1156C88.0807 72.0816 87.7859 71.9619 87.6105 71.7661C87.4351 71.5702 87.3837 71.3034 87.4605 70.9867L55.5105 82.4675Z" fill="#BDFF7B"/>
<path d="M55.5105 82.4675C54.7425 85.6349 55.2558 88.3026 57.0101 90.2613C58.7644 92.22 61.712 93.4164 65.6216 93.7567L88.4716 72.1156C88.0807 72.0816 87.7859 71.9619 87.6105 71.7661C87.4351 71.5702 87.3837 71.3034 87.4605 70.9867L55.5105 82.4675Z" fill="url(#paint8_linear)"/>
<path d="M55.5105 82.4675C54.7425 85.6349 55.2558 88.3026 57.0101 90.2613C58.7644 92.22 61.712 93.4164 65.6216 93.7567L88.4716 72.1156C88.0807 72.0816 87.7859 71.9619 87.6105 71.7661C87.4351 71.5702 87.3837 71.3034 87.4605 70.9867L55.5105 82.4675Z" stroke="#114100" stroke-width="2.15532" mask="url(#path-13-inside-9)"/>
<mask id="path-14-inside-10" fill="white">
<path d="M126.655 45.6633C124.336 43.9946 120.859 43.1471 116.497 43.1873C112.136 43.2275 107.007 44.1543 101.514 45.8949L94.2312 65.7617C94.7805 65.5876 95.2933 65.495 95.7295 65.4909C96.1657 65.4869 96.5134 65.5717 96.7452 65.7385L126.655 45.6633Z"/>
</mask>
<path d="M126.655 45.6633C124.336 43.9946 120.859 43.1471 116.497 43.1873C112.136 43.2275 107.007 44.1543 101.514 45.8949L94.2312 65.7617C94.7805 65.5876 95.2933 65.495 95.7295 65.4909C96.1657 65.4869 96.5134 65.5717 96.7452 65.7385L126.655 45.6633Z" fill="#BDFF7B"/>
<path d="M126.655 45.6633C124.336 43.9946 120.859 43.1471 116.497 43.1873C112.136 43.2275 107.007 44.1543 101.514 45.8949L94.2312 65.7617C94.7805 65.5876 95.2933 65.495 95.7295 65.4909C96.1657 65.4869 96.5134 65.5717 96.7452 65.7385L126.655 45.6633Z" fill="url(#paint9_linear)"/>
<path d="M126.655 45.6633C124.336 43.9946 120.859 43.1471 116.497 43.1873C112.136 43.2275 107.007 44.1543 101.514 45.8949L94.2312 65.7617C94.7805 65.5876 95.2933 65.495 95.7295 65.4909C96.1657 65.4869 96.5134 65.5717 96.7452 65.7385L126.655 45.6633Z" stroke="#114100" stroke-width="2.15532" mask="url(#path-14-inside-10)"/>
<mask id="path-15-inside-11" fill="white">
<path d="M66.0096 94.9804C69.9467 95.3543 74.7538 94.8214 80.0536 93.4234C85.3534 92.0254 91.0018 89.8004 96.5557 86.923L92.2806 71.503C91.7252 71.7908 91.1603 72.0133 90.6303 72.1531C90.1004 72.2929 89.6197 72.3462 89.2259 72.3088L66.0096 94.9804Z"/>
</mask>
<path d="M66.0096 94.9804C69.9467 95.3543 74.7538 94.8214 80.0536 93.4234C85.3534 92.0254 91.0018 89.8004 96.5557 86.923L92.2806 71.503C91.7252 71.7908 91.1603 72.0133 90.6303 72.1531C90.1004 72.2929 89.6197 72.3462 89.2259 72.3088L66.0096 94.9804Z" fill="#BDFF7B"/>
<path d="M66.0096 94.9804C69.9467 95.3543 74.7538 94.8214 80.0536 93.4234C85.3534 92.0254 91.0018 89.8004 96.5557 86.923L92.2806 71.503C91.7252 71.7908 91.1603 72.0133 90.6303 72.1531C90.1004 72.2929 89.6197 72.3462 89.2259 72.3088L66.0096 94.9804Z" fill="url(#paint10_linear)"/>
<path d="M66.0096 94.9804C69.9467 95.3543 74.7538 94.8214 80.0536 93.4234C85.3534 92.0254 91.0018 89.8004 96.5557 86.923L92.2806 71.503C91.7252 71.7908 91.1603 72.0133 90.6303 72.1531C90.1004 72.2929 89.6197 72.3462 89.2259 72.3088L66.0096 94.9804Z" stroke="#114100" stroke-width="2.15532" mask="url(#path-15-inside-11)"/>
<mask id="path-16-inside-12" fill="white">
<path d="M73.5431 60.0755C68.6129 63.6562 64.3777 67.5123 61.1698 71.3414C57.9618 75.1704 55.8685 78.8682 55.0539 82.1447L87.4832 70.4316C87.5646 70.104 87.774 69.7342 88.0948 69.3513C88.4155 68.9684 88.8391 68.5828 89.3321 68.2247L73.5431 60.0755Z"/>
</mask>
<path d="M73.5431 60.0755C68.6129 63.6562 64.3777 67.5123 61.1698 71.3414C57.9618 75.1704 55.8685 78.8682 55.0539 82.1447L87.4832 70.4316C87.5646 70.104 87.774 69.7342 88.0948 69.3513C88.4155 68.9684 88.8391 68.5828 89.3321 68.2247L73.5431 60.0755Z" fill="#BDFF7B"/>
<path d="M73.5431 60.0755C68.6129 63.6562 64.3777 67.5123 61.1698 71.3414C57.9618 75.1704 55.8685 78.8682 55.0539 82.1447L87.4832 70.4316C87.5646 70.104 87.774 69.7342 88.0948 69.3513C88.4155 68.9684 88.8391 68.5828 89.3321 68.2247L73.5431 60.0755Z" fill="url(#paint11_linear)"/>
<path d="M73.5431 60.0755C68.6129 63.6562 64.3777 67.5123 61.1698 71.3414C57.9618 75.1704 55.8685 78.8682 55.0539 82.1447L87.4832 70.4316C87.5646 70.104 87.774 69.7342 88.0948 69.3513C88.4155 68.9684 88.8391 68.5828 89.3321 68.2247L73.5431 60.0755Z" stroke="#114100" stroke-width="2.15532" mask="url(#path-16-inside-12)"/>
<mask id="path-17-inside-13" fill="white">
<path d="M125.332 63.8691C128.03 60.2801 129.56 56.9006 129.802 53.9956C130.044 51.0906 128.992 48.7392 126.728 47.1259L97.0347 66.2336C97.2611 66.3949 97.3663 66.63 97.3421 66.9205C97.3179 67.211 97.1648 67.549 96.8951 67.9079L125.332 63.8691Z"/>
</mask>
<path d="M125.332 63.8691C128.03 60.2801 129.56 56.9006 129.802 53.9956C130.044 51.0906 128.992 48.7392 126.728 47.1259L97.0347 66.2336C97.2611 66.3949 97.3663 66.63 97.3421 66.9205C97.3179 67.211 97.1648 67.549 96.8951 67.9079L125.332 63.8691Z" fill="#BDFF7B"/>
<path d="M125.332 63.8691C128.03 60.2801 129.56 56.9006 129.802 53.9956C130.044 51.0906 128.992 48.7392 126.728 47.1259L97.0347 66.2336C97.2611 66.3949 97.3663 66.63 97.3421 66.9205C97.3179 67.211 97.1648 67.549 96.8951 67.9079L125.332 63.8691Z" fill="url(#paint12_linear)"/>
<path d="M125.332 63.8691C128.03 60.2801 129.56 56.9006 129.802 53.9956C130.044 51.0906 128.992 48.7392 126.728 47.1259L97.0347 66.2336C97.2611 66.3949 97.3663 66.63 97.3421 66.9205C97.3179 67.211 97.1648 67.549 96.8951 67.9079L125.332 63.8691Z" stroke="#114100" stroke-width="2.15532" mask="url(#path-17-inside-13)"/>
<mask id="path-18-inside-14" fill="white">
<path d="M98.6742 47.4655C90.9077 50.0825 82.8934 54.1469 75.8727 59.029L90.6306 67.4843C91.3327 66.9961 92.1341 66.5897 92.9107 66.328L98.6742 47.4655Z"/>
</mask>
<path d="M98.6742 47.4655C90.9077 50.0825 82.8934 54.1469 75.8727 59.029L90.6306 67.4843C91.3327 66.9961 92.1341 66.5897 92.9107 66.328L98.6742 47.4655Z" fill="#BDFF7B"/>
<path d="M98.6742 47.4655C90.9077 50.0825 82.8934 54.1469 75.8727 59.029L90.6306 67.4843C91.3327 66.9961 92.1341 66.5897 92.9107 66.328L98.6742 47.4655Z" fill="url(#paint13_linear)"/>
<path d="M98.6742 47.4655C90.9077 50.0825 82.8934 54.1469 75.8727 59.029L90.6306 67.4843C91.3327 66.9961 92.1341 66.5897 92.9107 66.328L98.6742 47.4655Z" stroke="#114100" stroke-width="2.15532" mask="url(#path-18-inside-14)"/>
<ellipse rx="3.89401" ry="1.63617" transform="matrix(0.891123 -0.456327 0.347219 0.938801 92.4112 68.7969)" fill="#EEFFC9"/>
<path d="M134.733 47.0129C135.658 49.5166 135.407 52.5178 134.102 55.8369C132.796 59.1578 130.445 62.7686 127.22 66.4496C120.773 73.8105 110.883 81.395 99.0771 87.4406C87.2711 93.4863 75.8142 96.8329 66.8421 97.3682C62.3553 97.6358 58.5074 97.1993 55.552 96.0605C52.5983 94.9224 50.5602 93.0937 49.6342 90.5901C48.7083 88.0864 48.96 85.0852 50.2652 81.7661C51.5711 78.4452 53.9221 74.8344 57.1464 71.1533C63.594 63.7924 73.4836 56.208 85.2896 50.1623C97.0956 44.1167 108.553 40.77 117.525 40.2348C122.011 39.9671 125.859 40.4036 128.815 41.5424C131.768 42.6806 133.807 44.5093 134.733 47.0129Z" stroke="white" stroke-width="0.71844"/>
</g>
<g filter="url(#filter2_d)">
<path d="M103.658 29.7659C104.537 32.1407 104.323 35.0473 103.014 38.3764C101.703 41.7112 99.3211 45.3846 96.0069 49.1682C89.3819 56.7317 79.1822 64.5632 66.97 70.8168C54.7578 77.0704 42.9359 80.5158 33.7169 81.0657C29.1051 81.3408 25.1973 80.8882 22.2296 79.7446C19.2669 78.603 17.3139 76.8058 16.4355 74.431C15.5572 72.0562 15.7705 69.1497 17.0797 65.8205C18.3911 62.4857 20.7729 58.8123 24.087 55.0287C30.7121 47.4652 40.9118 39.6337 53.1239 33.3801C65.3361 27.1265 77.158 23.6812 86.377 23.1312C90.9888 22.8561 94.8966 23.3087 97.8643 24.4523C100.827 25.5939 102.78 27.3911 103.658 29.7659Z" fill="#D1E975" stroke="#2F4500" stroke-width="2.15532"/>
<mask id="path-22-inside-15" fill="white">
<path d="M66.0146 68.9377C71.6265 66.1414 76.9821 62.7945 81.6612 59.1595C86.3403 55.5245 90.2157 51.7002 92.9833 47.9868L64.1859 52.0424C63.9091 52.4138 63.5216 52.7962 63.0537 53.1597C62.5858 53.5232 62.0502 53.8579 61.489 54.1375L66.0146 68.9377Z"/>
</mask>
<path d="M66.0146 68.9377C71.6265 66.1414 76.9821 62.7945 81.6612 59.1595C86.3403 55.5245 90.2157 51.7002 92.9833 47.9868L64.1859 52.0424C63.9091 52.4138 63.5216 52.7962 63.0537 53.1597C62.5858 53.5232 62.0502 53.8579 61.489 54.1375L66.0146 68.9377Z" fill="#BDFF7B"/>
<path d="M66.0146 68.9377C71.6265 66.1414 76.9821 62.7945 81.6612 59.1595C86.3403 55.5245 90.2157 51.7002 92.9833 47.9868L64.1859 52.0424C63.9091 52.4138 63.5216 52.7962 63.0537 53.1597C62.5858 53.5232 62.0502 53.8579 61.489 54.1375L66.0146 68.9377Z" fill="url(#paint14_linear)"/>
<path d="M66.0146 68.9377C71.6265 66.1414 76.9821 62.7945 81.6612 59.1595C86.3403 55.5245 90.2157 51.7002 92.9833 47.9868L64.1859 52.0424C63.9091 52.4138 63.5216 52.7962 63.0537 53.1597C62.5858 53.5232 62.0502 53.8579 61.489 54.1375L66.0146 68.9377Z" stroke="#114100" stroke-width="2.15532" mask="url(#path-22-inside-15)"/>
<mask id="path-23-inside-16" fill="white">
<path d="M23.2002 65.9122C22.4322 69.0796 22.9455 71.7473 24.6998 73.706C26.4541 75.6647 29.4017 76.8611 33.3113 77.2014L56.1613 55.5603C55.7704 55.5263 55.4756 55.4066 55.3002 55.2108C55.1248 55.0149 55.0734 54.7481 55.1502 54.4314L23.2002 65.9122Z"/>
</mask>
<path d="M23.2002 65.9122C22.4322 69.0796 22.9455 71.7473 24.6998 73.706C26.4541 75.6647 29.4017 76.8611 33.3113 77.2014L56.1613 55.5603C55.7704 55.5263 55.4756 55.4066 55.3002 55.2108C55.1248 55.0149 55.0734 54.7481 55.1502 54.4314L23.2002 65.9122Z" fill="#BDFF7B"/>
<path d="M23.2002 65.9122C22.4322 69.0796 22.9455 71.7473 24.6998 73.706C26.4541 75.6647 29.4017 76.8611 33.3113 77.2014L56.1613 55.5603C55.7704 55.5263 55.4756 55.4066 55.3002 55.2108C55.1248 55.0149 55.0734 54.7481 55.1502 54.4314L23.2002 65.9122Z" fill="url(#paint15_linear)"/>
<path d="M23.2002 65.9122C22.4322 69.0796 22.9455 71.7473 24.6998 73.706C26.4541 75.6647 29.4017 76.8611 33.3113 77.2014L56.1613 55.5603C55.7704 55.5263 55.4756 55.4066 55.3002 55.2108C55.1248 55.0149 55.0734 54.7481 55.1502 54.4314L23.2002 65.9122Z" stroke="#114100" stroke-width="2.15532" mask="url(#path-23-inside-16)"/>
<mask id="path-24-inside-17" fill="white">
<path d="M94.3437 29.1083C92.0252 27.4396 88.5486 26.5922 84.1867 26.6324C79.8247 26.6725 74.6961 27.5993 69.203 29.3399L61.9204 49.2067C62.4697 49.0326 62.9825 48.94 63.4187 48.936C63.8549 48.9319 64.2026 49.0167 64.4344 49.1835L94.3437 29.1083Z"/>
</mask>
<path d="M94.3437 29.1083C92.0252 27.4396 88.5486 26.5922 84.1867 26.6324C79.8247 26.6725 74.6961 27.5993 69.203 29.3399L61.9204 49.2067C62.4697 49.0326 62.9825 48.94 63.4187 48.936C63.8549 48.9319 64.2026 49.0167 64.4344 49.1835L94.3437 29.1083Z" fill="#BDFF7B"/>
<path d="M94.3437 29.1083C92.0252 27.4396 88.5486 26.5922 84.1867 26.6324C79.8247 26.6725 74.6961 27.5993 69.203 29.3399L61.9204 49.2067C62.4697 49.0326 62.9825 48.94 63.4187 48.936C63.8549 48.9319 64.2026 49.0167 64.4344 49.1835L94.3437 29.1083Z" fill="url(#paint16_linear)"/>
<path d="M94.3437 29.1083C92.0252 27.4396 88.5486 26.5922 84.1867 26.6324C79.8247 26.6725 74.6961 27.5993 69.203 29.3399L61.9204 49.2067C62.4697 49.0326 62.9825 48.94 63.4187 48.936C63.8549 48.9319 64.2026 49.0167 64.4344 49.1835L94.3437 29.1083Z" stroke="#114100" stroke-width="2.15532" mask="url(#path-24-inside-17)"/>
<mask id="path-25-inside-18" fill="white">
<path d="M33.6978 78.4256C37.635 78.7995 42.442 78.2666 47.7418 76.8686C53.0416 75.4706 58.6901 73.2456 64.244 70.3682L59.9688 54.9482C59.4134 55.236 58.8485 55.4585 58.3186 55.5983C57.7886 55.7381 57.3079 55.7913 56.9142 55.754L33.6978 78.4256Z"/>
</mask>
<path d="M33.6978 78.4256C37.635 78.7995 42.442 78.2666 47.7418 76.8686C53.0416 75.4706 58.6901 73.2456 64.244 70.3682L59.9688 54.9482C59.4134 55.236 58.8485 55.4585 58.3186 55.5983C57.7886 55.7381 57.3079 55.7913 56.9142 55.754L33.6978 78.4256Z" fill="#BDFF7B"/>
<path d="M33.6978 78.4256C37.635 78.7995 42.442 78.2666 47.7418 76.8686C53.0416 75.4706 58.6901 73.2456 64.244 70.3682L59.9688 54.9482C59.4134 55.236 58.8485 55.4585 58.3186 55.5983C57.7886 55.7381 57.3079 55.7913 56.9142 55.754L33.6978 78.4256Z" fill="url(#paint17_linear)"/>
<path d="M33.6978 78.4256C37.635 78.7995 42.442 78.2666 47.7418 76.8686C53.0416 75.4706 58.6901 73.2456 64.244 70.3682L59.9688 54.9482C59.4134 55.236 58.8485 55.4585 58.3186 55.5983C57.7886 55.7381 57.3079 55.7913 56.9142 55.754L33.6978 78.4256Z" stroke="#114100" stroke-width="2.15532" mask="url(#path-25-inside-18)"/>
<mask id="path-26-inside-19" fill="white">
<path d="M41.2321 43.5205C36.3018 47.1012 32.0666 50.9573 28.8587 54.7864C25.6508 58.6154 23.5575 62.3133 22.7429 65.5897L55.1721 53.8766C55.2536 53.549 55.4629 53.1792 55.7837 52.7963C56.1045 52.4134 56.528 52.0278 57.0211 51.6697L41.2321 43.5205Z"/>
</mask>
<path d="M41.2321 43.5205C36.3018 47.1012 32.0666 50.9573 28.8587 54.7864C25.6508 58.6154 23.5575 62.3133 22.7429 65.5897L55.1721 53.8766C55.2536 53.549 55.4629 53.1792 55.7837 52.7963C56.1045 52.4134 56.528 52.0278 57.0211 51.6697L41.2321 43.5205Z" fill="#BDFF7B"/>
<path d="M41.2321 43.5205C36.3018 47.1012 32.0666 50.9573 28.8587 54.7864C25.6508 58.6154 23.5575 62.3133 22.7429 65.5897L55.1721 53.8766C55.2536 53.549 55.4629 53.1792 55.7837 52.7963C56.1045 52.4134 56.528 52.0278 57.0211 51.6697L41.2321 43.5205Z" fill="url(#paint18_linear)"/>
<path d="M41.2321 43.5205C36.3018 47.1012 32.0666 50.9573 28.8587 54.7864C25.6508 58.6154 23.5575 62.3133 22.7429 65.5897L55.1721 53.8766C55.2536 53.549 55.4629 53.1792 55.7837 52.7963C56.1045 52.4134 56.528 52.0278 57.0211 51.6697L41.2321 43.5205Z" stroke="#114100" stroke-width="2.15532" mask="url(#path-26-inside-19)"/>
<mask id="path-27-inside-20" fill="white">
<path d="M93.0218 47.3135C95.7196 43.7245 97.2496 40.345 97.4919 37.44C97.7342 34.535 96.6821 32.1836 94.4181 30.5703L64.7246 49.678C64.951 49.8393 65.0563 50.0744 65.032 50.3649C65.0078 50.6554 64.8548 50.9934 64.585 51.3523L93.0218 47.3135Z"/>
</mask>
<path d="M93.0218 47.3135C95.7196 43.7245 97.2496 40.345 97.4919 37.44C97.7342 34.535 96.6821 32.1836 94.4181 30.5703L64.7246 49.678C64.951 49.8393 65.0563 50.0744 65.032 50.3649C65.0078 50.6554 64.8548 50.9934 64.585 51.3523L93.0218 47.3135Z" fill="#BDFF7B"/>
<path d="M93.0218 47.3135C95.7196 43.7245 97.2496 40.345 97.4919 37.44C97.7342 34.535 96.6821 32.1836 94.4181 30.5703L64.7246 49.678C64.951 49.8393 65.0563 50.0744 65.032 50.3649C65.0078 50.6554 64.8548 50.9934 64.585 51.3523L93.0218 47.3135Z" fill="url(#paint19_linear)"/>
<path d="M93.0218 47.3135C95.7196 43.7245 97.2496 40.345 97.4919 37.44C97.7342 34.535 96.6821 32.1836 94.4181 30.5703L64.7246 49.678C64.951 49.8393 65.0563 50.0744 65.032 50.3649C65.0078 50.6554 64.8548 50.9934 64.585 51.3523L93.0218 47.3135Z" stroke="#114100" stroke-width="2.15532" mask="url(#path-27-inside-20)"/>
<mask id="path-28-inside-21" fill="white">
<path d="M66.3632 30.9105C58.5967 33.5275 50.5824 37.5919 43.5617 42.474L58.3196 50.9293C59.0216 50.4411 59.8231 50.0347 60.5997 49.773L66.3632 30.9105Z"/>
</mask>
<path d="M66.3632 30.9105C58.5967 33.5275 50.5824 37.5919 43.5617 42.474L58.3196 50.9293C59.0216 50.4411 59.8231 50.0347 60.5997 49.773L66.3632 30.9105Z" fill="#BDFF7B"/>
<path d="M66.3632 30.9105C58.5967 33.5275 50.5824 37.5919 43.5617 42.474L58.3196 50.9293C59.0216 50.4411 59.8231 50.0347 60.5997 49.773L66.3632 30.9105Z" fill="url(#paint20_linear)"/>
<path d="M66.3632 30.9105C58.5967 33.5275 50.5824 37.5919 43.5617 42.474L58.3196 50.9293C59.0216 50.4411 59.8231 50.0347 60.5997 49.773L66.3632 30.9105Z" stroke="#114100" stroke-width="2.15532" mask="url(#path-28-inside-21)"/>
<ellipse rx="3.89401" ry="1.63617" transform="matrix(0.891123 -0.456326 0.347219 0.938801 60.1011 52.2413)" fill="#EEFFC9"/>
<path d="M102.422 30.4579C103.348 32.9615 103.096 35.9627 101.791 39.2818C100.485 42.6028 98.1339 46.2135 94.9095 49.8946C88.4619 57.2555 78.5724 64.84 66.7663 70.8856C54.9603 76.9312 43.5034 80.2779 34.5313 80.8131C30.0445 81.0808 26.1966 80.6443 23.2412 79.5055C20.2875 78.3673 18.2494 76.5387 17.3235 74.035C16.3975 71.5314 16.6492 68.5301 17.9544 65.211C19.2603 61.8901 21.6113 58.2793 24.8356 54.5983C31.2832 47.2374 41.1728 39.6529 52.9788 33.6073C64.7849 27.5616 76.2418 24.215 85.2139 23.6797C89.7007 23.4121 93.5485 23.8486 96.5039 24.9874C99.4577 26.1255 101.496 27.9542 102.422 30.4579Z" stroke="white" stroke-width="0.71844"/>
</g>
<defs>
<filter id="filter0_d" x="43.2488" y="18.7339" width="94.2237" height="64.2204" filterUnits="userSpaceOnUse" color-interpolation-filters="sRGB">
<feFlood flood-opacity="0" result="BackgroundImageFix"/>
<feColorMatrix in="SourceAlpha" type="matrix" values="0 0 0 0 0 0 0 0 0 0 0 0 0 0 0 0 0 0 127 0"/>
<feOffset dx="3.5922" dy="3.5922"/>
<feGaussianBlur stdDeviation="0.143688"/>
<feColorMatrix type="matrix" values="0 0 0 0 0.0660833 0 0 0 0 0.254167 0 0 0 0 0 0 0 0 1 0"/>
<feBlend mode="normal" in2="BackgroundImageFix" result="effect1_dropShadow"/>
<feBlend mode="normal" in="SourceGraphic" in2="effect1_dropShadow" result="shape"/>
</filter>
<filter id="filter1_d" x="47.1858" y="38.4832" width="94.2237" height="64.2204" filterUnits="userSpaceOnUse" color-interpolation-filters="sRGB">
<feFlood flood-opacity="0" result="BackgroundImageFix"/>
<feColorMatrix in="SourceAlpha" type="matrix" values="0 0 0 0 0 0 0 0 0 0 0 0 0 0 0 0 0 0 127 0"/>
<feOffset dx="3.5922" dy="3.5922"/>
<feGaussianBlur stdDeviation="0.143688"/>
<feColorMatrix type="matrix" values="0 0 0 0 0.0660833 0 0 0 0 0.254167 0 0 0 0 0 0 0 0 1 0"/>
<feBlend mode="normal" in2="BackgroundImageFix" result="effect1_dropShadow"/>
<feBlend mode="normal" in="SourceGraphic" in2="effect1_dropShadow" result="shape"/>
</filter>
<filter id="filter2_d" x="14.875" y="21.928" width="94.2237" height="64.2204" filterUnits="userSpaceOnUse" color-interpolation-filters="sRGB">
<feFlood flood-opacity="0" result="BackgroundImageFix"/>
<feColorMatrix in="SourceAlpha" type="matrix" values="0 0 0 0 0 0 0 0 0 0 0 0 0 0 0 0 0 0 127 0"/>
<feOffset dx="3.5922" dy="3.5922"/>
<feGaussianBlur stdDeviation="0.143688"/>
<feColorMatrix type="matrix" values="0 0 0 0 0.0660833 0 0 0 0 0.254167 0 0 0 0 0 0 0 0 1 0"/>
<feBlend mode="normal" in2="BackgroundImageFix" result="effect1_dropShadow"/>
<feBlend mode="normal" in="SourceGraphic" in2="effect1_dropShadow" result="shape"/>
</filter>
<linearGradient id="paint0_linear" x1="125.684" y1="31.1997" x2="49.1251" y2="54.6098" gradientUnits="userSpaceOnUse">
<stop offset="0.3" stop-color="#279600"/>
<stop offset="0.935417" stop-color="#A1FF80" stop-opacity="0"/>
</linearGradient>
<linearGradient id="paint1_linear" x1="82.103" y1="70.4635" x2="70.1908" y2="37.3129" gradientUnits="userSpaceOnUse">
<stop offset="0.3" stop-color="#279600"/>
<stop offset="0.935417" stop-color="#A1FF80" stop-opacity="0"/>
</linearGradient>
<linearGradient id="paint2_linear" x1="74.4781" y1="37.4194" x2="93.7957" y2="66.1998" gradientUnits="userSpaceOnUse">
<stop offset="0.3" stop-color="#279600"/>
<stop offset="0.935417" stop-color="#A1FF80" stop-opacity="0"/>
</linearGradient>
<linearGradient id="paint3_linear" x1="113.351" y1="52.4612" x2="86.0528" y2="24.5069" gradientUnits="userSpaceOnUse">
<stop offset="0.3" stop-color="#279600"/>
<stop offset="0.935417" stop-color="#A1FF80" stop-opacity="0"/>
</linearGradient>
<linearGradient id="paint4_linear" x1="55.2375" y1="72.5576" x2="87.555" y2="9.94294" gradientUnits="userSpaceOnUse">
<stop offset="0.3" stop-color="#279600"/>
<stop offset="0.935417" stop-color="#A1FF80" stop-opacity="0"/>
</linearGradient>
<linearGradient id="paint5_linear" x1="107.261" y1="25.3765" x2="113.039" y2="66.0566" gradientUnits="userSpaceOnUse">
<stop offset="0.3" stop-color="#279600"/>
<stop offset="0.935417" stop-color="#A1FF80" stop-opacity="0"/>
</linearGradient>
<linearGradient id="paint6_linear" x1="53.0296" y1="60.5708" x2="110.959" y2="78.2712" gradientUnits="userSpaceOnUse">
<stop offset="0.3" stop-color="#279600"/>
<stop offset="0.935417" stop-color="#A1FF80" stop-opacity="0"/>
</linearGradient>
<linearGradient id="paint7_linear" x1="129.622" y1="50.9484" x2="53.0631" y2="74.3585" gradientUnits="userSpaceOnUse">
<stop offset="0.3" stop-color="#279600"/>
<stop offset="0.935417" stop-color="#A1FF80" stop-opacity="0"/>
</linearGradient>
<linearGradient id="paint8_linear" x1="86.04" y1="90.2127" x2="74.1278" y2="57.0621" gradientUnits="userSpaceOnUse">
<stop offset="0.3" stop-color="#279600"/>
<stop offset="0.935417" stop-color="#A1FF80" stop-opacity="0"/>
</linearGradient>
<linearGradient id="paint9_linear" x1="78.4152" y1="57.1685" x2="97.7327" y2="85.949" gradientUnits="userSpaceOnUse">
<stop offset="0.3" stop-color="#279600"/>
<stop offset="0.935417" stop-color="#A1FF80" stop-opacity="0"/>
</linearGradient>
<linearGradient id="paint10_linear" x1="117.289" y1="72.2098" x2="89.991" y2="44.2555" gradientUnits="userSpaceOnUse">
<stop offset="0.3" stop-color="#279600"/>
<stop offset="0.935417" stop-color="#A1FF80" stop-opacity="0"/>
</linearGradient>
<linearGradient id="paint11_linear" x1="59.1745" y1="92.3068" x2="91.492" y2="29.6921" gradientUnits="userSpaceOnUse">
<stop offset="0.3" stop-color="#279600"/>
<stop offset="0.935417" stop-color="#A1FF80" stop-opacity="0"/>
</linearGradient>
<linearGradient id="paint12_linear" x1="111.197" y1="45.1262" x2="116.975" y2="85.8064" gradientUnits="userSpaceOnUse">
<stop offset="0.3" stop-color="#279600"/>
<stop offset="0.935417" stop-color="#A1FF80" stop-opacity="0"/>
</linearGradient>
<linearGradient id="paint13_linear" x1="56.9666" y1="80.32" x2="114.896" y2="98.0204" gradientUnits="userSpaceOnUse">
<stop offset="0.3" stop-color="#279600"/>
<stop offset="0.935417" stop-color="#A1FF80" stop-opacity="0"/>
</linearGradient>
<linearGradient id="paint14_linear" x1="97.3102" y1="34.3936" x2="20.7516" y2="57.8037" gradientUnits="userSpaceOnUse">
<stop offset="0.3" stop-color="#279600"/>
<stop offset="0.935417" stop-color="#A1FF80" stop-opacity="0"/>
</linearGradient>
<linearGradient id="paint15_linear" x1="53.7297" y1="73.6574" x2="41.8175" y2="40.5068" gradientUnits="userSpaceOnUse">
<stop offset="0.3" stop-color="#279600"/>
<stop offset="0.935417" stop-color="#A1FF80" stop-opacity="0"/>
</linearGradient>
<linearGradient id="paint16_linear" x1="46.1044" y1="40.6135" x2="65.422" y2="69.394" gradientUnits="userSpaceOnUse">
<stop offset="0.3" stop-color="#279600"/>
<stop offset="0.935417" stop-color="#A1FF80" stop-opacity="0"/>
</linearGradient>
<linearGradient id="paint17_linear" x1="84.9777" y1="55.655" x2="57.6793" y2="27.7007" gradientUnits="userSpaceOnUse">
<stop offset="0.3" stop-color="#279600"/>
<stop offset="0.935417" stop-color="#A1FF80" stop-opacity="0"/>
</linearGradient>
<linearGradient id="paint18_linear" x1="26.8635" y1="75.7518" x2="59.181" y2="13.1371" gradientUnits="userSpaceOnUse">
<stop offset="0.3" stop-color="#279600"/>
<stop offset="0.935417" stop-color="#A1FF80" stop-opacity="0"/>
</linearGradient>
<linearGradient id="paint19_linear" x1="78.8874" y1="28.5706" x2="84.665" y2="69.2508" gradientUnits="userSpaceOnUse">
<stop offset="0.3" stop-color="#279600"/>
<stop offset="0.935417" stop-color="#A1FF80" stop-opacity="0"/>
</linearGradient>
<linearGradient id="paint20_linear" x1="24.6556" y1="63.765" x2="82.5849" y2="81.4654" gradientUnits="userSpaceOnUse">
<stop offset="0.3" stop-color="#279600"/>
<stop offset="0.935417" stop-color="#A1FF80" stop-opacity="0"/>
</linearGradient>
</defs>
</svg>
