<svg width="121" height="147" viewBox="0 0 121 147" fill="none" xmlns="http://www.w3.org/2000/svg">
<path d="M30.198 30.9856C24.2581 36.9255 20.213 44.4934 18.5742 52.7322C16.9353 60.9711 17.7764 69.5109 20.9911 77.2717C24.2057 85.0326 29.6495 91.6659 36.6341 96.3328C43.6187 101 51.8303 103.491 60.2306 103.491C68.6309 103.491 76.8425 101 83.8271 96.3328C90.8116 91.6659 96.2554 85.0326 99.4701 77.2717C102.685 69.5109 103.526 60.9711 101.887 52.7322C100.248 44.4934 96.2031 36.9255 90.2632 30.9856L86.8958 34.353C92.1697 39.6269 95.7613 46.3462 97.2163 53.6613C98.6714 60.9764 97.9246 68.5587 95.0704 75.4493C92.2162 82.34 87.3828 88.2295 81.1813 92.3732C74.9799 96.5169 67.689 98.7285 60.2306 98.7285C52.7722 98.7285 45.4813 96.5169 39.2798 92.3732C33.0784 88.2295 28.245 82.34 25.3908 75.4493C22.5366 68.5587 21.7898 60.9764 23.2448 53.6613C24.6999 46.3462 28.2915 39.6269 33.5654 34.353L30.198 30.9856Z" fill="white"/>
<line x1="59.8633" y1="101.607" x2="59.8633" y2="140.56" stroke="white" stroke-width="7.07333"/>
<path d="M60.0035 134.697L81.1173 143.491H38.8897L60.0035 134.697Z" fill="white"/>
<path d="M29.3784 33.5187C52.6272 42.0998 67.314 42.6965 91.2195 33.5424" stroke="white" stroke-width="5.305"/>
<path d="M30.5743 34.4213C39.9855 24.8325 73.9751 22.3883 89.4324 33.991" stroke="white" stroke-width="5.305"/>
<path d="M33.9013 44.9683C31.6578 46.6838 27.6514 55.8829 31.6103 62.5339M37.539 48.0828C35.9828 48.0828 32.9443 54.4561 36.5015 57.7909" stroke="white" stroke-width="2.122"/>
</svg>
