<svg width="67" height="147" viewBox="0 0 67 147" fill="none" xmlns="http://www.w3.org/2000/svg">
<path d="M66.506 58.4697C66.506 62.8263 65.6479 67.1403 63.9807 71.1653C62.3135 75.1903 59.8698 78.8474 56.7892 81.928C53.7086 85.0086 50.0515 87.4523 46.0265 89.1195C42.0015 90.7867 37.6875 91.6448 33.3309 91.6448C28.9743 91.6448 24.6604 90.7867 20.6354 89.1195C16.6104 87.4523 12.9532 85.0086 9.87263 81.928C6.79204 78.8474 4.34838 75.1902 2.68118 71.1653C1.01398 67.1403 0.155883 62.8263 0.155884 58.4697H3.47339C3.47339 62.3907 4.24568 66.2732 5.74616 69.8957C7.24664 73.5182 9.44593 76.8097 12.2185 79.5822C14.991 82.3547 18.2825 84.554 21.9049 86.0545C25.5274 87.555 29.41 88.3273 33.3309 88.3273C37.2519 88.3273 41.1344 87.555 44.7569 86.0545C48.3794 84.554 51.6709 82.3547 54.4434 79.5822C57.2159 76.8097 59.4152 73.5182 60.9157 69.8957C62.4162 66.2732 63.1885 62.3907 63.1885 58.4697H66.506Z" fill="white"/>
<rect x="0.155884" y="11.1453" width="3.3156" height="47.3245" fill="white"/>
<rect x="31.6731" y="90.291" width="3.3156" height="47.3245" fill="white"/>
<rect x="63.1904" y="11.1453" width="3.3156" height="47.3245" fill="white"/>
<path d="M32.8123 135.12C33.1218 134.896 33.5399 134.896 33.8493 135.12L43.2257 141.901C43.921 142.404 43.5652 143.503 42.7072 143.503H23.9545C23.0964 143.503 22.7407 142.404 23.436 141.901L32.8123 135.12Z" fill="white"/>
<path d="M64.7365 11.1452C64.7365 11.7139 64.3564 12.5932 62.859 13.6809C61.4008 14.7401 59.1769 15.7676 56.2696 16.6608C50.4767 18.4406 42.3662 19.568 33.3309 19.568C24.2956 19.568 16.1852 18.4406 10.3923 16.6608C7.48496 15.7676 5.26105 14.7401 3.80284 13.6809C2.30547 12.5932 1.92534 11.7139 1.92534 11.1452C1.92534 10.5766 2.30547 9.69724 3.80284 8.6096C5.26105 7.55041 7.48496 6.52287 10.3923 5.62967C16.1852 3.84993 24.2956 2.72246 33.3309 2.72246C42.3662 2.72246 50.4767 3.84993 56.2696 5.62967C59.1769 6.52287 61.4008 7.55041 62.859 8.6096C64.3564 9.69724 64.7365 10.5766 64.7365 11.1452Z" stroke="white" stroke-width="3.53891"/>
<rect x="6.47559" y="22.4747" width="2.54221" height="18.127" fill="white"/>
<rect x="11.1178" y="27.7802" width="2.54221" height="18.127" fill="white"/>
</svg>
