<svg width="180" height="255" viewBox="0 0 180 255" fill="none" xmlns="http://www.w3.org/2000/svg">
<path fill-rule="evenodd" clip-rule="evenodd" d="M25.5813 232.217C25.4723 232.71 25.4169 233.207 25.4169 233.709C25.4169 245.185 54.3897 254.487 90.1296 254.487C125.661 254.487 154.504 245.293 154.839 233.91C148.574 236.635 141.078 238.949 132.677 240.728C122.024 244.04 107.02 246.203 90.1296 246.203C72.8769 246.203 57.5929 243.946 46.9033 240.514C44.189 239.642 41.8876 238.732 39.9858 237.826C34.5882 236.189 29.7457 234.304 25.5813 232.217Z" fill="black"/>
<path d="M5.01904 22.5249L44.264 35.4602L89.3728 37.5898L143.787 35.4602L174.697 22.5249L152.638 236.143L122.958 247.078L89.3728 249.811L57.7402 247.078L30.7939 236.143L5.01904 22.5249Z" fill="#2E0000"/>
<path d="M175.323 21.7522C175.323 21.9004 175.277 22.3679 174.541 23.2048C173.782 24.0682 172.474 25.0988 170.454 26.211C166.415 28.4335 160.297 30.5677 152.382 32.4101C136.618 36.0794 114.633 38.3879 90.2037 38.3879C65.7744 38.3879 43.7889 36.0794 28.0252 32.4101C20.1103 30.5677 13.9923 28.4335 9.95377 26.211C7.93292 25.0988 6.62546 24.0682 5.86647 23.2048C5.13074 22.3679 5.08416 21.9004 5.08416 21.7522C5.08416 21.604 5.13074 21.1365 5.86647 20.2996C6.62546 19.4362 7.93292 18.4056 9.95377 17.2934C13.9923 15.0709 20.1103 12.9367 28.0252 11.0943C43.7889 7.42495 65.7744 5.11651 90.2037 5.11651C114.633 5.11651 136.618 7.42495 152.382 11.0943C160.297 12.9367 166.415 15.0709 170.454 17.2934C172.474 18.4056 173.782 19.4362 174.541 20.2996C175.277 21.1365 175.323 21.604 175.323 21.7522Z" fill="#A99A89"/>
<path d="M175.323 21.7522C175.323 21.9004 175.277 22.3679 174.541 23.2048C173.782 24.0682 172.474 25.0988 170.454 26.211C166.415 28.4335 160.297 30.5677 152.382 32.4101C136.618 36.0794 114.633 38.3879 90.2037 38.3879C65.7744 38.3879 43.7889 36.0794 28.0252 32.4101C20.1103 30.5677 13.9923 28.4335 9.95377 26.211C7.93292 25.0988 6.62546 24.0682 5.86647 23.2048C5.13074 22.3679 5.08416 21.9004 5.08416 21.7522C5.08416 21.604 5.13074 21.1365 5.86647 20.2996C6.62546 19.4362 7.93292 18.4056 9.95377 17.2934C13.9923 15.0709 20.1103 12.9367 28.0252 11.0943C43.7889 7.42495 65.7744 5.11651 90.2037 5.11651C114.633 5.11651 136.618 7.42495 152.382 11.0943C160.297 12.9367 166.415 15.0709 170.454 17.2934C172.474 18.4056 173.782 19.4362 174.541 20.2996C175.277 21.1365 175.323 21.604 175.323 21.7522Z" fill="url(#paint0_linear)"/>
<path d="M175.323 21.7522C175.323 21.9004 175.277 22.3679 174.541 23.2048C173.782 24.0682 172.474 25.0988 170.454 26.211C166.415 28.4335 160.297 30.5677 152.382 32.4101C136.618 36.0794 114.633 38.3879 90.2037 38.3879C65.7744 38.3879 43.7889 36.0794 28.0252 32.4101C20.1103 30.5677 13.9923 28.4335 9.95377 26.211C7.93292 25.0988 6.62546 24.0682 5.86647 23.2048C5.13074 22.3679 5.08416 21.9004 5.08416 21.7522C5.08416 21.604 5.13074 21.1365 5.86647 20.2996C6.62546 19.4362 7.93292 18.4056 9.95377 17.2934C13.9923 15.0709 20.1103 12.9367 28.0252 11.0943C43.7889 7.42495 65.7744 5.11651 90.2037 5.11651C114.633 5.11651 136.618 7.42495 152.382 11.0943C160.297 12.9367 166.415 15.0709 170.454 17.2934C172.474 18.4056 173.782 19.4362 174.541 20.2996C175.277 21.1365 175.323 21.604 175.323 21.7522Z" stroke="black" stroke-width="8.2843"/>
<path d="M2.4751 23.5236L9.90164 22.7071L32.9249 235.692L25.4174 232.217L2.4751 23.5236Z" fill="black"/>
<path d="M177.782 25.3529L170.356 24.5365L147.827 237.202L154.84 234.046L177.782 25.3529Z" fill="black"/>
<path d="M100.905 93.7965C105.956 91.1111 110.029 93.8308 111.52 95.6095L120.385 112.211L104.412 121.035L94.2429 102.32C94.324 102.158 94.4212 101.968 94.5334 101.754C94.9114 101.033 95.4553 100.052 96.1192 99.0088C97.4915 96.853 99.2171 94.6936 100.905 93.7965ZM95.8563 92.3553L80.2718 115.826L79.5242 116.951L80.6605 117.683L82.5179 118.879L68.0432 119.541L62.2012 106.158L63.7426 107.15L64.8821 107.883L65.5962 106.732C67.5263 103.619 71.7134 96.9024 73.0988 94.8081C74.1864 93.1641 76.0193 92.4903 76.8063 92.3553H95.8563Z" stroke="#C9C9C9" stroke-width="2.66522"/>
<path d="M47.5347 150.366C42.7036 147.303 43.0541 142.417 43.8636 140.243L53.913 124.329L69.479 133.853L58.2367 151.944C58.0562 151.953 57.8427 151.963 57.6013 151.971C56.7877 151.999 55.6658 152.011 54.4311 151.95C51.8787 151.822 49.1486 151.39 47.5347 150.366ZM48.7772 155.467L76.8832 157.413L78.2314 157.506L78.3058 156.157L78.4274 153.951L86.1578 166.207L77.412 177.9L77.5122 176.07L77.5863 174.717L76.2323 174.665C72.5725 174.526 64.664 174.207 62.1586 174.037C60.1919 173.905 58.7001 172.644 58.1938 172.027L48.7772 155.467Z" stroke="#C9C9C9" stroke-width="2.66522"/>
<path d="M123.105 168.036C122.995 173.755 118.638 175.992 116.359 176.43L97.5411 176.104L97.5979 157.856L118.897 158.07C118.999 158.22 119.118 158.397 119.25 158.599C119.696 159.28 120.289 160.233 120.878 161.32C122.094 163.567 123.142 166.125 123.105 168.036ZM126.819 164.326L113.889 139.295L113.269 138.094L112.077 138.731L110.129 139.772L116.589 126.802L131.124 128.205L129.507 129.07L128.313 129.709L128.972 130.893C130.753 134.093 134.586 141.018 135.742 143.247C136.65 144.997 136.348 146.926 136.083 147.679L126.819 164.326Z" stroke="#C9C9C9" stroke-width="2.66522"/>
<defs>
<linearGradient id="paint0_linear" x1="90.2037" y1="0.974365" x2="90.2037" y2="42.53" gradientUnits="userSpaceOnUse">
<stop/>
<stop offset="1" stop-color="white" stop-opacity="0"/>
</linearGradient>
</defs>
</svg>
