<svg width="180" height="254" viewBox="0 0 180 254" fill="none" xmlns="http://www.w3.org/2000/svg">
<path fill-rule="evenodd" clip-rule="evenodd" d="M25.2643 231.353C25.1553 231.846 25.0999 232.344 25.0999 232.846C25.0999 244.321 54.0727 253.624 89.8126 253.624C125.344 253.624 154.187 244.43 154.522 233.047C148.257 235.772 140.761 238.086 132.36 239.865C121.707 243.177 106.703 245.34 89.8126 245.34C72.5599 245.34 57.2759 243.083 46.5863 239.651C43.8719 238.779 41.5706 237.869 39.6687 236.962C34.2712 235.326 29.4287 233.441 25.2643 231.353Z" fill="black"/>
<path d="M4.70203 21.6617L43.947 34.597L89.0558 36.7266L143.47 34.597L174.379 21.6617L152.321 235.28L122.641 246.214L89.0558 248.948L57.4232 246.214L30.4769 235.28L4.70203 21.6617Z" fill="#2E0000"/>
<path d="M175.006 20.889C175.006 21.0372 174.96 21.5048 174.224 22.3417C173.465 23.2051 172.157 24.2357 170.137 25.3478C166.098 27.5704 159.98 29.7045 152.065 31.5469C136.301 35.2163 114.316 37.5247 89.8867 37.5247C65.4574 37.5247 43.4719 35.2163 27.7082 31.5469C19.7933 29.7045 13.6753 27.5704 9.63675 25.3478C7.6159 24.2357 6.30844 23.2051 5.54945 22.3417C4.81372 21.5048 4.76715 21.0372 4.76715 20.889C4.76715 20.7409 4.81372 20.2733 5.54945 19.4364C6.30844 18.573 7.6159 17.5424 9.63675 16.4303C13.6753 14.2077 19.7933 12.0736 27.7082 10.2312C43.4719 6.56179 65.4574 4.25335 89.8867 4.25335C114.316 4.25335 136.301 6.56179 152.065 10.2312C159.98 12.0736 166.098 14.2077 170.137 16.4303C172.157 17.5424 173.465 18.573 174.224 19.4364C174.96 20.2733 175.006 20.7409 175.006 20.889Z" fill="#A99A89"/>
<path d="M175.006 20.889C175.006 21.0372 174.96 21.5048 174.224 22.3417C173.465 23.2051 172.157 24.2357 170.137 25.3478C166.098 27.5704 159.98 29.7045 152.065 31.5469C136.301 35.2163 114.316 37.5247 89.8867 37.5247C65.4574 37.5247 43.4719 35.2163 27.7082 31.5469C19.7933 29.7045 13.6753 27.5704 9.63675 25.3478C7.6159 24.2357 6.30844 23.2051 5.54945 22.3417C4.81372 21.5048 4.76715 21.0372 4.76715 20.889C4.76715 20.7409 4.81372 20.2733 5.54945 19.4364C6.30844 18.573 7.6159 17.5424 9.63675 16.4303C13.6753 14.2077 19.7933 12.0736 27.7082 10.2312C43.4719 6.56179 65.4574 4.25335 89.8867 4.25335C114.316 4.25335 136.301 6.56179 152.065 10.2312C159.98 12.0736 166.098 14.2077 170.137 16.4303C172.157 17.5424 173.465 18.573 174.224 19.4364C174.96 20.2733 175.006 20.7409 175.006 20.889Z" fill="url(#paint0_linear)"/>
<path d="M175.006 20.889C175.006 21.0372 174.96 21.5048 174.224 22.3417C173.465 23.2051 172.157 24.2357 170.137 25.3478C166.098 27.5704 159.98 29.7045 152.065 31.5469C136.301 35.2163 114.316 37.5247 89.8867 37.5247C65.4574 37.5247 43.4719 35.2163 27.7082 31.5469C19.7933 29.7045 13.6753 27.5704 9.63675 25.3478C7.6159 24.2357 6.30844 23.2051 5.54945 22.3417C4.81372 21.5048 4.76715 21.0372 4.76715 20.889C4.76715 20.7409 4.81372 20.2733 5.54945 19.4364C6.30844 18.573 7.6159 17.5424 9.63675 16.4303C13.6753 14.2077 19.7933 12.0736 27.7082 10.2312C43.4719 6.56179 65.4574 4.25335 89.8867 4.25335C114.316 4.25335 136.301 6.56179 152.065 10.2312C159.98 12.0736 166.098 14.2077 170.137 16.4303C172.157 17.5424 173.465 18.573 174.224 19.4364C174.96 20.2733 175.006 20.7409 175.006 20.889Z" stroke="black" stroke-width="8.2843"/>
<path d="M2.15808 22.6604L9.58462 21.844L32.6079 234.829L25.1004 231.354L2.15808 22.6604Z" fill="black"/>
<path d="M177.465 24.4897L170.039 23.6733L147.51 236.339L154.523 233.183L177.465 24.4897Z" fill="black"/>
<defs>
<linearGradient id="paint0_linear" x1="89.8867" y1="0.111206" x2="89.8867" y2="41.6669" gradientUnits="userSpaceOnUse">
<stop/>
<stop offset="1" stop-color="white" stop-opacity="0"/>
</linearGradient>
</defs>
</svg>
