<svg width="73" height="104" viewBox="0 0 73 104" fill="none" xmlns="http://www.w3.org/2000/svg">
<path d="M70.8629 9.26123C70.8629 9.32136 70.844 9.51105 70.5455 9.85062C70.2375 10.2009 69.707 10.6191 68.8871 11.0703C67.2485 11.9721 64.7662 12.838 61.5548 13.5855C55.1589 15.0743 46.2385 16.011 36.3266 16.011C26.4147 16.011 17.4944 15.0743 11.0984 13.5855C7.88705 12.838 5.40473 11.9721 3.76615 11.0703C2.94622 10.6191 2.41573 10.2009 2.10778 9.85062C1.80927 9.51105 1.79037 9.32136 1.79037 9.26123C1.79037 9.20111 1.80927 9.01141 2.10778 8.67184C2.41573 8.32154 2.94622 7.90338 3.76615 7.45214C5.40473 6.55036 7.88705 5.68446 11.0984 4.93693C17.4944 3.44812 26.4147 2.5115 36.3266 2.5115C46.2385 2.5115 55.1589 3.44812 61.5548 4.93693C64.7662 5.68446 67.2485 6.55036 68.8871 7.45214C69.707 7.90338 70.2375 8.32154 70.5455 8.67184C70.844 9.01141 70.8629 9.20111 70.8629 9.26123Z" stroke="white" stroke-width="3.36126"/>
<path fill-rule="evenodd" clip-rule="evenodd" d="M10.1071 94.6548C10.0629 94.8548 10.0404 95.0568 10.0404 95.2604C10.0404 99.9163 21.7958 103.691 36.2968 103.691C50.7133 103.691 62.4161 99.9602 62.5521 95.3417C60.0101 96.4476 56.9689 97.3862 53.5603 98.1081C49.238 99.4518 43.1502 100.329 36.2968 100.329C29.2968 100.329 23.0955 99.4138 18.7583 98.0212C17.6571 97.6676 16.7234 97.2982 15.9518 96.9306C13.7617 96.2668 11.7968 95.5019 10.1071 94.6548Z" fill="white"/>
<path d="M0.731689 9.97992L3.74492 9.64867L13.0864 96.065L10.0403 94.6547L0.731689 9.97992Z" fill="white"/>
<path d="M71.8606 10.7222L68.8474 10.3909L59.7066 96.6774L62.552 95.397L71.8606 10.7222Z" fill="white"/>
<rect x="8.09619" y="20.1148" width="2.39918" height="15.093" rx="1.19959" transform="rotate(-5.21055 8.09619 20.1148)" fill="white"/>
<rect x="13.0159" y="24.3613" width="2.39918" height="15.093" rx="1.19959" transform="rotate(-3.95695 13.0159 24.3613)" fill="white"/>
</svg>
